# https://github.com/mikedh/trimesh
mtllib material.mtl

o geometry_0.001
usemtl Material_0.001
v -0.01109016 -0.00009231 0.00905475
v -0.01115386 -0.00072143 0.00802311
v -0.01083626 -0.00165839 0.00812195
v -0.00680452 -0.00142383 0.00822761
v -0.00389254 -0.00075598 0.00782083
v -0.01536860 -0.00121644 0.00822287
v -0.00085800 -0.00236427 0.00836829
v -0.00965874 -0.00042845 0.00847088
v -0.00251577 -0.00017836 0.00836008
v -0.00866348 -0.00000503 0.00869488
v -0.00150089 0.00106897 0.00907735
v 0.00071731 -0.00039420 0.00883069
v 0.00286651 0.00010096 0.00877570
v 0.00408109 0.00076802 0.00924391
v 0.00223463 -0.00193873 0.00907111
v -0.00024949 -0.00239874 0.00864999
v 0.00345106 -0.00098240 0.00916198
v -0.00756928 0.00033015 0.00911282
v -0.02656423 -0.00128375 0.00792706
v -0.01831257 -0.00039631 0.00894237
v 0.00494948 0.00159333 0.01029331
v 0.00472550 0.00046341 0.01082460
v 0.05466947 0.00279762 0.00531279
v 0.05230261 0.00265766 0.01079552
v 0.05377273 0.00280473 0.00342155
v 0.06239400 0.00301717 0.00377242
v 0.05699848 0.00285587 0.01053151
v 0.07203025 0.00299099 0.00800696
v 0.06698311 0.00297588 0.00444842
v 0.07458390 0.00310452 0.00503767
v 0.08018602 0.00336087 0.00572450
v 0.08640923 0.00357438 0.00579688
v 0.08304524 0.00345380 0.00516981
v 0.07111572 0.00308507 0.00979550
v 0.04948666 0.00237088 0.00368084
v 0.04872582 0.00238443 0.01107998
v 0.04507662 0.00225252 0.00328102
v 0.04177119 0.00220029 0.01116684
v 0.04081814 0.00217054 0.00327204
v 0.03473840 0.00190833 0.00633603
v 0.03398205 0.00190509 0.01114318
v 0.03249615 0.00159037 0.00513353
v 0.03065675 0.00151488 0.01097092
v 0.07628570 0.00329039 0.00452625
v 0.05180847 0.00267361 0.00325400
v 0.06011443 0.00319149 0.00339759
v 0.08756711 0.00345233 0.00847498
v 0.02869883 0.00082981 0.01004415
v 0.02945420 0.00067456 0.00560766
v 0.06940836 0.00318559 0.01025403
v 0.02838123 0.00007603 0.00371184
v 0.07681362 0.00344958 0.00975036
v 0.02760617 0.00020609 0.00959885
v 0.02790073 0.00032615 0.00663936
v 0.02825131 -0.00000408 0.00449724
v 0.05701113 0.00305030 0.01088959
v 0.02774991 0.00027287 0.00315646
v 0.02940314 0.00086012 0.01089142
v 0.02832277 0.00022421 0.01091974
v 0.05571435 -0.00261643 0.00574992
v 0.04790034 -0.00229404 0.00670738
v 0.05152395 -0.00244033 0.00334522
v 0.05725773 -0.00271245 0.00369851
v 0.06069332 -0.00269963 0.01062021
v 0.06062300 -0.00265187 0.00516036
v 0.06553040 -0.00293414 0.00446965
v 0.06741492 -0.00303372 0.00805355
v 0.06960533 -0.00320602 0.00986872
v 0.03453991 -0.00207547 0.00723086
v 0.03933471 -0.00220764 0.00367902
v 0.02890793 -0.00190371 0.01100349
v 0.02964840 -0.00192288 0.00924666
v 0.03248502 -0.00194971 0.00335441
v 0.07511173 -0.00334188 0.00790507
v 0.06889505 -0.00327714 0.00439992
v 0.07687966 -0.00358996 0.00467955
v 0.08010215 -0.00381684 0.00927342
v 0.08242671 -0.00408546 0.00525925
v 0.07638235 -0.00365472 0.00988530
v 0.08761016 -0.00396764 0.00801823
v 0.08750920 -0.00392495 0.00644108
v 0.08044038 -0.00392500 0.00471305
v 0.02977765 -0.00173198 0.00594606
v 0.03039067 -0.00170137 0.00360653
v 0.03989050 -0.00230607 0.00317471
v 0.06540313 -0.00311492 0.00364580
v 0.02850244 -0.00114345 0.00375607
v 0.07677546 -0.00376632 0.00419971
v 0.06522210 -0.00310031 0.01059317
v 0.02831954 -0.00089305 0.00585498
v 0.02821809 -0.00068005 0.00873911
v 0.02761075 -0.00046990 0.00956155
v 0.02784075 -0.00081404 0.00620654
v 0.08754053 -0.00429260 0.00577965
v 0.05306338 -0.00280128 0.00325571
v 0.02763805 -0.00013039 0.00508192
v 0.02824308 -0.00052115 0.00412212
v -0.01012838 -0.00281558 0.01101466
v -0.00506419 -0.00273230 0.01093230
v -0.00736591 -0.00225408 0.00829205
v -0.01370831 -0.00233366 0.00846747
v -0.02240937 -0.00303468 0.01169815
v -0.00300601 -0.00231066 0.00836777
v 0.00007785 -0.00277412 0.00992421
v -0.02072449 -0.00238552 0.00887472
v -0.03375018 -0.00304605 0.01159893
v -0.01032695 -0.00301936 0.01168063
v -0.03093535 -0.00218576 0.00897179
v -0.03436043 -0.00211701 0.00870544
v -0.03773977 -0.00206726 0.00922025
v 0.00188194 -0.00257182 0.00912753
v -0.00118202 -0.00279829 0.01113894
v -0.03987209 -0.00225907 0.00970393
v -0.04281534 -0.00285762 0.01096914
v -0.04522154 -0.00309217 0.01152728
v -0.02259234 -0.00201221 0.00825504
v -0.04397407 -0.00230776 0.01027799
v 0.00278995 -0.00246430 0.01002472
v -0.04698050 -0.00228015 0.01078587
v -0.04742888 -0.00254645 0.01118682
v -0.02806706 -0.00177646 0.00831008
v -0.04018094 -0.00184749 0.00931261
v -0.03198059 -0.00151564 0.00837975
v -0.03433808 -0.00149541 0.00822680
v -0.01350242 -0.00192390 0.00806864
v -0.01994172 -0.00171926 0.00833511
v 0.00375507 -0.00170633 0.00997945
v -0.01829175 0.00015017 0.01013316
v -0.02038059 -0.00020787 0.00981270
v -0.01912605 0.00002584 0.00952243
v -0.02235286 0.00003031 0.01105342
v -0.01747185 0.00056269 0.01156912
v -0.02374078 -0.00056112 0.00908225
v -0.02506749 -0.00022407 0.01076495
v -0.02633926 -0.00085479 0.00813627
v -0.03022815 -0.00035169 0.01009359
v -0.02929775 -0.00088763 0.00850900
v -0.03312205 -0.00087884 0.00897382
v -0.03747543 -0.00084717 0.01059548
v -0.03036386 -0.00013478 0.01181547
v -0.02284549 0.00004227 0.01159300
v -0.03761943 -0.00071839 0.01175348
v -0.04339360 -0.00140090 0.01006158
v -0.04305523 -0.00104361 0.01180517
v -0.03979842 -0.00140807 0.00946344
v -0.03613665 -0.00133794 0.00902058
v -0.01615790 -0.00009302 0.01002865
v -0.02216023 0.00044090 0.01186987
v -0.01497191 0.00069361 0.01122407
v -0.01755192 -0.00040582 0.00899150
v -0.01672813 0.00012443 0.00992536
v -0.01502577 0.00004384 0.01020245
v -0.01578782 -0.00020088 0.00949609
v -0.01294247 0.00048999 0.01060390
v -0.02338191 -0.00113549 0.00819252
v -0.03783547 -0.00043948 0.01217687
v -0.02812940 0.00016797 0.01206296
v -0.03555626 -0.00160141 0.00849256
v -0.01552399 -0.00078286 0.00861734
v -0.01494828 0.00015655 0.00999848
v -0.00918324 0.00061026 0.01004764
v -0.00812648 0.00127418 0.01157240
v -0.00852287 0.00063589 0.00978337
v -0.00656092 0.00147815 0.01124314
v -0.01491795 -0.00076298 0.00804013
v -0.01543449 0.00122267 0.01183597
v -0.02064849 -0.00096576 0.00871561
v -0.00560519 0.00145632 0.01028680
v -0.00369938 0.00143074 0.01080351
v -0.00221230 0.00165287 0.01111373
v 0.00494109 0.00195403 0.01095877
v 0.00094170 0.00165671 0.00992378
v 0.00364423 0.00154111 0.00927629
v 0.00247769 0.00138081 0.00901885
v 0.00080772 0.00114383 0.00910847
v -0.00168613 0.00158705 0.00983010
v -0.00282456 0.00157136 0.01051895
v -0.05009812 -0.00234433 0.01169265
v -0.05488934 -0.00249777 0.01235013
v -0.00247105 0.00175995 0.00909656
v -0.05411248 -0.00134949 0.01306033
v -0.00381040 0.00266482 0.00876557
v -0.00283380 0.00205930 0.00754294
v -0.00439713 0.00289035 0.00534418
v -0.00465420 0.00269383 0.00912724
v -0.00288060 0.00189997 0.00568926
v 0.05464945 0.00571323 0.00334668
v 0.05022396 0.00544990 0.00312078
v 0.06018242 0.00536882 0.00334783
v 0.06981718 0.00516317 0.00377425
v 0.03938695 0.00551022 0.00293453
v 0.00353061 -0.00236159 0.00229131
v 0.00114716 -0.00616442 0.00221967
v 0.00054687 -0.00280910 0.00220822
v -0.00567064 -0.00556260 0.00202068
v 0.00859058 -0.00423097 0.00227373
v 0.00803005 0.00109320 0.00236777
v 0.00406709 0.00043945 0.00245337
v -0.00884868 -0.00266675 0.00211233
v -0.01738193 -0.00275757 0.00200432
v -0.02692667 -0.00541236 0.00185568
v -0.02896727 -0.00257241 0.00191015
v -0.04234432 -0.00536384 0.00182931
v -0.03781233 -0.00231160 0.00191438
v -0.05075607 -0.00286272 0.00178655
v -0.05147826 -0.00520129 0.00182297
v -0.05586231 -0.00496943 0.00157185
v 0.00098188 -0.00154585 0.00249044
v 0.00118614 0.00211653 0.00219905
v 0.00381997 0.00203941 0.00231445
v 0.00894123 0.00600695 0.00234072
v -0.00548302 0.00414399 0.00203416
v -0.00183543 -0.00068706 0.00217806
v -0.01026499 -0.00030824 0.00209796
v -0.01633592 0.00344203 0.00196868
v -0.01652604 -0.00050615 0.00200896
v -0.02333758 -0.00062438 0.00197919
v -0.02792260 0.00219245 0.00185730
v -0.03623316 0.00118737 0.00176578
v -0.03265145 -0.00055849 0.00190091
v -0.04436560 0.00091033 0.00168788
v -0.04445547 -0.00041073 0.00170272
v -0.04736482 -0.00067615 0.00149818
v -0.05552569 -0.00056775 0.00121455
v -0.05651156 -0.00377158 0.00142939
v -0.06467362 -0.00475524 0.00118428
v 0.00893833 0.00005463 0.00249569
v -0.01607089 -0.00165601 0.00216698
v -0.02302801 -0.00151216 0.00218396
v -0.02871463 -0.00148238 0.00208990
v -0.05758644 -0.00205104 0.00110933
v -0.05194159 -0.00088638 0.00145589
v -0.06373533 -0.00101400 0.00080916
v -0.06540973 -0.00199382 0.00069633
v -0.07250754 -0.00166459 0.00027743
v -0.07668807 -0.00252199 0.00000000
v -0.06769749 -0.00410939 0.00083500
v -0.04958319 -0.00180826 0.00187182
v -0.04486126 -0.00176983 0.00199004
v -0.04097786 -0.00142547 0.00197207
v -0.00768538 -0.00159380 0.00235943
v -0.00376427 -0.00196732 0.00235204
v -0.03621241 -0.00134608 0.00209570
v -0.07934570 -0.00326531 0.00006778
v -0.08173542 -0.00242197 0.00020770
v -0.01964817 -0.00601300 0.00203121
v -0.03680068 -0.00568618 0.00192486
v -0.02448715 0.00296202 0.00198968
v -0.05713655 -0.00536320 0.00189179
v 0.00934218 -0.00419325 0.00256660
v 0.00997411 0.00157793 0.00228683
v 0.01025568 -0.00591828 0.00241662
v 0.01652678 -0.00630001 0.00214279
v 0.01652612 0.00614893 0.00217402
v 0.02073656 -0.00128050 0.00233061
v 0.02171342 0.00439360 0.00246606
v 0.02164012 -0.00566687 0.00251479
v 0.02340432 -0.00043124 0.00260395
v 0.01024845 0.00600659 0.00252650
v 0.02219697 0.00581118 0.00263643
v 0.00941861 0.00511263 0.00257520
v 0.02384594 0.00216418 0.00280990
v 0.02687547 0.00549125 0.00280923
v 0.03127077 0.00170152 0.00292024
v 0.04380230 0.00268082 0.00304641
v 0.06901185 0.00335350 0.00381638
v 0.07735179 0.00451797 0.00432274
v 0.07533532 0.00338563 0.00426030
v 0.08120939 0.00354390 0.00476572
v 0.02444457 0.00002453 0.00313194
v 0.02755824 -0.00030782 0.00321750
v 0.02749549 -0.00199141 0.00297811
v 0.02357195 -0.00329917 0.00287879
v 0.03760196 -0.00557446 0.00295852
v 0.03064291 -0.00200636 0.00296246
v 0.04362861 -0.00257299 0.00309490
v 0.04777153 -0.00553930 0.00313800
v 0.06525107 -0.00535816 0.00364977
v 0.07002817 -0.00361031 0.00386420
v 0.07231767 -0.00491080 0.00393201
v 0.07994750 -0.00455652 0.00443200
v 0.02828684 -0.00137882 0.00320863
v 0.08774024 0.00414912 0.00582675
v 0.00972658 -0.00628858 0.00259827
v 0.08345906 -0.00438471 0.00501739
v 0.08778763 -0.00484206 0.00597872
v -0.08270886 -0.00323340 0.00068903
v -0.08493858 -0.00278953 0.00168055
v 0.03099143 0.00067012 0.00339269
v 0.03346783 0.00167649 0.00329230
v -0.08302636 -0.00184017 0.00087452
v -0.07123429 -0.00461767 0.00124179
v 0.07478011 -0.00519936 0.00446736
v -0.08349932 -0.00386129 0.00143020
v -0.08648865 -0.00234693 0.00309392
v -0.08647900 -0.00310768 0.00326009
v 0.00964279 0.00595642 0.00320927
v -0.00580568 0.00126044 0.00540884
v -0.00589147 0.00076460 0.00900741
v -0.00547435 -0.00000098 0.00808315
v -0.00511133 0.00021920 0.00460275
v -0.00472506 -0.00062296 0.00785879
v -0.00538120 0.00144188 0.00455030
v -0.00584659 0.00159362 0.00879481
v -0.00564278 -0.00062924 0.00833317
v -0.00529890 0.00241498 0.00488970
v -0.00547759 0.00234953 0.00880835
v -0.00528620 0.00174514 0.01030761
v -0.08684330 -0.00407540 0.00837644
v -0.08778244 -0.00333204 0.00635255
v -0.08766346 -0.00252780 0.00858083
v -0.08575218 -0.00395339 0.01062259
v -0.08346461 -0.00398121 0.01250731
v -0.08297164 -0.00463823 0.01195731
v -0.08512166 -0.00452747 0.00969502
v -0.08079399 -0.00486872 0.01261427
v -0.08685297 -0.00392405 0.00519779
v -0.08005922 -0.00380723 0.01375397
v -0.07633518 -0.00475202 0.01355001
v -0.08675482 -0.00369666 0.00430990
v 0.00040608 -0.00652561 0.00312743
v -0.01137925 -0.00634340 0.00566235
v -0.01954455 -0.00618562 0.00296790
v -0.02268035 -0.00620286 0.00616434
v -0.03140838 -0.00605837 0.00348765
v -0.03068055 -0.00611948 0.00859220
v 0.00024467 -0.00662984 0.00990709
v 0.00878524 -0.00670970 0.00507720
v -0.00748421 -0.00637329 0.01114513
v -0.02348033 -0.00614392 0.01125909
v -0.03486670 -0.00603188 0.01146443
v -0.03394958 -0.00593545 0.00248694
v -0.05037850 -0.00588892 0.00519208
v -0.04485657 -0.00592791 0.01157875
v -0.05165357 -0.00584280 0.01193699
v -0.04798926 -0.00583201 0.00258206
v -0.05871170 -0.00556176 0.00953941
v -0.06990010 -0.00512459 0.01234373
v -0.06804390 -0.00516183 0.00270107
v -0.05827554 -0.00554889 0.00313628
v -0.08065607 -0.00485488 0.00623472
v -0.07544289 -0.00496137 0.00321482
v -0.08285119 -0.00477150 0.01087980
v -0.05805143 -0.00551750 0.01224886
v -0.08546549 -0.00446599 0.00570533
v -0.08374904 -0.00451373 0.00315186
v 0.00912488 -0.00656369 0.00295649
v -0.07633106 -0.00477503 0.00179731
v -0.08163093 -0.00444746 0.00172677
v -0.05862097 -0.00537913 0.00203318
v 0.00086306 -0.00649372 0.01079766
v -0.00329848 -0.00629255 0.00239344
v -0.03668601 -0.00585782 0.01174688
v 0.00911312 -0.00626554 0.00236326
v -0.07952596 -0.00411928 0.00050424
v -0.08495163 -0.00393725 0.00253472
v 0.00943429 -0.00632875 0.00305570
v 0.01042309 -0.00677927 0.00817134
v 0.01549369 -0.00683028 0.01088020
v 0.01413895 -0.00696485 0.00826934
v 0.01345841 -0.00688829 0.00542939
v 0.01050369 -0.00663680 0.00320133
v 0.01414430 -0.00679654 0.00426980
v 0.01439082 -0.00668733 0.00264165
v 0.01698520 -0.00673271 0.00379985
v 0.01720956 -0.00664503 0.00253991
v 0.01870682 -0.00673174 0.00478494
v 0.01948928 -0.00660332 0.00323379
v 0.01610025 -0.00689927 0.00945669
v 0.01876892 -0.00692972 0.00829907
v 0.02133333 -0.00680416 0.00702550
v 0.02232900 -0.00662824 0.00967991
v 0.02734413 -0.00685595 0.00717436
v 0.02513513 -0.00640388 0.01095732
v 0.02285963 -0.00647019 0.00466187
v 0.03755886 -0.00672055 0.00838816
v 0.03581214 -0.00673098 0.00735117
v 0.05114880 -0.00661443 0.00725429
v 0.05211664 -0.00657046 0.00832843
v 0.05756746 -0.00633129 0.00698155
v 0.06666643 -0.00614370 0.00817020
v 0.06460872 -0.00594303 0.00569735
v 0.07702899 -0.00567729 0.00724128
v 0.07553284 -0.00582676 0.00846333
v 0.08217942 -0.00549411 0.00857300
v 0.08067875 -0.00527226 0.00543351
v 0.08716005 -0.00507472 0.00641837
v 0.08756790 -0.00513472 0.00809062
v 0.03634115 -0.00637533 0.00504004
v 0.05105358 -0.00622354 0.00511757
v 0.05940370 -0.00598237 0.01067827
v 0.05652965 -0.00572056 0.00383993
v 0.01542949 -0.00714250 0.00826998
v 0.01764704 -0.00716527 0.00526304
v 0.01482016 -0.00749324 0.00527090
v 0.02782307 -0.00598881 0.00314805
v 0.04233829 -0.00592695 0.00370194
v 0.02322190 -0.00593096 0.00279186
v 0.01749133 -0.00735939 0.00464844
v 0.01497720 -0.00750000 0.00461831
v 0.08133627 -0.00490848 0.00479694
v 0.05572239 -0.00545395 0.00329838
v 0.05840939 -0.00584247 0.01090068
v 0.02789944 -0.00085919 0.01052879
v -0.08748357 -0.00160671 0.00794362
v -0.08804473 -0.00258382 0.00696204
v -0.08758529 -0.00155875 0.00636694
v -0.08630852 -0.00177181 0.01077567
v -0.08582045 -0.00065629 0.00934086
v -0.08507162 -0.00083054 0.01088392
v -0.08280750 -0.00047160 0.01202502
v -0.08189940 -0.00039404 0.01231316
v -0.08102550 -0.00151387 0.01367066
v -0.08767792 -0.00250478 0.00499556
v -0.08666470 -0.00153039 0.00417981
v -0.08516895 -0.00168411 0.00219818
v -0.01972422 0.00346829 0.00814474
v -0.01522013 0.00384740 0.00305653
v -0.02543367 0.00300110 0.00289319
v -0.02224711 0.00321290 0.01159428
v -0.02944356 0.00260424 0.00840619
v -0.01575474 0.00388556 0.01102268
v -0.03048081 0.00241243 0.01172754
v -0.03508906 0.00200897 0.01043990
v -0.03062078 0.00245696 0.00273896
v -0.04117027 0.00134538 0.00270652
v -0.04157823 0.00130159 0.00956843
v -0.04332158 0.00105245 0.01187619
v -0.04862487 0.00081267 0.00255402
v -0.05063109 0.00051453 0.01177447
v -0.05244583 0.00029264 0.00215616
v -0.05753242 -0.00017898 0.00857016
v -0.05713703 -0.00021407 0.00249376
v -0.05741284 -0.00023273 0.01225353
v -0.01042721 0.00439965 0.00256690
v -0.00632033 0.00489901 0.00316548
v -0.00202633 0.00532186 0.00272404
v 0.00309489 0.00587850 0.01050471
v 0.00865812 0.00645178 0.01050591
v 0.00262233 0.00580487 0.00273697
v 0.00905171 0.00634911 0.00303179
v -0.06387734 -0.00060198 0.00247725
v -0.06191234 -0.00033858 0.01251284
v -0.01718475 0.00357274 0.00231624
v -0.07058889 -0.00047590 0.01253305
v -0.07463253 -0.00077618 0.00243615
v -0.08480273 -0.00080695 0.00389422
v -0.08612394 -0.00080757 0.00567186
v -0.08252326 -0.00097748 0.00164608
v -0.08004148 -0.00103613 0.00098100
v -0.07086994 -0.00081889 0.00191521
v -0.05887375 -0.00059791 0.00139954
v -0.03753580 0.00160278 0.00197268
v -0.04900616 0.00043168 0.00150018
v -0.03225607 0.00200940 0.00189433
v 0.00560086 0.00590233 0.00237835
v -0.07219265 -0.00114105 0.00087297
v 0.00984388 0.00622841 0.00844228
v -0.06364675 -0.00057751 0.01312304
v -0.04991668 0.00028514 0.01246240
v -0.01158574 0.00391046 0.01157028
v -0.00370655 0.00483096 0.00211362
v -0.07939919 -0.00151784 0.00013227
v 0.00844829 0.00580456 0.01085470
v -0.05713684 -0.00078279 0.01295295
v 0.01037176 0.00631702 0.00306328
v 0.01128812 0.00654800 0.00681255
v 0.01044568 0.00637414 0.01044091
v 0.01413806 0.00669071 0.00836422
v 0.01393397 0.00659625 0.00460172
v 0.01238448 0.00645847 0.00390099
v 0.01516309 0.00637343 0.00250752
v 0.01639933 0.00643370 0.00392295
v 0.01582145 0.00664085 0.00935824
v 0.01884180 0.00625716 0.00273716
v 0.01920030 0.00647480 0.00452196
v 0.02110445 0.00641787 0.00975035
v 0.02158022 0.00629589 0.00428414
v 0.02017477 0.00653854 0.00730905
v 0.01899845 0.00668282 0.00860003
v 0.02551113 0.00668337 0.00703081
v 0.05122362 0.00646724 0.00910009
v 0.03986500 0.00661208 0.00775663
v 0.04684525 0.00660741 0.00734340
v 0.05108946 0.00660875 0.00723651
v 0.03621188 0.00634568 0.00535181
v 0.06282254 0.00624438 0.00842359
v 0.07132797 0.00586080 0.00703844
v 0.06005283 0.00621049 0.00644792
v 0.07316995 0.00559518 0.00923831
v 0.07928543 0.00535579 0.00786484
v 0.07922345 0.00534150 0.00654918
v 0.05936329 0.00610924 0.01027208
v 0.05196265 0.00628346 0.00517405
v 0.08495343 0.00473601 0.00609484
v 0.08463780 0.00480482 0.00865313
v 0.08023445 0.00510488 0.00910288
v 0.08762154 0.00448331 0.00602417
v 0.07121773 0.00550588 0.00477857
v 0.02739541 0.00622716 0.00460632
v 0.01563149 0.00686277 0.00832757
v 0.01460349 0.00700018 0.00568164
v 0.01850515 0.00684719 0.00536787
v 0.04324546 0.00609449 0.00437949
v 0.07812987 0.00501819 0.00458602
v 0.01709284 0.00711836 0.00465304
v 0.02776624 0.00573399 0.00292376
v 0.08320707 0.00457686 0.00492997
v 0.01468956 0.00750000 0.00475813
v 0.00949451 0.00562376 0.01062420
v -0.04335486 0.00072141 0.01224431
v -0.04593818 0.00038179 0.01251092
v 0.01031376 0.00596756 0.01086303
v -0.00268993 0.00076770 0.00734149
v -0.00284843 0.00042393 0.00554131
v -0.00316222 0.00003566 0.00722519
v -0.00320241 -0.00079091 0.00806324
v -0.00320477 0.00111191 0.00454268
v -0.00222186 0.00094760 0.00859885
v -0.00345357 -0.00045513 0.00630108
v -0.00509261 -0.00033358 0.00659376
v -0.00425352 -0.00038608 0.00511416
v -0.00527138 -0.00017200 0.00559361
v 0.00950283 -0.00661559 0.00743644
v 0.00641163 -0.00265406 0.01075533
v 0.00563417 -0.00296525 0.00980556
v 0.00549077 -0.00300641 0.01074037
v 0.00830587 -0.00335452 0.00968320
v 0.00923798 0.00639454 0.01062322
v 0.00939585 -0.00616158 0.01010361
v 0.08760299 0.00348519 0.00630140
v -0.00433796 0.00245689 0.00452020
v -0.00428441 0.00127296 0.00401779
v -0.00335376 0.00231246 0.00478776
v -0.00355637 0.00008917 0.00468550
v 0.00566307 -0.00549619 0.01070063
v 0.02446055 0.00156231 0.01116150
v 0.02507912 -0.00059279 0.01048056
v 0.02502259 0.00035721 0.01048232
v 0.02546005 0.00082369 0.01094947
v 0.02513135 -0.00057404 0.01087370
v 0.00732469 -0.00415512 0.00991561
v 0.00770190 -0.00291984 0.01002132
v 0.00841634 -0.00467112 0.01009723
v 0.00798976 -0.00549525 0.01071435
v 0.00916292 -0.00492085 0.01078615
v 0.00644376 -0.00486901 0.01025476
v 0.00879092 -0.00240416 0.01076174
v 0.00936403 -0.00208002 0.01121867
v 0.00985903 -0.00563777 0.01099647
v 0.00839755 -0.00314104 0.01037754
v 0.01500648 -0.00480953 0.01133944
v 0.01253044 -0.00007545 0.01145376
v 0.01645960 0.00033147 0.01154461
v 0.01189511 0.00338659 0.01130397
v 0.01472874 0.00526662 0.01121860
v 0.02297601 0.00505826 0.01111591
v 0.01568582 0.00647486 0.01090961
v 0.02654472 0.00120368 0.01123453
v 0.03018912 0.00173135 0.01133607
v 0.02729205 0.00565604 0.01114992
v 0.01455064 -0.00619613 0.01114345
v 0.02442306 -0.00554387 0.01111221
v 0.00910238 0.00285804 0.01112574
v 0.02492463 -0.00418108 0.01116836
v 0.03615460 0.00248051 0.01129327
v 0.04776398 0.00529211 0.01110950
v 0.02145582 0.00622456 0.01092078
v 0.04914587 0.00273151 0.01114631
v 0.05865435 0.00548488 0.01088052
v 0.07155015 0.00394957 0.01023593
v 0.07974795 0.00467025 0.00964621
v 0.08107011 0.00380331 0.00949131
v 0.08102808 0.00349326 0.00928924
v 0.07149016 0.00530388 0.01019799
v 0.08611856 0.00420957 0.00881319
v 0.05894586 0.00593765 0.01073360
v 0.04996207 0.00614339 0.01092744
v 0.08649924 0.00368544 0.00850901
v 0.08771318 0.00466792 0.00831604
v 0.08804473 0.00419764 0.00798286
v 0.02733307 -0.00058247 0.01099015
v 0.00851494 0.00208498 0.01053840
v 0.00797609 0.00184062 0.01086026
v 0.00901083 0.00442961 0.01071551
v 0.00478716 -0.00199955 0.01098627
v 0.00630210 0.00151700 0.01083195
v 0.00415172 -0.00185166 0.01086353
v 0.00192394 -0.00283011 0.01101228
v 0.00012999 -0.00547715 0.01101197
v -0.00526854 -0.00320180 0.01146579
v -0.00795389 -0.00542449 0.01148990
v 0.00758417 0.00251150 0.01116160
v 0.02838860 -0.00598427 0.01117456
v 0.04598202 -0.00621654 0.01098335
v 0.04618298 -0.00550639 0.01116742
v 0.04994244 -0.00274861 0.01124213
v 0.05739248 -0.00270596 0.01098065
v 0.07379047 -0.00514752 0.01020660
v 0.06880306 -0.00561575 0.01031551
v 0.07801083 -0.00542289 0.00950526
v 0.07071677 -0.00343627 0.01027444
v 0.07956004 -0.00488170 0.00962814
v 0.04903930 -0.00242633 0.01113821
v 0.03523384 -0.00219404 0.01116455
v 0.00496248 -0.00621774 0.01083065
v 0.00912442 -0.00677234 0.01055556
v -0.01584345 -0.00585003 0.01158074
v -0.02558983 -0.00361161 0.01190509
v -0.03349825 -0.00532877 0.01185862
v -0.03951849 -0.00358778 0.01208914
v -0.04780013 -0.00525892 0.01207108
v -0.04833833 -0.00364875 0.01212466
v -0.05546734 -0.00383118 0.01248709
v -0.05612551 -0.00526217 0.01236962
v -0.06014075 -0.00474312 0.01293214
v -0.05958709 -0.00334543 0.01281971
v -0.05862112 -0.00289530 0.01260831
v -0.06336997 -0.00288122 0.01316591
v -0.06703893 -0.00361666 0.01350703
v -0.06704018 -0.00231004 0.01374744
v -0.06361412 -0.00207721 0.01368348
v -0.06402723 -0.00141519 0.01362481
v -0.06868712 -0.00052176 0.01309441
v -0.05655686 -0.00200734 0.01317003
v -0.07580534 -0.00086957 0.01376748
v -0.07299980 -0.00222873 0.01414407
v -0.07053270 -0.00423660 0.01361653
v -0.07748942 -0.00253000 0.01431629
v -0.07886491 -0.00052426 0.01322235
v -0.07897634 -0.00257856 0.01433462
v -0.08204293 -0.00238638 0.01373438
v -0.08353097 -0.00160642 0.01282308
v -0.08442575 -0.00282237 0.01262032
v -0.08654052 -0.00263091 0.01082591
v -0.06257288 -0.00515144 0.01298747
v -0.05502964 -0.00302848 0.01227497
v -0.05042735 -0.00284774 0.01183275
v -0.04744059 -0.00163078 0.01128947
v -0.04589973 -0.00152175 0.01080223
v -0.04402057 -0.00176785 0.01014418
v -0.04284666 -0.00209710 0.00924104
v 0.08037290 -0.00409890 0.00948719
v 0.08559916 -0.00424594 0.00875475
v 0.08420791 -0.00517442 0.00881949
v 0.08789948 -0.00459220 0.00828756
v 0.00102029 0.00197607 0.01133149
v -0.00148448 0.00447817 0.01118741
v -0.00637900 0.00181748 0.01164997
v -0.00494043 0.00495250 0.01117327
v -0.00957285 0.00460704 0.01110301
v -0.01812632 0.00276607 0.01182046
v -0.02603598 0.00232626 0.01193536
v -0.00170911 0.00544929 0.01094091
v -0.03034144 0.00188857 0.01205147
v -0.03427586 0.00109722 0.01218741
v -0.03618972 0.00172231 0.01188279
v -0.04254858 0.00024800 0.01237237
v -0.04408863 -0.00076245 0.01234355
v -0.05129484 -0.00056658 0.01297588
v -0.04974295 -0.00128815 0.01260704
v -0.05278496 -0.00002284 0.01243321
v 0.00716400 -0.00592049 0.01088920
v 0.00641738 -0.00589206 0.01069010
v 0.00513167 -0.00423527 0.01074445
v 0.00525187 -0.00443971 0.00996640
v -0.07582030 -0.00436360 0.01380046
v 0.00964221 -0.00659099 0.01069149
v 0.02630164 -0.00215301 0.01123205
v 0.02989662 -0.00223114 0.01131075
v 0.02788058 -0.00147486 0.01096914
vt 0.70528996 0.93011385
vt 0.11645246 0.88815790
vt 0.70634401 0.94905418
vt 0.52227700 0.79388934
vt 0.12205467 0.90131581
vt 0.70427573 0.96385163
vt 0.68170393 0.95822215
vt 0.66534114 0.95013362
vt 0.29641849 0.83046877
vt 0.96465600 0.46787477
vt 0.49886122 0.79024601
vt 0.72992134 0.96022755
vt 0.64960104 0.98001724
vt 0.52095568 0.44350213
vt 0.69780719 0.94311869
vt 0.53018636 0.80377942
vt 0.65716422 0.94391036
vt 0.97225046 0.48160094
vt 0.53544271 0.80986804
vt 0.69233620 0.93530834
vt 0.57197261 0.83126569
vt 0.65030271 0.92546898
vt 0.63967156 0.95288569
vt 0.62815672 0.94931191
vt 0.62134695 0.94190168
vt 0.63254327 0.97900742
vt 0.50227678 0.45124245
vt 0.51759827 0.44788015
vt 0.64608842 0.98163670
vt 0.62540424 0.96677029
vt 0.49378443 0.44944394
vt 0.54103231 0.81773287
vt 0.68625051 0.92721075
vt 0.66216725 0.42763162
vt 0.79421765 0.97931355
vt 0.74716085 0.94688582
vt 0.48275593 0.80683279
vt 0.60052407 0.86098635
vt 0.47418979 0.42368734
vt 0.61385930 0.93247378
vt 0.47477090 0.44310117
vt 0.61310083 0.95153737
vt 0.41887864 0.96663040
vt 0.43156049 0.88047260
vt 0.42389476 0.99599779
vt 0.37659174 0.99202704
vt 0.40575576 0.88570112
vt 0.32349509 0.92766041
vt 0.35138863 0.98223895
vt 0.30965960 0.97438097
vt 0.27884752 0.96464032
vt 0.24466357 0.96463042
vt 0.02329244 0.18085992
vt 0.26318222 0.97381818
vt 0.04202043 0.17809892
vt 0.32838508 0.89957470
vt 0.44748288 0.99105531
vt 0.23226191 0.43158627
vt 0.45126307 0.87585431
vt 0.25021100 0.14438987
vt 0.47163886 0.99673998
vt 0.27025336 0.43103814
vt 0.48935318 0.87354779
vt 0.27348486 0.14110500
vt 0.49495944 0.99627161
vt 0.52811676 0.94774395
vt 0.31282094 0.43290710
vt 0.53202337 0.87285757
vt 0.54055911 0.96622026
vt 0.55038667 0.87498099
vt 0.30032557 0.98288435
vt 0.21343808 0.15349329
vt 0.43470636 0.99826854
vt 0.16799948 0.16396320
vt 0.38907433 0.99868423
vt 0.01930667 0.43738544
vt 0.80728060 0.41184211
vt 0.23798303 0.92319936
vt 0.56165391 0.88990128
vt 0.55796409 0.95900983
vt 0.33769557 0.89171422
vt 0.11911955 0.43009973
vt 0.56450444 0.98884749
vt 0.34080184 0.11038393
vt 0.25626072 0.45131576
vt 0.29705861 0.90071708
vt 0.07855517 0.43006623
vt 0.56847477 0.89691007
vt 0.25689003 0.58454436
vt 0.56668228 0.94291961
vt 0.24016774 0.58289474
vt 0.56539023 0.97677082
vt 0.25589067 0.46392143
vt 0.18690667 0.42601472
vt 0.40561199 0.87949181
vt 0.34494618 0.11046576
vt 0.56770992 0.99868423
vt 0.33803338 0.44762444
vt 0.55817980 0.87620133
vt 0.34415087 0.45623744
vt 0.56506348 0.87549019
vt 0.26437324 0.58357716
vt 0.83478600 0.84100682
vt 0.87785190 0.85418421
vt 0.85770696 0.80336046
vt 0.21120615 0.06202513
vt 0.82611579 0.80963409
vt 0.80785209 0.91677994
vt 0.80773753 0.83314323
vt 0.78065240 0.82400882
vt 0.77065247 0.87956494
vt 0.75879389 0.90822804
vt 0.95120734 0.85947746
vt 0.92463636 0.80606520
vt 0.98238206 0.91624546
vt 0.97824478 0.88924080
vt 0.96217245 0.79969990
vt 0.31809193 0.07798952
vt 0.72826272 0.87982196
vt 0.76204246 0.82381713
vt 0.71808958 0.83079326
vt 0.70082629 0.90247202
vt 0.06138274 0.55715173
vt 0.68746608 0.84143996
vt 0.72140348 0.91087341
vt 0.08216473 0.55176783
vt 0.65929139 0.88601923
vt 0.01926871 0.56829721
vt 0.97785109 0.64240754
vt 0.65961581 0.86174226
vt 0.97930682 0.61823308
vt 0.69839865 0.83252895
vt 0.04439279 0.02960640
vt 0.97733068 0.83848250
vt 0.97369772 0.80262619
vt 0.92153800 0.79834908
vt 0.27671969 0.06804913
vt 0.78119838 0.81103188
vt 0.13211146 0.04728121
vt 0.98456633 0.80396181
vt 0.71853238 0.82286787
vt 0.06605683 0.03328383
vt 0.14306431 0.53479618
vt 0.78291845 0.91846806
vt 0.98653674 0.83590305
vt 0.98834568 0.87944835
vt 0.99198872 0.89134407
vt 0.25671795 0.59540486
vt 0.98910707 0.84129411
vt 0.23778526 0.60131580
vt 0.65928370 0.85014349
vt 0.00195789 0.01694548
vt 0.98216045 0.60921055
vt 0.20254877 0.05566293
vt 0.84908956 0.79997760
vt 0.56880301 0.96769387
vt 0.99184740 0.82379955
vt 0.25626072 0.47763157
vt 0.23138548 0.59064597
vt 0.33903262 0.10126173
vt 0.98807013 0.80975342
vt 0.25966069 0.45967340
vt 0.57191169 0.48470461
vt 0.54410976 0.48356336
vt 0.55667931 0.44163859
vt 0.68481141 0.97142714
vt 0.59148699 0.44409537
vt 0.62333220 0.51746553
vt 0.63931984 0.49484992
vt 0.66106606 0.97659087
vt 0.53275293 0.44324172
vt 0.51584697 0.46857858
vt 0.63001209 0.44984972
vt 0.70156032 0.49295294
vt 0.55682921 0.50764489
vt 0.57302314 0.49552453
vt 0.68609029 0.44997931
vt 0.70484173 0.44576323
vt 0.72336149 0.45272410
vt 0.37079030 0.79770523
vt 0.50591058 0.45603758
vt 0.63469917 0.98815787
vt 0.52280825 0.48733568
vt 0.50664735 0.49749625
vt 0.73506290 0.46057045
vt 0.75128222 0.48211110
vt 0.76451975 0.49136585
vt 0.64028519 0.43875647
vt 0.77064490 0.98314178
vt 0.75766212 0.46856999
vt 0.74095535 0.51851684
vt 0.50084656 0.46974599
vt 0.77415842 0.47429985
vt 0.75751704 0.52559823
vt 0.77663821 0.48155630
vt 0.76079845 0.52983779
vt 0.80348080 0.98815787
vt 0.67035311 0.43774629
vt 0.35686803 0.80646908
vt 0.73673195 0.45171052
vt 0.82704997 0.98535049
vt 0.69182557 0.43597955
vt 0.40475047 0.79149723
vt 0.70478094 0.43363678
vt 0.39121455 0.79189926
vt 0.71913809 0.96994787
vt 0.59036320 0.43519485
vt 0.75568610 0.97284889
vt 0.62573016 0.43646479
vt 0.49420276 0.46706551
vt 0.62171751 0.98020941
vt 0.48293927 0.82742012
vt 0.47123936 0.82074761
vt 0.47837755 0.81801760
vt 0.46019024 0.84123224
vt 0.48745546 0.85085368
vt 0.45217663 0.80819350
vt 0.44469622 0.83614123
vt 0.43730038 0.79250872
vt 0.79315251 0.97090805
vt 0.41522843 0.82612151
vt 0.81101900 0.97306138
vt 0.42042011 0.79861009
vt 0.39844954 0.80663550
vt 0.37324449 0.83329350
vt 0.41452309 0.85456449
vt 0.45734194 0.84941930
vt 0.37247086 0.85267240
vt 0.33828849 0.82465500
vt 0.34046480 0.85454160
vt 0.35938528 0.81351149
vt 0.38079518 0.80528194
vt 0.49473768 0.82468879
vt 0.62165338 0.42056477
vt 0.46139824 0.85599363
vt 0.50127053 0.84718245
vt 0.48693007 0.80742037
vt 0.49140766 0.82381278
vt 0.50096458 0.82856572
vt 0.49699265 0.81639469
vt 0.51228559 0.83742267
vt 0.45420137 0.79109025
vt 0.77582550 0.97030342
vt 0.70710462 0.42307460
vt 0.37134483 0.86122018
vt 0.65418935 0.42049325
vt 0.42740756 0.85953283
vt 0.71153545 0.43820918
vt 0.38419610 0.79564923
vt 0.49830690 0.79957002
vt 0.50164568 0.82553148
vt 0.69408572 0.91415632
vt 0.53259665 0.83143538
vt 0.10414703 0.90131581
vt 0.53807020 0.85645133
vt 0.54512769 0.41803646
vt 0.53611982 0.82832289
vt 0.54626203 0.85297459
vt 0.72738570 0.95227182
vt 0.50211275 0.79244596
vt 0.58489203 0.41344243
vt 0.49889860 0.85983932
vt 0.76011574 0.95996702
vt 0.46963185 0.79951793
vt 0.55126870 0.84019971
vt 0.17106503 0.12852407
vt 0.56002212 0.85203230
vt 0.56673682 0.85874468
vt 0.60012323 0.87100154
vt 0.58224595 0.84943163
vt 0.59513789 0.84590805
vt 0.62263983 0.92933154
vt 0.58994198 0.83997804
vt 0.62911445 0.92923951
vt 0.58226049 0.83665764
vt 0.63806909 0.92932075
vt 0.57011700 0.84237880
vt 0.56419849 0.84943688
vt 0.29723254 0.84598070
vt 0.77576709 0.52958125
vt 0.80224615 0.53626591
vt 0.26781231 0.86096072
vt 0.56683344 0.83151150
vt 0.65453249 0.91184211
vt 0.98432964 0.48815787
vt 0.27366170 0.88289475
vt 0.79648542 0.47001719
vt 0.04853911 0.88743597
vt 0.56047660 0.82239813
vt 0.56645828 0.81095880
vt 0.98444861 0.46277463
vt 0.62208205 0.86942434
vt 0.56060684 0.77997261
vt 0.55678409 0.82478100
vt 0.56820393 0.78830135
vt 0.98257685 0.43414426
vt 0.19186506 0.24578255
vt 0.19822171 0.20131576
vt 0.22241104 0.19548953
vt 0.16793941 0.19724089
vt 0.11518466 0.19867593
vt 0.10782370 0.25779009
vt 0.28169549 0.19324702
vt 0.47919628 0.07078946
vt 0.51510680 0.63413221
vt 0.49248871 0.01357597
vt 0.49549255 0.06453609
vt 0.52947128 0.02398282
vt 0.45162874 0.04075336
vt 0.45420691 0.12287015
vt 0.47605842 0.11348623
vt 0.54653949 0.06848305
vt 0.59295583 0.06871903
vt 0.64505017 0.03005958
vt 0.65598279 0.07354105
vt 0.72895187 0.03313196
vt 0.70410669 0.07881802
vt 0.77464223 0.07255459
vt 0.77880716 0.03701073
vt 0.80277473 0.04243141
vt 0.49301893 0.08398426
vt 0.49167579 0.13969976
vt 0.47731608 0.13798803
vt 0.44936988 0.19782752
vt 0.44075438 0.21220636
vt 0.52780747 0.17169523
vt 0.50830740 0.09779650
vt 0.55407798 0.10506237
vt 0.58684176 0.16313708
vt 0.57949811 0.19780278
vt 0.58814555 0.10316831
vt 0.62522078 0.10270303
vt 0.65000153 0.14632881
vt 0.69531375 0.13244921
vt 0.67591172 0.10526335
vt 0.73961681 0.12949276
vt 0.73411840 0.18348116
vt 0.74020636 0.10941064
vt 0.75608993 0.10628468
vt 0.80046457 0.10950172
vt 0.79598278 0.17021120
vt 0.80619001 0.06096184
vt 0.85080415 0.04903448
vt 0.15727608 0.60453779
vt 0.44901815 0.10688770
vt 0.58573920 0.08541828
vt 0.62358725 0.08886045
vt 0.65453404 0.09030908
vt 0.81190294 0.08781052
vt 0.78096515 0.10340130
vt 0.84526962 0.10605741
vt 0.84112549 0.16229582
vt 0.85455626 0.09188104
vt 0.89318019 0.10015565
vt 0.88925540 0.14880973
vt 0.91608673 0.08879447
vt 0.86727250 0.06035799
vt 0.76812607 0.08822501
vt 0.74246287 0.08833307
vt 0.72129428 0.09301215
vt 0.54012543 0.08484739
vt 0.51884437 0.07847631
vt 0.69533086 0.09337944
vt 0.93056262 0.07843572
vt 0.94318587 0.09131742
vt 0.60548478 0.01934975
vt 0.40168774 0.62850791
vt 0.69874489 0.02722198
vt 0.30833766 0.62304479
vt 0.63124973 0.15758115
vt 0.62427002 0.19592839
vt 0.80971479 0.03479117
vt 0.19803251 0.61816293
vt 0.44694835 0.04065776
vt 0.44290388 0.13030696
vt 0.44126210 0.01524901
vt 0.40702400 0.00951558
vt 0.40685394 0.19956517
vt 0.40005782 0.21401995
vt 0.38387206 0.08600771
vt 0.37844133 0.17270321
vt 0.37891734 0.01863331
vt 0.36917880 0.09904271
vt 0.43298173 0.21619952
vt 0.44101307 0.19771266
vt 0.36985525 0.22221893
vt 0.37574854 0.19441676
vt 0.44592053 0.18623435
vt 0.36648470 0.13880038
vt 0.35010707 0.19027591
vt 0.32577300 0.13324630
vt 0.25726938 0.15121555
vt 0.34024951 0.99362940
vt 0.11926790 0.17060310
vt 0.07372817 0.19227672
vt 0.30553284 0.98737150
vt 0.08457285 0.17398900
vt 0.27324656 0.98043978
vt 0.05232170 0.17908251
vt 0.36284080 0.10603720
vt 0.34538466 0.10113597
vt 0.34600201 0.07440573
vt 0.36790985 0.05478746
vt 0.28987774 0.01622796
vt 0.71771771 0.65810108
vt 0.32850894 0.07346714
vt 0.97182870 0.79078948
vt 0.25577813 0.06183094
vt 0.77458197 0.66726494
vt 0.23274244 0.01402515
vt 0.87264270 0.68570870
vt 0.13321252 0.01130825
vt 0.10536531 0.03816795
vt 0.75563121 0.81502771
vt 0.09221170 0.01636016
vt 0.04763543 0.01905060
vt 0.98498225 0.79466575
vt 0.34159076 0.08411264
vt 0.01616416 0.19064105
vt 0.80978125 0.45394737
vt 0.44385228 0.00942278
vt 0.56238717 0.64146197
vt 0.68162477 0.83680767
vt 0.02662410 0.01896620
vt 0.99952877 0.73535854
vt 0.00047125 0.00727117
vt 0.98539114 0.61417198
vt 0.94873601 0.07902467
vt 0.96157050 0.08481443
vt 0.32720244 0.11584395
vt 0.54989672 0.99413484
vt 0.31361860 0.13039035
vt 0.53528112 0.99495763
vt 0.94777113 0.15396905
vt 0.95078480 0.10053474
vt 0.88656700 0.05060029
vt 0.12181838 0.60437483
vt 0.92620701 0.70411175
vt 0.07776362 0.00817686
vt 0.05510312 0.60344559
vt 0.95402157 0.06745827
vt 0.97297460 0.08936870
vt 0.96926254 0.18663573
vt 0.97325486 0.07725543
vt 0.03687448 0.62955284
vt 0.43658757 0.22608179
vt 0.44467130 0.20131576
vt 0.19679897 0.10221851
vt 0.67693973 0.92088872
vt 0.54984403 0.81911165
vt 0.17692521 0.11107069
vt 0.18027256 0.09328622
vt 0.63247108 0.91184211
vt 0.27662581 0.83512270
vt 0.20004746 0.08102852
vt 0.66983348 0.94740927
vt 0.29519567 0.84342104
vt 0.18074380 0.07763159
vt 0.62593722 0.90122449
vt 0.20216776 0.10058254
vt 0.17948303 0.12265259
vt 0.67536259 0.94514495
vt 0.17689557 0.08795547
vt 0.62158340 0.88839024
vt 0.55647320 0.77236843
vt 0.20196007 0.11767918
vt 0.55300128 0.82063794
vt 0.18083005 0.13552630
vt 0.55306959 0.84221309
vt 0.17141177 0.13552630
vt 0.03757688 0.70859289
vt 0.03131691 0.67919070
vt 0.02833257 0.71511209
vt 0.97807705 0.27873647
vt 0.04238617 0.74254328
vt 0.05379891 0.77505076
vt 0.96228337 0.58323604
vt 0.05757584 0.76372546
vt 0.04665590 0.72842228
vt 0.06933215 0.77395022
vt 0.03726751 0.66230893
vt 0.94090974 0.58055103
vt 0.99858624 0.20394737
vt 0.07234618 0.79868424
vt 0.91957647 0.59078944
vt 0.09320697 0.79007697
vt 0.99575871 0.26261801
vt 0.03727491 0.64849746
vt 0.51100791 0.64909923
vt 0.44655770 0.68556750
vt 0.40220368 0.64302182
vt 0.38490218 0.69109017
vt 0.33757246 0.64856684
vt 0.34114572 0.72630793
vt 0.50970227 0.75238937
vt 0.55658001 0.68024945
vt 0.54021925 0.55797088
vt 0.46742901 0.76982510
vt 0.38017014 0.76854688
vt 0.31812719 0.76894408
vt 0.32381126 0.63282746
vt 0.23441467 0.67038184
vt 0.26383495 0.76847279
vt 0.22688785 0.77218759
vt 0.78339183 0.58644801
vt 0.24759291 0.63147628
vt 0.18884043 0.73390824
vt 0.12807557 0.77322412
vt 0.13900204 0.62823457
vt 0.19179721 0.63720882
vt 0.07069325 0.67844003
vt 0.09900586 0.63419396
vt 0.05853955 0.74728000
vt 0.81870955 0.58715951
vt 0.19213191 0.77504599
vt 0.04504386 0.66981381
vt 0.05417402 0.63164634
vt 0.55854005 0.64791286
vt 0.09428029 0.61256343
vt 0.06563323 0.61029881
vt 0.81781125 0.03312349
vt 0.18999326 0.62023491
vt 0.49435607 0.55311960
vt 0.51300192 0.76626408
vt 0.49082816 0.63694179
vt 0.30819330 0.77345383
vt 0.70104468 0.57317072
vt 0.55862033 0.63782406
vt 0.44957325 0.00967556
vt 0.93178487 0.06404406
vt 0.07698351 0.59078950
vt 0.04709237 0.62089473
vt 0.96400052 0.06439131
vt 0.56069261 0.64868206
vt 0.44610626 0.00744575
vt 0.56548834 0.72805756
vt 0.41563928 0.55758995
vt 0.59282678 0.77241051
vt 0.58593172 0.73142534
vt 0.58267957 0.68746710
vt 0.56675214 0.65183437
vt 0.58664107 0.66952240
vt 0.58817160 0.64454007
vt 0.41883853 0.00131577
vt 0.60222399 0.66317713
vt 0.60366434 0.64389342
vt 0.40320712 0.00182861
vt 0.61155140 0.67972976
vt 0.61620331 0.65587610
vt 0.59646177 0.75082564
vt 0.61128896 0.73426586
vt 0.62582499 0.71578962
vt 0.63085729 0.75781298
vt 0.65937144 0.72145128
vt 0.36288601 0.55662274
vt 0.64622432 0.77950549
vt 0.63480657 0.67931414
vt 0.71622682 0.74612606
vt 0.70667362 0.72890973
vt 0.79253513 0.73617649
vt 0.79774421 0.75346750
vt 0.82862455 0.73522478
vt 0.87955290 0.75901568
vt 0.86850500 0.71875584
vt 0.93822497 0.74995536
vt 0.92951363 0.76842940
vt 0.96707761 0.77387106
vt 0.05014227 0.59078950
vt 0.95928478 0.72323430
vt 0.99576104 0.74242616
vt 0.99775106 0.76909667
vt 0.02021443 0.58836764
vt 0.98539114 0.64735305
vt 0.71013117 0.69265902
vt 0.79247969 0.70217407
vt 0.83825952 0.79489845
vt 0.17561755 0.57541621
vt 0.82350487 0.68432635
vt 0.59308475 0.73204136
vt 0.60545480 0.68799615
vt 0.59059864 0.68689317
vt 0.66291088 0.65749639
vt 0.74399835 0.67424703
vt 0.63728869 0.64922243
vt 0.37008920 0.01412743
vt 0.60430193 0.67928612
vt 0.59157360 0.67862743
vt 0.96325129 0.71229511
vt 0.03937903 0.01164329
vt 0.81912929 0.67428124
vt 0.18770486 0.01277745
vt 0.18105191 0.57139176
vt 0.83264381 0.79868424
vt 0.98986965 0.90646058
vt 0.34608707 0.47421110
vt 0.26221403 0.60131580
vt 0.97323531 0.26658976
vt 0.02686145 0.68852890
vt 0.97973609 0.25061965
vt 0.97312611 0.24229556
vt 0.96831697 0.31396848
vt 0.98013186 0.53789389
vt 0.96284604 0.28855103
vt 0.95940250 0.31296718
vt 0.94679517 0.33109546
vt 0.94192332 0.33560455
vt 0.94678366 0.54288882
vt 0.93825471 0.36447370
vt 0.97679973 0.21768022
vt 0.02842061 0.65584475
vt 0.98539114 0.08308440
vt 0.96805310 0.20828742
vt 0.95985776 0.17602086
vt 0.96450233 0.10146952
vt 0.59880686 0.29283500
vt 0.57336915 0.21603745
vt 0.62954980 0.20963883
vt 0.62140411 0.37747228
vt 0.61317617 0.34507501
vt 0.65241587 0.29326606
vt 0.57726032 0.33875477
vt 0.66638517 0.38331294
vt 0.65861839 0.34423327
vt 0.68389851 0.32263476
vt 0.65818250 0.20522302
vt 0.71654063 0.20072687
vt 0.71969926 0.30676234
vt 0.72967589 0.34185624
vt 0.75763309 0.19567764
vt 0.76996911 0.33752728
vt 0.77878761 0.18806899
vt 0.80772454 0.28546166
vt 0.80482775 0.19147056
vt 0.80754697 0.34253395
vt 0.54692805 0.21032280
vt 0.52441555 0.22092944
vt 0.50082910 0.21570534
vt 0.47362971 0.33668303
vt 0.44320336 0.33753461
vt 0.47539216 0.21739912
vt 0.44044745 0.22394556
vt 0.84201854 0.18905771
vt 0.83229768 0.34489983
vt 0.58411872 0.20374697
vt 0.87995875 0.34251046
vt 0.90112102 0.18543589
vt 0.95694578 0.20542693
vt 0.96410650 0.23263824
vt 0.94433504 0.17111528
vt 0.93069583 0.16123980
vt 0.88040781 0.17833817
vt 0.81439233 0.17340827
vt 0.70238537 0.13967735
vt 0.69640148 0.19062781
vt 0.76491106 0.12348700
vt 0.75978088 0.17842519
vt 0.67360747 0.14443290
vt 0.66725749 0.19083321
vt 0.46751320 0.19703037
vt 0.45917636 0.21224356
vt 0.88758725 0.16114515
vt 0.43648675 0.30597687
vt 0.06738926 0.48026311
vt 0.85162371 0.50940603
vt 0.84191471 0.35429811
vt 0.77218705 0.40316844
vt 0.76625729 0.34931117
vt 0.56326568 0.37516719
vt 0.55460453 0.35084736
vt 0.51810974 0.18172443
vt 0.51012665 0.20454997
vt 0.92716861 0.14605260
vt 0.93073839 0.10495305
vt 0.45381317 0.36009240
vt 0.44465059 0.34816980
vt 0.81575131 0.50555104
vt 0.80627692 0.35648096
vt 0.05607917 0.84342104
vt 0.43219867 0.22531515
vt 0.42818725 0.28221846
vt 0.43340677 0.33579719
vt 0.41341978 0.30709600
vt 0.41353554 0.25071973
vt 0.42170137 0.23917872
vt 0.40722227 0.21940088
vt 0.40102476 0.24027812
vt 0.40479887 0.32285023
vt 0.38795677 0.22402763
vt 0.38637316 0.25132036
vt 0.37682423 0.33151621
vt 0.37343028 0.24809921
vt 0.38141128 0.29384947
vt 0.38796335 0.31277931
vt 0.35235104 0.29169762
vt 0.21171927 0.33504128
vt 0.27380744 0.30911803
vt 0.23545760 0.30583018
vt 0.21217488 0.30606866
vt 0.29346818 0.27013505
vt 0.14741193 0.32921410
vt 0.10006755 0.31101608
vt 0.16242746 0.29733038
vt 0.09006176 0.34622645
vt 0.05577277 0.32689798
vt 0.05593942 0.30621356
vt 0.16681293 0.35689032
vt 0.20701569 0.27414584
vt 0.02357246 0.30100048
vt 0.02570118 0.34132659
vt 0.03495072 0.41304743
vt 0.05053968 0.34690738
vt 0.00849117 0.30074143
vt 0.01660234 0.19672698
vt 0.81196982 0.45210546
vt 0.10028386 0.27522576
vt 0.34173349 0.25458503
vt 0.40555158 0.30720639
vt 0.41026664 0.26823318
vt 0.39039394 0.26490003
vt 0.25471127 0.25770712
vt 0.06165204 0.27434492
vt 0.06943734 0.20080352
vt 0.39793003 0.25497842
vt 0.33947343 0.22776049
vt 0.34523696 0.19444668
vt 0.03311080 0.28136730
vt 0.04151564 0.19577962
vt 0.40886384 0.25689262
vt 0.44845444 0.36187130
vt 0.07986368 0.46710527
vt 0.43971872 0.33932358
vt 0.73682564 0.40143424
vt 0.73007339 0.34945381
vt 0.75091010 0.40548909
vt 0.74440199 0.35320032
vt 0.44146004 0.35693479
vt 0.43473291 0.34379411
vt 0.97669548 0.46269512
vt 0.97427249 0.43460226
vt 0.97133064 0.46073037
vt 0.66142255 0.95242375
vt 0.96732980 0.47590697
vt 0.63639313 0.87934709
vt 0.97721827 0.41710526
vt 0.65494549 0.92687136
vt 0.97893775 0.48359179
vt 0.28880158 0.81710523
vt 0.96828681 0.44545853
vt 0.28768691 0.84342104
vt 0.18797199 0.08077115
vt 0.63949102 0.91120595
vt 0.28127274 0.82366109
vt 0.96582329 0.42440969
vt 0.28199404 0.84162921
vt 0.19388035 0.07979625
vt 0.56047082 0.71628112
vt 0.95428842 0.99342108
vt 0.03251649 0.05394739
vt 0.46506149 0.49073297
vt 0.46019641 0.57565832
vt 0.47360343 0.51906312
vt 0.45606771 0.59342104
vt 0.02403393 0.07236844
vt 0.47006339 0.49652874
vt 0.45475966 0.57993293
vt 0.02954920 0.07295310
vt 0.45961487 0.50285107
vt 0.47254786 0.59342104
vt 0.97502357 0.20131576
vt 0.44007626 0.33942556
vt 0.44988263 0.35131580
vt 0.08058435 0.48026311
vt 0.96891981 0.98289472
vt 0.04715591 0.04605263
vt 0.01625218 0.17798591
vt 0.80631483 0.44537258
vt 0.23803563 0.95713049
vt 0.62628174 0.87876493
vt 0.63127095 0.89042509
vt 0.63037097 0.86710525
vt 0.56618297 0.77587867
vt 0.98432964 0.41755968
vt 0.63949102 0.89574593
vt 0.97097409 0.41955161
vt 0.17855000 0.89360964
vt 0.02954920 0.11447370
vt 0.36490113 0.43270218
vt 0.07587182 0.98552632
vt 0.06173421 0.97832006
vt 0.12393968 0.86005837
vt 0.06737696 0.97500002
vt 0.36249065 0.45460975
vt 0.11868916 0.86710525
vt 0.35966811 0.44536442
vt 0.11451461 0.86005837
vt 0.36149067 0.46624321
vt 0.06209294 0.98552632
vt 0.12304132 0.85394734
vt 0.46231794 0.52100945
vt 0.46406385 0.50182325
vt 0.46851781 0.58632869
vt 0.45564917 0.52086174
vt 0.98350614 0.20131576
vt 0.45528060 0.53785616
vt 0.20984364 0.98026317
vt 0.45006204 0.52420491
vt 0.20216776 0.97763157
vt 0.18458840 0.89432228
vt 0.46441853 0.53808403
vt 0.45204815 0.48573631
vt 0.47455230 0.56973684
vt 0.44808358 0.48054665
vt 0.44612464 0.53525412
vt 0.47267342 0.58134913
vt 0.45496354 0.49717307
vt 0.97509676 0.18815792
vt 0.41781068 0.52529567
vt 0.43037522 0.45161080
vt 0.40884340 0.44756472
vt 0.43317959 0.39836299
vt 0.41735524 0.37113392
vt 0.37237158 0.37856650
vt 0.41187632 0.35264277
vt 0.40583789 0.34606946
vt 0.35358268 0.43924069
vt 0.33358526 0.43304086
vt 0.55244184 0.86710525
vt 0.34870324 0.37160975
vt 0.42061552 0.54638231
vt 0.36659223 0.54285425
vt 0.44909135 0.40500903
vt 0.36348540 0.52146822
vt 0.30088758 0.42454219
vt 0.23701397 0.38728219
vt 0.38045394 0.35973519
vt 0.37511805 0.34969783
vt 0.22992094 0.42706507
vt 0.44873497 0.87168592
vt 0.17751738 0.38963032
vt 0.10730217 0.41940832
vt 0.05313200 0.35811841
vt 0.06229922 0.41296887
vt 0.05521077 0.42696512
vt 0.27398318 0.90915126
vt 0.05541655 0.43262613
vt 0.10736311 0.39869064
vt 0.09944334 0.36173111
vt 0.02731421 0.42513442
vt 0.17580128 0.38257945
vt 0.16916236 0.36447370
vt 0.22485830 0.37434059
vt 0.21893494 0.36324823
vt 0.24397886 0.92229062
vt 0.02518488 0.43431789
vt 0.00833430 0.33716005
vt 0.01811807 0.41879690
vt 0.01555137 0.42599964
vt 0.00518379 0.33141446
vt 0.81196982 0.42079061
vt 0.34973767 0.46800411
vt 0.45370123 0.41673267
vt 0.45709288 0.42085522
vt 0.45172709 0.38029999
vt 0.47411150 0.48097503
vt 0.18614514 0.94605261
vt 0.46624374 0.42639214
vt 0.60673672 0.86736232
vt 0.47767445 0.47882462
vt 0.49245995 0.48153168
vt 0.61691058 0.98544383
vt 0.48958883 0.49588174
vt 0.50574768 0.48566461
vt 0.49870998 0.53784347
vt 0.15409991 0.94605261
vt 0.52901423 0.50688618
vt 0.54315537 0.54296392
vt 0.45936942 0.40975332
vt 0.61215836 0.88289475
vt 0.34500557 0.55160081
vt 0.24900238 0.56797785
vt 0.76284927 0.79214913
vt 0.24772306 0.55691200
vt 0.22645749 0.51760590
vt 0.82596433 0.92175066
vt 0.18574998 0.52270615
vt 0.09680758 0.57269359
vt 0.89124858 0.79471791
vt 0.12416377 0.57638639
vt 0.94337118 0.78689998
vt 0.07369055 0.58343178
vt 0.75266099 0.91526538
vt 0.11310938 0.54414606
vt 0.06509010 0.57440168
vt 0.23126946 0.51157951
vt 0.87190777 0.92236841
vt 0.30660009 0.49645013
vt 0.94766212 0.91987395
vt 0.47196522 0.54518569
vt 0.17300904 0.89149493
vt 0.44893885 0.55078077
vt 0.55811769 0.76380116
vt 0.97175860 0.99342108
vt 0.86192274 0.98666543
vt 0.42175373 0.77747160
vt 0.58633816 0.55588651
vt 0.64066678 0.52940536
vt 0.65680271 0.50394738
vt 0.68367290 0.56252015
vt 0.71734017 0.54062730
vt 0.73325014 0.50358105
vt 0.76241648 0.57331634
vt 0.76586300 0.54896802
vt 0.78162402 0.50394738
vt 0.80509752 0.55764359
vt 0.80826491 0.58032566
vt 0.83071423 0.57501537
vt 0.82797682 0.55307060
vt 0.24419777 0.86546701
vt 0.82268900 0.54520965
vt 0.84901291 0.54873914
vt 0.21442036 0.88088304
vt 0.86910760 0.56267571
vt 0.86959761 0.54224598
vt 0.85087979 0.53445369
vt 0.85343605 0.52474135
vt 0.86957759 0.35174966
vt 0.87937564 0.51250392
vt 0.81202757 0.52542156
vt 0.25786299 0.88028097
vt 0.90867889 0.36191607
vt 0.91839129 0.52868730
vt 0.90246642 0.54733759
vt 0.88801956 0.57601243
vt 0.92696673 0.55711418
vt 0.92541242 0.35131943
vt 0.93542862 0.52381313
vt 0.93506545 0.55964285
vt 0.95218301 0.55683511
vt 0.95260745 0.34982300
vt 0.96127784 0.54233545
vt 0.96674347 0.55996686
vt 0.04558362 0.78221470
vt 0.03443388 0.75098491
vt 0.98162109 0.55089808
vt 0.97335106 0.31831145
vt 0.84394848 0.58291703
vt 0.16757184 0.78536427
vt 0.80283695 0.54462880
vt 0.77749521 0.53775066
vt 0.79311967 0.49132705
vt 0.31406268 0.84504592
vt 0.76130861 0.51574713
vt 0.32334763 0.83695918
vt 0.75259423 0.51069063
vt 0.74157274 0.51011336
vt 0.33406746 0.82189947
vt 0.34111929 0.80608249
vt 0.75135750 0.45277566
vt 0.73325658 0.50846773
vt 0.06022688 0.56324106
vt 0.67034864 0.89829737
vt 0.03116784 0.57130736
vt 0.03918060 0.58429193
vt 0.97862506 0.77945244
vt 0.01836880 0.57945454
vt 0.98149711 0.64868420
vt 0.49519888 0.41332567
vt 0.58162737 0.86849105
vt 0.50817043 0.37341499
vt 0.53550321 0.41077971
vt 0.54708594 0.86039943
vt 0.52682853 0.36361396
vt 0.51783532 0.34509099
vt 0.55211169 0.36383033
vt 0.54315925 0.34171444
vt 0.59913212 0.38805479
vt 0.64224708 0.38914275
vt 0.50911343 0.35800874
vt 0.49999160 0.34163105
vt 0.66577208 0.39274019
vt 0.68737352 0.40199149
vt 0.69761175 0.39013064
vt 0.69027168 0.34470499
vt 0.73256838 0.40923667
vt 0.74118859 0.42354846
vt 0.33451241 0.86556298
vt 0.77983236 0.41693580
vt 0.04952784 0.93289477
vt 0.77153766 0.42910635
vt 0.30035567 0.86944425
vt 0.05607917 0.91264069
vt 0.78212494 0.34814322
vt 0.78761458 0.40446270
vt 0.45978692 0.54213792
vt 0.86475021 0.95394737
vt 0.18328287 0.87236840
vt 0.21536286 0.97763157
vt 0.18046659 0.88144636
vt 0.46395639 0.53977257
vt 0.18048584 0.91430277
vt 0.47201455 0.51541805
vt 0.02968897 0.09388995
vt 0.18163545 0.91283363
vt 0.47112006 0.54140842
vt 0.02512109 0.09739888
vt 0.91703755 0.58420622
vt 0.99858624 0.26973689
vt 0.44774222 0.55022299
vt 0.97313857 0.98486030
vt 0.56067133 0.76641333
vt 0.86475021 0.99342108
vt 0.05042413 0.05394739
vt 0.35596156 0.49000943
vt 0.83176249 0.38026315
vt 0.33588403 0.49497372
vt 0.97687727 0.92236841
vt 0.81196982 0.38026315
vt 0.34849226 0.48364002
vt 0.98840517 0.91658741
vt 0.82319039 0.36710525
f 130/214 20/37 128/212
f 150/237 151/238 128/212
f 20/37 150/237 128/212
f 165/260 2/4 160/251
f 161/253 10/19 163/257
f 161/253 8/16 10/19
f 160/251 153/240 159/250
f 2/5 1/2 161/254
f 2/4 161/253 160/251
f 1/1 2/3 8/15
f 165/260 160/251 159/250
f 8/15 161/252 1/1
f 10/19 18/32 163/257
f 666/1004 547/809 542/799
f 547/809 663/994 545/804
f 547/808 664/998 663/996
f 542/799 526/761 666/1004
f 542/799 545/804 544/802
f 545/804 542/799 547/809
f 542/799 543/800 526/761
f 547/808 536/785 664/998
f 542/799 528/767 543/800
f 542/799 544/802 528/767
f 547/808 666/1003 536/785
f 93/150 96/159 54/91
f 54/91 53/89 92/148
f 54/91 92/148 93/150
f 581/859 283/420 498/714
f 580/855 581/858 498/712
f 580/856 47/76 581/857
f 47/77 531/776 581/859
f 581/859 531/776 283/420
f 646/966 286/427 81/131
f 80/129 646/966 81/131
f 81/131 286/427 94/153
f 388/573 286/427 646/966
f 388/571 387/570 286/425
f 580/856 496/710 576/848
f 576/848 579/854 47/76
f 580/856 576/848 47/76
f 579/853 32/52 47/78
f 47/78 32/52 531/777
f 646/965 645/963 388/572
f 646/965 644/962 645/963
f 32/53 33/55 283/419
f 32/52 31/51 33/54
f 643/960 603/893 644/962
f 644/962 603/893 645/963
f 645/964 385/567 388/571
f 385/567 386/569 387/570
f 388/571 385/567 387/570
f 387/570 401/588 286/425
f 576/848 573/843 574/845
f 576/848 574/845 579/854
f 387/570 386/569 401/588
f 579/853 574/844 31/51
f 579/853 31/51 32/52
f 33/55 269/399 508/727
f 645/963 603/893 385/568
f 576/848 572/842 573/843
f 385/567 383/565 386/569
f 385/567 384/566 383/565
f 572/842 52/87 573/843
f 573/843 52/87 574/845
f 33/54 44/71 269/398
f 77/123 79/126 643/960
f 603/893 601/890 385/568
f 386/569 293/438 401/588
f 293/439 280/415 281/416
f 401/589 293/439 281/416
f 497/711 490/703 572/841
f 31/51 30/50 33/54
f 603/893 599/886 601/890
f 490/703 575/847 572/841
f 33/54 30/50 44/71
f 79/126 599/886 603/893
f 643/960 79/126 603/893
f 601/889 384/566 385/567
f 572/842 571/840 52/87
f 52/86 34/56 574/844
f 383/565 293/438 386/569
f 575/846 571/840 572/842
f 574/844 28/48 31/51
f 28/48 30/50 31/51
f 574/844 34/56 28/48
f 599/886 600/888 601/890
f 600/887 384/566 601/889
f 383/565 382/564 293/438
f 79/126 602/892 599/886
f 571/840 50/82 52/87
f 52/86 50/81 34/56
f 30/50 29/49 44/71
f 44/71 29/49 268/396
f 29/49 266/393 268/396
f 30/50 28/48 29/49
f 293/439 278/412 280/415
f 384/566 600/887 381/563
f 384/566 381/563 383/565
f 383/565 381/563 382/564
f 382/564 278/411 293/438
f 575/846 570/839 571/840
f 602/892 89/143 599/886
f 599/886 403/592 600/888
f 29/49 26/46 266/393
f 50/81 27/47 34/56
f 26/46 46/75 266/393
f 599/886 89/143 403/592
f 600/887 391/576 381/563
f 575/846 577/849 570/839
f 27/47 28/48 34/56
f 570/839 56/94 571/840
f 571/840 56/94 50/82
f 89/144 64/108 598/884
f 382/564 392/578 278/411
f 50/81 56/95 27/47
f 28/48 23/43 29/49
f 29/49 23/43 26/46
f 403/592 391/577 600/888
f 381/563 380/562 382/564
f 89/143 598/885 403/592
f 392/578 402/590 278/411
f 28/48 27/47 23/43
f 598/885 597/883 403/592
f 391/576 379/561 381/563
f 381/563 379/561 380/562
f 23/43 25/45 26/46
f 26/46 25/45 46/75
f 598/885 604/894 597/883
f 578/851 567/834 570/839
f 570/839 567/834 569/837
f 570/839 569/837 56/94
f 379/561 378/560 380/562
f 569/838 24/44 56/95
f 56/95 24/44 27/47
f 27/47 24/44 23/43
f 392/578 277/409 402/590
f 380/562 390/575 392/578
f 23/43 24/44 25/45
f 378/560 390/575 380/562
f 24/44 35/57 25/45
f 25/45 35/57 45/73
f 403/593 595/881 391/576
f 391/576 595/881 379/561
f 569/838 36/59 24/44
f 36/59 35/57 24/44
f 597/883 596/882 403/592
f 403/592 596/882 595/880
f 390/575 397/583 392/578
f 392/578 397/583 277/409
f 595/881 376/558 379/561
f 35/57 37/61 45/73
f 35/57 36/59 37/61
f 379/561 376/558 378/560
f 378/560 389/574 390/575
f 390/575 389/574 397/583
f 567/834 566/833 569/837
f 569/837 566/833 36/58
f 36/59 38/63 37/61
f 566/833 38/62 36/58
f 38/63 39/65 37/61
f 578/851 561/828 567/834
f 561/828 566/833 567/834
f 38/63 40/66 39/65
f 596/882 594/879 595/880
f 377/559 389/574 378/560
f 568/835 561/828 578/851
f 376/558 377/559 378/560
f 397/583 396/582 277/409
f 277/409 396/582 274/405
f 597/883 670/1015 596/882
f 38/63 41/68 40/66
f 40/66 290/433 39/65
f 595/881 374/556 376/558
f 604/894 605/896 597/883
f 397/583 389/574 396/582
f 605/896 670/1015 597/883
f 670/1015 594/879 596/882
f 483/696 486/699 481/694
f 38/62 566/833 41/67
f 40/66 42/69 290/433
f 566/833 560/826 41/67
f 41/68 42/69 40/66
f 594/879 374/555 595/880
f 377/559 373/554 389/574
f 561/828 560/826 566/833
f 41/68 43/70 42/69
f 376/558 373/554 377/559
f 560/827 43/70 41/68
f 42/69 289/431 290/433
f 42/69 49/80 289/431
f 43/70 48/79 42/69
f 48/79 49/80 42/69
f 560/827 58/99 43/70
f 58/99 48/79 43/70
f 289/431 49/80 51/83
f 51/83 57/97 289/431
f 49/80 55/92 51/83
f 373/554 375/557 389/574
f 389/574 375/557 396/582
f 560/826 559/825 58/98
f 559/825 59/100 58/98
f 48/79 53/88 49/80
f 53/88 54/90 49/80
f 49/80 54/90 55/92
f 59/101 53/88 48/79
f 54/90 96/156 55/92
f 51/84 271/401 57/96
f 59/100 582/860 404/595
f 55/93 97/162 51/85
f 90/145 91/146 83/134
f 90/145 87/140 97/161
f 97/161 87/140 282/417
f 669/1013 563/830 670/1015
f 670/1015 563/830 594/879
f 404/596 92/148 53/89
f 59/102 404/596 53/89
f 582/860 671/1018 404/595
f 671/1018 582/860 669/1013
f 396/582 398/584 274/405
f 559/825 540/794 59/100
f 59/100 540/794 582/860
f 561/828 557/822 560/826
f 540/794 541/796 582/860
f 582/860 541/796 669/1013
f 669/1013 565/832 563/830
f 376/558 372/553 373/554
f 557/822 537/787 559/825
f 560/826 557/822 559/825
f 559/825 537/787 540/794
f 563/830 374/555 594/879
f 374/556 372/553 376/558
f 537/788 541/797 538/789
f 537/788 538/789 539/791
f 537/787 565/832 541/796
f 396/582 375/557 398/584
f 372/553 371/552 373/554
f 561/828 568/835 557/822
f 537/787 554/819 565/832
f 270/400 273/403 258/383
f 373/554 371/552 375/557
f 557/822 554/819 537/787
f 374/556 359/538 372/553
f 563/830 359/537 374/555
f 375/557 368/549 398/584
f 372/553 370/551 371/552
f 371/552 368/549 375/557
f 359/538 369/550 372/553
f 372/553 369/550 370/551
f 371/552 370/551 368/549
f 368/549 366/546 398/584
f 568/835 558/823 557/822
f 370/551 367/548 368/549
f 367/548 366/546 368/549
f 480/693 476/689 503/719
f 558/823 556/821 557/822
f 557/822 556/821 554/819
f 565/832 552/817 563/830
f 563/830 552/817 562/829
f 563/830 562/829 359/537
f 370/551 394/580 367/548
f 367/548 365/545 366/546
f 565/832 554/819 552/817
f 394/580 399/586 367/548
f 369/550 393/579 370/551
f 365/545 364/543 366/546
f 370/551 393/579 394/580
f 399/586 394/580 395/581
f 395/581 400/587 399/586
f 506/723 509/728 502/718
f 393/579 395/581 394/580
f 556/821 555/820 554/819
f 369/550 360/539 393/579
f 393/579 360/539 395/581
f 502/718 470/683 469/682
f 554/819 555/820 553/818
f 553/818 552/817 554/819
f 359/538 360/539 369/550
f 365/545 363/542 364/543
f 360/539 361/540 395/581
f 395/581 361/540 363/542
f 364/544 284/421 252/376
f 364/544 252/376 253/377
f 553/818 549/812 552/817
f 562/829 668/1008 359/537
f 363/542 362/541 364/543
f 364/543 362/541 284/422
f 558/823 513/736 556/821
f 552/817 550/813 562/829
f 359/538 358/536 360/539
f 360/539 358/536 361/540
f 363/542 361/540 362/541
f 558/824 468/681 513/737
f 562/829 550/813 668/1008
f 359/538 668/1010 358/536
f 361/540 358/536 362/541
f 468/681 510/731 513/737
f 513/736 564/831 555/820
f 556/821 513/736 555/820
f 555/820 564/831 553/818
f 553/818 564/831 549/812
f 552/817 549/812 550/813
f 358/536 668/1010 524/756
f 524/756 357/534 358/536
f 358/536 357/534 362/541
f 357/534 284/422 362/541
f 510/729 585/863 564/831
f 549/812 546/806 550/813
f 529/772 510/730 458/663
f 529/770 458/662 441/641
f 441/641 458/662 297/446
f 441/641 297/446 211/325
f 529/771 464/674 510/729
f 297/447 261/388 211/324
f 510/729 464/674 585/863
f 548/810 551/815 544/802
f 250/374 357/535 354/529
f 546/806 663/994 668/1008
f 668/1011 663/995 607/903
f 530/773 607/902 524/757
f 607/901 328/496 524/756
f 524/756 347/518 357/534
f 524/756 328/496 347/518
f 357/534 347/518 354/528
f 584/862 583/861 585/863
f 464/674 593/877 584/862
f 585/863 464/674 584/862
f 551/814 543/801 528/768
f 546/807 545/805 663/997
f 584/862 586/864 548/810
f 525/760 551/814 548/811
f 525/760 543/801 551/814
f 529/770 439/639 464/675
f 593/877 587/866 584/862
f 548/810 586/864 525/759
f 543/801 525/760 526/762
f 607/901 327/495 328/496
f 328/496 321/489 347/518
f 347/518 321/489 354/528
f 593/878 171/269 587/867
f 587/866 22/41 586/864
f 587/866 586/864 584/862
f 586/864 527/764 525/759
f 525/760 527/765 526/762
f 664/998 536/785 606/899
f 664/999 606/898 663/994
f 663/994 606/898 607/900
f 171/269 21/38 587/867
f 527/764 586/864 665/1001
f 527/766 665/1002 666/1005
f 527/766 666/1005 526/763
f 586/865 606/899 665/1000
f 665/1000 606/899 536/785
f 665/1002 536/786 666/1005
f 606/898 351/523 607/900
f 328/496 327/495 321/489
f 321/489 352/525 354/528
f 439/639 438/638 464/675
f 464/674 647/967 593/877
f 593/878 647/968 171/269
f 22/41 588/868 586/864
f 171/269 173/271 21/38
f 21/40 173/272 14/25
f 14/25 127/211 588/870
f 351/524 327/495 607/901
f 173/272 174/274 13/24
f 173/272 13/24 14/25
f 14/25 13/24 17/30
f 586/865 590/874 606/899
f 590/873 351/523 606/898
f 654/979 464/675 438/638
f 464/674 648/969 647/967
f 171/269 172/270 173/271
f 13/24 15/26 17/30
f 17/31 15/27 127/210
f 588/868 589/871 586/864
f 127/210 15/27 118/192
f 586/864 589/871 590/873
f 352/525 193/305 354/528
f 173/271 172/270 174/273
f 174/274 175/276 12/23
f 174/274 12/23 13/24
f 13/24 12/23 15/26
f 464/674 654/978 648/969
f 647/968 170/268 171/269
f 171/269 170/268 172/270
f 172/270 175/275 174/273
f 12/23 16/29 15/26
f 15/26 16/29 111/182
f 170/268 176/277 172/270
f 176/277 11/21 175/275
f 172/270 176/277 175/275
f 589/871 591/875 590/873
f 11/22 7/13 12/23
f 175/276 11/22 12/23
f 12/23 7/13 16/29
f 112/184 591/875 589/871
f 647/968 649/971 170/268
f 327/495 322/490 321/489
f 170/268 177/278 176/277
f 176/277 177/278 180/283
f 176/277 180/283 11/21
f 180/284 519/745 11/22
f 519/745 9/17 11/22
f 11/22 9/17 7/13
f 9/17 517/741 7/13
f 654/978 650/972 648/969
f 180/283 182/289 183/290
f 517/741 103/170 7/13
f 351/524 329/498 327/495
f 177/278 185/294 182/289
f 183/290 182/289 184/293
f 183/290 184/293 534/781
f 534/780 184/292 532/778
f 649/971 169/267 170/268
f 534/780 532/778 533/779
f 534/780 533/779 518/743
f 518/743 533/779 535/783
f 515/739 522/753 520/748
f 517/741 5/8 103/170
f 112/184 107/175 591/875
f 177/278 308/469 185/294
f 182/289 185/294 184/293
f 649/971 164/258 169/267
f 169/267 164/258 308/469
f 533/779 301/453 535/783
f 5/8 100/166 103/170
f 591/875 592/876 590/873
f 590/873 592/876 351/523
f 648/969 649/970 647/967
f 185/294 308/469 307/467
f 185/294 307/467 184/293
f 184/293 307/467 306/465
f 184/292 306/464 532/778
f 164/258 168/265 308/469
f 532/778 306/464 303/459
f 532/778 303/459 533/779
f 533/779 303/459 301/453
f 300/452 305/463 302/458
f 302/456 305/462 4/7
f 302/456 4/7 5/8
f 5/8 4/7 100/166
f 592/876 329/497 351/523
f 308/470 168/266 304/461
f 308/470 304/461 307/468
f 307/468 304/461 298/448
f 307/468 298/448 306/466
f 306/466 298/448 303/460
f 168/266 299/451 304/461
f 304/461 299/451 298/448
f 299/451 305/463 300/452
f 299/451 300/452 521/750
f 299/451 521/750 298/448
f 298/448 521/750 523/755
f 298/448 523/755 301/455
f 298/448 301/455 303/460
f 650/972 461/668 648/969
f 648/969 461/668 649/970
f 164/258 18/32 299/450
f 168/265 164/258 299/450
f 213/327 214/328 212/326
f 299/449 18/33 4/7
f 299/449 4/7 305/462
f 352/525 246/367 193/305
f 649/971 162/255 164/258
f 650/972 651/974 461/668
f 162/255 163/257 164/258
f 164/258 163/257 18/32
f 18/33 10/20 4/7
f 591/875 107/175 592/876
f 162/255 161/253 163/257
f 329/498 322/490 327/495
f 10/20 8/15 4/7
f 4/7 3/6 100/166
f 8/15 3/6 4/7
f 8/15 2/3 3/6
f 321/489 323/491 352/525
f 649/970 166/261 162/256
f 162/255 166/262 154/241
f 162/255 154/241 161/253
f 2/3 125/206 3/6
f 592/876 608/905 329/497
f 321/489 322/490 323/491
f 154/241 160/251 161/253
f 107/175 608/905 592/876
f 461/668 652/976 649/970
f 2/3 165/259 125/206
f 107/175 609/906 608/905
f 329/498 324/492 322/490
f 166/262 149/236 154/241
f 154/241 152/239 160/251
f 652/976 166/261 649/970
f 154/241 149/236 152/239
f 608/904 330/499 329/498
f 329/498 330/499 324/492
f 165/259 6/12 125/206
f 651/975 422/621 461/669
f 166/262 132/216 149/236
f 149/236 147/233 152/239
f 159/250 6/11 165/260
f 149/236 132/216 147/233
f 152/239 147/233 153/240
f 153/240 147/233 159/250
f 132/216 128/212 147/233
f 147/233 128/212 151/238
f 151/238 150/237 147/233
f 147/233 150/237 159/250
f 159/250 150/237 6/11
f 6/12 126/208 125/206
f 461/668 420/618 652/976
f 652/976 653/977 166/261
f 166/262 148/235 132/216
f 150/237 20/37 6/11
f 323/491 246/367 352/525
f 653/977 148/234 166/261
f 130/214 129/213 20/37
f 20/36 167/263 6/12
f 322/490 324/492 323/491
f 148/235 131/215 132/216
f 131/215 129/213 128/212
f 132/216 131/215 128/212
f 128/212 129/213 130/214
f 229/347 217/332 216/331
f 167/263 126/208 6/12
f 609/906 610/908 608/905
f 129/213 167/264 20/37
f 420/618 653/977 652/976
f 129/213 155/242 167/264
f 167/263 155/243 126/208
f 126/208 155/243 116/189
f 324/492 330/499 326/494
f 148/235 141/227 131/215
f 131/215 133/217 129/213
f 129/213 133/217 155/242
f 141/227 134/218 131/215
f 116/188 121/198 108/177
f 116/188 108/177 105/173
f 653/977 157/246 148/234
f 131/215 134/218 133/217
f 133/217 135/219 155/242
f 135/220 19/35 155/243
f 155/243 19/35 116/189
f 420/618 423/622 653/977
f 148/235 157/247 141/227
f 157/247 140/226 141/227
f 141/227 140/226 134/218
f 134/218 135/219 133/217
f 19/34 121/198 116/188
f 653/977 655/980 157/246
f 323/491 332/501 246/367
f 135/220 137/222 19/35
f 610/908 353/527 608/905
f 608/904 353/526 330/499
f 653/977 423/622 655/980
f 140/226 136/221 134/218
f 134/218 136/221 135/219
f 135/219 136/221 137/223
f 19/35 137/222 121/197
f 353/526 331/500 330/499
f 330/499 331/500 326/494
f 324/492 326/494 325/493
f 325/493 323/491 324/492
f 323/491 325/493 332/501
f 137/222 123/201 121/197
f 655/980 656/981 157/246
f 157/247 156/245 140/226
f 246/367 332/501 247/369
f 137/223 138/224 123/203
f 136/221 138/224 137/223
f 140/226 139/225 136/221
f 136/221 139/225 138/224
f 138/224 124/205 123/203
f 230/348 243/363 220/335
f 609/906 611/909 610/908
f 656/981 658/984 157/246
f 157/246 658/984 156/244
f 156/245 142/228 140/226
f 140/226 142/228 139/225
f 423/622 657/982 655/980
f 655/980 657/982 656/981
f 138/224 158/249 124/205
f 326/494 332/501 325/493
f 139/225 146/232 138/224
f 138/224 146/232 158/249
f 158/248 110/179 109/178
f 146/232 110/180 158/249
f 326/494 331/500 332/501
f 243/363 240/360 220/335
f 353/526 334/503 331/500
f 657/982 511/732 656/981
f 656/981 511/732 658/984
f 139/225 145/231 146/232
f 142/228 143/229 139/225
f 139/225 143/229 145/231
f 146/232 145/231 110/180
f 110/179 122/200 113/185
f 106/174 115/187 611/910
f 332/501 336/506 247/369
f 658/984 659/985 156/244
f 156/245 659/986 142/228
f 611/909 612/911 610/908
f 610/908 612/911 353/527
f 657/983 428/628 511/733
f 659/986 144/230 142/228
f 142/228 144/230 143/229
f 145/231 143/229 642/957
f 145/231 642/957 122/199
f 331/500 333/502 332/501
f 332/501 333/502 336/506
f 143/229 641/956 642/957
f 642/959 641/955 117/191
f 331/500 334/503 333/502
f 144/230 640/953 143/229
f 143/229 640/953 641/956
f 612/911 335/505 353/527
f 353/526 335/504 334/503
f 511/732 512/734 658/984
f 658/984 512/734 659/985
f 659/986 639/951 144/230
f 144/230 639/951 640/953
f 641/955 119/194 117/191
f 512/734 660/987 659/985
f 222/338 223/339 221/336
f 641/955 640/954 119/194
f 611/909 613/912 612/911
f 640/954 639/952 119/194
f 660/987 661/989 659/985
f 659/986 661/990 639/951
f 639/952 120/196 119/194
f 120/195 613/913 115/187
f 334/503 335/504 333/502
f 661/990 178/279 639/951
f 639/952 178/280 120/196
f 120/195 638/950 613/913
f 336/506 249/373 247/369
f 512/734 460/666 660/987
f 612/911 615/915 335/505
f 613/912 614/914 612/911
f 612/911 614/914 615/915
f 430/630 662/992 460/667
f 460/666 662/993 660/987
f 660/987 181/287 661/989
f 661/990 181/286 179/282
f 661/990 179/282 178/279
f 178/280 179/281 638/949
f 179/281 637/948 638/949
f 637/948 614/914 613/912
f 333/502 340/510 336/506
f 340/510 350/522 336/506
f 336/506 350/522 249/373
f 181/286 625/929 179/282
f 615/915 344/514 335/505
f 335/504 344/515 337/507
f 335/504 337/507 333/502
f 662/991 465/678 660/988
f 625/929 618/918 179/282
f 179/281 618/919 637/948
f 637/948 618/919 614/914
f 614/914 616/916 615/915
f 333/502 337/507 340/510
f 181/287 465/676 625/928
f 224/340 231/349 233/351
f 249/372 350/521 207/320
f 614/914 617/917 616/916
f 616/916 636/946 615/915
f 615/915 636/946 344/514
f 625/929 619/921 618/918
f 618/919 619/920 617/917
f 459/664 623/925 465/676
f 465/676 623/925 622/924
f 465/676 622/924 625/928
f 625/928 622/924 619/920
f 617/917 619/920 620/922
f 617/917 620/922 616/916
f 344/515 338/508 337/507
f 340/510 339/509 350/522
f 350/521 226/343 207/320
f 620/922 636/946 616/916
f 636/947 338/508 344/515
f 622/924 621/923 619/920
f 337/507 339/509 340/510
f 622/924 623/925 621/923
f 337/507 338/508 339/509
f 621/923 620/922 619/920
f 339/509 292/437 350/522
f 350/522 292/437 226/344
f 459/664 624/927 623/925
f 620/922 628/933 636/946
f 636/946 628/933 319/485
f 636/947 319/486 338/508
f 623/925 627/932 621/923
f 627/932 628/933 620/922
f 621/923 627/932 620/922
f 624/927 626/931 623/925
f 623/925 626/931 627/932
f 339/509 348/519 292/437
f 628/933 667/1006 319/485
f 627/932 629/934 628/933
f 339/509 342/512 348/519
f 292/436 355/530 237/357
f 338/508 316/480 339/509
f 341/511 342/512 339/509
f 319/486 316/480 338/508
f 627/932 626/931 629/934
f 628/933 629/934 667/1006
f 339/509 316/480 341/511
f 348/519 355/531 292/437
f 629/934 318/482 667/1006
f 667/1007 318/483 319/487
f 629/934 413/607 631/937
f 629/934 631/937 318/482
f 318/484 316/480 319/486
f 342/512 346/517 348/519
f 348/519 346/517 349/520
f 348/519 349/520 355/531
f 316/480 343/513 341/511
f 342/512 341/511 346/517
f 630/935 412/606 413/608
f 413/607 632/938 631/937
f 631/937 632/938 318/482
f 318/484 313/476 316/480
f 349/520 294/440 355/531
f 355/530 294/441 287/428
f 316/480 314/478 343/513
f 313/476 314/478 316/480
f 413/607 633/940 632/938
f 632/938 313/477 318/482
f 346/517 294/440 349/520
f 633/940 634/941 632/938
f 343/513 345/516 341/511
f 341/511 345/516 346/517
f 346/517 356/532 294/440
f 313/476 312/475 314/478
f 343/513 314/478 315/479
f 343/513 315/479 345/516
f 356/533 288/429 294/441
f 314/478 312/475 315/479
f 345/516 320/488 346/517
f 346/517 320/488 356/532
f 408/602 635/944 634/941
f 356/533 296/444 288/429
f 315/479 309/471 345/516
f 345/516 317/481 320/488
f 634/942 635/943 312/475
f 320/488 296/445 356/532
f 315/479 312/475 309/471
f 309/471 317/481 345/516
f 312/475 635/943 309/471
f 317/481 310/472 320/488
f 32/53 283/419 531/775
f 580/855 498/712 495/708
f 644/962 646/965 80/128
f 94/152 286/426 285/424
f 496/709 580/855 495/708
f 495/708 498/712 508/726
f 508/727 498/713 283/419
f 508/727 283/419 33/55
f 496/709 495/708 491/704
f 80/127 81/130 78/124
f 81/130 94/151 285/423
f 78/124 81/130 285/423
f 572/842 576/848 496/710
f 644/961 80/127 77/122
f 285/424 286/426 401/589
f 643/960 644/962 77/123
f 77/122 80/127 78/124
f 572/841 496/709 497/711
f 497/711 496/709 491/704
f 491/704 495/708 492/705
f 495/708 508/726 505/721
f 492/705 495/708 505/721
f 281/416 285/424 401/589
f 78/124 285/423 82/132
f 82/133 285/424 281/416
f 78/124 82/132 76/121
f 505/722 508/727 267/395
f 267/395 508/727 269/399
f 267/395 269/399 268/397
f 268/396 269/398 44/71
f 77/122 78/124 76/121
f 82/133 281/416 88/142
f 77/122 76/121 74/119
f 76/121 82/132 88/141
f 79/125 77/122 74/119
f 88/142 281/416 280/415
f 490/703 497/711 491/704
f 492/705 505/721 499/715
f 488/701 491/704 492/705
f 490/703 491/704 488/701
f 190/301 505/722 267/395
f 68/112 79/125 74/119
f 76/121 88/141 279/414
f 488/701 492/705 499/715
f 74/119 76/121 75/120
f 75/120 76/121 279/414
f 499/715 505/721 190/302
f 190/301 267/395 266/394
f 266/394 267/395 268/397
f 602/891 79/125 68/112
f 279/413 88/142 280/415
f 487/700 490/703 488/701
f 68/112 74/119 67/111
f 67/111 74/119 75/120
f 279/413 280/415 278/412
f 86/139 279/413 278/412
f 493/706 490/703 487/700
f 493/706 575/847 490/703
f 189/300 190/301 266/394
f 75/120 279/414 86/138
f 66/110 75/120 86/138
f 489/702 488/701 499/715
f 189/300 266/394 46/74
f 89/144 602/891 68/112
f 67/111 75/120 66/110
f 577/850 575/847 493/706
f 89/144 68/112 64/108
f 64/108 68/112 67/111
f 64/108 67/111 66/110
f 64/108 66/110 65/109
f 65/109 66/110 86/138
f 65/109 86/138 63/107
f 499/715 190/302 187/297
f 187/298 190/301 189/300
f 63/107 86/138 95/155
f 487/700 488/701 485/698
f 485/698 488/701 489/702
f 489/702 499/715 494/707
f 494/707 499/715 187/297
f 86/139 278/412 402/591
f 95/154 86/139 402/591
f 60/103 65/109 63/107
f 392/578 382/564 380/562
f 493/706 487/700 482/695
f 482/695 487/700 485/698
f 64/108 65/109 60/103
f 64/108 60/103 598/884
f 45/72 189/300 46/74
f 578/852 577/850 493/706
f 578/851 570/839 577/849
f 45/73 46/75 25/45
f 578/852 493/706 482/695
f 604/895 598/884 60/103
f 485/698 489/702 494/707
f 62/105 60/103 63/107
f 62/105 63/107 95/155
f 187/298 189/300 188/299
f 188/299 189/300 45/72
f 604/895 60/103 61/104
f 61/104 60/103 62/105
f 62/106 95/154 276/408
f 277/410 95/154 402/591
f 482/695 485/698 484/697
f 504/720 494/707 187/297
f 276/408 95/154 277/410
f 484/697 485/698 494/707
f 265/392 45/72 37/60
f 70/114 61/104 62/105
f 187/298 188/299 507/725
f 70/114 62/105 85/136
f 85/137 62/106 276/408
f 484/697 494/707 486/699
f 486/699 494/707 504/720
f 276/408 277/410 274/404
f 504/720 187/297 507/724
f 265/392 37/60 39/64
f 483/696 484/697 486/699
f 45/72 265/392 191/303
f 482/695 484/697 483/696
f 188/299 45/72 191/303
f 507/725 188/299 191/303
f 604/895 61/104 69/113
f 69/113 61/104 70/114
f 275/406 276/408 274/404
f 605/897 604/895 69/113
f 568/836 578/852 482/695
f 504/720 507/724 500/716
f 265/392 39/64 290/432
f 69/113 70/114 73/117
f 70/114 85/136 73/117
f 73/118 85/137 276/408
f 486/699 504/720 500/716
f 191/303 265/392 264/391
f 264/391 265/392 290/432
f 482/695 483/696 481/694
f 71/115 605/897 69/113
f 73/118 276/408 275/406
f 507/725 191/303 263/390
f 264/391 290/432 289/430
f 71/115 69/113 72/116
f 72/116 69/113 73/117
f 568/836 482/695 477/690
f 477/690 482/695 481/694
f 263/390 191/303 264/391
f 84/135 73/117 282/417
f 670/1016 605/897 71/115
f 72/116 73/117 83/134
f 83/134 73/117 84/135
f 282/417 73/117 275/407
f 264/391 289/430 57/96
f 272/402 275/406 274/404
f 481/694 486/699 500/716
f 263/390 264/391 262/389
f 72/116 83/134 91/146
f 90/145 83/134 87/140
f 83/134 84/135 87/140
f 87/140 84/135 282/417
f 282/418 275/406 272/402
f 48/79 58/99 59/101
f 671/1019 71/115 404/594
f 404/594 71/115 72/116
f 404/594 72/116 91/146
f 670/1016 71/115 671/1019
f 92/147 404/594 91/146
f 92/147 91/146 90/145
f 92/147 90/145 93/149
f 93/149 90/145 96/157
f 96/157 90/145 97/161
f 96/158 97/162 55/93
f 271/401 51/84 97/160
f 271/401 97/160 282/418
f 271/401 282/418 272/402
f 669/1014 670/1017 671/1020
f 262/389 264/391 57/96
f 270/400 271/401 272/402
f 272/402 274/404 398/585
f 481/694 500/716 478/691
f 262/389 57/96 270/400
f 270/400 57/96 271/401
f 270/400 272/402 273/403
f 540/794 537/787 539/792
f 540/795 539/793 538/790
f 541/798 540/795 538/790
f 669/1013 541/796 565/832
f 273/403 272/402 398/585
f 478/691 500/716 507/724
f 478/691 507/724 260/386
f 260/387 507/725 263/390
f 260/387 263/390 262/389
f 262/389 270/400 258/383
f 260/387 262/389 256/381
f 262/389 258/383 256/381
f 258/383 273/403 257/382
f 273/403 398/585 257/382
f 477/690 481/694 479/692
f 479/692 481/694 478/691
f 255/380 256/381 258/383
f 478/691 260/386 475/688
f 255/380 258/383 257/382
f 479/692 478/691 476/689
f 257/382 398/585 366/547
f 568/836 477/690 558/824
f 480/693 477/690 479/692
f 476/689 478/691 475/688
f 253/377 257/382 366/547
f 480/693 479/692 476/689
f 475/688 260/386 254/379
f 254/378 260/387 256/381
f 253/377 255/380 257/382
f 254/378 256/381 255/380
f 254/378 255/380 253/377
f 474/687 480/693 501/717
f 501/717 480/693 503/719
f 506/723 503/719 476/689
f 477/690 480/693 474/687
f 506/723 476/689 473/686
f 476/689 475/688 473/686
f 365/545 367/548 399/586
f 558/824 477/690 474/687
f 473/686 475/688 472/685
f 472/685 475/688 254/379
f 501/717 503/719 502/718
f 503/719 506/723 502/718
f 365/545 399/586 400/587
f 509/728 506/723 473/686
f 474/687 501/717 469/682
f 469/682 501/717 502/718
f 509/728 473/686 470/683
f 470/683 473/686 471/684
f 471/684 473/686 472/685
f 365/545 400/587 363/542
f 364/544 253/377 366/547
f 502/718 509/728 470/683
f 558/824 474/687 469/682
f 472/685 254/379 259/384
f 395/581 363/542 400/587
f 468/681 558/824 469/682
f 469/682 470/683 467/680
f 467/680 470/683 471/684
f 254/378 253/377 251/375
f 471/684 472/685 466/679
f 466/679 472/685 259/384
f 259/385 254/378 251/375
f 468/681 469/682 467/680
f 467/680 471/684 466/679
f 251/375 253/377 252/376
f 468/681 467/680 458/662
f 458/662 467/680 466/679
f 510/731 468/681 458/662
f 458/662 466/679 297/446
f 297/446 466/679 259/384
f 259/385 251/375 261/388
f 261/388 251/375 227/345
f 227/345 251/375 250/374
f 250/374 251/375 252/376
f 250/374 252/376 284/421
f 297/447 259/385 261/388
f 513/736 510/729 564/831
f 550/813 546/806 668/1008
f 357/535 250/374 284/421
f 530/773 668/1009 607/902
f 530/774 524/758 668/1012
f 439/639 529/770 441/641
f 211/324 261/388 227/345
f 564/831 585/863 583/861
f 548/810 564/831 583/861
f 549/812 564/831 548/810
f 546/806 549/812 548/810
f 546/806 548/810 544/802
f 227/345 250/374 196/309
f 196/309 250/374 354/529
f 211/324 227/345 197/310
f 584/862 548/810 583/861
f 227/345 196/309 197/310
f 551/816 528/769 544/803
f 545/804 546/806 544/802
f 439/639 441/641 440/640
f 441/641 211/325 456/660
f 440/640 441/641 456/660
f 211/324 197/310 210/323
f 210/323 197/310 198/311
f 198/311 197/310 192/304
f 192/304 197/310 196/309
f 192/304 196/309 193/306
f 193/306 196/309 354/529
f 22/41 587/866 21/39
f 192/304 193/306 194/307
f 22/42 21/40 14/25
f 456/659 211/324 462/670
f 462/670 211/324 210/323
f 22/42 14/25 588/870
f 438/638 439/639 437/637
f 210/323 198/311 209/322
f 127/211 14/25 17/30
f 437/637 439/639 440/640
f 209/322 198/311 208/321
f 208/321 198/311 192/304
f 118/192 588/869 127/210
f 589/872 588/869 118/192
f 589/872 118/192 111/181
f 118/192 15/27 111/181
f 462/670 210/323 209/322
f 654/979 438/638 437/637
f 209/322 208/321 213/327
f 112/183 589/872 104/172
f 589/872 111/181 104/172
f 104/172 111/181 16/28
f 208/321 192/304 194/307
f 194/307 193/306 195/308
f 440/640 456/660 462/671
f 437/637 440/640 462/671
f 104/172 16/28 7/14
f 212/326 462/670 209/322
f 212/326 209/322 213/327
f 213/327 208/321 242/362
f 104/172 7/14 103/171
f 242/362 208/321 194/307
f 177/278 170/268 169/267
f 519/746 180/285 183/291
f 519/746 183/291 514/738
f 183/291 186/296 515/739
f 514/738 183/291 515/739
f 9/18 519/746 514/738
f 9/18 514/738 516/740
f 514/738 515/739 516/740
f 516/740 515/739 520/748
f 112/183 104/172 99/164
f 99/164 104/172 103/171
f 180/283 177/278 182/289
f 186/295 183/290 534/781
f 186/296 534/782 518/744
f 515/739 186/296 518/744
f 515/739 518/744 535/784
f 522/753 515/739 535/784
f 517/742 9/18 516/740
f 517/742 516/740 5/10
f 654/979 437/637 436/636
f 177/278 169/267 308/469
f 522/751 535/783 301/453
f 5/10 516/740 520/748
f 302/457 5/9 520/747
f 302/457 520/747 521/749
f 521/749 520/747 522/752
f 213/327 242/362 241/361
f 107/176 112/183 99/164
f 300/452 302/458 521/750
f 523/754 522/752 301/454
f 521/749 522/752 523/754
f 99/164 103/171 100/165
f 242/362 194/307 199/312
f 199/312 194/307 195/308
f 650/973 654/979 651/975
f 214/328 213/327 241/361
f 195/308 193/306 246/366
f 651/975 654/979 436/636
f 98/163 99/164 100/165
f 436/636 437/637 435/635
f 435/635 437/637 462/671
f 241/361 242/362 199/312
f 107/176 99/164 98/163
f 651/975 436/636 422/621
f 422/621 436/636 435/635
f 100/166 3/6 125/206
f 101/167 100/165 125/207
f 98/163 100/165 101/167
f 422/621 435/635 418/616
f 462/670 212/326 215/329
f 212/326 214/328 215/329
f 200/313 199/312 195/308
f 435/635 462/671 215/330
f 214/328 241/361 228/346
f 418/616 435/635 444/644
f 444/644 435/635 215/330
f 241/361 199/312 200/313
f 215/329 214/328 216/331
f 228/346 241/361 200/313
f 216/331 214/328 228/346
f 153/240 160/251 152/239
f 102/169 107/176 98/163
f 417/615 422/621 418/616
f 101/167 125/207 126/209
f 420/619 461/669 422/621
f 105/173 101/167 126/209
f 420/619 422/621 417/615
f 98/163 101/167 102/169
f 102/169 101/167 105/173
f 216/331 228/346 229/347
f 609/906 107/175 102/168
f 444/644 215/330 248/371
f 215/329 216/331 217/332
f 417/615 418/616 419/617
f 229/347 228/346 200/313
f 419/617 418/616 444/644
f 116/188 105/173 126/209
f 200/313 195/308 201/314
f 419/617 444/644 248/371
f 248/370 215/329 218/333
f 218/333 215/329 217/332
f 202/315 229/347 200/313
f 202/315 200/313 201/314
f 420/619 417/615 421/620
f 421/620 417/615 419/617
f 230/348 229/347 202/315
f 195/308 246/366 247/368
f 201/314 195/308 247/368
f 217/332 229/347 230/348
f 421/620 419/617 425/625
f 102/169 105/173 106/174
f 220/335 217/332 230/348
f 106/174 105/173 108/177
f 423/623 420/619 421/620
f 419/617 248/371 425/625
f 609/907 102/169 106/174
f 425/625 248/371 455/658
f 455/657 248/370 218/333
f 219/334 218/333 217/332
f 108/177 121/198 123/202
f 202/315 201/314 203/316
f 219/334 217/332 220/335
f 455/657 218/333 219/334
f 611/910 609/907 106/174
f 424/624 423/623 421/620
f 453/654 425/625 455/658
f 230/348 202/315 204/317
f 657/983 423/623 424/624
f 108/177 123/202 124/204
f 109/178 108/177 124/204
f 243/363 230/348 204/317
f 106/174 108/177 109/178
f 426/626 421/620 425/625
f 426/626 425/625 453/654
f 421/620 426/626 424/624
f 158/248 109/178 124/204
f 106/174 109/178 110/179
f 204/317 202/315 203/316
f 113/185 106/174 110/179
f 203/316 201/314 247/368
f 453/653 455/657 219/334
f 427/627 424/624 426/626
f 240/360 243/363 204/317
f 221/336 219/334 220/335
f 657/983 424/624 428/628
f 428/628 424/624 427/627
f 122/199 110/180 145/231
f 221/336 220/335 222/338
f 222/338 220/335 240/360
f 115/187 106/174 114/186
f 114/186 106/174 642/958
f 642/958 106/174 113/185
f 113/185 122/200 642/958
f 426/626 453/654 221/337
f 221/336 453/653 219/334
f 222/338 240/360 239/359
f 239/359 240/360 204/317
f 427/627 426/626 429/629
f 115/187 114/186 117/190
f 114/186 642/958 117/190
f 429/629 426/626 221/337
f 613/913 611/910 115/187
f 512/735 511/733 428/628
f 115/187 117/190 119/193
f 512/735 428/628 460/667
f 430/630 428/628 427/627
f 430/630 427/627 429/629
f 454/655 221/336 223/339
f 223/339 222/338 239/359
f 460/667 428/628 430/630
f 223/339 239/359 238/358
f 120/195 115/187 119/193
f 239/359 204/317 205/318
f 238/358 239/359 205/318
f 205/318 204/317 203/316
f 203/316 247/368 249/372
f 429/629 221/337 454/656
f 638/949 120/196 178/280
f 205/318 203/316 206/319
f 206/319 203/316 249/372
f 232/350 223/339 238/358
f 637/948 613/912 638/949
f 454/655 223/339 224/340
f 224/340 223/339 232/350
f 429/629 454/656 431/631
f 431/631 454/656 224/341
f 430/630 429/629 431/631
f 232/350 238/358 205/318
f 205/318 206/319 207/320
f 225/342 205/318 207/320
f 662/992 430/630 434/634
f 433/633 431/631 452/652
f 452/652 431/631 224/341
f 207/320 206/319 249/372
f 430/630 431/631 432/632
f 231/349 232/350 205/318
f 231/349 205/318 225/342
f 434/634 430/630 432/632
f 181/288 660/988 465/678
f 224/340 232/350 231/349
f 432/632 431/631 433/633
f 465/677 662/992 434/634
f 617/917 614/914 618/919
f 442/642 432/632 433/633
f 459/665 465/677 434/634
f 459/665 434/634 443/643
f 443/643 434/634 432/632
f 442/642 433/633 452/652
f 452/652 224/341 233/352
f 234/353 231/349 225/342
f 432/632 442/642 443/643
f 233/351 231/349 234/353
f 624/926 459/665 443/643
f 234/353 225/342 226/343
f 226/343 225/342 207/320
f 237/357 234/353 226/343
f 442/642 452/652 451/651
f 451/651 452/652 233/352
f 445/645 443/643 442/642
f 624/926 443/643 445/645
f 457/661 233/352 235/355
f 235/354 233/351 234/353
f 237/357 226/343 292/436
f 445/645 442/642 446/646
f 451/651 233/352 457/661
f 446/646 442/642 451/651
f 630/935 624/926 445/645
f 235/354 234/353 236/356
f 236/356 234/353 237/357
f 626/930 624/926 630/935
f 450/650 451/651 457/661
f 236/356 237/357 244/364
f 244/364 237/357 355/530
f 412/606 445/645 446/646
f 446/646 451/651 450/650
f 457/661 235/355 463/672
f 463/673 235/354 236/356
f 630/935 445/645 412/606
f 629/934 626/931 630/936
f 450/650 457/661 463/672
f 413/607 629/934 630/936
f 449/649 446/646 450/650
f 463/673 236/356 244/364
f 412/606 446/646 447/647
f 447/647 446/646 449/649
f 463/673 244/364 245/365
f 449/649 450/650 463/672
f 287/428 244/364 355/530
f 449/649 463/672 291/434
f 291/435 463/673 245/365
f 245/365 244/364 287/428
f 633/939 413/608 412/606
f 633/939 412/606 411/605
f 449/649 291/434 416/613
f 291/435 245/365 288/429
f 288/429 245/365 287/428
f 313/477 632/938 634/941
f 411/605 412/606 409/603
f 409/603 412/606 447/647
f 409/603 447/647 448/648
f 288/429 287/428 294/441
f 410/604 411/605 409/603
f 633/939 411/605 410/604
f 408/601 633/939 410/604
f 416/613 447/647 449/649
f 634/941 633/940 408/602
f 416/614 291/435 288/429
f 448/648 447/647 415/612
f 415/612 447/647 416/613
f 416/614 288/429 295/442
f 313/476 634/942 312/475
f 408/601 410/604 409/603
f 407/600 448/648 415/612
f 296/444 295/442 288/429
f 408/601 409/603 405/597
f 409/603 448/648 407/600
f 405/597 409/603 407/600
f 415/612 416/613 295/443
f 408/601 405/597 311/474
f 407/600 415/612 414/609
f 414/609 415/612 295/443
f 635/945 408/601 311/474
f 414/611 295/442 296/444
f 635/943 311/473 309/471
f 414/610 320/488 310/472
f 414/610 296/445 320/488
f 309/471 310/472 317/481
f 311/474 405/597 406/599
f 405/597 407/600 406/599
f 406/599 407/600 414/609
f 406/598 414/610 310/472
f 309/471 311/473 406/598
f 309/471 406/598 310/472

