# https://github.com/mikedh/trimesh
mtllib material.mtl

o geometry_0.001
usemtl Material_0.001
v 0.00710041 0.00026138 0.02380900
v 0.00081883 -0.00027645 0.02381064
v 0.01003751 -0.00020461 0.02376276
v -0.00677650 0.00019478 0.02391398
v -0.00681339 -0.00020269 0.02389889
v 0.02025563 -0.00023111 0.02375776
v 0.02151058 0.00021242 0.02379832
v -0.01199872 0.00031716 0.02383883
v -0.01174518 -0.00027918 0.02381488
v -0.01787976 -0.00026142 0.02381669
v -0.02811418 -0.00014204 0.02380892
v -0.03271197 0.00034188 0.02378753
v -0.04123636 -0.00016823 0.02373039
v -0.04418121 0.00033275 0.02371369
v -0.05257183 -0.00022406 0.02372476
v -0.06099652 0.00034096 0.02370485
v -0.06076799 -0.00038956 0.02370396
v -0.06554150 0.00006111 0.02356707
v -0.06501313 -0.00131968 0.02342637
v -0.07110928 -0.00045116 0.02342356
v -0.06893554 -0.00163340 0.02332039
v -0.04072753 -0.00077915 0.02362905
v -0.05921918 -0.00157925 0.02339642
v -0.02713607 -0.00068266 0.02370875
v -0.07086524 -0.00124451 0.02330139
v 0.02596367 -0.00017829 0.02358542
v 0.00322906 -0.00176458 0.02338297
v 0.01283878 -0.00170613 0.02332360
v -0.00550012 -0.00179207 0.02341431
v -0.01031047 -0.00168676 0.02343765
v 0.01934149 -0.00176126 0.02329612
v -0.03404108 -0.00155138 0.02342633
v -0.04773322 -0.00149509 0.02341907
v -0.04144040 -0.00151870 0.02338835
v -0.01777375 -0.00167469 0.02337856
v -0.01159940 -0.00138831 0.02345895
v -0.02572211 -0.00160085 0.02337914
v 0.02653565 -0.00131316 0.02321739
v 0.02792211 -0.00031749 0.02344959
v 0.02786781 -0.00197776 0.02293571
v 0.02558637 -0.00235157 0.02286334
v -0.07098322 -0.00218527 0.02294473
v 0.02781220 -0.00276756 0.02250084
v 0.02034115 -0.00278578 0.02278578
v 0.01349480 -0.00308807 0.02262460
v -0.00691470 -0.00306066 0.02275543
v 0.00186387 -0.00307332 0.02271938
v 0.00828708 -0.00309493 0.02266717
v -0.06889093 -0.00274508 0.02270896
v -0.05925640 -0.00267586 0.02276695
v -0.01168460 -0.00249026 0.02284151
v -0.01029097 -0.00291883 0.02271622
v -0.04888173 -0.00275414 0.02266037
v -0.03968661 -0.00269615 0.02266845
v 0.02651952 -0.00341727 0.02215907
v 0.02064630 -0.00352573 0.02231026
v -0.02478846 -0.00264214 0.02271149
v -0.01676456 -0.00276850 0.02266161
v 0.00743887 -0.00359126 0.02231223
v 0.02921981 -0.00181523 0.02262014
v -0.07069342 -0.00354913 0.02194249
v -0.04910125 -0.00348498 0.02207079
v -0.06169495 -0.00349848 0.02212425
v -0.00698433 -0.00370705 0.02222199
v -0.02761066 -0.00351040 0.02200713
v 0.03008810 0.00004772 0.02286749
v 0.03076742 -0.00240109 0.02169671
v 0.03051403 -0.00153900 0.02226360
v 0.03250153 -0.00003453 0.02233668
v 0.03453137 -0.00126245 0.02157917
v 0.03589202 0.00010628 0.02175793
v 0.03903198 -0.00057939 0.02093778
v 0.03895722 0.00044608 0.02111325
v 0.04242223 0.00005460 0.02044923
v 0.04129261 -0.00117128 0.02027155
v 0.04565823 -0.00092980 0.01964962
v 0.04571272 -0.00031225 0.01988519
v 0.04829210 -0.00106894 0.01938185
v 0.04894645 -0.00028054 0.01976748
v 0.05023998 -0.00048207 0.01984223
v 0.05020450 0.00052692 0.01992064
v 0.04852726 0.00035284 0.01980316
v 0.04577925 0.00025745 0.01993592
v 0.02782812 0.00021398 0.02349018
v -0.07101940 0.00055522 0.02343502
v 0.03849761 -0.00168094 0.02042041
v -0.06551705 0.00116781 0.02340853
v 0.05146205 0.00022465 0.02031617
v 0.05165191 -0.00047955 0.02023483
v 0.05338100 0.00038578 0.02098681
v 0.01301026 0.00108348 0.02365564
v 0.05345382 -0.00049574 0.02084693
v -0.07101218 0.00134767 0.02328418
v -0.05934617 0.00120518 0.02352676
v -0.04732619 0.00120210 0.02353222
v -0.03745032 0.00122000 0.02353536
v -0.00101026 0.00125983 0.02363748
v 0.01185725 0.00196231 0.02342978
v 0.05509700 -0.00001500 0.02155781
v -0.01027236 0.00169994 0.02352780
v 0.02097188 0.00180373 0.02342367
v 0.02593143 0.00157863 0.02323282
v 0.03493976 0.00106680 0.02170388
v 0.03749826 0.00105898 0.02123422
v 0.03158933 0.00108740 0.02228391
v 0.04541184 0.00096644 0.01982302
v 0.04894399 0.00089716 0.01963244
v 0.04193657 0.00097226 0.02035537
v -0.02569945 0.00124367 0.02356129
v -0.01209368 0.00160308 0.02347892
v -0.00029199 0.00203239 0.02341695
v 0.02839555 0.00186640 0.02297521
v 0.04468403 -0.00167033 0.01918713
v 0.05719038 0.00003750 0.02239970
v 0.05731369 -0.00065227 0.02220968
v 0.05606764 0.00032098 0.02191780
v 0.05630546 0.00085443 0.02193402
v 0.03108868 -0.00300537 0.02106379
v -0.07250512 -0.00102729 0.02250894
v 0.03003781 0.00240604 0.02205824
v 0.04148451 -0.00152016 0.01996916
v -0.07222520 0.00009176 0.02285308
v 0.05418535 0.00099097 0.02100080
v 0.01453981 0.00269132 0.02312466
v 0.02212483 0.00289153 0.02292981
v 0.02961451 -0.00354521 0.02125675
v -0.06643527 0.00212497 0.02300869
v -0.05981897 0.00195751 0.02321332
v -0.07104806 0.00220922 0.02292193
v -0.04972369 0.00198914 0.02320989
v -0.03802742 0.00202487 0.02320262
v -0.02351281 0.00186654 0.02328688
v 0.03934496 0.00169573 0.02050082
v -0.00024970 0.00277778 0.02307470
v -0.00891971 0.00278169 0.02302755
v -0.07229267 0.00121155 0.02268098
v 0.03134581 0.00216014 0.02182716
v 0.02739021 0.00304178 0.02244194
v 0.05947426 0.00020218 0.02393723
v 0.05943576 -0.00029628 0.02377187
v 0.06206661 0.00022570 0.02513925
v 0.06384762 -0.00008958 0.02545250
v 0.06217482 0.00097392 0.02507110
v 0.06448814 0.00079023 0.02545324
v 0.06554691 0.00024332 0.02535819
v 0.06073460 0.00099879 0.02448735
v 0.02775479 -0.00399282 0.02137808
v 0.05883797 0.00095077 0.02344746
v -0.01126273 0.00272178 0.02290813
v -0.01207776 0.00254121 0.02293707
v 0.03700801 0.00164319 0.02101133
v 0.06444996 0.00133701 0.02515085
v -0.00072810 -0.00416385 0.02164481
v 0.02879635 0.00292569 0.02230625
v -0.01986288 0.00251838 0.02286924
v -0.05863174 0.00250534 0.02288039
v -0.03946241 0.00259435 0.02284378
v 0.00915694 0.00308182 0.02289572
v 0.03425666 0.00217548 0.02117202
v 0.03988883 0.00203960 0.02000516
v 0.05565652 0.00115832 0.02144046
v 0.05097695 0.00118965 0.01976578
v 0.01701768 0.00350315 0.02253184
v -0.00162183 0.00361262 0.02243293
v 0.02245985 0.00365465 0.02231624
v -0.03879677 0.00295040 0.02250202
v -0.01286420 0.00312259 0.02230633
v 0.03153373 0.00294387 0.02108007
v -0.02152285 0.00292851 0.02245434
v 0.03635039 0.00230501 0.02047235
v -0.00251164 0.00290077 0.01600026
v -0.00196770 0.00180344 0.01546117
v -0.00858748 0.00173275 0.01548542
v 0.01315567 0.00283818 0.01602075
v 0.01093936 0.00173926 0.01547271
v 0.00305983 0.00175134 0.01546770
v 0.02039469 0.00173401 0.01548997
v -0.00848940 0.00274783 0.01600798
v 0.02888700 0.00153338 0.01554721
v -0.01095075 0.00220630 0.01585591
v -0.01039936 0.00125125 0.01539356
v -0.01160937 0.00175963 0.01575728
v 0.02583078 0.00027480 0.01517171
v 0.01560449 0.00034924 0.01512124
v 0.00766044 0.00027485 0.01513705
v -0.00034023 0.00027994 0.01515132
v -0.00729263 0.00025052 0.01514087
v 0.02890727 0.00023633 0.01527069
v -0.01038779 0.00001882 0.01518881
v -0.01133336 0.00009214 0.01530966
v -0.01381977 0.00167044 0.01584496
v -0.01510018 0.00032338 0.01548720
v -0.01915593 0.00131153 0.01585921
v -0.02231361 0.00041757 0.01564443
v -0.02901743 0.00048963 0.01579233
v -0.02759451 0.00148413 0.01610171
v -0.04242469 0.00051807 0.01602748
v -0.04764229 0.00154254 0.01644135
v -0.04927378 0.00111149 0.01632288
v -0.06022550 0.00139723 0.01644402
v -0.06081434 0.00096456 0.01631500
v -0.06517790 0.00155249 0.01664623
v -0.03773516 0.00030832 0.01590341
v -0.06662224 0.00058469 0.01650410
v -0.06083754 0.00044047 0.01621262
v -0.04919612 0.00046117 0.01620769
v -0.07056477 0.00141402 0.01670566
v -0.07081718 0.00019403 0.01651813
v -0.07050812 0.00220505 0.01705952
v -0.06558996 0.00254982 0.01717860
v -0.03653028 0.00180289 0.01640563
v -0.01995758 0.00200279 0.01625258
v -0.03155021 0.00277481 0.01695503
v -0.01095019 0.00313245 0.01657414
v -0.07194798 0.00129262 0.01714201
v -0.02642542 -0.00008985 0.01570065
v -0.03894409 -0.00006677 0.01593399
v 0.02831768 -0.00023145 0.01523526
v -0.01517114 -0.00013963 0.01551785
v -0.06586726 -0.00062274 0.01648957
v -0.06076994 -0.00015407 0.01621925
v 0.03007945 0.00124650 0.01586599
v -0.04851822 -0.00011100 0.01621814
v 0.00335091 -0.00035095 0.01518563
v 0.01595786 -0.00026585 0.01515221
v 0.02999727 -0.00012268 0.01559473
v 0.03222456 0.00011021 0.01597790
v 0.03326301 0.00034008 0.01621252
v 0.03694417 0.00049924 0.01660254
v 0.03698734 0.00171760 0.01716144
v 0.04223597 0.00078336 0.01718053
v 0.03879175 0.00019413 0.01673308
v 0.04514298 0.00025263 0.01722710
v 0.04834176 0.00074926 0.01752584
v 0.04792063 0.00011503 0.01735619
v 0.05135060 0.00022614 0.01765468
v 0.05148887 0.00069250 0.01782571
v 0.03795644 -0.00034600 0.01671246
v 0.04706818 -0.00038610 0.01740948
v -0.00755074 -0.00040156 0.01518885
v 0.03366857 -0.00044840 0.01629075
v 0.03211480 -0.00040712 0.01602474
v -0.07072749 -0.00118884 0.01663752
v -0.04219419 -0.00070989 0.01610987
v -0.04998140 -0.00074832 0.01633000
v -0.06004455 -0.00095387 0.01635566
v -0.01134603 -0.00114920 0.01552009
v 0.05112642 0.00110294 0.01799683
v 0.02348995 -0.00172265 0.01547193
v 0.01632377 -0.00122166 0.01533030
v 0.00520048 -0.00169940 0.01547495
v 0.05339071 0.00034339 0.01850673
v -0.01931528 -0.00073477 0.01570633
v -0.01414780 -0.00117077 0.01571801
v -0.06602946 -0.00146440 0.01667055
v -0.01059338 -0.00148984 0.01550226
v -0.03243881 -0.00082240 0.01600024
v 0.05120492 -0.00033968 0.01775398
v 0.02870347 -0.00164977 0.01557915
v -0.07210474 -0.00096467 0.01714199
v -0.04931421 -0.00165316 0.01662040
v -0.03158679 -0.00134576 0.01616980
v -0.04245790 -0.00136683 0.01634132
v 0.03042057 -0.00168836 0.01615316
v 0.03754878 -0.00096448 0.01688421
v -0.05977688 -0.00174869 0.01666185
v 0.03286798 -0.00168467 0.01669318
v 0.02595859 -0.00292561 0.01609110
v -0.07220358 0.00271713 0.01828130
v 0.01563284 0.00474439 0.01833871
v 0.00490650 0.00481386 0.01871374
v 0.01252807 0.00500000 0.01976699
v 0.01921663 0.00496762 0.01973354
v 0.02463044 0.00460678 0.01834640
v 0.02533682 0.00485248 0.01973848
v 0.00543537 0.00496568 0.01973409
v -0.00115069 0.00492393 0.01972215
v 0.00046206 0.00471823 0.01834856
v -0.00845591 0.00477586 0.01972556
v -0.00783451 0.00457608 0.01840911
v -0.01096216 0.00428985 0.01842409
v -0.01073761 0.00449889 0.01995773
v -0.01032647 0.00411453 0.01778733
v -0.00524198 0.00416229 0.01739329
v 0.02563434 0.00409936 0.01743022
v 0.01801046 0.00419193 0.01736198
v 0.00756784 0.00416686 0.01731920
v -0.00792366 0.00332782 0.01649355
v -0.01154106 0.00370041 0.01772061
v 0.00003683 0.00350099 0.01656203
v -0.01178105 0.00286643 0.01658687
v -0.01327458 0.00364108 0.01785594
v -0.01341296 0.00391118 0.01868461
v -0.02257496 0.00379532 0.01877870
v -0.02250435 0.00345402 0.01786520
v -0.03161392 0.00383546 0.01872845
v -0.03007734 0.00351105 0.01796497
v -0.03610026 0.00344803 0.01787918
v -0.04055148 0.00385356 0.01875921
v -0.04666490 0.00344910 0.01797824
v -0.04647380 0.00375826 0.01863895
v -0.06003693 0.00378927 0.01884394
v -0.06022669 0.00342640 0.01805294
v -0.07050195 0.00361552 0.01865566
v -0.07088739 0.00380713 0.01921313
v -0.07051243 0.00336459 0.01816269
v -0.01152777 0.00402169 0.01874640
v -0.04408062 0.00402942 0.01971988
v -0.04062537 0.00406939 0.01988972
v -0.05803284 0.00398202 0.01974385
v -0.06452177 0.00398099 0.02001076
v -0.06926138 0.00400329 0.02000594
v -0.07159808 0.00331753 0.01852165
v -0.02318520 0.00393991 0.01970991
v -0.03316171 0.00404470 0.01987607
v -0.03580389 0.00403412 0.01988447
v -0.01156903 0.00407258 0.01970442
v -0.07115237 0.00387595 0.02011912
v -0.01637326 0.00282181 0.01679579
v -0.02473523 0.00267257 0.01681884
v -0.05264560 0.00274293 0.01711551
v -0.06186629 0.00291275 0.01740584
v -0.04513938 0.00275178 0.01707880
v -0.07046424 0.00288645 0.01755762
v 0.01854458 0.00347584 0.01655994
v 0.02680868 0.00328575 0.01645535
v 0.01064512 0.00338551 0.01648372
v -0.07159074 0.00276698 0.01780967
v -0.04434700 0.00399256 0.02017293
v 0.02074322 0.00285689 0.01601552
v 0.00299215 0.00288859 0.01602151
v -0.02399593 0.00391207 0.02019694
v -0.01329879 0.00396474 0.02050166
v -0.01143719 0.00401577 0.02062373
v 0.00987253 0.00493469 0.02022556
v -0.00005216 0.00483439 0.02039574
v -0.00835930 0.00472516 0.02011493
v 0.01754343 0.00489365 0.02032870
v -0.04022332 0.00389795 0.02072531
v -0.04931115 0.00386685 0.02073860
v -0.06970376 0.00383618 0.02075846
v -0.03055190 0.00385382 0.02073496
v 0.02815484 0.00451363 0.02036274
v -0.02247665 0.00369227 0.02111670
v 0.02306540 0.00457864 0.02105168
v -0.00678525 0.00449839 0.02108978
v -0.01092006 0.00409783 0.02138174
v 0.01118640 0.00468123 0.02108674
v -0.07133400 0.00347027 0.02145776
v -0.05274898 0.00368063 0.02132938
v -0.01152514 0.00358041 0.02171201
v 0.00039849 0.00455547 0.02122152
v -0.04030020 0.00365032 0.02146060
v -0.03013880 0.00362548 0.02139715
v -0.06964560 0.00365365 0.02129638
v -0.02166230 0.00336290 0.02184289
v 0.02818177 0.00400256 0.02147719
v -0.05612081 0.00336742 0.02195242
v -0.06963222 0.00338457 0.02179610
v -0.00736734 0.00410844 0.02178800
v -0.03004829 0.00341477 0.02180672
v 0.01292832 0.00434003 0.02168175
v -0.03904800 0.00329000 0.02206335
v 0.02248960 0.00414981 0.02176201
v -0.00077394 0.00404908 0.02198234
v -0.07117251 0.00283918 0.02242357
v -0.06074511 0.00293180 0.02250703
v -0.00794785 0.00364001 0.02231028
v -0.01101734 0.00339975 0.02229850
v -0.07225978 0.00245961 0.02205329
v 0.00962765 0.00387226 0.02223296
v 0.07072188 0.00032318 0.00790126
v 0.07134609 0.00047981 0.01021830
v 0.07140515 0.00109873 0.01002526
v 0.07176709 0.00034313 0.01198042
v 0.07015420 0.00064958 0.00610044
v 0.07195677 0.00093280 0.01337675
v 0.07195361 0.00035365 0.01371877
v 0.07192218 0.00038650 0.01512909
v 0.07139167 -0.00038003 0.00990809
v 0.07082275 -0.00072923 0.00767198
v 0.07204255 -0.00056461 0.01252197
v 0.07005778 -0.00039603 0.00555657
v 0.07206364 -0.00046053 0.01549839
v 0.06964740 0.00060902 0.00499226
v 0.06910236 0.00001560 0.00394510
v 0.06906572 0.00068608 0.00346986
v 0.07148959 -0.00078156 0.00964408
v 0.07046253 -0.00078012 0.00604687
v 0.06830534 -0.00025932 0.00186397
v 0.06830756 0.00021633 0.00195995
v 0.06749634 -0.00044116 0.00014475
v 0.06861851 0.00060634 0.00233975
v 0.06796654 0.00050883 0.00068024
v 0.07226154 -0.00080580 0.01243564
v 0.07292210 0.00029908 0.00968279
v 0.07266650 -0.00055176 0.00944195
v 0.07202526 -0.00059545 0.00755404
v 0.07148385 -0.00059343 0.00635093
v 0.07063349 -0.00047635 0.00462762
v 0.06994762 0.00022327 0.00313842
v 0.06983723 -0.00050460 0.00329693
v 0.06896258 0.00004197 0.00168498
v 0.07321475 -0.00030446 0.01162100
v 0.07290416 -0.00081007 0.01116029
v 0.07058588 -0.00086746 0.00539573
v 0.07315430 -0.00079014 0.01500496
v 0.07124510 -0.00099089 0.00705038
v 0.07177223 -0.00104555 0.00860532
v 0.07213935 -0.00100500 0.01008539
v 0.07271974 -0.00094793 0.01196691
v 0.06884874 -0.00058244 0.00242784
v 0.07267193 -0.00101558 0.01661082
v 0.07281898 -0.00073933 0.01790293
v 0.07043536 -0.00105894 0.02162702
v 0.06945373 -0.00108564 0.02222996
v 0.07236169 -0.00099667 0.01653161
v 0.07232124 -0.00079797 0.01505740
v 0.06779394 -0.00111415 0.02337534
v 0.06947605 -0.00064037 0.00409349
v -0.07315433 0.00194120 0.01966466
v -0.07326947 0.00013348 0.01869520
v -0.07341080 0.00002924 0.02003645
v -0.07314716 0.00176546 0.02087985
v -0.07320639 0.00009983 0.02137181
v -0.07314580 -0.00118707 0.02124530
v -0.07319787 -0.00192321 0.01991932
v -0.07286024 -0.00219750 0.01856694
v -0.07289747 0.00202565 0.01864512
v -0.07283824 0.00039107 0.01780074
v -0.07279396 0.00283515 0.02014928
v -0.07284375 0.00241857 0.02110319
v -0.07277218 0.00075139 0.02232663
v -0.07273230 -0.00232478 0.02135808
v -0.07266275 -0.00297930 0.02012973
v -0.07203928 -0.00248558 0.02219518
v -0.07225762 0.00328310 0.02076930
v -0.07198044 -0.00352735 0.02060824
v -0.07225819 0.00332966 0.01961128
v 0.05788128 -0.00063254 0.02148295
v 0.05620565 -0.00056458 0.02040413
v 0.05452194 -0.00019721 0.01925016
v 0.05970913 -0.00062788 0.02259383
v 0.05434678 -0.00069569 0.01949681
v 0.05324892 -0.00017073 0.01851425
v 0.05239429 -0.00069908 0.01845517
v 0.06130880 -0.00079931 0.02348295
v 0.05072850 -0.00069298 0.01786137
v 0.06382991 -0.00080831 0.02390746
v 0.05068791 -0.00129854 0.01862726
v 0.05242115 -0.00123904 0.01928397
v 0.05642966 -0.00094621 0.02119747
v 0.05433381 -0.00112273 0.02026450
v 0.04656811 -0.00122042 0.01793214
v 0.04614831 -0.00167439 0.01861758
v 0.04223427 -0.00182306 0.01796170
v 0.04226341 -0.00220484 0.01864300
v 0.06139618 -0.00099463 0.02410272
v 0.03757973 -0.00234348 0.01816995
v 0.03690112 -0.00275248 0.01883729
v 0.03494110 -0.00271258 0.01806618
v 0.03310484 -0.00340022 0.01874810
v 0.03206021 -0.00289306 0.01746097
v 0.06490138 -0.00117399 0.02464816
v 0.03045039 -0.00373192 0.01800888
v 0.03079162 -0.00392327 0.01902624
v 0.02952909 -0.00416831 0.01815942
v 0.03327189 -0.00340276 0.01917668
v 0.06694466 -0.00082295 0.02334080
v 0.03741526 -0.00171261 0.01729189
v 0.03694886 -0.00275819 0.01914498
v 0.03032093 -0.00296629 0.01694214
v 0.03456818 -0.00218724 0.01732932
v 0.02845008 -0.00353656 0.01674688
v 0.04711717 -0.00148035 0.01894217
v 0.04226071 -0.00218642 0.01893658
v 0.05098125 -0.00122450 0.01936042
v 0.03094135 -0.00378126 0.01974072
v 0.02835482 -0.00472039 0.01955492
v 0.04300782 -0.00099863 0.01736948
v 0.07032156 -0.00080533 0.02052678
v 0.05551760 -0.00096718 0.02096700
v 0.07155211 -0.00104296 0.01932768
v 0.07088616 -0.00069242 0.01939891
v 0.02910249 -0.00399947 0.02078606
v 0.03347440 -0.00282567 0.02038023
v 0.02685753 -0.00468047 0.02010537
v 0.02610657 -0.00482851 0.01962816
v 0.01712631 -0.00487204 0.02025359
v 0.01497401 -0.00500000 0.01972010
v 0.00752683 -0.00482847 0.02029798
v 0.00366017 -0.00489663 0.01965018
v -0.00018967 -0.00478556 0.02033039
v -0.00341858 -0.00483869 0.01977114
v -0.01024674 -0.00464817 0.02040242
v -0.00883067 -0.00478884 0.01978321
v -0.00584225 -0.00449651 0.02109979
v 0.00281440 -0.00454557 0.02109940
v 0.01822179 -0.00455570 0.02103560
v 0.02464567 -0.00445903 0.02083601
v 0.02624277 -0.00400634 0.02144242
v -0.01089894 -0.00409836 0.02139881
v -0.01139682 -0.00419017 0.02046544
v -0.01160133 -0.00385534 0.02134497
v -0.01901287 -0.00402378 0.02111039
v -0.01873019 -0.00425351 0.02029329
v -0.02820342 -0.00423657 0.02024573
v -0.01152964 -0.00428690 0.01987495
v -0.02663100 -0.00401976 0.02110062
v -0.03730066 -0.00397270 0.02118784
v -0.03899987 -0.00420959 0.02034918
v -0.04701016 -0.00390155 0.02126427
v -0.05929909 -0.00412996 0.02037323
v -0.04766149 -0.00416069 0.02031696
v -0.05648752 -0.00391776 0.02124548
v -0.06409994 -0.00395960 0.02121058
v -0.06883767 -0.00404582 0.02115126
v -0.06874649 -0.00422569 0.02012653
v -0.07065242 -0.00407418 0.02062370
v -0.04311767 -0.00365030 0.02180853
v -0.06865183 -0.00357696 0.02206863
v -0.01700745 -0.00354771 0.02197070
v -0.01163561 -0.00347969 0.02199534
v 0.03734115 -0.00221885 0.01994881
v -0.07192205 -0.00328680 0.02135141
v 0.01965520 -0.00409587 0.02165757
v 0.00850295 -0.00401042 0.02182416
v -0.03744382 -0.00344842 0.02208844
v -0.01086273 -0.00459851 0.02006819
v -0.01066114 -0.00356539 0.02214887
v 0.03450562 -0.00182507 0.02117926
v 0.05540722 -0.00066882 0.02134818
v 0.02763460 -0.00456814 0.01836379
v 0.01666564 -0.00474275 0.01841889
v 0.00702075 -0.00478750 0.01882768
v -0.00697643 -0.00458700 0.01844620
v 0.00071624 -0.00465898 0.01836503
v 0.00860024 -0.00463622 0.01827766
v -0.01096453 -0.00420652 0.01813779
v -0.00677576 -0.00413896 0.01752167
v 0.02005384 -0.00411413 0.01725574
v 0.02744778 -0.00405424 0.01733162
v 0.00132004 -0.00409383 0.01732520
v 0.01173869 -0.00413095 0.01733491
v -0.01066015 -0.00344648 0.01684523
v -0.00736901 -0.00358302 0.01677508
v 0.02620456 -0.00355132 0.01664633
v 0.00108920 -0.00361755 0.01671122
v 0.00944312 -0.00355210 0.01664927
v 0.01942408 -0.00359586 0.01660978
v -0.01152867 -0.00361112 0.01751471
v -0.01149515 -0.00408345 0.01848169
v -0.01760927 -0.00382656 0.01804199
v -0.01287281 -0.00413533 0.01870900
v -0.02563615 -0.00412130 0.01888295
v -0.02783478 -0.00381530 0.01821874
v -0.03196747 -0.00404784 0.01882672
v -0.03578695 -0.00364116 0.01799760
v -0.04483631 -0.00360212 0.01811639
v -0.04937041 -0.00389551 0.01876204
v -0.05493445 -0.00356607 0.01809458
v -0.06237925 -0.00397895 0.01901037
v -0.06359729 -0.00352144 0.01809975
v -0.04405608 -0.00421833 0.01975486
v -0.05128638 -0.00415534 0.01974842
v -0.06871724 -0.00402662 0.01897448
v -0.06952224 -0.00352291 0.01804792
v -0.07052632 -0.00388809 0.01883457
v -0.02133308 -0.00359538 0.01777142
v -0.02217353 -0.00429457 0.01983105
v -0.06303169 -0.00414714 0.01985968
v -0.07064193 -0.00408654 0.01973546
v -0.07055119 -0.00334695 0.01796693
v -0.01922440 -0.00328864 0.01732396
v -0.03331796 -0.00306438 0.01730591
v -0.01149423 -0.00291474 0.01667347
v -0.07188205 -0.00328991 0.01868308
v -0.07196096 -0.00353462 0.01964315
v -0.04124494 -0.00291107 0.01733322
v -0.04924763 -0.00273945 0.01730041
v -0.05726562 -0.00274739 0.01729162
v -0.07196230 -0.00267460 0.01789519
v -0.06845050 -0.00264323 0.01730528
v -0.01977965 -0.00240076 0.01658482
v -0.02865692 -0.00235986 0.01666808
v 0.01178767 -0.00294958 0.01611571
v 0.00185183 -0.00291797 0.01611377
v -0.00684370 -0.00282051 0.01610851
v -0.01078629 -0.00256388 0.01610142
v 0.02014189 -0.00290048 0.01602928
v 0.02866852 -0.00261766 0.01601865
v -0.07072899 -0.00229652 0.01711062
v -0.07145177 -0.00225347 0.01731493
v -0.01420813 -0.00212458 0.01616419
v -0.01134872 -0.00212089 0.01599317
v -0.04090127 -0.00193632 0.01661642
v -0.02005161 -0.00134652 0.01593757
v -0.00718008 -0.00171312 0.01550503
v -0.00130002 -0.00181548 0.01554123
v 0.01843887 -0.00189696 0.01551506
v 0.01175455 -0.00176817 0.01551088
v -0.07278095 -0.00137512 0.01791009
v 0.06912650 0.00030389 0.02159919
v 0.06927765 -0.00073691 0.02162131
v 0.06791300 -0.00008202 0.02253762
v 0.06800575 0.00108019 0.02266663
v 0.07013920 -0.00038908 0.02048864
v 0.07024370 0.00031267 0.02021435
v 0.07081535 0.00109585 0.01951168
v 0.07113707 0.00034134 0.01861802
v 0.07150844 -0.00065562 0.01805520
v 0.06825233 -0.00084719 0.02263018
v 0.07172533 0.00037832 0.01664336
v 0.07185478 0.00101202 0.01659087
v 0.06664500 0.00032579 0.02320033
v 0.06642792 -0.00043682 0.02339041
v 0.06681983 0.00116784 0.02337769
v 0.06561664 -0.00082279 0.02375904
v 0.06583103 0.00107854 0.02362859
v 0.06495287 0.00031765 0.02354336
v 0.06436854 -0.00028218 0.02363659
v 0.06465429 0.00083264 0.02362697
v 0.07323714 0.00072457 0.01768061
v 0.07235601 0.00027653 0.01975841
v 0.07246346 -0.00050004 0.01917594
v 0.07315819 -0.00028757 0.01728740
v 0.07144133 -0.00052980 0.02099405
v 0.07077409 0.00027998 0.02223443
v 0.07054397 -0.00052892 0.02221408
v 0.06927446 0.00026670 0.02362486
v 0.06908081 -0.00061975 0.02350026
v 0.06755488 0.00024993 0.02469270
v 0.06758847 -0.00057337 0.02445142
v 0.06628206 -0.00063311 0.02497370
v 0.07204215 -0.00100142 0.01917782
v 0.06762505 -0.00110014 0.02392264
v 0.06591367 -0.00113360 0.02434657
v 0.06510923 -0.00061384 0.02523739
v 0.06348410 -0.00091575 0.02498363
v 0.06217791 -0.00062470 0.02495332
v 0.06034485 -0.00070449 0.02402896
v 0.05877077 -0.00092441 0.02260304
v 0.07038457 0.00085385 0.00421439
v 0.07100914 0.00027223 0.00501313
v 0.07122740 0.00090791 0.00565094
v 0.07216007 0.00028878 0.00741097
v 0.07332699 0.00085417 0.01168899
v 0.06757812 0.00006500 0.00002312
v 0.07338029 -0.00011236 0.01520561
v 0.07341080 0.00101395 0.01521174
v 0.07318021 0.00133510 0.01244599
v 0.07273614 0.00120062 0.00996511
v 0.07283343 0.00082172 0.00953881
v 0.07203811 0.00095943 0.00739944
v 0.07232515 0.00154396 0.01030062
v 0.07191139 0.00149509 0.00906123
v 0.07131807 0.00130724 0.00694870
v 0.07269652 0.00148877 0.01237892
v 0.07316560 0.00131399 0.01644418
v 0.07256868 0.00150004 0.01687950
v 0.07226850 0.00148484 0.01843072
v 0.07024194 0.00104122 0.00526834
v 0.06960199 0.00089769 0.00340169
v 0.07168645 0.00142359 0.01864535
v 0.07183869 0.00145169 0.01966612
v 0.07128020 0.00151586 0.01990122
v 0.07103793 0.00121554 0.00764545
v 0.07226491 0.00135208 0.01652387
v 0.07229491 0.00135287 0.01256731
v 0.07183301 0.00116202 0.01178973
v 0.07079512 0.00096985 0.00785162
v 0.06968250 0.00058808 0.00284429
v 0.07203408 0.00098347 0.01499997
v 0.07133642 0.00099067 0.01830674
v 0.07282969 0.00101486 0.01858666
v 0.07177995 0.00095638 0.02068574
v 0.07105849 0.00152971 0.02073158
v 0.07067268 0.00102307 0.02225395
v 0.07013115 0.00149688 0.02200736
v 0.06946570 0.00150161 0.02225202
v 0.06809781 0.00141761 0.02384949
v 0.06744766 0.00157192 0.02367650
v 0.06534234 0.00157814 0.02477976
v 0.06609169 0.00157566 0.02413964
v 0.06335222 0.00162952 0.02422757
v 0.06213229 0.00156326 0.02449186
v 0.07022329 0.00112394 0.02049157
v 0.06918223 0.00098339 0.02361230
v 0.06759331 0.00096334 0.02458830
v 0.06633053 0.00099731 0.02507504
v 0.06026655 0.00155115 0.02369015
v 0.05975302 0.00112385 0.02387588
v 0.05734103 0.00153453 0.02191370
v 0.05722462 0.00119033 0.02231182
v 0.05646912 0.00108922 0.02043175
v 0.05767346 0.00071454 0.02097743
v 0.05499948 0.00057077 0.01934369
v 0.05459888 0.00107797 0.01940193
v 0.05788413 0.00111401 0.02133020
v 0.05916692 0.00105205 0.02201520
v 0.05290659 0.00101128 0.01855525
v 0.05835675 0.00152625 0.02204156
v 0.05999671 0.00107750 0.02250979
v 0.06093317 0.00157627 0.02352081
v 0.06161746 0.00105148 0.02322837
v 0.06383349 0.00110693 0.02370181
v 0.05596441 0.00153765 0.02087680
v 0.05469174 0.00152177 0.02006444
v 0.05188194 0.00153742 0.01894062
v 0.04888261 0.00161175 0.01847431
v 0.04731221 0.00123241 0.01775453
v 0.04608807 0.00169722 0.01818419
v 0.04263017 0.00218233 0.01866194
v 0.04238447 0.00176390 0.01783276
v 0.03582326 0.00232171 0.01768577
v 0.03845775 0.00270071 0.01908751
v 0.05153361 0.00158590 0.01924760
v 0.03653103 0.00294533 0.01918005
v 0.03430820 0.00324030 0.01907382
v 0.03428413 0.00329905 0.01928396
v 0.03200601 0.00359886 0.01958979
v 0.03149492 0.00324311 0.01789354
v 0.03070365 0.00399395 0.01933166
v 0.02873860 0.00424294 0.01789625
v 0.02865230 0.00463496 0.01959316
v 0.04260937 0.00218700 0.01898233
v 0.04652903 0.00171428 0.01896158
v 0.04984621 0.00157999 0.01891110
v 0.02888876 0.00344752 0.01675599
v 0.03179776 0.00272689 0.01727714
v 0.03371923 0.00222936 0.01719773
v 0.05479068 0.00147995 0.02057368
v 0.03025651 0.00265638 0.01661795
v 0.02883038 0.00248010 0.01592060
v 0.03251182 0.00170245 0.01663011
v 0.06914215 0.00109175 0.02175006
v 0.02919285 0.00409782 0.02090192
v 0.03143105 0.00335413 0.02040299
v 0.02955977 0.00357055 0.02139395
v 0.04515342 0.00159504 0.01940242
v 0.04228857 0.00163137 0.01989920
v 0.04924155 0.00120366 0.01941724
v 0.05200627 0.00102067 0.02029591
v 0.05692202 0.00015976 0.02045608
v 0.06269926 0.00011531 0.02338916
v 0.06140806 -0.00003977 0.02307966
v 0.05979393 0.00024526 0.02236700
v 0.06716584 0.00003087 -0.00000000
vt 0.54011285 0.33207023
vt 0.49840450 0.31986755
vt 0.55953807 0.31947595
vt 0.44805506 0.33369088
vt 0.44778714 0.32370627
vt 0.62709635 0.31669074
vt 0.63536686 0.32770526
vt 0.41330454 0.33817542
vt 0.41495609 0.32274908
vt 0.37376913 0.32527435
vt 0.30508217 0.33156413
vt 0.27426317 0.34539753
vt 0.21702483 0.33506310
vt 0.19733144 0.34891707
vt 0.14110081 0.33731133
vt 0.08474162 0.35439765
vt 0.08619557 0.33574510
vt 0.05447181 0.34874153
vt 0.05784081 0.31334043
vt 0.01785830 0.33778793
vt 0.03185320 0.30690384
vt 0.22037843 0.31898260
vt 0.09639395 0.30376399
vt 0.31159985 0.31716442
vt 0.01934188 0.31794691
vt 0.66432703 0.31672335
vt 0.51430547 0.28016078
vt 0.57801288 0.27926254
vt 0.45640415 0.28135395
vt 0.42444542 0.28526521
vt 0.62105411 0.27655292
vt 0.26518226 0.29627800
vt 0.17334962 0.30216420
vt 0.21553281 0.29923397
vt 0.37434810 0.28732491
vt 0.41582760 0.29277480
vt 0.32100105 0.29165936
vt 0.66818672 0.28743219
vt 0.67689472 0.31339467
vt 0.67695689 0.27083337
vt 0.66216183 0.25967622
vt 0.01822692 0.29333830
vt 0.67687690 0.24849510
vt 0.62765080 0.24770027
vt 0.58229774 0.23993993
vt 0.44693068 0.24542844
vt 0.50517619 0.24321443
vt 0.54777932 0.24104786
vt 0.03176075 0.27467251
vt 0.09600832 0.27152801
vt 0.41514280 0.26033592
vt 0.42447311 0.24897397
vt 0.16551676 0.26489329
vt 0.22717164 0.26320845
vt 0.66861731 0.22815490
vt 0.62968934 0.22546440
vt 0.32715470 0.25960970
vt 0.38100931 0.25348783
vt 0.54213625 0.22567177
vt 0.68612516 0.27338427
vt 0.01786709 0.23050928
vt 0.01906136 0.24989140
vt 0.16345549 0.22815382
vt 0.16396013 0.24090129
vt 0.07893291 0.23553407
vt 0.07958942 0.24597192
vt 0.44599751 0.21252686
vt 0.44640815 0.22417736
vt 0.30820417 0.21681774
vt 0.30810913 0.23195481
vt 0.69166744 0.32164991
vt 0.69750947 0.25195950
vt 0.69517708 0.27831495
vt 0.70847279 0.31875747
vt 0.72293329 0.28460336
vt 0.73191381 0.32134300
vt 0.75384325 0.30199718
vt 0.75318998 0.32896763
vt 0.77721226 0.31807160
vt 0.76975757 0.28497612
vt 0.79986346 0.29069924
vt 0.80005914 0.30806935
vt 0.81799459 0.28682721
vt 0.82230628 0.31044406
vt 0.83136415 0.30718696
vt 0.83070058 0.33375216
vt 0.81925076 0.32670915
vt 0.80045485 0.32311881
vt 0.67630911 0.32579017
vt 0.01847387 0.36230958
vt 0.74491739 0.15064442
vt 0.75086695 0.26945627
vt 0.05465560 0.37710112
vt 0.83975375 0.32899421
vt 0.84129661 0.31126165
vt 0.85295373 0.33852780
vt 0.57928079 0.35187173
vt 0.84972554 0.14572304
vt 0.85378104 0.31646365
vt 0.01843465 0.38204044
vt 0.09583429 0.37649554
vt 0.17633185 0.37266278
vt 0.24254006 0.37015438
vt 0.48638919 0.36000693
vt 0.57172787 0.37505203
vt 0.86502957 0.33404374
vt 0.42492670 0.37382728
vt 0.63201863 0.36893296
vt 0.66432321 0.36148405
vt 0.72570497 0.34716994
vt 0.74336797 0.34589463
vt 0.70251441 0.34899402
vt 0.79801065 0.34194303
vt 0.82187325 0.34186518
vt 0.77410704 0.34247065
vt 0.32140604 0.36711550
vt 0.41275904 0.37243974
vt 0.49120551 0.38020265
vt 0.68047684 0.36761165
vt 0.78700525 0.10543269
vt 0.79366356 0.26634216
vt 0.87981546 0.34148961
vt 0.87887049 0.17097604
vt 0.56017190 0.93345326
vt 0.88049835 0.32345188
vt 0.87158030 0.34523463
vt 0.87267298 0.35930133
vt 0.69332159 0.17421472
vt 0.70049483 0.23054022
vt 0.61869025 0.82526273
vt 0.00716332 0.31966251
vt 0.69247967 0.38580418
vt 0.77137208 0.27356684
vt 0.62498659 0.84634483
vt 0.00942730 0.35082865
vt 0.83694088 0.85244489
vt 0.85745656 0.35677052
vt 0.58955818 0.39430577
vt 0.63978451 0.39839339
vt 0.68276709 0.17836356
vt 0.69023186 0.21813214
vt 0.04853645 0.40342474
vt 0.09271922 0.39735299
vt 0.01797676 0.40532994
vt 0.16033711 0.39519864
vt 0.23873396 0.39263332
vt 0.33613339 0.38393354
vt 0.75668740 0.36395407
vt 0.49153903 0.40100038
vt 0.43398720 0.40365052
vt 0.62702960 0.87580746
vt 0.00881725 0.38142878
vt 0.70154518 0.37983453
vt 0.67454368 0.40096414
vt 0.89754993 0.35344040
vt 0.89715564 0.34058297
vt 0.91585398 0.36001158
vt 0.92735022 0.35511720
vt 0.89035469 0.75505024
vt 0.91607392 0.37867975
vt 0.93105793 0.37699437
vt 0.93793786 0.36520362
vt 0.88105059 0.77172351
vt 0.90592498 0.37624943
vt 0.66993046 0.18148160
vt 0.67753124 0.20614153
vt 0.86834091 0.79604906
vt 0.89189136 0.36998630
vt 0.60329401 0.58453238
vt 0.41840434 0.40433383
vt 0.41292396 0.40021288
vt 0.74045628 0.36322057
vt 0.90569687 0.75138921
vt 0.93061697 0.39212322
vt 0.48617521 0.19484305
vt 0.48790064 0.20459217
vt 0.68379003 0.39727676
vt 0.36068752 0.40275466
vt 0.10069478 0.41356593
vt 0.22915888 0.41029537
vt 0.55391109 0.40742326
vt 0.72191244 0.38075149
vt 0.74157178 0.87949413
vt 0.76103091 0.37685359
vt 0.84697878 0.84484053
vt 0.86726278 0.36622816
vt 0.81560206 0.88301080
vt 0.83502352 0.35392046
vt 0.60607493 0.41875005
vt 0.66661203 0.59762722
vt 0.48249975 0.42801911
vt 0.82222396 0.59629899
vt 0.64223140 0.42291713
vt 0.41469041 0.61651570
vt 0.23365970 0.42275894
vt 0.59260720 0.60514486
vt 0.40767577 0.42226171
vt 0.68601626 0.84976166
vt 0.70389968 0.40710008
vt 0.53310090 0.60698849
vt 0.34959155 0.41815186
vt 0.71808982 0.86704308
vt 0.73687476 0.38762671
vt 0.66137111 0.78044128
vt 0.43272641 0.58032000
vt 0.42915422 0.54983544
vt 0.47273394 0.54847819
vt 0.76242691 0.77953863
vt 0.32959446 0.57835716
vt 0.34419003 0.54787332
vt 0.39605498 0.54840541
vt 0.28199878 0.54752171
vt 0.62270373 0.78237408
vt 0.47213885 0.57696718
vt 0.22617930 0.54154962
vt 0.48837072 0.56241292
vt 0.48463225 0.53626132
vt 0.49279925 0.55099863
vt 0.24634156 0.50984323
vt 0.31350642 0.51204073
vt 0.36578459 0.51055294
vt 0.41845456 0.51103139
vt 0.46422562 0.51057655
vt 0.22624412 0.50877553
vt 0.48457891 0.50524658
vt 0.49089730 0.50729471
vt 0.50767469 0.54915446
vt 0.51621109 0.51343650
vt 0.54352456 0.53941733
vt 0.56468576 0.51542336
vt 0.60971946 0.51684928
vt 0.60022569 0.54362667
vt 0.69974977 0.51630318
vt 0.73485440 0.54298651
vt 0.74576735 0.53122258
vt 0.81910944 0.53722388
vt 0.82304102 0.52580088
vt 0.85221779 0.54186291
vt 0.66825056 0.51137310
vt 0.86179543 0.51703376
vt 0.82318932 0.51235592
vt 0.74521911 0.51440692
vt 0.88786381 0.53817850
vt 0.88938397 0.50782120
vt 0.88770813 0.55969751
vt 0.85505450 0.57035393
vt 0.66025972 0.55167979
vt 0.54898018 0.55938035
vt 0.46537846 0.77170956
vt 0.62691957 0.58164078
vt 0.60670924 0.76406610
vt 0.48858342 0.59172660
vt 0.59083891 0.94861180
vt 0.89763743 0.53681028
vt 0.59229416 0.50228751
vt 0.67636168 0.50176805
vt 0.23005818 0.49733472
vt 0.51669621 0.50159907
vt 0.85684258 0.48639560
vt 0.82274848 0.49737728
vt 0.21789443 0.53538883
vt 0.74066013 0.49986708
vt 0.39415994 0.49511766
vt 0.31118548 0.49665278
vt 0.21874923 0.49980867
vt 0.20345585 0.50551164
vt 0.19618320 0.51136971
vt 0.17091246 0.51451123
vt 0.72269481 0.96251947
vt 0.17017733 0.54889297
vt 0.13467249 0.52137536
vt 0.15831403 0.50632834
vt 0.11496604 0.50632757
vt 0.09311204 0.51858139
vt 0.09608342 0.50210863
vt 0.83557248 0.03573793
vt 0.07274124 0.50420171
vt 0.81975383 0.94264674
vt 0.07167938 0.51686174
vt 0.16402110 0.49255389
vt 0.80396175 0.04041094
vt 0.10186334 0.48923588
vt 0.46594042 0.49432945
vt 0.19340588 0.49074954
vt 0.20416135 0.49216104
vt 0.88903153 0.47363991
vt 0.69818926 0.48503709
vt 0.75046271 0.48331261
vt 0.81792426 0.47679710
vt 0.41641301 0.00525296
vt 0.49107930 0.47545886
vt 0.81687707 0.93311405
vt 0.07400016 0.52872419
vt 0.64167011 0.00179857
vt 0.26171705 0.45949912
vt 0.30879050 0.47246426
vt 0.52369392 0.00600487
vt 0.38199949 0.46066666
vt 0.83316070 0.93302882
vt 0.85092157 0.05435133
vt 0.05778414 0.51154095
vt 0.54454207 0.48606777
vt 0.50988686 0.47465897
vt 0.85799295 0.46468651
vt 0.42159599 0.01177859
vt 0.48607501 0.46687365
vt 0.63268560 0.48255002
vt 0.83341700 0.04983056
vt 0.07370037 0.48939753
vt 0.22739716 0.46144748
vt 0.89888555 0.47869265
vt 0.00415031 0.07641494
vt 0.16108026 0.05916983
vt 0.74598879 0.45917940
vt 0.28032276 0.03398544
vt 0.62697500 0.46851313
vt 0.20711420 0.04461223
vt 0.69997841 0.46738195
vt 0.68878365 0.01969123
vt 0.21537729 0.45804667
vt 0.16671854 0.47586918
vt 0.09087007 0.06768137
vt 0.81617498 0.45516402
vt 0.70519316 0.03576452
vt 0.19848345 0.45648348
vt 0.65768939 0.03479916
vt 0.24534489 0.42625898
vt 0.60275263 0.96582735
vt 0.18563613 0.76251745
vt 0.90115452 0.58294654
vt 0.77822959 0.70470017
vt 0.70909309 0.69700277
vt 0.75815898 0.66966075
vt 0.80125588 0.66935110
vt 0.83627498 0.70306915
vt 0.84071261 0.66807854
vt 0.71245247 0.67162246
vt 0.67002350 0.67326915
vt 0.68048102 0.70694518
vt 0.62308079 0.67576629
vt 0.62713909 0.70790100
vt 0.60700864 0.70947069
vt 0.60835928 0.67148972
vt 0.61106217 0.72575873
vt 0.64380592 0.73452270
vt 0.84292763 0.72829705
vt 0.64517671 0.95405215
vt 0.79364026 0.73154932
vt 0.72630322 0.73474258
vt 0.62646168 0.76397282
vt 0.60268819 0.73139280
vt 0.67781180 0.76030558
vt 0.60098314 0.76762825
vt 0.49417910 0.58589011
vt 0.59072042 0.72919434
vt 0.58965522 0.70638776
vt 0.52660996 0.71038371
vt 0.52726138 0.73585826
vt 0.46458256 0.71757913
vt 0.47526106 0.73813730
vt 0.43404156 0.74489456
vt 0.40341157 0.72266644
vt 0.36176255 0.74949759
vt 0.36294359 0.73036182
vt 0.27023974 0.73431486
vt 0.26907501 0.75708663
vt 0.19881384 0.74600148
vt 0.19634508 0.73085791
vt 0.19861454 0.76029885
vt 0.60264701 0.70315814
vt 0.37910026 0.69967955
vt 0.40269345 0.69280654
vt 0.28378907 0.70895219
vt 0.23948495 0.70638496
vt 0.20721252 0.70947218
vt 0.19108847 0.75075263
vt 0.52224743 0.68611884
vt 0.45377362 0.68826509
vt 0.43568847 0.68978906
vt 0.60217357 0.67802614
vt 0.19459701 0.70801097
vt 0.56956828 0.76528919
vt 0.52503502 0.58595383
vt 0.51215047 0.77134293
vt 0.58114684 0.57982808
vt 0.32108486 0.78237408
vt 0.76845711 0.57687992
vt 0.25794256 0.77953607
vt 0.83016700 0.58227491
vt 0.37238634 0.77813232
vt 0.71815729 0.57835937
vt 0.19873300 0.78076369
vt 0.88776368 0.58117950
vt 0.79718471 0.75773728
vt 0.85066968 0.75909871
vt 0.23959070 0.59172660
vt 0.74619532 0.76233470
vt 0.19036686 0.77485204
vt 0.89589298 0.57951224
vt 0.37719107 0.68800151
vt 0.81148422 0.77716428
vt 0.27965862 0.57835406
vt 0.69689029 0.78003645
vt 0.39648238 0.57991928
vt 0.51659036 0.67389673
vt 0.59010959 0.65811557
vt 0.60291868 0.65381348
vt 0.74102771 0.65876019
vt 0.67703235 0.65619427
vt 0.62362647 0.66636205
vt 0.79045075 0.65492272
vt 0.40528470 0.67038393
vt 0.34317586 0.67640376
vt 0.20402162 0.69028789
vt 0.47151849 0.66374552
vt 0.85901451 0.65152067
vt 0.66158122 0.86932188
vt 0.52685410 0.64811116
vt 0.82603610 0.63517034
vt 0.63353896 0.64082026
vt 0.60672957 0.63551015
vt 0.74945331 0.63652325
vt 0.19283760 0.67291397
vt 0.31958601 0.66271377
vt 0.60201347 0.62323236
vt 0.67985541 0.63463074
vt 0.40462258 0.65024704
vt 0.47423732 0.64522588
vt 0.20422330 0.67584109
vt 0.53229278 0.62667948
vt 0.85929078 0.62122726
vt 0.68068796 0.43345320
vt 0.29640868 0.64705020
vt 0.20410267 0.66139710
vt 0.62957907 0.62177831
vt 0.47478500 0.63315207
vt 0.76066065 0.61948526
vt 0.41306746 0.63113147
vt 0.82235688 0.61464506
vt 0.67218071 0.61266363
vt 0.19316700 0.64228112
vt 0.01671024 0.42572272
vt 0.26466247 0.63215607
vt 0.08657125 0.42835450
vt 0.62558836 0.60519457
vt 0.44047412 0.43190914
vt 0.60548109 0.60730380
vt 0.42002881 0.42750525
vt 0.62678123 0.91299206
vt 0.18462662 0.64898765
vt 0.00824240 0.41871119
vt 0.73930794 0.60230893
vt 0.55711079 0.43345320
vt 0.09921447 0.64785886
vt 0.08319583 0.64322561
vt 0.15292254 0.81793922
vt 0.08440818 0.62728846
vt 0.07103857 0.64591402
vt 0.18033721 0.83590323
vt 0.11181987 0.64002115
vt 0.13017641 0.81846613
vt 0.06170724 0.63001591
vt 0.05929703 0.64449912
vt 0.04983981 0.64216357
vt 0.08505996 0.66550124
vt 0.29368722 0.87783056
vt 0.10043118 0.67503977
vt 0.06704439 0.66934603
vt 0.32593927 0.84092051
vt 0.11546516 0.66678566
vt 0.04719174 0.66382200
vt 0.34558272 0.83372116
vt 0.96609360 0.08053952
vt 0.18835010 0.84175175
vt 0.11991365 0.64062566
vt 0.12782201 0.65478528
vt 0.19924954 0.84602696
vt 0.13070416 0.63720465
vt 0.30674854 0.85923666
vt 0.08656393 0.67662060
vt 0.28262874 0.88494527
vt 0.11147855 0.67805755
vt 0.14264880 0.66089571
vt 0.14198838 0.64866257
vt 0.15531667 0.66479301
vt 0.24139850 0.94424462
vt 0.03581662 0.46639550
vt 0.20734857 0.85100734
vt 0.13873731 0.63867891
vt 0.21919771 0.85791367
vt 0.15048045 0.63699281
vt 0.55921680 0.86151081
vt 0.88922453 0.25058049
vt 0.32502726 0.83299565
vt 0.06750860 0.67777234
vt 0.82015848 0.23609358
vt 0.30461827 0.80167240
vt 0.30457494 0.82488137
vt 0.29241371 0.84290409
vt 0.28456587 0.85620552
vt 0.27281320 0.87448567
vt 0.86829770 0.23812062
vt 0.26093024 0.87752932
vt 0.26379091 0.89316249
vt 0.25140053 0.90421361
vt 0.88006634 0.23578119
vt 0.80706376 0.22082591
vt 0.31834382 0.80196345
vt 0.31602135 0.81882429
vt 0.27835661 0.88008928
vt 0.41886541 0.93345314
vt 0.34132659 0.80016470
vt 0.78453279 0.20683455
vt 0.28951120 0.86543435
vt 0.29966372 0.85193670
vt 0.30928493 0.84070712
vt 0.32154551 0.82214063
vt 0.25750425 0.91637361
vt 0.13779217 0.67185718
vt 0.35250005 0.80820471
vt 0.36094406 0.79676259
vt 0.43634254 0.90098119
vt 0.38882124 0.84173518
vt 0.46490118 0.87219226
vt 0.39415216 0.86394101
vt 0.97497493 0.19309270
vt 0.35231683 0.81638938
vt 0.04006510 0.67805755
vt 0.34248000 0.82343942
vt 0.04999488 0.67522341
vt 0.40403807 0.90085888
vt 0.96009624 0.21764201
vt 0.26897508 0.90520340
vt 0.12597863 0.67287219
vt 0.60934758 0.92548752
vt 0.59849298 0.89550120
vt 0.60608017 0.87880456
vt 0.61597055 0.90839761
vt 0.61412412 0.86613131
vt 0.60983348 0.83881885
vt 0.60000789 0.83631307
vt 0.59071642 0.84327471
vt 0.00203090 0.13003379
vt 0.60352141 0.93924326
vt 0.59333616 0.91268045
vt 0.90534067 0.51433039
vt 0.18099332 0.70678681
vt 0.61510229 0.94277173
vt 0.61950815 0.92123675
vt 0.62217832 0.86987758
vt 0.60753828 0.81000310
vt 0.59812117 0.80651557
vt 0.00377911 0.17581373
vt 0.61287749 0.79029745
vt 0.00617233 0.24280572
vt 0.01012924 0.27997077
vt 0.18611260 0.69008708
vt 0.62157416 0.94864893
vt 0.00944361 0.19271839
vt 0.59978187 0.78068393
vt 0.18618943 0.72190034
vt 0.61307269 0.96582735
vt 0.88312036 0.14516729
vt 0.87021852 0.11837232
vt 0.85813445 0.08384424
vt 0.89747453 0.17215335
vt 0.85610050 0.09787619
vt 0.84862918 0.06604385
vt 0.84166503 0.07294875
vt 0.90963149 0.19844627
vt 0.82973993 0.05832142
vt 0.92869759 0.21612644
vt 0.87956959 0.09345847
vt 0.82920831 0.08420950
vt 0.84166741 0.09950274
vt 0.87189603 0.14288640
vt 0.85594296 0.12193662
vt 0.80006438 0.06594992
vt 0.79699999 0.08778197
vt 0.76951092 0.07267952
vt 0.76966339 0.09299159
vt 0.53178316 0.87613255
vt 0.91007537 0.21720743
vt 0.73709005 0.08397180
vt 0.73229480 0.10439610
vt 0.71858561 0.08438772
vt 0.70544857 0.10688937
vt 0.69856721 0.06988603
vt 0.50767350 0.85062361
vt 0.93628329 0.24280572
vt 0.68690014 0.09083271
vt 0.68921089 0.11750108
vt 0.68044513 0.09760642
vt 0.70673305 0.11801243
vt 0.95327914 0.20986176
vt 0.90068698 0.09459656
vt 0.73615599 0.05565310
vt 0.16740608 0.45385754
vt 0.73271900 0.11256111
vt 0.68663251 0.05713940
vt 0.71635824 0.06020182
vt 0.67372864 0.05907398
vt 0.80401421 0.09605706
vt 0.81024528 0.26965284
vt 0.76975191 0.10045028
vt 0.83147293 0.10390210
vt 0.83620149 0.28384662
vt 0.69063830 0.13598907
vt 0.67271858 0.13278186
vt 0.77520192 0.04700524
vt 0.12946895 0.47310370
vt 0.98485684 0.14673293
vt 0.93016416 0.09345835
vt 0.86503607 0.13864857
vt 0.37190977 0.82432628
vt 0.99755174 0.12293541
vt 0.99157506 0.11703289
vt 0.93853921 0.08943045
vt 0.67864132 0.16467631
vt 0.70930451 0.15195614
vt 0.66343772 0.14767456
vt 0.65850806 0.13599825
vt 0.60086018 0.15384197
vt 0.58699769 0.14106655
vt 0.53914458 0.15690476
vt 0.51425642 0.14178038
vt 0.48957127 0.15925598
vt 0.46886209 0.14617205
vt 0.42524606 0.16236401
vt 0.43428311 0.14752591
vt 0.45339355 0.17949980
vt 0.50888664 0.17836314
vt 0.60797381 0.17401004
vt 0.64937657 0.16763836
vt 0.65994298 0.18494147
vt 0.66712666 0.20406306
vt 0.42086992 0.18925565
vt 0.41731250 0.16640073
vt 0.41599727 0.19038922
vt 0.36604342 0.18649161
vt 0.36784977 0.16479343
vt 0.30397487 0.16820681
vt 0.41644812 0.15072310
vt 0.31468108 0.18990684
vt 0.24280246 0.19733787
vt 0.23124604 0.17601824
vt 0.17740609 0.20412022
vt 0.09473572 0.18686247
vt 0.17289995 0.17947000
vt 0.11374369 0.20825464
vt 0.06262740 0.21070337
vt 0.03091482 0.21040064
vt 0.03166053 0.18453020
vt 0.01914536 0.19482619
vt 0.20369969 0.21765190
vt 0.03196649 0.23669118
vt 0.03300449 0.24752927
vt 0.37967837 0.21054369
vt 0.37928978 0.22688502
vt 0.41581324 0.20936012
vt 0.41530740 0.22697061
vt 0.73626459 0.13658202
vt 0.60523522 0.77877700
vt 0.00917701 0.21406782
vt 0.61728001 0.19225043
vt 0.62317032 0.20323741
vt 0.54550320 0.19922304
vt 0.54917336 0.20921874
vt 0.24196310 0.22387183
vt 0.24213114 0.23808944
vt 0.42132083 0.15477461
vt 0.42225486 0.21183294
vt 0.42190671 0.22726238
vt 0.71798283 0.17933428
vt 0.72325790 0.26670229
vt 0.86431283 0.15209353
vt 0.86697680 0.31670916
vt 0.66815174 0.10448492
vt 0.59778744 0.10854548
vt 0.53580672 0.12075382
vt 0.44599897 0.11457789
vt 0.49526122 0.11084867
vt 0.54592115 0.10644710
vt 0.42030352 0.10708314
vt 0.44713271 0.08981544
vt 0.61950678 0.07597059
vt 0.66707724 0.07674760
vt 0.49902904 0.08195949
vt 0.56602508 0.07955778
vt 0.42196023 0.07033479
vt 0.44315693 0.06782949
vt 0.65917015 0.05554742
vt 0.49746701 0.06321549
vt 0.55119020 0.05837011
vt 0.61542428 0.05593884
vt 0.41609609 0.08692187
vt 0.41650906 0.11455631
vt 0.37511399 0.10502803
vt 0.40720510 0.12125611
vt 0.32108521 0.13190711
vt 0.30616620 0.11453724
vt 0.27841416 0.13336241
vt 0.25254226 0.11204863
vt 0.19159126 0.11924368
vt 0.16117610 0.13978142
vt 0.12370013 0.12385058
vt 0.07393198 0.15330374
vt 0.06567746 0.12818533
vt 0.19710574 0.16342586
vt 0.14844880 0.16678607
vt 0.03185957 0.15586412
vt 0.02649012 0.13069463
vt 0.02035908 0.15196347
vt 0.34993258 0.09820533
vt 0.34455755 0.15467167
vt 0.06969463 0.17551839
vt 0.01955136 0.17364031
vt 0.01987986 0.12785250
vt 0.36406633 0.08318013
vt 0.26903507 0.08770996
vt 0.41606683 0.05911857
vt 0.01126945 0.14378327
vt 0.01047529 0.16793334
vt 0.21561013 0.09050077
vt 0.16173947 0.09163308
vt 0.10786967 0.09608895
vt 0.00998039 0.11957693
vt 0.03318018 0.10144383
vt 0.36010674 0.05418938
vt 0.30028027 0.06053346
vt 0.56621480 0.03812027
vt 0.50227058 0.04058743
vt 0.44632238 0.04291362
vt 0.42075670 0.04227942
vt 0.62002355 0.03382581
vt 0.67577672 0.03069752
vt 0.22732434 0.43483436
vt 0.01780423 0.09452379
vt 0.88953060 0.44339657
vt 0.01255930 0.09915972
vt 0.89486003 0.44423270
vt 0.39757738 0.03767890
vt 0.51040626 0.44798589
vt 0.41676417 0.03243357
vt 0.21771309 0.05953324
vt 0.35801822 0.02294040
vt 0.54950541 0.46957159
vt 0.44385237 0.01251608
vt 0.46354854 0.46065009
vt 0.48183590 0.01186103
vt 0.42481294 0.45774055
vt 0.60897559 0.00672245
vt 0.29489216 0.45501447
vt 0.56589276 0.00586885
vt 0.33886543 0.45837498
vt 0.58882523 0.86979330
vt 0.00047755 0.10225147
vt 0.90592170 0.46875215
vt 0.91941136 0.06423903
vt 0.97428370 0.17106402
vt 0.92009056 0.09125024
vt 0.90896875 0.07440811
vt 0.93192530 0.80411571
vt 0.90899581 0.04402095
vt 0.92962927 0.08190429
vt 0.93150413 0.06352752
vt 0.08930986 0.85791367
vt 0.95613116 0.86144221
vt 0.93749720 0.04278189
vt 0.94392222 0.06220442
vt 0.36333752 0.83483821
vt 0.94850022 0.08797526
vt 0.99952245 0.08258039
vt 0.96457440 0.19572973
vt 0.91054630 0.09527493
vt 0.03963706 0.64040965
vt 0.95785695 0.05989230
vt 0.10865822 0.82765931
vt 0.04030399 0.62410074
vt 0.95834291 0.04329830
vt 0.89913630 0.06397951
vt 0.89734590 0.08413148
vt 0.92315513 0.79220098
vt 0.89979857 0.04136693
vt 0.94250184 0.21704352
vt 0.89153123 0.09532374
vt 0.91632181 0.79179984
vt 0.89306605 0.04378843
vt 0.88745266 0.06427747
vt 0.94890165 0.86510789
vt 0.91159511 0.80889714
vt 0.88343668 0.07929468
vt 0.94467127 0.85071945
vt 0.90879071 0.79815340
vt 0.88530904 0.05134290
vt 0.76647562 0.24543613
vt 0.43038896 0.86905634
vt 0.97903061 0.87495357
vt 0.44533801 0.85855836
vt 0.44373503 0.88215327
vt 0.43092328 0.89634997
vt 0.45656371 0.86437339
vt 0.46337554 0.83394200
vt 0.46581906 0.85247165
vt 0.47620079 0.82046485
vt 0.47808933 0.84174657
vt 0.48932078 0.81051111
vt 0.95152521 0.36800748
vt 0.48936513 0.83235395
vt 0.49884290 0.82899868
vt 0.94342029 0.34421575
vt 0.37030560 0.81251174
vt 0.44640452 0.89507055
vt 0.40795457 0.90244925
vt 0.48825380 0.85102075
vt 0.41308501 0.94424462
vt 0.50032842 0.85130763
vt 0.94429404 0.23728019
vt 0.50715196 0.82855278
vt 0.93558437 0.34313118
vt 0.51797962 0.84548420
vt 0.92511284 0.33192587
vt 0.52738243 0.84825993
vt 0.91658896 0.33860302
vt 0.53952569 0.87861520
vt 0.90338868 0.33156002
vt 0.54968864 0.92154843
vt 0.89015281 0.17621398
vt 0.19259846 0.81472468
vt 0.86046410 0.25359714
vt 0.27362853 0.85132182
vt 0.85391164 0.23743254
vt 0.18216184 0.79904413
vt 0.84933859 0.25331843
vt 0.28966004 0.82276464
vt 0.83615667 0.23619032
vt 0.80650944 0.25043654
vt 0.14036083 0.76438850
vt 0.56112701 0.88508451
vt 0.89446038 0.24025065
vt 0.23925501 0.93367606
vt 0.03963706 0.46942449
vt 0.78309560 0.22491539
vt 0.41786057 0.91505003
vt 0.98703748 0.93194473
vt 0.78297395 0.25359714
vt 0.11687122 0.76933289
vt 0.13537619 0.77777928
vt 0.99474692 0.99820143
vt 0.15212941 0.77843696
vt 0.15506786 0.76886117
vt 0.82123750 0.24945951
vt 0.16975535 0.78482491
vt 0.83646673 0.25350654
vt 0.15022725 0.79279715
vt 0.15868302 0.79821187
vt 0.17315662 0.80463803
vt 0.13621272 0.79075897
vt 0.10862947 0.78828937
vt 0.98031217 0.91010982
vt 0.10609085 0.80561048
vt 0.09579478 0.81602734
vt 0.96905363 0.87266308
vt 0.18573312 0.82391602
vt 0.19889666 0.83098662
vt 0.09453945 0.83158964
vt 0.08762867 0.82839429
vt 0.96322405 0.84700876
vt 0.08617332 0.84314090
vt 0.16893348 0.81517702
vt 0.10869427 0.81358844
vt 0.13525341 0.80235147
vt 0.14085484 0.81281614
vt 0.07232384 0.62491846
vt 0.16795439 0.82483923
vt 0.09943721 0.63124681
vt 0.20281906 0.82406664
vt 0.87079042 0.24799651
vt 0.11923577 0.82062614
vt 0.05093469 0.62686330
vt 0.09742478 0.84442663
vt 0.94628543 0.04512715
vt 0.97304785 0.86054277
vt 0.43579608 0.85283631
vt 0.96152931 0.81853902
vt 0.45048410 0.83312559
vt 0.08070678 0.84996766
vt 0.95575976 0.82784718
vt 0.95100272 0.78968728
vt 0.46240833 0.81562167
vt 0.94732511 0.80317533
vt 0.94255590 0.80148572
vt 0.93113369 0.76988500
vt 0.92704719 0.77810270
vt 0.91190964 0.76004827
vt 0.91749454 0.77311766
vt 0.89918828 0.77951568
vt 0.89093930 0.77558678
vt 0.95040786 0.84171659
vt 0.92984045 0.04232633
vt 0.93904656 0.76530617
vt 0.47547799 0.80261034
vt 0.92725229 0.74920100
vt 0.48773891 0.79316545
vt 0.95176697 0.38592011
vt 0.91833365 0.74280578
vt 0.94296145 0.38502526
vt 0.87879527 0.79731053
vt 0.87482142 0.78846598
vt 0.89833099 0.37697381
vt 0.85873657 0.83846945
vt 0.85768789 0.82556814
vt 0.87890583 0.37028325
vt 0.85273397 0.87663943
vt 0.86174458 0.87083012
vt 0.08452722 0.78337210
vt 0.84358817 0.90953100
vt 0.86363941 0.06981671
vt 0.84005785 0.90029263
vt 0.86257356 0.85696787
vt 0.87145245 0.84300494
vt 0.02531041 0.73920864
vt 0.82879609 0.92061102
vt 0.86551511 0.83617049
vt 0.87728858 0.83131105
vt 0.02531041 0.76438850
vt 0.88328004 0.80181491
vt 0.88849157 0.81463021
vt 0.90303057 0.79641801
vt 0.87976021 0.04510117
vt 0.84910417 0.86170590
vt 0.84041274 0.88037145
vt 0.82169700 0.90662366
vt 0.80167645 0.91819310
vt 0.79145312 0.94062912
vt 0.09993125 0.53345627
vt 0.78301752 0.92696232
vt 0.75968099 0.91510600
vt 0.75838137 0.93875343
vt 0.13325942 0.55144328
vt 0.71447372 0.94524807
vt 0.73159879 0.90560460
vt 0.81940722 0.89886016
vt 0.71859449 0.90343326
vt 0.70350885 0.90598631
vt 0.70331240 0.90040553
vt 0.68789381 0.89157277
vt 0.68472612 0.93776852
vt 0.67864406 0.89784968
vt 0.66518766 0.93293464
vt 0.86300910 0.71394521
vt 0.86222821 0.67094648
vt 0.66433340 0.88974118
vt 0.75951076 0.90712595
vt 0.78589451 0.90607089
vt 0.80812097 0.90702975
vt 0.66731554 0.96682078
vt 0.86410946 0.74997717
vt 0.68737352 0.95730972
vt 0.70065433 0.96148539
vt 0.84119374 0.86775666
vt 0.67744994 0.97646010
vt 0.21575896 0.57570267
vt 0.66864586 0.99820143
vt 0.86393601 0.78150105
vt 0.22632347 0.56702965
vt 0.69335747 0.98438674
vt 0.20076650 0.54905474
vt 0.94094551 0.81895202
vt 0.91873991 0.04367787
vt 0.66901451 0.85662383
vt 0.86589032 0.63547039
vt 0.68460888 0.86899018
vt 0.67252624 0.84179026
vt 0.86867237 0.61846924
vt 0.69013357 0.42195356
vt 0.77679402 0.89369547
vt 0.79655665 0.36174095
vt 0.75777656 0.87978995
vt 0.77704275 0.36214441
vt 0.80410558 0.89113402
vt 0.82366812 0.35156316
vt 0.82240784 0.86895907
vt 0.84258777 0.35070121
vt 0.87701988 0.10646886
vt 0.08834766 0.80755395
vt 0.85800439 0.89363295
vt 0.92150575 0.18065947
vt 0.87249285 0.06442338
vt 0.89746106 0.82878435
vt 0.93361986 0.86510789
vt 0.91151631 0.17463076
vt 0.88947368 0.84291351
vt 0.90008271 0.14842319
vt 0.87792122 0.85295594
vt 0.08834766 0.71762592
vt 0.01957975 0.75737596
vt 0.15711556 0.65148294
vt 0.55921686 0.89388490
vt 0.03963706 0.45863307
f 690/907 145/162 632/808
f 632/808 145/162 634/811
f 690/907 144/161 145/162
f 145/162 638/820 634/811
f 690/907 152/174 144/161
f 144/161 142/158 145/162
f 145/162 142/158 638/820
f 638/820 142/158 639/822
f 152/174 143/160 144/161
f 152/173 686/898 143/159
f 143/160 141/157 142/158
f 144/161 143/160 142/158
f 142/158 640/824 639/822
f 141/157 640/824 142/158
f 632/807 634/810 633/809
f 689/903 681/893 683/895
f 689/903 683/895 690/906
f 689/905 690/907 632/808
f 683/895 152/173 690/906
f 683/895 686/898 152/173
f 683/895 685/897 686/898
f 686/898 691/908 146/163
f 143/159 686/898 146/163
f 146/164 139/155 141/157
f 143/160 146/164 141/157
f 141/157 139/155 140/156
f 141/157 140/156 640/824
f 640/824 140/156 641/826
f 688/902 632/807 630/805
f 632/807 633/809 631/806
f 630/805 632/807 631/806
f 681/893 689/903 688/901
f 688/902 689/904 632/807
f 682/894 683/895 681/893
f 682/894 684/896 683/895
f 683/895 684/896 685/897
f 685/897 704/927 686/898
f 686/898 704/927 691/908
f 146/163 691/908 692/909
f 692/910 148/168 146/164
f 146/164 148/168 139/155
f 680/892 682/894 681/893
f 682/894 617/783 684/896
f 684/896 617/783 619/787
f 619/788 622/795 706/930
f 706/929 705/928 704/927
f 685/897 706/929 704/927
f 704/927 693/911 691/908
f 692/909 691/908 148/167
f 84/89 26/26 39/39
f 84/89 101/108 7/7
f 84/89 7/7 26/26
f 26/26 6/6 38/38
f 7/7 6/6 26/26
f 101/108 91/97 7/7
f 31/31 6/6 28/28
f 101/108 98/105 91/97
f 91/97 1/1 7/7
f 7/7 1/1 6/6
f 1/1 3/3 6/6
f 6/6 3/3 28/28
f 98/105 1/1 91/97
f 3/3 27/27 28/28
f 98/105 97/104 1/1
f 98/105 111/118 97/104
f 1/1 2/2 3/3
f 3/3 2/2 27/27
f 2/2 29/29 27/27
f 97/104 4/4 1/1
f 1/1 4/4 2/2
f 4/4 5/5 2/2
f 2/2 5/5 29/29
f 111/118 100/107 97/104
f 97/104 100/107 4/4
f 5/5 30/30 29/29
f 100/107 8/8 4/4
f 4/4 8/8 5/5
f 8/8 9/9 5/5
f 5/5 9/9 30/30
f 100/107 110/117 8/8
f 8/8 10/10 9/9
f 10/10 35/35 36/36
f 9/9 10/10 36/36
f 110/117 109/116 8/8
f 8/8 11/11 10/10
f 11/11 24/24 10/10
f 10/10 24/24 35/35
f 24/24 37/37 35/35
f 109/116 12/12 8/8
f 8/8 12/12 11/11
f 24/24 32/32 37/37
f 109/116 96/103 12/12
f 11/11 22/22 24/24
f 24/24 22/22 32/32
f 12/12 13/13 11/11
f 11/11 13/13 22/22
f 22/22 34/34 32/32
f 96/103 14/14 12/12
f 12/12 14/14 13/13
f 96/103 95/102 14/14
f 22/22 33/33 34/34
f 14/14 15/15 13/13
f 13/13 15/15 22/22
f 22/22 23/23 33/33
f 95/102 94/101 14/14
f 94/101 16/16 14/14
f 14/14 16/16 15/15
f 15/15 17/17 22/22
f 22/22 17/17 23/23
f 16/16 17/17 15/15
f 94/101 87/93 16/16
f 17/17 19/19 23/23
f 16/16 18/18 17/17
f 17/17 18/18 19/19
f 16/16 87/93 18/18
f 18/18 85/90 20/20
f 20/20 21/21 19/19
f 18/18 20/20 19/19
f 20/20 25/25 21/21
f 688/901 678/889 679/891
f 678/890 688/902 630/805
f 678/890 630/805 628/803
f 630/805 631/806 629/804
f 628/803 630/805 629/804
f 679/891 680/892 681/893
f 688/901 679/891 681/893
f 682/894 606/763 617/783
f 617/784 606/764 615/781
f 704/927 705/928 703/925
f 693/911 148/167 691/908
f 140/156 115/125 641/826
f 148/167 693/911 694/912
f 694/913 114/122 139/155
f 148/168 694/913 139/155
f 139/155 114/122 115/125
f 139/155 115/125 140/156
f 112/119 84/89 66/71
f 66/71 84/89 39/39
f 66/71 39/39 60/60
f 39/39 40/40 60/60
f 39/39 38/38 40/40
f 112/119 102/109 84/89
f 38/38 43/43 40/40
f 39/39 26/26 38/38
f 38/38 41/41 43/43
f 112/119 125/139 102/109
f 112/119 138/154 125/139
f 102/109 101/108 84/89
f 125/139 101/108 102/109
f 38/38 31/31 41/41
f 41/41 31/31 44/44
f 125/139 163/189 124/138
f 125/139 124/138 101/108
f 124/138 98/105 101/108
f 31/31 45/45 44/44
f 31/31 28/28 45/45
f 124/138 163/189 158/181
f 28/28 48/48 45/45
f 124/138 111/118 98/105
f 28/28 27/27 48/48
f 158/181 134/149 124/138
f 124/138 134/149 111/118
f 27/27 47/47 48/48
f 27/27 46/46 47/47
f 27/27 29/29 46/46
f 134/149 164/191 135/150
f 134/149 100/107 111/118
f 134/149 135/150 100/107
f 29/29 30/30 46/46
f 135/150 368/446 149/170
f 30/30 52/52 46/46
f 135/150 149/170 100/107
f 30/30 36/36 51/51
f 30/30 51/51 52/52
f 150/171 110/117 100/107
f 149/170 150/171 100/107
f 36/36 35/35 51/51
f 150/171 155/178 110/117
f 51/51 35/35 58/58
f 155/178 132/147 110/117
f 132/147 109/116 110/117
f 35/35 37/37 57/57
f 35/35 57/57 58/58
f 155/178 131/146 132/147
f 37/37 32/32 57/57
f 131/146 96/103 109/116
f 132/147 131/146 109/116
f 32/32 54/54 57/57
f 155/178 157/180 131/146
f 32/32 34/34 54/54
f 131/146 95/102 96/103
f 34/34 53/53 54/54
f 131/146 157/180 130/145
f 131/146 130/145 95/102
f 157/180 156/179 130/145
f 34/34 33/33 53/53
f 33/33 50/50 53/53
f 130/145 94/101 95/102
f 33/33 23/23 50/50
f 130/145 128/143 94/101
f 130/145 156/179 128/143
f 156/179 127/142 128/143
f 127/142 87/93 94/101
f 128/143 127/142 94/101
f 19/19 21/21 23/23
f 23/23 21/21 50/50
f 21/21 49/49 50/50
f 127/142 93/100 87/93
f 93/100 85/90 87/93
f 87/93 85/90 18/18
f 127/142 129/144 93/100
f 25/25 42/42 21/21
f 21/21 42/42 49/49
f 20/20 42/42 25/25
f 129/144 136/152 93/100
f 136/152 122/135 85/90
f 93/100 136/152 85/90
f 85/90 122/135 20/20
f 20/20 122/135 119/131
f 20/20 119/131 42/42
f 703/925 700/921 702/924
f 704/927 702/924 693/911
f 694/913 117/127 114/122
f 117/127 116/126 114/122
f 105/112 66/71 69/74
f 66/71 68/73 69/74
f 105/112 120/132 66/71
f 120/132 112/119 66/71
f 66/71 60/60 68/73
f 154/177 112/119 120/132
f 40/40 43/43 60/60
f 154/177 138/154 112/119
f 43/43 41/41 55/55
f 165/193 125/139 138/154
f 41/41 56/56 55/55
f 41/41 44/44 56/56
f 165/193 163/189 125/139
f 44/44 45/45 56/56
f 163/189 165/193 371/453
f 45/45 59/59 56/56
f 163/189 371/453 158/181
f 45/45 48/48 59/59
f 48/48 47/47 59/59
f 164/191 134/149 158/181
f 371/453 164/191 158/181
f 47/47 64/68 59/59
f 365/440 368/445 164/190
f 47/47 46/46 64/68
f 368/446 135/150 164/191
f 46/46 52/52 64/68
f 360/435 347/421 368/445
f 52/52 530/673 64/68
f 368/446 369/448 149/170
f 368/445 347/421 369/447
f 369/447 351/425 149/169
f 52/52 51/51 523/661
f 149/170 167/197 150/171
f 149/169 351/425 167/196
f 167/197 155/178 150/171
f 51/51 58/58 523/661
f 167/197 169/201 155/178
f 167/196 356/430 169/200
f 58/58 57/57 65/70
f 356/430 361/436 169/200
f 169/201 166/195 155/178
f 169/200 361/436 166/194
f 57/57 528/670 65/70
f 361/436 363/438 166/194
f 57/57 54/54 528/670
f 166/195 157/180 155/178
f 54/54 62/64 528/670
f 54/54 53/53 62/64
f 166/195 156/179 157/180
f 166/194 363/438 358/433
f 166/195 367/444 156/179
f 166/194 358/433 367/443
f 53/53 50/50 62/64
f 367/443 358/433 359/434
f 367/444 127/142 156/179
f 50/50 49/49 63/66
f 367/444 366/442 127/142
f 367/443 359/434 366/441
f 49/49 521/657 63/66
f 366/442 129/144 127/142
f 49/49 61/62 521/657
f 49/49 42/42 61/62
f 359/434 349/423 366/441
f 366/442 370/451 129/144
f 129/144 370/451 136/152
f 370/449 433/550 136/151
f 136/151 433/550 122/134
f 122/134 433/550 119/130
f 119/131 436/556 42/42
f 119/130 434/551 436/554
f 678/889 677/888 679/891
f 680/892 736/969 606/763
f 700/921 699/920 702/924
f 694/913 161/186 117/127
f 694/912 693/911 707/931
f 694/912 707/931 161/185
f 116/126 99/106 114/122
f 114/122 99/106 532/677
f 114/122 532/677 115/125
f 116/126 117/127 99/106
f 103/110 69/74 71/76
f 71/76 69/74 70/75
f 137/153 105/112 103/110
f 103/110 105/112 69/74
f 69/74 68/73 70/75
f 70/75 68/73 67/72
f 137/153 120/132 105/112
f 68/73 60/60 67/72
f 739/976 154/177 120/132
f 43/43 126/141 67/72
f 60/60 43/43 67/72
f 739/976 357/432 154/177
f 739/975 737/972 357/431
f 357/432 138/154 154/177
f 43/43 147/166 126/141
f 43/43 55/55 147/166
f 357/432 165/193 138/154
f 357/431 364/439 165/192
f 357/431 345/419 364/439
f 364/439 362/437 165/192
f 362/437 371/452 165/192
f 362/437 164/190 371/452
f 362/437 365/440 164/190
f 365/440 362/437 352/426
f 59/59 153/176 527/668
f 365/440 352/426 360/435
f 360/435 368/445 365/440
f 346/420 347/421 360/435
f 369/447 347/421 351/425
f 351/425 356/430 167/196
f 351/425 344/418 356/430
f 356/430 354/428 361/436
f 356/430 344/418 354/428
f 361/436 353/427 363/438
f 361/436 354/428 353/427
f 528/669 520/655 65/69
f 528/669 62/63 520/655
f 353/427 358/433 363/438
f 353/427 350/424 358/433
f 358/433 350/424 359/434
f 359/434 350/424 355/429
f 359/434 355/429 349/423
f 349/423 370/450 366/441
f 349/423 437/557 370/450
f 370/449 432/549 433/550
f 436/554 434/551 525/663
f 433/550 424/538 425/539
f 425/539 426/540 119/130
f 433/550 425/539 119/130
f 119/130 426/540 434/551
f 415/523 416/525 483/615
f 680/892 687/899 736/969
f 736/970 687/900 603/759
f 603/759 607/765 604/761
f 702/924 699/920 695/914
f 702/924 695/914 693/911
f 693/911 695/914 707/931
f 161/185 707/931 732/961
f 161/186 123/137 117/127
f 123/137 99/106 117/127
f 732/961 123/136 161/185
f 99/106 92/99 532/677
f 123/137 90/96 99/106
f 99/106 90/96 92/99
f 104/111 71/76 73/78
f 73/78 71/76 72/77
f 71/76 70/75 72/77
f 104/111 151/172 103/110
f 104/111 103/110 71/76
f 151/172 159/182 103/110
f 151/172 170/203 159/182
f 159/182 137/153 103/110
f 159/182 168/199 137/153
f 168/199 120/132 137/153
f 168/198 738/973 739/974
f 168/199 739/976 120/132
f 737/972 343/416 357/431
f 126/140 147/165 485/619
f 357/431 343/416 345/419
f 345/419 362/437 364/439
f 345/419 348/422 362/437
f 345/419 338/411 348/422
f 348/422 352/426 362/437
f 348/422 336/409 352/426
f 352/426 336/409 346/420
f 346/420 360/435 352/426
f 347/421 334/407 351/425
f 334/407 333/406 351/425
f 351/425 333/406 344/418
f 344/418 342/415 354/428
f 342/415 339/412 354/428
f 354/428 339/412 353/427
f 339/412 340/413 350/424
f 353/427 339/412 350/424
f 350/424 340/413 341/414
f 350/424 341/414 355/429
f 355/429 341/414 349/423
f 437/558 432/549 370/449
f 435/552 438/560 525/663
f 434/551 435/552 525/663
f 432/549 424/538 433/550
f 676/885 665/868 677/888
f 676/885 677/888 678/889
f 677/888 687/899 680/892
f 679/891 677/888 680/892
f 416/526 481/612 483/616
f 687/900 608/766 603/759
f 603/759 608/766 607/765
f 607/765 481/613 604/761
f 123/137 743/984 90/96
f 123/136 732/961 743/983
f 90/96 89/95 92/99
f 743/984 88/94 90/96
f 90/96 88/94 89/95
f 108/115 73/78 74/79
f 73/78 72/77 74/79
f 74/79 72/77 75/80
f 108/115 133/148 73/78
f 72/77 86/92 75/80
f 133/148 151/172 104/111
f 133/148 170/203 151/172
f 133/148 104/111 73/78
f 531/674 486/620 524/662
f 170/203 168/199 159/182
f 170/202 738/973 168/198
f 739/974 738/973 737/971
f 737/971 725/953 343/417
f 343/416 275/336 345/419
f 275/336 338/411 345/419
f 338/411 335/408 348/422
f 499/633 498/632 491/625
f 348/422 335/408 336/409
f 336/409 337/410 346/420
f 346/420 337/410 347/421
f 337/410 282/343 347/421
f 347/421 282/343 334/407
f 333/406 332/405 344/418
f 344/418 332/405 342/415
f 509/644 510/645 507/642
f 342/415 332/405 315/378
f 342/415 315/378 339/412
f 315/378 316/379 339/412
f 316/379 309/372 339/412
f 510/645 512/647 511/646
f 309/372 329/400 339/412
f 339/412 329/400 340/413
f 340/413 329/400 311/374
f 340/413 311/374 341/414
f 311/374 312/375 341/414
f 341/414 312/375 318/381
f 341/414 318/381 349/423
f 349/423 318/381 437/557
f 437/558 431/548 432/549
f 432/549 431/548 424/538
f 424/538 423/537 425/539
f 425/539 423/537 426/540
f 426/540 423/537 427/541
f 426/540 427/541 434/551
f 427/541 435/552 434/551
f 665/867 666/869 677/887
f 677/887 666/869 609/767
f 677/888 609/768 687/899
f 687/900 609/769 608/766
f 607/765 484/618 481/613
f 695/914 698/919 707/931
f 707/931 698/919 708/932
f 708/932 717/943 732/961
f 708/932 709/933 717/943
f 732/961 717/943 743/983
f 743/983 717/943 162/187
f 743/984 81/86 88/94
f 743/984 162/188 81/86
f 88/94 81/86 80/85
f 88/94 80/85 89/95
f 106/113 740/978 741/980
f 106/113 74/79 83/88
f 83/88 74/79 77/82
f 74/79 75/80 76/81
f 77/82 74/79 76/81
f 75/80 121/133 76/81
f 741/980 108/115 106/113
f 106/113 108/115 74/79
f 160/184 108/115 741/980
f 121/133 75/80 86/92
f 160/184 133/148 108/115
f 160/184 170/203 133/148
f 160/183 716/942 170/202
f 170/202 716/942 718/944
f 170/202 718/944 720/946
f 524/662 486/620 471/599
f 170/202 720/946 738/973
f 738/973 721/947 723/949
f 737/971 723/949 725/953
f 343/416 725/952 275/336
f 275/336 273/334 338/411
f 273/334 272/333 338/411
f 338/411 272/333 335/408
f 272/333 276/337 335/408
f 335/408 276/337 336/409
f 336/409 276/337 277/338
f 336/409 277/338 337/410
f 337/410 277/338 279/340
f 337/410 279/340 282/343
f 282/343 317/380 334/407
f 495/629 503/638 529/671
f 503/638 508/643 529/671
f 334/407 317/380 333/406
f 333/406 317/380 314/377
f 333/406 314/377 332/405
f 314/377 315/378 332/405
f 309/372 308/371 329/400
f 329/400 308/371 310/373
f 512/647 513/648 514/649
f 329/400 310/373 311/374
f 318/381 439/561 437/557
f 437/557 439/561 431/547
f 435/553 578/723 438/559
f 431/548 421/535 424/538
f 424/538 421/535 423/537
f 676/885 675/883 665/868
f 665/867 664/866 666/869
f 609/769 610/770 608/766
f 608/766 610/770 484/618
f 608/766 484/618 607/765
f 717/943 728/956 162/187
f 742/982 81/86 162/188
f 162/187 728/956 742/981
f 742/982 107/114 81/86
f 81/86 79/84 80/85
f 107/114 82/87 81/86
f 81/86 82/87 79/84
f 79/84 78/83 80/85
f 80/85 78/83 477/607
f 742/982 740/978 107/114
f 82/87 77/82 79/84
f 79/84 77/82 78/83
f 107/114 83/88 82/87
f 82/87 83/88 77/82
f 77/82 76/81 78/83
f 740/978 106/113 107/114
f 107/114 106/113 83/88
f 76/81 113/121 78/83
f 740/977 727/955 726/954
f 740/977 726/954 741/979
f 726/954 160/183 741/979
f 160/183 726/954 716/942
f 720/946 721/947 738/973
f 720/946 719/945 721/947
f 721/947 719/945 723/949
f 279/340 281/342 282/343
f 282/343 307/370 317/380
f 317/380 307/370 293/356
f 317/380 293/356 314/377
f 314/377 293/356 294/357
f 314/377 294/357 296/359
f 314/377 296/359 315/378
f 315/378 296/359 316/379
f 296/359 299/362 309/372
f 316/379 296/359 309/372
f 309/372 299/362 308/371
f 308/371 302/365 310/373
f 310/373 302/365 311/374
f 302/365 305/368 311/374
f 311/374 305/368 312/375
f 318/381 305/368 439/561
f 439/562 429/544 431/548
f 431/548 429/544 421/535
f 421/535 422/536 423/537
f 675/883 661/863 665/868
f 666/869 664/866 609/767
f 609/769 674/882 610/770
f 698/919 701/923 709/933
f 708/932 698/919 709/933
f 717/943 710/934 728/956
f 728/956 727/955 742/981
f 728/956 710/934 727/955
f 727/955 740/977 742/981
f 710/934 713/938 727/955
f 727/955 713/938 726/954
f 726/954 713/938 716/942
f 718/944 719/945 720/946
f 723/949 724/950 725/953
f 275/336 274/335 273/334
f 274/335 270/331 273/334
f 273/334 270/331 272/333
f 270/331 271/332 272/333
f 272/333 271/332 276/337
f 276/337 271/332 277/338
f 271/332 278/339 277/338
f 277/338 278/339 279/340
f 278/339 280/341 279/340
f 282/343 281/342 307/370
f 299/362 301/364 308/371
f 308/371 301/364 302/365
f 302/365 304/367 305/368
f 305/368 304/367 313/376
f 305/368 313/376 439/561
f 439/561 313/376 269/329
f 439/562 269/328 429/544
f 435/553 428/543 577/722
f 435/553 577/722 578/723
f 421/535 429/544 422/536
f 422/536 428/542 427/541
f 423/537 422/536 427/541
f 427/541 428/542 435/552
f 661/862 660/861 664/866
f 610/770 611/772 484/618
f 252/299 237/278 701/923
f 701/923 248/292 709/933
f 709/933 248/292 710/934
f 710/934 712/937 713/938
f 712/937 714/939 713/938
f 716/942 713/938 715/941
f 716/942 715/941 718/944
f 718/944 715/941 719/945
f 715/941 722/948 719/945
f 722/948 724/950 723/949
f 270/331 278/339 271/332
f 281/342 289/351 307/370
f 289/351 292/355 293/356
f 307/370 289/351 293/356
f 292/355 295/358 294/357
f 293/356 292/355 294/357
f 294/357 295/358 296/359
f 295/358 297/360 296/359
f 297/360 298/361 296/359
f 296/359 298/361 299/362
f 298/361 300/363 299/362
f 299/362 300/363 301/364
f 301/364 300/363 302/365
f 302/365 300/363 303/366
f 302/365 303/366 304/367
f 303/366 306/369 304/367
f 304/367 306/369 313/376
f 313/376 328/398 269/329
f 429/544 430/545 422/536
f 422/536 430/545 602/756
f 422/536 602/756 428/542
f 675/883 659/860 661/863
f 664/866 614/778 674/881
f 614/780 613/777 610/770
f 674/882 614/780 610/770
f 610/770 613/777 611/772
f 248/292 711/935 710/934
f 710/934 711/935 712/937
f 711/935 714/939 712/937
f 722/948 729/957 724/950
f 724/951 285/346 274/335
f 274/335 285/346 286/348
f 270/331 286/348 287/349
f 278/339 287/349 284/345
f 278/339 284/345 280/341
f 280/341 284/345 283/344
f 280/341 283/344 281/342
f 281/342 283/344 289/351
f 323/390 321/386 300/363
f 300/363 321/386 303/366
f 321/386 322/388 303/366
f 322/388 324/392 303/366
f 303/366 324/392 306/369
f 306/369 324/392 328/398
f 306/369 328/398 313/376
f 269/328 215/253 429/544
f 429/544 215/253 430/545
f 602/757 260/312 582/727
f 602/757 582/727 428/543
f 660/861 668/871 664/866
f 613/777 384/473 611/772
f 233/273 231/271 234/274
f 714/940 231/271 230/270
f 230/269 731/960 715/941
f 730/959 729/957 722/948
f 729/958 326/395 285/346
f 724/950 729/957 285/347
f 285/346 326/395 325/394
f 285/346 325/394 286/348
f 286/348 325/394 327/397
f 286/348 327/397 287/349
f 287/349 290/352 284/345
f 284/345 288/350 283/344
f 288/350 214/251 283/344
f 283/344 214/251 289/351
f 289/351 214/251 291/353
f 291/353 319/382 292/355
f 319/382 320/384 295/358
f 295/358 320/384 213/249
f 295/358 213/249 297/360
f 213/249 323/390 300/363
f 321/387 200/236 210/246
f 215/254 260/311 430/546
f 430/546 260/311 602/758
f 238/280 229/268 232/272
f 229/268 228/267 735/968
f 327/397 290/352 287/349
f 290/352 288/350 284/345
f 291/354 212/248 319/383
f 319/383 212/248 320/385
f 320/385 212/248 211/247
f 198/234 199/235 200/236
f 202/238 200/236 201/237
f 384/471 418/530 417/528
f 614/779 379/464 613/776
f 613/776 379/464 384/471
f 228/267 227/266 222/261
f 595/744 589/734 576/721
f 193/229 194/230 195/231
f 659/859 658/858 660/861
f 660/861 658/858 668/871
f 668/871 673/879 614/778
f 673/880 379/464 614/779
f 222/261 188/224 179/215
f 179/215 183/219 177/212
f 177/212 184/220 175/210
f 181/217 190/226 182/218
f 190/226 192/228 191/227
f 659/859 651/848 658/858
f 658/858 669/872 668/871
f 668/871 669/872 673/879
f 673/880 378/463 379/464
f 379/464 378/463 384/471
f 669/872 377/461 673/879
f 673/880 377/462 378/463
f 378/463 382/468 384/471
f 384/471 382/468 395/495
f 384/471 395/495 418/530
f 377/462 670/874 375/458
f 651/848 655/855 658/858
f 658/858 670/873 669/872
f 669/872 670/873 377/461
f 375/458 382/468 378/463
f 658/858 655/855 670/873
f 651/848 652/850 655/855
f 655/855 374/456 670/873
f 374/457 373/455 375/458
f 670/874 374/457 375/458
f 373/455 380/465 382/468
f 375/458 373/455 382/468
f 380/465 388/480 382/468
f 652/850 656/856 655/855
f 655/855 656/856 374/456
f 374/457 671/876 373/455
f 656/856 667/870 374/456
f 374/456 667/870 671/875
f 671/876 372/454 373/455
f 372/454 381/467 380/465
f 373/455 372/454 380/465
f 380/465 381/467 388/480
f 652/850 654/853 656/856
f 656/856 654/853 657/857
f 656/856 657/857 667/870
f 654/853 645/833 657/857
f 657/857 662/864 671/875
f 667/870 657/857 671/875
f 671/875 662/864 376/459
f 671/876 376/460 372/454
f 376/460 383/470 381/467
f 372/454 376/460 381/467
f 381/467 383/470 389/482
f 645/833 643/829 657/857
f 657/857 643/829 662/864
f 376/459 662/864 385/474
f 376/460 385/475 383/470
f 383/470 420/534 389/482
f 643/829 663/865 662/864
f 385/475 386/476 383/470
f 383/470 386/476 420/534
f 662/864 663/865 387/477
f 662/864 387/477 385/474
f 385/475 387/478 386/476
f 643/829 672/877 663/865
f 663/865 393/488 387/477
f 387/478 393/489 391/484
f 387/478 391/484 386/476
f 391/484 390/483 386/476
f 390/483 412/519 420/534
f 386/476 390/483 420/534
f 672/877 394/490 663/865
f 663/865 394/490 393/488
f 393/489 394/491 391/484
f 394/491 748/998 391/484
f 391/484 748/998 390/483
f 390/483 392/485 412/519
f 390/483 748/998 392/485
f 634/810 638/819 464/589
f 464/589 638/819 639/821
f 636/815 633/809 634/810
f 636/815 634/810 637/817
f 637/817 634/810 464/589
f 464/589 639/821 458/582
f 639/821 640/823 458/582
f 458/582 640/823 641/825
f 631/806 633/809 636/815
f 618/785 637/818 449/572
f 637/818 464/590 449/572
f 449/572 464/590 458/583
f 449/572 458/583 447/570
f 416/525 636/814 419/531
f 419/531 636/814 637/816
f 419/532 637/818 469/595
f 469/595 637/818 618/785
f 616/782 618/786 621/792
f 684/896 619/787 706/929
f 685/897 684/896 706/929
f 618/786 449/573 621/792
f 621/792 449/573 745/989
f 745/988 449/572 447/570
f 458/582 641/825 642/827
f 447/570 458/583 642/828
f 38/38 6/6 31/31
f 30/30 9/9 36/36
f 415/524 631/806 636/815
f 415/523 636/814 416/525
f 612/774 419/532 469/595
f 619/788 617/784 615/781
f 619/788 615/781 620/789
f 620/789 615/781 616/782
f 616/782 469/596 618/786
f 622/795 619/788 620/789
f 620/789 616/782 621/792
f 622/794 620/791 745/990
f 706/929 622/794 745/990
f 745/991 620/790 621/793
f 705/928 706/929 745/990
f 705/928 745/990 746/993
f 746/992 745/988 447/570
f 746/992 447/570 443/566
f 447/570 642/828 443/566
f 641/825 115/124 642/827
f 629/804 631/806 415/524
f 416/526 419/532 612/774
f 682/894 680/892 606/763
f 605/762 612/775 469/596
f 606/764 605/762 615/781
f 615/781 605/762 616/782
f 616/782 605/762 469/596
f 705/928 746/993 747/995
f 703/925 705/928 747/995
f 747/994 746/992 443/566
f 704/927 703/925 702/924
f 526/666 55/55 56/56
f 526/666 56/56 527/668
f 527/668 56/56 59/59
f 59/59 64/68 153/176
f 502/637 64/67 530/672
f 530/673 52/52 523/661
f 523/661 58/58 522/659
f 522/659 58/58 65/70
f 63/66 62/64 50/50
f 61/62 42/42 436/556
f 61/61 436/555 525/664
f 676/886 678/890 628/803
f 628/803 629/804 627/802
f 627/802 629/804 415/524
f 416/526 612/774 604/760
f 606/764 736/970 603/759
f 606/764 603/759 605/762
f 603/759 604/761 605/762
f 605/762 604/761 612/775
f 700/922 703/926 747/997
f 696/915 700/921 747/995
f 443/566 642/828 440/563
f 642/828 115/123 452/576
f 440/563 642/828 452/576
f 452/576 115/123 482/614
f 482/614 115/123 532/676
f 70/75 67/72 118/129
f 531/675 70/75 118/129
f 147/166 55/55 501/636
f 501/636 55/55 526/666
f 499/633 526/665 527/667
f 499/633 527/667 498/632
f 527/667 153/175 498/632
f 153/175 64/67 497/631
f 497/631 64/67 502/637
f 502/637 530/672 523/660
f 502/637 523/660 504/639
f 504/639 523/660 522/658
f 504/639 522/658 505/640
f 505/640 522/658 509/644
f 522/658 65/69 509/644
f 509/644 65/69 510/645
f 510/645 65/69 520/655
f 510/645 520/655 512/647
f 520/655 62/63 512/647
f 512/647 62/63 515/650
f 62/63 63/65 515/650
f 515/650 63/65 516/651
f 63/65 521/656 516/651
f 516/651 521/656 517/652
f 517/652 521/656 61/61
f 676/886 628/803 624/799
f 624/799 628/803 627/802
f 699/920 700/921 696/915
f 747/994 443/566 440/563
f 482/614 532/676 92/98
f 86/92 72/77 531/675
f 72/77 70/75 531/675
f 486/620 531/674 118/128
f 118/129 67/72 126/141
f 487/621 147/165 501/635
f 501/635 526/665 500/634
f 500/634 526/665 499/633
f 498/632 153/175 497/631
f 495/629 497/631 502/637
f 503/638 502/637 504/639
f 503/638 504/639 505/640
f 517/652 61/61 519/654
f 61/61 525/664 519/654
f 519/654 525/664 438/559
f 625/800 627/802 415/524
f 416/526 604/760 481/612
f 696/916 747/996 744/986
f 744/985 747/994 440/563
f 695/914 699/920 696/915
f 744/985 440/563 441/564
f 441/564 440/563 452/576
f 452/576 482/614 453/577
f 441/564 452/576 453/577
f 482/614 92/98 453/577
f 453/577 92/98 477/606
f 477/607 92/99 89/95
f 86/91 531/674 524/662
f 486/620 118/128 478/608
f 478/608 118/128 126/140
f 126/140 485/619 478/608
f 485/619 147/165 479/609
f 479/609 147/165 487/621
f 487/621 501/635 500/634
f 500/634 499/633 487/621
f 487/621 499/633 489/623
f 489/623 499/633 491/625
f 491/625 498/632 493/627
f 498/632 497/631 493/627
f 493/627 497/631 495/629
f 495/629 502/637 503/638
f 508/643 503/638 506/641
f 506/641 503/638 505/640
f 505/640 509/644 507/642
f 506/641 505/640 507/642
f 507/642 510/645 511/646
f 511/646 512/647 514/649
f 513/648 512/647 515/650
f 515/650 516/651 513/648
f 513/648 516/651 517/652
f 513/648 517/652 518/653
f 518/653 517/652 519/654
f 675/884 676/886 624/799
f 624/799 627/802 625/800
f 635/813 625/800 415/524
f 415/523 483/615 635/812
f 483/616 481/612 484/617
f 441/564 453/577 444/567
f 732/961 707/931 708/932
f 477/607 89/95 80/85
f 76/81 121/133 113/121
f 121/133 86/92 113/121
f 113/120 86/91 524/662
f 471/599 486/620 468/594
f 486/620 478/608 468/594
f 737/971 738/973 723/949
f 478/608 485/619 479/609
f 479/609 487/621 488/622
f 487/621 489/623 488/622
f 488/622 489/623 490/624
f 489/623 491/625 490/624
f 490/624 491/625 492/626
f 492/626 491/625 493/627
f 492/626 493/627 494/628
f 493/627 495/629 494/628
f 494/628 495/629 496/630
f 496/630 495/629 529/671
f 570/715 508/643 506/641
f 570/715 506/641 507/642
f 570/715 507/642 564/709
f 564/709 507/642 511/646
f 564/709 511/646 514/649
f 564/709 514/649 565/710
f 565/710 514/649 513/648
f 565/710 513/648 571/716
f 571/716 513/648 518/653
f 518/653 519/654 572/717
f 519/654 438/559 572/717
f 572/717 438/559 578/723
f 695/914 696/915 697/917
f 697/917 696/915 744/987
f 698/919 695/914 697/917
f 744/985 441/564 442/565
f 697/918 744/985 442/565
f 442/565 441/564 444/567
f 444/567 453/577 451/575
f 453/577 477/606 451/575
f 451/575 477/606 475/603
f 475/604 477/607 78/83
f 78/83 113/121 475/604
f 113/120 524/662 476/605
f 476/605 524/662 471/599
f 468/594 478/608 466/592
f 466/592 478/608 479/609
f 535/680 490/624 492/626
f 529/671 508/643 552/697
f 552/697 508/643 554/699
f 554/699 508/643 570/715
f 555/700 570/715 557/702
f 557/702 570/715 564/709
f 562/707 565/710 571/716
f 571/716 518/653 566/711
f 562/707 571/716 566/711
f 518/653 572/717 568/713
f 566/711 518/653 568/713
f 318/381 312/375 305/368
f 675/884 624/799 623/797
f 623/797 624/799 625/800
f 414/522 625/800 635/813
f 664/866 665/867 661/862
f 483/616 484/617 611/773
f 444/567 451/575 446/569
f 450/574 451/575 475/603
f 450/574 475/603 455/579
f 475/603 113/120 455/579
f 113/120 476/605 457/581
f 455/579 113/120 457/581
f 457/581 476/605 471/599
f 457/581 471/599 460/585
f 460/585 471/599 468/594
f 460/585 468/594 462/587
f 462/587 468/594 466/592
f 467/593 466/592 479/609
f 467/593 479/609 533/678
f 533/678 479/609 488/622
f 488/622 490/624 533/678
f 533/678 490/624 534/679
f 534/679 490/624 535/680
f 535/680 492/626 537/682
f 492/626 494/628 537/682
f 494/628 496/630 536/681
f 537/682 494/628 536/681
f 496/630 529/671 539/684
f 539/684 529/671 552/697
f 554/699 570/715 555/700
f 557/702 564/709 560/705
f 560/705 564/709 565/710
f 560/705 565/710 562/707
f 572/717 578/723 577/722
f 568/713 572/717 577/722
f 623/797 625/800 626/801
f 626/801 625/800 414/522
f 414/521 635/812 413/520
f 413/520 635/812 483/615
f 609/767 664/866 674/881
f 252/300 697/918 442/565
f 698/919 697/917 701/923
f 701/923 697/917 252/299
f 252/300 442/565 445/568
f 445/568 442/565 444/567
f 445/568 444/567 446/569
f 248/292 701/923 237/278
f 446/569 451/575 450/574
f 717/943 709/933 710/934
f 454/578 450/574 455/579
f 459/584 457/581 460/585
f 459/584 460/585 461/586
f 461/586 460/585 462/587
f 723/949 719/945 722/948
f 462/587 466/592 465/591
f 466/592 467/593 465/591
f 725/952 724/951 274/335
f 275/336 725/952 274/335
f 534/679 535/680 538/683
f 538/683 535/680 537/682
f 539/684 536/681 496/630
f 279/340 280/341 281/342
f 552/697 554/699 553/698
f 554/699 555/700 553/698
f 553/698 555/700 556/701
f 555/700 557/702 556/701
f 556/701 557/702 558/703
f 558/703 557/702 559/704
f 559/704 557/702 560/705
f 559/704 560/705 561/706
f 561/706 560/705 562/707
f 561/706 562/707 563/708
f 563/708 562/707 566/711
f 563/708 566/711 567/712
f 567/712 566/711 568/713
f 659/860 675/883 623/798
f 660/861 661/862 659/859
f 417/527 483/615 611/771
f 237/279 252/301 236/277
f 236/276 252/300 445/568
f 236/276 445/568 258/308
f 258/308 445/568 446/569
f 448/571 258/308 446/569
f 448/571 446/569 450/574
f 448/571 450/574 454/578
f 456/580 454/578 455/579
f 456/580 455/579 457/581
f 713/938 714/939 715/941
f 459/584 456/580 457/581
f 456/580 459/584 470/597
f 470/597 459/584 461/586
f 722/948 715/941 731/960
f 461/586 462/587 463/588
f 463/588 462/587 465/591
f 467/593 533/678 542/687
f 542/687 533/678 541/686
f 541/686 533/678 534/679
f 270/331 274/335 286/348
f 541/686 534/679 544/689
f 544/689 534/679 538/683
f 278/339 270/331 287/349
f 544/689 538/683 543/688
f 538/683 537/682 543/688
f 543/688 537/682 540/685
f 540/685 537/682 536/681
f 540/685 536/681 539/684
f 551/696 539/684 552/697
f 551/696 552/697 553/698
f 569/714 553/698 556/701
f 569/714 556/701 558/703
f 559/704 561/706 581/726
f 581/726 561/706 563/708
f 573/718 567/712 568/713
f 577/722 573/718 568/713
f 573/718 577/722 582/727
f 428/543 582/727 577/722
f 413/520 483/615 417/527
f 417/527 611/771 384/472
f 248/293 237/279 234/274
f 234/274 237/279 236/277
f 234/274 236/277 235/275
f 235/275 236/277 258/309
f 711/936 248/293 234/274
f 235/275 258/309 239/282
f 239/281 258/308 448/571
f 239/281 448/571 454/578
f 234/274 235/275 233/273
f 480/610 239/281 454/578
f 714/940 711/936 234/274
f 714/940 234/274 231/271
f 480/610 454/578 456/580
f 480/610 456/580 470/597
f 715/941 714/939 230/269
f 473/601 470/597 461/586
f 722/948 731/960 730/959
f 463/588 473/601 461/586
f 472/600 463/588 465/591
f 472/600 465/591 467/593
f 472/600 467/593 474/602
f 474/602 467/593 542/687
f 547/692 542/687 541/686
f 541/686 544/689 550/695
f 546/691 543/688 540/685
f 540/685 539/684 545/690
f 546/691 540/685 545/690
f 545/690 539/684 551/696
f 292/355 289/351 291/353
f 574/719 551/696 553/698
f 551/696 574/719 576/721
f 569/714 574/719 553/698
f 295/358 292/355 319/382
f 574/719 569/714 575/720
f 569/714 558/703 575/720
f 298/361 297/360 213/249
f 300/363 298/361 213/249
f 575/720 558/703 559/704
f 575/720 559/704 579/724
f 580/725 579/724 559/704
f 581/726 580/725 559/704
f 322/389 321/387 210/246
f 583/728 581/726 563/708
f 583/728 563/708 567/712
f 324/393 322/389 210/246
f 324/393 210/246 209/245
f 583/728 567/712 573/718
f 592/738 583/728 573/718
f 328/399 324/393 209/245
f 328/399 209/245 215/254
f 592/738 573/718 582/727
f 593/740 592/738 582/727
f 269/330 328/399 215/254
f 260/312 593/740 582/727
f 659/860 623/798 650/845
f 650/846 623/796 649/843
f 649/844 623/797 626/801
f 626/801 414/522 407/511
f 407/512 414/521 413/520
f 664/866 668/871 614/778
f 233/273 235/275 239/282
f 233/273 239/282 238/280
f 238/280 239/282 480/611
f 231/271 233/273 232/272
f 232/272 233/273 238/280
f 238/280 480/611 265/321
f 265/321 480/611 470/598
f 230/270 231/271 229/268
f 229/268 231/271 232/272
f 230/270 229/268 735/968
f 265/321 470/598 267/325
f 731/960 230/269 735/967
f 267/324 470/597 473/601
f 267/324 473/601 463/588
f 730/959 731/960 735/967
f 472/600 267/324 463/588
f 267/324 472/600 264/319
f 730/959 735/967 733/962
f 729/957 730/959 733/962
f 474/602 542/687 547/692
f 547/692 541/686 550/695
f 550/695 544/689 549/694
f 544/689 543/688 549/694
f 543/688 548/693 549/694
f 543/688 546/691 548/693
f 545/690 551/696 576/721
f 576/721 574/719 584/729
f 584/729 574/719 585/730
f 585/730 574/719 575/720
f 213/250 320/385 211/247
f 585/730 575/720 579/724
f 596/745 585/730 579/724
f 323/391 213/250 211/247
f 323/391 211/247 198/234
f 261/313 596/745 579/724
f 261/313 579/724 580/725
f 321/387 323/391 198/234
f 261/313 580/725 581/726
f 321/387 198/234 200/236
f 266/322 261/313 581/726
f 210/246 200/236 202/238
f 246/289 266/323 255/304
f 266/322 581/726 583/728
f 255/304 266/323 592/739
f 592/738 266/322 583/728
f 202/238 201/237 204/240
f 207/243 202/238 204/240
f 209/245 210/246 202/238
f 209/245 202/238 207/243
f 243/286 255/304 592/739
f 207/243 204/240 208/244
f 215/254 209/245 207/243
f 207/243 208/244 215/254
f 243/286 592/739 593/741
f 215/254 208/244 260/311
f 208/244 243/286 260/311
f 260/311 243/286 593/741
f 649/844 626/801 407/511
f 413/520 417/527 418/529
f 228/267 229/268 238/280
f 228/267 238/280 241/284
f 238/280 265/321 241/284
f 241/284 265/321 267/325
f 228/267 241/284 242/285
f 242/285 241/284 267/325
f 227/266 228/267 242/285
f 733/963 735/968 222/261
f 222/261 735/968 228/267
f 242/285 267/325 264/320
f 734/966 733/963 222/261
f 591/736 264/319 472/600
f 729/957 733/962 734/964
f 591/736 472/600 474/602
f 326/395 729/958 734/965
f 591/736 474/602 547/692
f 268/326 591/736 547/692
f 326/396 734/966 330/402
f 268/326 547/692 590/735
f 325/394 326/395 330/401
f 590/735 547/692 550/695
f 590/735 550/695 586/731
f 325/394 330/401 174/208
f 586/731 550/695 549/694
f 327/397 325/394 174/208
f 587/732 586/731 549/694
f 290/352 327/397 174/208
f 290/352 174/208 331/403
f 587/732 549/694 548/693
f 290/352 331/403 171/204
f 288/350 290/352 171/204
f 587/732 548/693 546/691
f 588/733 587/732 546/691
f 288/350 171/204 178/213
f 589/734 588/733 546/691
f 214/251 288/350 178/213
f 589/734 546/691 545/690
f 214/252 178/214 180/216
f 214/252 180/216 182/218
f 589/734 545/690 576/721
f 291/354 214/252 182/218
f 291/354 182/218 191/227
f 595/744 576/721 594/742
f 212/248 291/354 191/227
f 212/248 191/227 193/229
f 594/742 576/721 584/729
f 597/746 594/742 584/729
f 212/248 193/229 196/232
f 196/232 193/229 195/231
f 597/746 584/729 585/730
f 262/315 597/746 585/730
f 597/747 262/316 257/307
f 211/247 212/248 196/232
f 262/315 585/730 596/745
f 196/232 195/231 197/233
f 197/233 195/231 203/239
f 211/247 196/232 198/234
f 198/234 196/232 197/233
f 217/256 257/307 244/287
f 244/287 257/307 262/316
f 244/287 262/316 263/318
f 263/317 262/315 596/745
f 197/233 203/239 217/256
f 263/317 596/745 261/313
f 197/233 217/256 223/262
f 223/262 217/256 244/287
f 199/235 198/234 197/233
f 199/235 197/233 206/242
f 206/242 197/233 223/262
f 244/287 263/318 261/314
f 223/262 244/287 245/288
f 245/288 244/287 261/314
f 201/237 199/235 206/242
f 206/242 223/262 221/260
f 221/260 223/262 245/288
f 221/260 245/288 246/289
f 246/289 245/288 261/314
f 201/237 206/242 205/241
f 205/241 206/242 221/260
f 200/236 199/235 201/237
f 246/289 261/314 266/323
f 221/260 246/289 220/259
f 201/237 205/241 204/240
f 205/241 221/260 220/259
f 204/240 205/241 220/259
f 220/259 246/289 255/304
f 243/286 220/259 255/304
f 204/240 220/259 208/244
f 208/244 220/259 243/286
f 226/265 227/266 242/285
f 222/261 227/266 226/265
f 226/265 242/285 264/320
f 188/224 222/261 226/265
f 734/966 222/261 179/215
f 259/310 226/265 264/320
f 259/310 264/320 591/737
f 259/310 591/737 268/327
f 249/295 259/310 268/327
f 330/402 734/966 179/215
f 249/294 268/326 590/735
f 330/402 179/215 177/212
f 600/752 249/294 590/735
f 174/209 330/402 177/212
f 174/209 177/212 175/210
f 600/752 590/735 586/731
f 601/754 600/752 586/731
f 174/209 175/210 176/211
f 601/754 586/731 587/732
f 251/297 601/754 587/732
f 331/404 174/209 176/211
f 599/750 251/297 587/732
f 331/404 176/211 172/206
f 171/205 331/404 172/206
f 599/750 587/732 588/733
f 171/205 172/206 173/207
f 178/214 171/205 173/207
f 598/748 599/750 588/733
f 598/748 588/733 589/734
f 256/305 598/748 589/734
f 180/216 178/214 173/207
f 180/216 173/207 181/217
f 247/290 256/305 595/744
f 595/744 256/305 589/734
f 182/218 180/216 181/217
f 191/227 182/218 190/226
f 247/291 254/303 219/258
f 247/290 595/744 594/742
f 254/303 247/291 594/743
f 219/258 254/303 253/302
f 253/302 254/303 597/747
f 597/747 254/303 594/743
f 193/229 191/227 192/228
f 193/229 192/228 194/230
f 194/230 192/228 219/258
f 194/230 219/258 216/255
f 216/255 219/258 253/302
f 216/255 253/302 257/307
f 257/307 253/302 597/747
f 195/231 194/230 216/255
f 195/231 216/255 217/256
f 203/239 195/231 217/256
f 217/256 216/255 257/307
f 651/849 659/860 650/845
f 407/512 413/520 411/517
f 411/517 413/520 418/529
f 188/224 226/265 259/310
f 218/257 188/224 259/310
f 179/215 188/224 183/219
f 183/219 188/224 218/257
f 249/295 218/257 259/310
f 183/219 218/257 225/264
f 225/264 218/257 249/295
f 250/296 249/295 600/753
f 225/264 249/295 250/296
f 177/212 183/219 184/220
f 184/220 183/219 225/264
f 185/221 184/220 225/264
f 250/296 600/753 601/755
f 185/221 225/264 224/263
f 225/264 250/296 251/298
f 224/263 225/264 251/298
f 251/298 250/296 601/755
f 175/210 184/220 185/221
f 176/211 175/210 185/221
f 186/222 185/221 224/263
f 224/263 251/298 599/751
f 176/211 185/221 186/222
f 172/206 176/211 186/222
f 224/263 599/751 598/749
f 172/206 186/222 187/223
f 187/223 186/222 224/263
f 187/223 224/263 240/283
f 240/283 224/263 598/749
f 173/207 172/206 187/223
f 181/217 173/207 187/223
f 181/217 187/223 189/225
f 187/223 240/283 189/225
f 189/225 240/283 256/306
f 256/306 240/283 598/749
f 190/226 181/217 189/225
f 189/225 256/306 247/291
f 190/226 189/225 247/291
f 192/228 190/226 219/258
f 219/258 190/226 247/291
f 404/507 649/843 407/513
f 411/517 418/529 395/494
f 651/848 650/847 647/838
f 650/846 649/843 647/837
f 647/837 649/843 404/507
f 378/463 377/462 375/458
f 404/508 407/512 405/509
f 405/509 407/512 411/517
f 411/517 395/494 410/516
f 410/516 395/494 382/469
f 652/850 651/848 647/838
f 652/850 647/838 653/851
f 653/852 647/837 396/496
f 396/496 647/837 404/507
f 405/509 411/517 410/516
f 410/516 382/469 388/479
f 404/508 405/509 397/498
f 396/497 404/508 397/498
f 397/498 405/509 410/516
f 397/498 410/516 409/515
f 410/516 388/479 409/515
f 653/852 396/496 646/836
f 646/835 396/497 397/498
f 398/499 397/498 409/515
f 409/515 388/479 381/466
f 654/853 652/850 653/851
f 654/854 653/852 646/836
f 646/835 397/498 398/499
f 398/499 409/515 408/514
f 408/514 409/515 381/466
f 408/514 381/466 389/481
f 399/500 398/499 408/514
f 645/834 654/854 646/836
f 645/834 646/836 644/832
f 646/835 398/499 399/500
f 644/831 646/835 399/500
f 399/500 408/514 406/510
f 406/510 408/514 389/481
f 400/501 399/500 406/510
f 644/831 399/500 400/501
f 406/510 389/481 420/533
f 643/830 645/834 644/832
f 402/504 400/501 406/510
f 406/510 420/533 412/518
f 643/830 644/832 401/502
f 401/503 644/831 400/501
f 402/504 406/510 412/518
f 672/878 643/830 401/502
f 401/503 400/501 402/504
f 401/503 402/504 403/505
f 672/878 401/502 403/506
f 394/493 672/878 403/506
f 392/486 403/505 402/504
f 402/504 412/518 392/486
f 394/493 403/506 648/840
f 648/841 403/505 392/486
f 394/492 648/839 748/999
f 748/1000 648/842 392/487

