# https://github.com/mikedh/trimesh
mtllib material.mtl

o geometry_0.002
usemtl Material_0.002
v 0.05044875 -0.00120817 0.01479499
v 0.04908809 -0.00130626 0.01545654
v 0.04846135 -0.00137618 0.01474705
v 0.04550578 -0.00149570 0.01518906
v 0.04203709 -0.00176961 0.01472206
v 0.04212705 -0.00179099 0.01501227
v 0.03760203 -0.00190435 0.01528648
v 0.03682244 -0.00198832 0.01469755
v 0.03419846 -0.00223482 0.01473755
v 0.03426776 -0.00216760 0.01526742
v 0.05129777 -0.00078355 0.01593249
v 0.04022273 -0.00170573 0.01550761
v 0.03577824 -0.00181287 0.01586877
v 0.04546710 -0.00120553 0.01595737
v 0.04860302 -0.00114126 0.01589691
v 0.05173358 -0.00082256 0.01494672
v 0.03439195 -0.00128182 0.01663833
v 0.03770496 -0.00113186 0.01645060
v 0.03288601 -0.00225211 0.01639066
v 0.03297335 -0.00290241 0.01483439
v 0.05985795 -0.00013532 0.02929324
v 0.05830906 -0.00012134 0.02876776
v 0.06119947 -0.00038821 0.02936479
v 0.06271645 -0.00035804 0.02938891
v 0.06306698 0.00002676 0.02947492
v 0.06476772 -0.00046673 0.02864016
v 0.06588310 -0.00037590 0.02807726
v 0.06675225 -0.00042220 0.02739340
v 0.07089832 -0.00011988 0.00833324
v 0.07000146 -0.00042577 0.00688161
v 0.06942795 -0.00040423 0.00560558
v 0.07097226 -0.00040934 0.00918843
v 0.05104036 -0.00051304 0.01146144
v 0.05103589 -0.00017858 0.00949333
v 0.05189304 -0.00044821 0.00811185
v 0.05212408 -0.00026321 0.00709963
v 0.05207771 -0.00056915 0.01008379
v 0.05512513 -0.00052337 0.00522131
v 0.05857223 -0.00049907 0.00195201
v 0.06102814 -0.00054741 0.00204100
v 0.06361742 -0.00059207 0.00480299
v 0.06128867 -0.00067565 0.00977531
v 0.06523272 -0.00066924 0.01149201
v 0.06625373 -0.00051220 0.00300865
v 0.06931512 -0.00055924 0.01108086
v 0.06174051 -0.00071197 0.01644237
v 0.06582641 -0.00065707 0.01844689
v 0.07015202 -0.00050216 0.01977693
v 0.06764747 -0.00048934 0.02545511
v 0.06413288 -0.00060639 0.02328199
v 0.06476007 -0.00055585 0.02706145
v 0.07048548 -0.00051026 0.01344479
v 0.05481721 -0.00068874 0.01426443
v 0.05586070 -0.00068049 0.01668025
v 0.05240551 -0.00070738 0.01691463
v 0.06039070 -0.00063846 0.02208423
v 0.05333369 -0.00059811 0.01989119
v 0.05645095 -0.00051708 0.02550639
v 0.06119940 -0.00058453 0.02703770
v 0.05373219 -0.00065040 0.01164657
v 0.06449453 -0.00043184 0.00092040
v 0.05242504 -0.00049320 0.02165312
v 0.07183322 -0.00038172 0.01605358
v 0.06797378 -0.00039037 0.00357934
v 0.05823934 -0.00038512 0.00108061
v 0.05678209 -0.00033467 0.00190563
v 0.06861194 -0.00034520 0.02539426
v 0.04904747 -0.00123302 0.01417914
v 0.04602326 -0.00126019 0.01392954
v 0.03960139 -0.00173102 0.01423192
v 0.03542339 -0.00186320 0.01385557
v 0.03418931 -0.00184719 0.01377324
v 0.04226118 -0.00133290 0.01371854
v 0.03831079 -0.00124080 0.01339798
v 0.03329228 -0.00226283 0.01341269
v 0.03174320 -0.00273257 0.01341652
v 0.03126045 -0.00335585 0.01478099
v 0.02880780 -0.00338704 0.01335126
v 0.02879117 -0.00388261 0.01473819
v 0.02475655 -0.00449506 0.01479040
v 0.02158120 -0.00444488 0.01368056
v 0.02116910 -0.00473614 0.01463540
v 0.01872163 -0.00445741 0.01342655
v 0.01163443 -0.00452218 0.01335862
v 0.00910085 -0.00487658 0.01464095
v 0.00108007 -0.00459936 0.01333862
v 0.00318090 -0.00500000 0.01485902
v -0.00600815 -0.00457424 0.01331905
v -0.00755873 -0.00496861 0.01481277
v 0.02185214 -0.00400985 0.01267929
v 0.02071667 -0.00402553 0.01261947
v 0.05290898 -0.00022192 0.00579460
v -0.04190368 -0.00472313 0.01468590
v -0.05025426 -0.00463896 0.01503358
v -0.05069264 -0.00465898 0.01464955
v -0.06896435 -0.00468473 0.01468355
v -0.06952915 -0.00466926 0.01505572
v -0.04060582 -0.00471145 0.01507930
v -0.02838323 -0.00474367 0.01509135
v -0.02932332 -0.00474947 0.01465025
v -0.02269847 -0.00483320 0.01506434
v -0.02245246 -0.00488371 0.01483963
v -0.01763748 -0.00490992 0.01480642
v -0.04339131 -0.00442403 0.01619127
v -0.06254139 -0.00437266 0.01608085
v -0.02012962 -0.00448800 0.01635998
v -0.01653336 -0.00446523 0.01642187
v -0.03718406 -0.00440619 0.01619748
v -0.02859356 -0.00443529 0.01627945
v -0.05470924 -0.00435223 0.01606463
v -0.04697828 -0.00438653 0.01610688
v -0.07049847 -0.00438972 0.01591412
v -0.01167202 -0.00454478 0.01656127
v -0.01575890 -0.00492041 0.01478337
v -0.00440323 -0.00453797 0.01648486
v 0.00051021 -0.00458366 0.01647773
v 0.00527658 -0.00453857 0.01649597
v 0.00421660 -0.00489786 0.01510176
v 0.01178871 -0.00451112 0.01637476
v 0.01279008 -0.00486530 0.01505753
v 0.01756003 -0.00445154 0.01629532
v 0.02210934 -0.00467445 0.01505324
v 0.02159008 -0.00436954 0.01612905
v 0.02174979 -0.00400801 0.01701008
v 0.02538656 -0.00402749 0.01603873
v 0.01780697 -0.00410481 0.01701746
v 0.02889503 -0.00334890 0.01623690
v -0.05473063 -0.00398579 0.01685570
v -0.04757299 -0.00398221 0.01694367
v -0.06250442 -0.00396721 0.01690653
v -0.01893266 -0.00411555 0.01702536
v -0.04254171 -0.00406093 0.01694184
v -0.03737463 -0.00404396 0.01693442
v -0.02728028 -0.00408401 0.01698412
v 0.03157043 -0.00276221 0.01619823
v 0.02645381 -0.00343067 0.01692164
v -0.01563187 -0.00387061 0.01749368
v 0.02414490 -0.00338910 0.01746737
v 0.00169345 -0.00408684 0.01720038
v -0.01120141 -0.00390077 0.01750867
v -0.00408389 -0.00401356 0.01726409
v -0.06313906 -0.00340261 0.01772197
v -0.05384390 -0.00337208 0.01774106
v 0.02173847 -0.00356099 0.01763131
v -0.06863108 -0.00322716 0.01787084
v -0.04376819 -0.00320609 0.01800351
v 0.01319083 -0.00363821 0.01768264
v 0.02990936 -0.00261290 0.01697161
v -0.03724273 -0.00342288 0.01773912
v -0.00409703 -0.00336289 0.01800658
v -0.01950548 -0.00322368 0.01805416
v 0.01863599 -0.00324308 0.01804116
v 0.02824804 -0.00248946 0.01747902
v -0.05379070 -0.00303872 0.01806595
v -0.06253478 -0.00308687 0.01802187
v -0.07043114 -0.00441576 0.01380182
v -0.07192653 -0.00437821 0.01379962
v -0.01699841 -0.00449336 0.01334632
v -0.02481939 -0.00445201 0.01335779
v -0.01203186 -0.00134866 0.01053567
v -0.00578052 -0.00133650 0.01054639
v -0.00567107 -0.00224157 0.01092283
v 0.00218540 -0.00127973 0.01054387
v 0.01059023 -0.00132910 0.01051952
v 0.00288959 -0.00228043 0.01096404
v -0.01137427 -0.00224058 0.01088877
v -0.01771733 -0.00117353 0.01057617
v -0.01769339 -0.00229976 0.01102895
v 0.01038478 -0.00232209 0.01098211
v 0.01839632 -0.00136012 0.01050062
v 0.01578604 -0.00230413 0.01094964
v -0.02642672 -0.00214235 0.01098357
v -0.02957575 -0.00144335 0.01070746
v -0.04141077 -0.00185850 0.01092409
v -0.04458498 -0.00022427 0.01032469
v -0.05152297 -0.00146624 0.01072219
v -0.05157284 -0.00206183 0.01096913
v -0.05561406 -0.00188821 0.01093089
v -0.06149282 -0.00020694 0.01034138
v -0.02974515 -0.00019686 0.01031970
v -0.01861403 -0.00025388 0.01030034
v -0.07130108 -0.00129102 0.01071717
v -0.07194486 -0.00016909 0.01035735
v 0.01656150 -0.00024291 0.01017010
v 0.02150443 -0.00031365 0.01011096
v 0.02170537 -0.00130383 0.01048879
v 0.02475283 -0.00028270 0.01033218
v 0.00708947 -0.00026870 0.01026442
v -0.00762322 -0.00025371 0.01026134
v -0.06226877 -0.00203720 0.01102680
v -0.06647164 -0.00211992 0.01103332
v -0.07176110 -0.00213701 0.01108700
v 0.02520628 -0.00173593 0.01101830
v -0.03660351 -0.00222422 0.01107886
v 0.02147210 -0.00230753 0.01100038
v 0.02763762 -0.00130773 0.01118442
v 0.02599078 0.00000692 0.01042719
v 0.03064610 -0.00019808 0.01137322
v -0.07034526 0.00034615 0.01027232
v -0.05251968 0.00025142 0.01026677
v 0.01332578 0.00021940 0.01015599
v 0.02878595 0.00023558 0.01090446
v -0.04337234 0.00029112 0.01028343
v -0.02790425 0.00025177 0.01028574
v -0.01677909 0.00014033 0.01026683
v 0.02226475 0.00013793 0.01012030
v 0.03298779 -0.00118705 0.01227260
v 0.00650557 0.00024268 0.01023677
v 0.03343212 -0.00039215 0.01211975
v -0.00313335 0.00019365 0.01024892
v -0.04382301 -0.00294273 0.01159886
v -0.05412431 -0.00287938 0.01155242
v 0.02643247 -0.00238657 0.01162530
v 0.02873394 -0.00256062 0.01222526
v -0.06311371 -0.00293757 0.01163018
v -0.03411523 -0.00288260 0.01150911
v -0.01667085 -0.00308380 0.01154200
v -0.02032539 -0.00325874 0.01177650
v 0.00008981 -0.00303704 0.01149254
v 0.01338563 -0.00307507 0.01151926
v -0.07195339 -0.00284741 0.01158998
v -0.01099605 -0.00335319 0.01168714
v -0.00723418 -0.00340363 0.01177747
v 0.02175125 -0.00295027 0.01149885
v 0.00440319 -0.00347812 0.01187099
v 0.01774704 -0.00344418 0.01187169
v -0.05049685 -0.00333132 0.01193728
v -0.04078177 -0.00339406 0.01199913
v -0.02839484 -0.00333048 0.01189009
v 0.03330895 -0.00182114 0.01283851
v 0.02230414 -0.00355192 0.01208973
v -0.07004662 -0.00333092 0.01202666
v 0.03369391 -0.00125305 0.01258836
v 0.03237039 0.00017785 0.01176566
v -0.05552939 -0.00344179 0.01212067
v -0.06210943 -0.00340905 0.01210633
v -0.01618695 -0.00394170 0.01241448
v -0.07196961 -0.00384713 0.01262221
v -0.07214344 -0.00239042 0.01141974
v -0.02198319 -0.00399761 0.01262386
v -0.01078070 -0.00402348 0.01242692
v -0.00629004 -0.00399638 0.01245464
v 0.00726066 -0.00403796 0.01252346
v 0.03010202 -0.00282117 0.01289578
v 0.02687481 -0.00347239 0.01286917
v -0.02926015 -0.00403145 0.01272141
v -0.04294316 -0.00408679 0.01285145
v -0.03557768 -0.00409711 0.01282773
v -0.05366684 -0.00403770 0.01289868
v -0.06430924 -0.00406354 0.01301463
v -0.04687065 -0.00403568 0.01284812
v -0.07016677 -0.00395376 0.01286473
v -0.01091657 -0.00457976 0.01327320
v 0.02498819 -0.00401958 0.01328284
v 0.00788522 -0.00452847 0.01328847
v 0.03430496 -0.00045523 0.01264775
v -0.04345248 -0.00443765 0.01348831
v -0.02867948 -0.00442707 0.01343314
v -0.03995324 -0.00442005 0.01350751
v -0.04746030 -0.00440506 0.01361980
v -0.05394692 -0.00440891 0.01366903
v -0.06390128 -0.00441053 0.01373105
v 0.03420668 -0.00125096 0.01303740
v 0.03813379 -0.00085218 0.01312629
v 0.03812499 -0.00028443 0.01284762
v 0.04217464 -0.00091804 0.01327787
v 0.04247509 -0.00031766 0.01296539
v 0.04751381 -0.00041959 0.01323327
v 0.05121983 -0.00067463 0.01352600
v 0.05003053 -0.00020534 0.01311374
v 0.05071723 -0.00006188 0.01300104
v 0.04461553 0.00020634 0.01297246
v 0.04845471 0.00038273 0.01309854
v 0.03803846 0.00019895 0.01278952
v 0.03440566 0.00021239 0.01259624
v 0.05046454 0.00028269 0.01306845
v -0.02959059 0.00076561 0.01037719
v -0.05136655 0.00124406 0.01046411
v -0.05487172 0.00111953 0.01045588
v -0.06043409 0.00121109 0.01045927
v -0.02543830 0.00144021 0.01056190
v -0.01244954 0.00125910 0.01051460
v -0.00611356 0.00130667 0.01051353
v 0.00236116 0.00126144 0.01048335
v 0.01003762 0.00132429 0.01047579
v 0.02527364 0.00159812 0.01073035
v 0.02705712 0.00123525 0.01089005
v 0.03346095 0.00100559 0.01232991
v -0.04146544 0.00139623 0.01056182
v 0.01294145 0.00140118 0.01044735
v 0.01770962 0.00137822 0.01046326
v -0.07197649 0.00103179 0.01054311
v -0.01734325 0.00180092 0.01067827
v -0.01492795 0.00184949 0.01072951
v 0.02198983 0.00179530 0.01056149
v -0.06971928 0.00138209 0.01056242
v 0.00845308 0.00201649 0.01070344
v -0.00441953 0.00200435 0.01072000
v -0.01120073 0.00240191 0.01089138
v -0.01780087 0.00225559 0.01088030
v 0.01773705 0.00205264 0.01068070
v 0.02893971 0.00141976 0.01131211
v -0.02568300 0.00206959 0.01078840
v -0.00048052 0.00260994 0.01095366
v 0.02092404 0.00260228 0.01089732
v 0.01690143 0.00266146 0.01095713
v 0.02670156 0.00189407 0.01115052
v -0.01058577 -0.00142210 0.01917825
v -0.01059574 -0.00209419 0.01891365
v -0.00496570 -0.00204247 0.01889804
v -0.01691175 -0.00206528 0.01883905
v -0.01600436 -0.00128201 0.01916314
v -0.02226921 -0.00133432 0.01910115
v -0.02732901 -0.00196747 0.01885131
v -0.02882211 -0.00137390 0.01910902
v -0.00290186 -0.00144824 0.01913812
v 0.00037806 -0.00208895 0.01887405
v 0.00651087 -0.00146121 0.01912730
v 0.00664882 -0.00207864 0.01887154
v 0.01064111 -0.00197481 0.01889855
v 0.01089154 -0.00139480 0.01914881
v 0.01607144 -0.00203795 0.01888896
v 0.01646233 -0.00139831 0.01915816
v 0.02149158 -0.00181318 0.01886549
v 0.02152584 -0.00028261 0.01941372
v 0.01387407 -0.00023580 0.01950346
v -0.01679976 -0.00026726 0.01944214
v -0.02862276 -0.00031370 0.01939117
v -0.04020819 -0.00122493 0.01907230
v -0.04237114 -0.00027149 0.01937944
v -0.05576293 -0.00135145 0.01900188
v -0.05237182 -0.00028851 0.01937668
v -0.06273989 -0.00028366 0.01936163
v -0.06656491 -0.00133559 0.01901099
v -0.07185773 -0.00016480 0.01937303
v -0.04971934 -0.00179958 0.01883552
v -0.04053701 -0.00173425 0.01883391
v 0.00441638 -0.00029016 0.01941831
v -0.00068860 -0.00096531 0.01924115
v -0.00495541 -0.00029473 0.01941340
v -0.06668915 -0.00181632 0.01880174
v -0.05693447 -0.00177742 0.01877750
v -0.07189109 -0.00196165 0.01866130
v 0.02645056 -0.00134879 0.01843018
v 0.02702617 0.00006746 0.01886065
v -0.06976555 0.00029548 0.01944226
v -0.05483014 0.00023422 0.01942762
v 0.01828148 0.00016905 0.01949780
v -0.00889458 0.00014140 0.01946772
v 0.03074701 -0.00156955 0.01754868
v 0.03057561 0.00003194 0.01814597
v 0.03238291 -0.00032266 0.01771219
v -0.04364647 0.00025338 0.01941088
v -0.00255254 0.00017064 0.01944317
v 0.00598454 0.00015436 0.01944656
v 0.01118271 0.00016467 0.01951454
v -0.02518265 0.00018918 0.01943552
v 0.02443730 0.00029168 0.01915796
v -0.01611531 0.00016148 0.01945261
v 0.02195973 0.00021188 0.01939089
v 0.02504390 -0.00219396 0.01818913
v -0.06974880 -0.00264966 0.01829348
v -0.03819753 -0.00311460 0.01804020
v -0.03026274 -0.00270626 0.01838587
v 0.00704396 -0.00339286 0.01802948
v 0.01381269 -0.00328005 0.01807233
v -0.01131380 -0.00334722 0.01809778
v 0.00241593 -0.00338074 0.01802926
v 0.02176238 -0.00304601 0.01805696
v 0.03284747 -0.00160912 0.01704398
v -0.07191469 -0.00322308 0.01779239
v -0.02650868 -0.00327700 0.01798381
v 0.03445944 -0.00055370 0.01696128
v 0.03844119 -0.00029507 0.01679517
v 0.04576075 -0.00039189 0.01655102
v 0.04570979 0.00021710 0.01665619
v 0.04982038 -0.00021381 0.01660781
v 0.05044404 0.00033285 0.01665647
v 0.03894959 0.00018182 0.01681679
v 0.03462917 0.00025257 0.01697362
v -0.07195050 0.00028492 0.01937155
v 0.05069659 -0.00002660 0.01672804
v 0.03387391 -0.00008033 0.01719721
v 0.04565195 0.00065884 0.01660084
v -0.05871930 0.00108554 0.01929258
v -0.06956740 0.00104738 0.01931383
v -0.05116608 0.00109470 0.01926424
v -0.02652175 0.00104141 0.01926564
v -0.02158623 0.00109947 0.01925469
v -0.03395389 0.00105747 0.01928280
v 0.00498107 0.00110157 0.01924055
v 0.03312190 0.00093314 0.01723546
v 0.02774629 0.00034666 0.01866867
v 0.03956988 0.00078169 0.01666581
v -0.04367633 0.00110051 0.01921397
v -0.00919624 0.00121842 0.01921866
v 0.00022583 0.00172557 0.01905868
v -0.01604560 0.00102549 0.01923965
v 0.01158110 0.00116650 0.01927222
v 0.01654418 0.00153204 0.01916625
v 0.02167654 0.00166845 0.01903445
v 0.03943896 -0.00116374 0.01631587
v 0.01137235 0.00211642 0.01896036
v 0.03156395 0.00104226 0.01755488
v -0.01109561 0.00242932 0.01881846
v -0.01608400 0.00233568 0.01880716
v -0.02033116 0.00208969 0.01890078
v -0.00532281 0.00219554 0.01889479
v -0.03254940 0.00202344 0.01888713
v 0.03465256 0.00116472 0.01664421
v 0.02702554 0.00136094 0.01841723
v -0.07197594 0.00181475 0.01882194
v -0.04647753 0.00207803 0.01883070
v -0.00292949 0.00251069 0.01876579
v 0.00880376 0.00261722 0.01871675
v 0.01892921 0.00251034 0.01874673
v 0.03300351 0.00143630 0.01696238
v -0.05644358 0.00204098 0.01887329
v -0.06968218 0.00214843 0.01881615
v 0.02464368 0.00206623 0.01842941
v 0.02136538 0.00268974 0.01852939
v -0.07213904 0.00034085 0.01922767
v 0.04401639 0.00150787 0.01616195
v 0.04838484 0.00142881 0.01616024
v 0.05046346 0.00146969 0.01630258
v -0.01553487 0.00309495 0.01831717
v -0.04092947 0.00266527 0.01843680
v 0.02758353 0.00200665 0.01786007
v -0.00890326 0.00314230 0.01831869
v -0.01872914 0.00315944 0.01803577
v -0.07195025 0.00294283 0.01803013
v 0.03032926 0.00198194 0.01717419
v -0.02619794 0.00270865 0.01842413
v -0.01960652 0.00263477 0.01850463
v -0.00247319 0.00310227 0.01833166
v 0.00849862 0.00315199 0.01830554
v 0.01931099 0.00311563 0.01828522
v 0.03396994 0.00183649 0.01617661
v -0.05922141 0.00272114 0.01837671
v -0.05336498 0.00264227 0.01839967
v -0.04681895 0.00266975 0.01838966
v -0.03283992 0.00261347 0.01843583
v -0.07050077 0.00285272 0.01820882
v 0.02466440 0.00277801 0.01784161
v 0.03298168 0.00192582 0.01657176
v -0.05227821 0.00408039 0.01700050
v -0.04518730 0.00364442 0.01744206
v 0.02136963 0.00336004 0.01788188
v -0.02688331 0.00411582 0.01698708
v -0.06439753 0.00351651 0.01754742
v 0.02760183 0.00285786 0.01701242
v 0.00751757 0.00411598 0.01726895
v -0.00786546 0.00411267 0.01721597
v -0.01303962 0.00405347 0.01725842
v -0.01751564 0.00410721 0.01701802
v 0.03121471 0.00281599 0.01598352
v 0.02102274 0.00413209 0.01699958
v 0.02546876 0.00341459 0.01688897
v 0.02795378 0.00343616 0.01606374
v -0.00858315 0.00458345 0.01321056
v -0.01277711 0.00461520 0.01326327
v -0.00958659 0.00492302 0.01489297
v -0.00722569 0.00493816 0.01484444
v -0.01462394 0.00483712 0.01476986
v -0.01801837 0.00452596 0.01327221
v -0.01914594 0.00464818 0.01460422
v -0.00382675 0.00491578 0.01481206
v -0.00346591 0.00459056 0.01326630
v 0.00390080 0.00459330 0.01321403
v 0.00169522 0.00493199 0.01486659
v 0.00513997 0.00494273 0.01485701
v 0.01148805 0.00500000 0.01490785
v 0.00974744 0.00460158 0.01322532
v 0.01546980 0.00454285 0.01319589
v 0.01481917 0.00494595 0.01485536
v 0.01918835 0.00488721 0.01478663
v 0.02087719 0.00444044 0.01317266
v 0.02107139 0.00479856 0.01477321
v -0.02669574 0.00450797 0.01403407
v -0.02756504 0.00466307 0.01484502
v -0.04052065 0.00447896 0.01418244
v -0.03155121 0.00436741 0.01324661
v -0.04011570 0.00461769 0.01470385
v -0.05989224 0.00446196 0.01419363
v -0.05748520 0.00459823 0.01468178
v -0.07048504 0.00453133 0.01469829
v -0.06822807 0.00444365 0.01430786
v -0.07025496 0.00431327 0.01343930
v -0.06686996 0.00426125 0.01317341
v -0.07197261 0.00434658 0.01376629
v -0.06130090 0.00438217 0.01346836
v -0.06140380 0.00429416 0.01305242
v -0.04115719 0.00441708 0.01349162
v -0.04257014 0.00433255 0.01307247
v -0.02466694 0.00447610 0.01328628
v -0.07211164 0.00447042 0.01532814
v 0.02316557 0.00452593 0.01481170
v 0.02387742 0.00404836 0.01331022
v 0.02608926 0.00407862 0.01476929
v -0.01917565 0.00466742 0.01515360
v -0.06826726 0.00455226 0.01505855
v -0.05310438 0.00460872 0.01507077
v -0.03995227 0.00464087 0.01509454
v -0.03193992 0.00461084 0.01503551
v 0.02795829 0.00339120 0.01334332
v 0.02961653 0.00350809 0.01471626
v 0.03078843 0.00326082 0.01455950
v 0.03229621 0.00269745 0.01374177
v 0.03294494 0.00281454 0.01484838
v -0.02294116 0.00449115 0.01644074
v -0.01760048 0.00455868 0.01637739
v 0.00143630 0.00472736 0.01591986
v 0.00784262 0.00461440 0.01647427
v -0.06737329 0.00406410 0.01275943
v -0.06121466 0.00414641 0.01268890
v -0.05519614 0.00414390 0.01273629
v -0.04088111 0.00419700 0.01279374
v -0.03008751 0.00417462 0.01277060
v -0.02556025 0.00430158 0.01292675
v 0.03338761 0.00230129 0.01344741
v -0.01775827 0.00415976 0.01273266
v -0.01182764 0.00410786 0.01248671
v -0.07194152 0.00383540 0.01273546
v 0.02097637 0.00409269 0.01251221
v 0.02552069 0.00355567 0.01285965
v -0.03045743 0.00451222 0.01553718
v -0.03021006 0.00442154 0.01623075
v -0.04490048 0.00450783 0.01552950
v -0.01177435 0.00458920 0.01651154
v -0.05025328 0.00429747 0.01653748
v -0.06270918 0.00449215 0.01539707
v -0.06977274 0.00430420 0.01607330
v -0.06121727 0.00428545 0.01659856
v 0.02100659 0.00454654 0.01608367
v 0.01827273 0.00452432 0.01642974
v -0.00535570 0.00456211 0.01648490
v 0.02540787 0.00395389 0.01591027
v 0.00161665 0.00457949 0.01649153
v 0.01377808 0.00453945 0.01651344
v 0.03387686 0.00236265 0.01444550
v 0.01317424 0.00408691 0.01236266
v -0.02964772 0.00430504 0.01664776
v 0.02382903 0.00401138 0.01641611
v -0.06750999 0.00408348 0.01683504
v 0.00649868 0.00408859 0.01234425
v -0.07072190 0.00396236 0.01684501
v 0.03296892 0.00243642 0.01589031
v 0.02938263 0.00273611 0.01270120
v -0.00587015 0.00409259 0.01245051
v 0.00362150 0.00405317 0.01236352
v -0.06052566 0.00407722 0.01702989
v -0.03455211 0.00414454 0.01692604
v 0.03368512 0.00232508 0.01542929
v 0.03620160 0.00221190 0.01463435
v 0.03630707 0.00217919 0.01517655
v 0.04456040 0.00208446 0.01458842
v 0.04481304 0.00205601 0.01518109
v 0.04985773 0.00190000 0.01462128
v 0.03690591 0.00196732 0.01402041
v 0.05066606 0.00198830 0.01487706
v 0.04563893 0.00183588 0.01405435
v 0.03669282 0.00193292 0.01574084
v 0.04503442 0.00180716 0.01573762
v 0.01440393 0.00406468 0.01730030
v 0.03608032 0.00176581 0.01363758
v 0.03403420 0.00186317 0.01336466
v 0.04466690 0.00159805 0.01366329
v 0.04875348 0.00166723 0.01388550
v 0.05049920 0.00148131 0.01344713
v 0.03171461 0.00214568 0.01265900
v 0.02735008 0.00268992 0.01203812
v 0.02433473 0.00272170 0.01142254
v 0.04809644 0.00136058 0.01352256
v 0.02139783 0.00295174 0.01121618
v -0.01586142 0.00301705 0.01134416
v 0.03311697 0.00168016 0.01261099
v 0.00202180 0.00300824 0.01124626
v -0.00746931 0.00299796 0.01129532
v 0.01459354 0.00305418 0.01127329
v -0.01916832 0.00267407 0.01124576
v 0.03880766 0.00153002 0.01620661
v 0.00297042 0.00404455 0.01729639
v 0.03059825 0.00166611 0.01190719
v -0.04765042 0.00378839 0.01237491
v -0.06729189 0.00261807 0.01128936
v -0.02603505 0.00344757 0.01205707
v -0.02515251 0.00265639 0.01123391
v -0.03045441 0.00328838 0.01195644
v -0.03676566 0.00266389 0.01132294
v -0.05926348 0.00273199 0.01137176
v -0.05281841 0.00319062 0.01184800
v -0.04684220 0.00266163 0.01130109
v -0.04049486 0.00337889 0.01206366
v -0.04686660 0.00215310 0.01087034
v -0.03642585 0.00200113 0.01078315
v -0.06813233 0.00209551 0.01086674
v -0.05870466 0.00200656 0.01078655
v -0.07212451 0.00229236 0.01114947
v 0.01003337 0.00262137 0.01095856
v 0.03793358 0.00131648 0.01333202
v 0.03486152 0.00101416 0.01288382
v 0.04034352 0.00069081 0.01299123
v 0.03412189 0.00102375 0.01272639
v -0.00648454 0.00256953 0.01098349
v 0.04913152 0.00072633 0.01313382
v 0.05046100 0.00101013 0.01314885
v -0.04846405 0.00190612 0.01072167
v -0.07209977 -0.00288656 0.01784312
v -0.07209941 0.00195849 0.01186042
v -0.07208860 -0.00333157 0.01437749
v -0.07209939 0.00234140 0.01835334
v -0.07213657 0.00422936 0.01375640
v -0.07210818 -0.00433062 0.01538476
v -0.07214021 -0.00377132 0.01289435
v -0.07215581 -0.00053034 0.01088110
v -0.07212774 -0.00128524 0.01867150
v -0.07210436 0.00026620 0.01036402
v -0.07214306 0.00343808 0.01716205
v -0.07201737 -0.00460673 0.01497000
v -0.07199337 -0.00387992 0.01690817
v -0.07199106 -0.00127509 0.01897692
v -0.07199411 0.00294748 0.01166102
v -0.07194241 0.00381785 0.01689861
v 0.06650990 0.00199257 0.02760944
v 0.06653359 0.00146985 0.02780135
v 0.06465793 0.00199348 0.02876397
v 0.06327993 0.00199947 0.02938583
v 0.06789546 0.00182710 0.02634014
v 0.06493086 0.00246267 0.02797364
v 0.06750197 0.00250925 0.02567253
v 0.06889829 0.00203090 0.02495257
v 0.06672976 0.00246283 0.02646875
v 0.06330336 0.00243354 0.02869592
v 0.06923567 0.00245830 0.02348559
v 0.07046945 0.00187347 0.02250515
v 0.07014655 0.00253191 0.02146729
v 0.07096361 0.00182847 0.02151686
v 0.06082577 0.00208842 0.02950793
v 0.06115901 0.00251363 0.02870054
v 0.05889617 0.00249970 0.02832192
v 0.07113326 0.00238658 0.01935817
v 0.06431612 0.00259229 0.01548369
v 0.06320357 0.00256871 0.00774678
v 0.05333919 0.00258954 0.01546488
v 0.05332873 0.00257078 0.01197753
v 0.06022946 0.00252353 0.00292742
v 0.06711932 0.00252917 0.00376364
v 0.07002270 0.00255254 0.00818719
v 0.07143121 0.00257184 0.01647606
v 0.07040018 0.00256254 0.01973175
v 0.06065134 0.00260127 0.01849745
v 0.05654517 0.00259102 0.02183428
v 0.06094966 0.00257117 0.02649439
v 0.05619539 0.00254641 0.02654554
v 0.06483673 0.00251733 0.02759065
v 0.05496443 0.00247941 0.00559644
v 0.05676788 0.00244925 0.00288712
v 0.05937081 0.00247063 0.00128529
v 0.06319187 0.00247380 0.00118610
v 0.07116143 0.00257676 0.01214839
v 0.07140945 0.00257639 0.01245688
v 0.05216888 0.00251932 0.02039569
v 0.05139568 0.00252646 0.01603413
v 0.05143216 0.00248259 0.01101068
v 0.05231504 0.00245494 0.00864522
v 0.05221204 0.00248320 0.02128122
v 0.06880512 0.00251597 0.00553944
v 0.07074076 0.00251953 0.00943624
v 0.05518244 0.00241219 0.00430007
v 0.07102161 0.00253928 0.01858095
v 0.06518573 0.00242252 0.00177507
v 0.05345315 0.00239116 0.00660821
v 0.05261723 0.00243193 0.02242376
v 0.05415918 0.00245924 0.02478616
v 0.05128343 0.00240410 0.01928768
v 0.05403062 0.00223284 0.00512367
v 0.06986306 0.00243572 0.00693015
v 0.06768861 0.00238603 0.00371740
v 0.05636059 0.00245998 0.02693557
v 0.05152409 0.00217783 0.02129965
v 0.05241246 0.00202528 0.00659563
v 0.05502311 0.00195488 0.00307251
v 0.05780132 0.00199050 0.00110039
v 0.06322186 0.00201589 0.00039452
v 0.05069399 0.00213507 0.01713519
v 0.07209925 0.00212188 0.01496538
v 0.06888394 0.00202953 0.00450363
v 0.06665710 0.00185766 0.00200362
v 0.07194494 0.00207839 0.01284681
v 0.05246153 0.00169594 0.00616602
v 0.05398663 0.00156290 0.00414308
v 0.05224442 0.00084899 0.00639679
v 0.05404836 0.00036132 0.00408911
v 0.05312157 0.00019355 0.00532284
v 0.05506587 0.00055043 0.00296853
v 0.05467540 -0.00014053 0.00349423
v 0.05225624 0.00018146 0.00653602
v 0.05592059 0.00195530 0.00225354
v 0.05154027 0.00171985 0.00774253
v 0.05601476 0.00023802 0.00218757
v 0.05363261 0.00187473 0.00473563
v 0.05724531 0.00156924 0.00125621
v 0.05159971 -0.00013141 0.00784356
v 0.05565806 -0.00039494 0.00278413
v 0.05385759 -0.00041381 0.00484719
v 0.05709429 -0.00011170 0.00149979
v 0.05824865 0.00032279 0.00080303
v 0.05890585 0.00148570 0.00047970
v 0.05962736 -0.00024603 0.00042177
v 0.06095508 0.00199829 0.00018956
v 0.06331845 0.00105355 0.00020285
v 0.06528149 0.00141441 0.00097225
v 0.06349497 -0.00009476 0.00035004
v 0.06563373 -0.00018744 0.00135699
v 0.06667039 0.00066742 0.00193450
v 0.06339914 0.00176795 0.00026980
v 0.06657190 -0.00038039 0.00215578
v 0.06752710 0.00159857 0.00269835
v 0.06767084 0.00035513 0.00294783
v 0.06872879 0.00153223 0.00404980
v 0.06869310 -0.00023060 0.00427955
v 0.06964789 0.00057115 0.00558566
v 0.07038115 -0.00010962 0.00715732
v 0.07042893 0.00148567 0.00690170
v 0.07102183 0.00185625 0.00818326
v 0.07001957 0.00204950 0.00639844
v 0.06515782 0.00184280 0.00104307
v 0.06142488 0.00025417 0.00004290
v 0.06114373 0.00152172 -0.00000000
v 0.06153340 -0.00039827 0.00027559
v 0.06302245 -0.00039920 0.00045551
v 0.05372162 -0.00036092 0.02486741
v 0.05170118 -0.00040316 0.02139821
v 0.05108961 -0.00010814 0.02051890
v 0.05113295 -0.00066660 0.01631854
v 0.07086764 -0.00015013 0.02128581
v 0.06973606 -0.00042901 0.02327324
v 0.07090483 -0.00041812 0.02057514
v 0.07029209 -0.00016828 0.02262575
v 0.06958259 -0.00012828 0.02396948
v 0.07142601 -0.00017342 0.01925278
v 0.06504483 0.00016979 0.02872941
v 0.06659468 0.00014616 0.02772258
v 0.07174134 -0.00036548 0.01236571
v 0.07194832 -0.00025323 0.01550531
v 0.07191604 0.00029110 0.01240215
v 0.07215581 0.00057340 0.01459431
v 0.07145976 -0.00007818 0.01025841
v 0.07202253 0.00149598 0.01236503
v 0.07159761 0.00163743 0.01020586
v 0.07198617 0.00196595 0.01675194
v 0.07196983 0.00057538 0.01703047
v 0.07151210 0.00201444 0.01018049
v 0.07150704 0.00186316 0.01972831
v 0.07119402 0.00041202 0.02057031
v 0.06998473 0.00151274 0.02349005
v 0.06863113 0.00167545 0.02555456
v 0.06828119 0.00053263 0.02601613
v 0.05805637 -0.00041817 0.02827908
v 0.05694305 -0.00016538 0.02801177
v 0.05620763 -0.00034132 0.02722508
v 0.05776145 0.00034966 0.02858446
v 0.05332576 0.00025812 0.02484671
v 0.05278789 -0.00012459 0.02401903
v 0.05429889 -0.00004168 0.02592310
v 0.05325171 0.00167794 0.02483387
v 0.05469527 0.00177046 0.02643142
v 0.05524275 -0.00006323 0.02677904
v 0.05673651 0.00159307 0.02805336
v 0.05655256 0.00029767 0.02788691
v 0.05886538 0.00154298 0.02912030
v 0.05672399 0.00205636 0.02788839
v 0.05267451 0.00201484 0.02390985
v 0.05892507 0.00206252 0.02900415
v 0.06101147 0.00018968 0.02960595
v 0.06092769 0.00160929 0.02961829
v 0.05452892 0.00218561 0.02595464
v 0.06314243 0.00130440 0.02949294
v 0.06501527 0.00151837 0.02878679
v 0.05091507 0.00231100 0.01668374
v 0.05068741 0.00183969 0.01552067
v 0.05092601 0.00230047 0.01193396
v 0.05070671 0.00181893 0.01406458
v 0.05065970 0.00177776 0.01118779
v 0.05087806 0.00171317 0.00951717
v 0.05057028 0.00121563 0.01282816
v 0.05062260 0.00094624 0.01067545
v 0.05062575 0.00023248 0.01120220
v 0.05115261 0.00032752 0.00873040
v 0.05076933 -0.00028680 0.01180868
v 0.05127801 0.00207407 0.00903300
v 0.05056478 0.00129466 0.01688007
v 0.05040612 0.00098000 0.01654374
v 0.05065807 0.00161289 0.01935578
v 0.05058632 0.00039443 0.01827138
v 0.05077029 0.00033610 0.01960283
v 0.05087261 0.00199540 0.01992529
v 0.05076765 -0.00032385 0.01803577
v 0.05129363 0.00090224 0.02158088
v 0.05131143 0.00162252 0.02162268
v 0.05162050 -0.00010174 0.02195821
v 0.05238934 0.00142507 0.02373894
v 0.05217557 -0.00010183 0.02304073
vt 0.86301029 0.23491609
vt 0.85505277 0.24620908
vt 0.85075808 0.23687243
vt 0.83255869 0.24799818
vt 0.81036544 0.24590230
vt 0.81110102 0.25008821
vt 0.78253168 0.26120043
vt 0.77713257 0.25337338
vt 0.75985920 0.25720346
vt 0.76058555 0.26612544
vt 0.86936641 0.25068897
vt 0.87641710 0.41779280
vt 0.79942322 0.26077366
vt 0.77120751 0.27333033
vt 0.83297491 0.26032114
vt 0.04594058 0.15020716
vt 0.85242409 0.25379276
vt 0.87148952 0.23510599
vt 0.86892277 0.42004502
vt 0.76332480 0.29097807
vt 0.12322602 0.14545000
vt 0.78436792 0.28238380
vt 0.10025376 0.14392346
vt 0.75189233 0.28506863
vt 0.75078595 0.25955880
vt 0.93161613 0.44000769
vt 0.06543053 0.83468819
vt 0.92146575 0.43449175
vt 0.06533114 0.86137873
vt 0.94022155 0.43753731
vt 0.94976467 0.43585271
vt 0.95248365 0.44070703
vt 0.06426273 0.78134555
vt 0.96214199 0.42158347
vt 0.96889937 0.41213262
vt 0.97403139 0.40058851
vt 0.47277123 0.82995498
vt 0.98984909 0.10810292
vt 0.33270791 0.82887173
vt 0.74785513 0.42790377
vt 0.98250228 0.08849525
vt 0.97813815 0.07012683
vt 0.72649932 0.43130630
vt 0.98996568 0.12173408
vt 0.86511475 0.18344021
vt 0.86340493 0.15366745
vt 0.81504756 0.31526232
vt 0.27545524 0.74368656
vt 0.86858094 0.13210773
vt 0.86916065 0.11630028
vt 0.25742489 0.74245816
vt 0.87091631 0.16143584
vt 0.88733941 0.08433437
vt 0.90723646 0.03048027
vt 0.92283946 0.02840650
vt 0.94085211 0.06624377
vt 0.92903364 0.14407289
vt 0.95500630 0.16429287
vt 0.95649058 0.03565592
vt 0.98059732 0.15241742
vt 0.93584669 0.24340868
vt 0.96288365 0.26768255
vt 0.99104661 0.28155947
vt 0.97855353 0.37016046
vt 0.95504999 0.34247506
vt 0.96122330 0.39811420
vt 0.98941815 0.18617547
vt 0.89070904 0.22050762
vt 0.89878392 0.25532198
vt 0.87703747 0.26385546
vt 0.93069208 0.32984376
vt 0.88474917 0.30713159
vt 0.90787262 0.38675356
vt 0.93878633 0.40276361
vt 0.88230628 0.18265855
vt 0.94413364 0.00672954
vt 0.67903382 0.43026888
vt 0.88008195 0.33487272
vt 0.99952334 0.22339630
vt 0.38612697 0.82835340
vt 0.96774942 0.04173928
vt 0.70923412 0.43022823
vt 0.90459657 0.01777619
vt 0.19741090 0.74192369
vt 0.89582151 0.03211504
vt 0.20895661 0.74239206
vt 0.98470283 0.36800599
vt 0.45413217 0.82742971
vt 0.85410047 0.22779393
vt 0.83508670 0.22739011
vt 0.96273434 0.52257663
vt 0.79461235 0.24186313
vt 0.76777512 0.24206734
vt 0.88779008 0.53431529
vt 0.76010168 0.24100876
vt 0.87923825 0.53446996
vt 0.81118721 0.22933245
vt 0.93601191 0.52271271
vt 0.78599846 0.22851598
vt 0.90803862 0.51891118
vt 0.75378317 0.23644549
vt 0.87211251 0.53653240
vt 0.74317223 0.23692733
vt 0.86170954 0.54426157
vt 0.73939085 0.25967777
vt 0.72314525 0.23730940
vt 0.84202689 0.55498022
vt 0.72282493 0.26061130
vt 0.69550830 0.26459980
vt 0.67349923 0.24901050
vt 0.67101133 0.26561773
vt 0.65343845 0.24780446
vt 0.77367532 0.57545048
vt 0.60400426 0.25516915
vt 0.72594208 0.57510382
vt 0.58697850 0.28009611
vt 0.53006190 0.26754355
vt 0.65483129 0.57545048
vt 0.54565930 0.29110110
vt 0.48003438 0.27630520
vt 0.60707861 0.57486081
vt 0.46991280 0.30424166
vt 0.67511106 0.23097414
vt 0.79492646 0.56111676
vt 0.66711056 0.23088753
vt 0.78710318 0.56069332
vt 0.87328529 0.09554499
vt 0.24696849 0.74357432
vt 0.22174737 0.34696090
vt 0.16070321 0.36414552
vt 0.15726803 0.35801089
vt 0.02290044 0.38251984
vt 0.01895260 0.38970912
vt 0.23145561 0.35205567
vt 0.32060757 0.33631134
vt 0.31353301 0.32991886
vt 0.36171812 0.32834148
vt 0.36336944 0.32413018
vt 0.39804029 0.31737220
vt 0.21169148 0.37555838
vt 0.07093876 0.39912450
vt 0.38098666 0.34796476
vt 0.40685034 0.34443259
vt 0.25707099 0.36769313
vt 0.31974056 0.35770798
vt 0.12854278 0.38864315
vt 0.18535735 0.37905926
vt 0.01231115 0.40663111
vt 0.44164971 0.33981872
vt 0.41148740 0.31446254
vt 0.49317232 0.32913864
vt 0.52781868 0.32236654
vt 0.56124383 0.31659389
vt 0.55306065 0.29404902
vt 0.60665888 0.30628967
vt 0.61291999 0.28247803
vt 0.64682746 0.29783052
vt 0.67767239 0.27143180
vt 0.67474741 0.29033208
vt 0.67646706 0.30563897
vt 0.70061773 0.28484583
vt 0.64903593 0.31064761
vt 0.72466677 0.28536034
vt 0.12886778 0.40385944
vt 0.18149783 0.39601433
vt 0.07171877 0.41510749
vt 0.39002925 0.35941696
vt 0.21836480 0.38887876
vt 0.25613272 0.38215375
vt 0.32969379 0.36959147
vt 0.74268800 0.28257167
vt 0.70869851 0.29952532
vt 0.41393363 0.36417735
vt 0.69347960 0.31233585
vt 0.19212990 0.18671036
vt 0.53664780 0.33538055
vt 0.44562456 0.35853803
vt 0.49595556 0.34448439
vt 0.06758895 0.43321550
vt 0.13597934 0.42146397
vt 0.67697084 0.31819212
vt 0.20850551 0.19031531
vt 0.02725379 0.44401646
vt 0.81991965 0.18969840
vt 0.21012463 0.41407275
vt 0.65135419 0.18686104
vt 0.61730385 0.33053452
vt 0.73262042 0.29865384
vt 0.15309073 0.17120725
vt 0.25765231 0.39956892
vt 0.49642372 0.36104989
vt 0.38287887 0.18779266
vt 0.38662347 0.38335216
vt 0.48698038 0.18613410
vt 0.65563476 0.33131862
vt 0.22972307 0.18403888
vt 0.72205228 0.31090498
vt 0.16480458 0.16840076
vt 0.13662441 0.42950088
vt 0.71929634 0.18471950
vt 0.07227313 0.44002968
vt 0.77856314 0.18624675
vt 0.01154117 0.36858642
vt 0.17045018 0.57537943
vt 0.67293316 0.85412580
vt 0.00047664 0.37070394
vt 0.16030347 0.57501948
vt 0.40177906 0.29069304
vt 0.53280914 0.57393044
vt 0.34539381 0.30095249
vt 0.47984427 0.57286149
vt 0.56647223 0.50453722
vt 0.60863906 0.50460768
vt 0.60936552 0.52039647
vt 0.66235483 0.50391215
vt 0.71896356 0.50479966
vt 0.66708177 0.52142793
vt 0.57090247 0.51996958
vt 0.52808768 0.50195694
vt 0.52823257 0.52157700
vt 0.71756011 0.52240062
vt 0.77133864 0.50557363
vt 0.75382829 0.52214622
vt 0.46905479 0.51856965
vt 0.44772711 0.50626916
vt 0.36746755 0.51325607
vt 0.34597674 0.48489672
vt 0.29888976 0.50564319
vt 0.29853866 0.51604962
vt 0.27113003 0.51307738
vt 0.23129164 0.48388851
vt 0.44660491 0.48513758
vt 0.52203536 0.48640269
vt 0.16472787 0.50184041
vt 0.68493801 0.76990634
vt 0.16035746 0.48273814
vt 0.75907791 0.48682523
vt 0.79206890 0.48810339
vt 0.79340845 0.50481111
vt 0.81352311 0.48850465
vt 0.69543165 0.48710895
vt 0.59622854 0.48652136
vt 0.22597457 0.51551330
vt 0.19745493 0.51646656
vt 0.16160646 0.51676124
vt 0.81665355 0.51368588
vt 0.40005675 0.51989847
vt 0.79192650 0.52270514
vt 0.83282202 0.50807017
vt 0.82177830 0.48450422
vt 0.85307193 0.49257469
vt 0.17124383 0.47447860
vt 0.29216743 0.47677779
vt 0.73739225 0.47928262
vt 0.84059852 0.48343349
vt 0.35420981 0.47657371
vt 0.45909342 0.47793210
vt 0.53444546 0.48005104
vt 0.79713058 0.48114741
vt 0.86900079 0.51203328
vt 0.69150144 0.47881687
vt 0.87207723 0.49936831
vt 0.62651569 0.47942024
vt 0.35108268 0.53385031
vt 0.28120881 0.53213841
vt 0.82500225 0.52681416
vt 0.84063518 0.53297567
vt 0.22021386 0.53304821
vt 0.41690987 0.53276867
vt 0.53512758 0.53676355
vt 0.51036924 0.54110789
vt 0.64820021 0.53624713
vt 0.73772722 0.53739923
vt 0.68353152 0.81810403
vt 0.16020635 0.53081518
vt 0.57343125 0.54200858
vt 0.59881473 0.54360306
vt 0.79389471 0.53558576
vt 0.67724830 0.54574591
vt 0.76705956 0.54560673
vt 0.30580318 0.54189271
vt 0.37169287 0.54379749
vt 0.45567131 0.54264879
vt 0.87153488 0.52499801
vt 0.79774266 0.54883254
vt 0.17312771 0.54153991
vt 0.87405944 0.51500332
vt 0.86494023 0.48899329
vt 0.27165654 0.54499876
vt 0.22700775 0.54398072
vt 0.53835493 0.55655324
vt 0.67922968 0.83916849
vt 0.16003606 0.55409384
vt 0.68308485 0.80963528
vt 0.15872259 0.52283639
vt 0.49909627 0.55917245
vt 0.57486558 0.55808252
vt 0.60517710 0.55811399
vt 0.69648123 0.55963415
vt 0.85024589 0.54161233
vt 0.82869589 0.55240190
vt 0.44977367 0.56017590
vt 0.35701022 0.56146002
vt 0.40694293 0.56173736
vt 0.28426576 0.56100893
vt 0.21203879 0.56194317
vt 0.33037236 0.56073326
vt 0.17227308 0.55846089
vt 0.44514519 0.28192043
vt 0.57392782 0.57439673
vt 0.69689244 0.23910421
vt 0.81640112 0.56540287
vt 0.57777464 0.25837040
vt 0.70068711 0.57424963
vt 0.87903470 0.50296372
vt 0.20971070 0.32769203
vt 0.35353455 0.57319230
vt 0.31749716 0.30736274
vt 0.45368221 0.57339865
vt 0.23530911 0.32334065
vt 0.37725750 0.57358974
vt 0.18038514 0.33521497
vt 0.32634535 0.57454264
vt 0.13278423 0.34465116
vt 0.28233710 0.57483757
vt 0.05959373 0.35860652
vt 0.21477850 0.57487720
vt 0.87859511 0.51853716
vt 0.90669847 0.51100892
vt 0.90655601 0.50031567
vt 0.93529779 0.51253211
vt 0.93737489 0.50107354
vt 0.97316200 0.50358331
vt 0.84293568 0.30292797
vt 0.86748230 0.21419924
vt 0.99952334 0.50939143
vt 0.99105293 0.49900520
vt 0.83929598 0.31612527
vt 0.99591595 0.49598074
vt 0.95256132 0.49238700
vt 0.97978312 0.48960006
vt 0.90593511 0.49208641
vt 0.87988859 0.49125016
vt 0.99400061 0.49043489
vt 0.44766560 0.46940994
vt 0.30001274 0.46047473
vt 0.27623037 0.46225196
vt 0.23849496 0.46055126
vt 0.47582293 0.45828438
vt 0.56367600 0.46164095
vt 0.60642284 0.46098137
vt 0.66356355 0.46189123
vt 0.71527982 0.46092671
vt 0.68047655 0.70382881
vt 0.81761682 0.45804286
vt 0.82962388 0.46519756
vt 0.73527616 0.68076682
vt 0.87346178 0.47706896
vt 0.36716458 0.45820916
vt 0.73480570 0.45981908
vt 0.76682633 0.46023446
vt 0.68083161 0.75205761
vt 0.16013598 0.46270216
vt 0.53063816 0.45243359
vt 0.54695004 0.45148969
vt 0.79553783 0.45381653
vt 0.17548892 0.45709479
vt 0.70461613 0.44921094
vt 0.61785185 0.44929463
vt 0.43586218 0.69825816
vt 0.57211196 0.44228166
vt 0.39133665 0.69970661
vt 0.52755284 0.44439650
vt 0.76703417 0.44881386
vt 0.70499438 0.69427508
vt 0.84274405 0.46392357
vt 0.33772725 0.70234740
vt 0.47417659 0.44745636
vt 0.50795376 0.69515616
vt 0.64440638 0.43885362
vt 0.65083522 0.69471729
vt 0.78851020 0.43945134
vt 0.62404203 0.69398171
vt 0.76141721 0.43806303
vt 0.68976641 0.69394261
vt 0.82777536 0.45316458
vt 0.42671207 0.15188098
vt 0.42676231 0.16339970
vt 0.38877931 0.16242522
vt 0.46943134 0.16370422
vt 0.46330085 0.15011066
vt 0.50572348 0.15137494
vt 0.53998423 0.16240144
vt 0.55010885 0.15208739
vt 0.37487161 0.15207684
vt 0.35274526 0.16298240
vt 0.31141710 0.15194243
vt 0.31048226 0.16260487
vt 0.28361034 0.16089022
vt 0.28194058 0.15082365
vt 0.24713926 0.16136295
vt 0.24458407 0.15027833
vt 0.21091680 0.15657216
vt 0.21103965 0.13114476
vt 0.26194295 0.13143784
vt 0.46869034 0.13330674
vt 0.54877490 0.13450545
vt 0.62727803 0.15050650
vt 0.64196438 0.13455862
vt 0.73271859 0.15387303
vt 0.70976835 0.13555950
vt 0.78002089 0.13623482
vt 0.80590940 0.15413940
vt 0.84174109 0.13460422
vt 0.69173771 0.16108853
vt 0.62949502 0.15955484
vt 0.32553649 0.13273519
vt 0.35995290 0.14409405
vt 0.38874504 0.13323736
vt 0.80675018 0.16252863
vt 0.74064344 0.16167712
vt 0.63574409 0.84539402
vt 0.84206235 0.16568291
vt 0.17788486 0.14816809
vt 0.17470513 0.12443435
vt 0.82760876 0.12731123
vt 0.72644979 0.12731278
vt 0.23258582 0.12455189
vt 0.41533571 0.12646633
vt 0.14851463 0.15064681
vt 0.15068294 0.12392831
vt 0.13822979 0.12869692
vt 0.65062308 0.12618995
vt 0.37254730 0.12564731
vt 0.31498671 0.12553567
vt 0.27999577 0.12519538
vt 0.52547455 0.12627530
vt 0.19186801 0.12159657
vt 0.46406841 0.12641954
vt 0.20822455 0.12339878
vt 0.18688014 0.16336524
vt 0.82750612 0.17821294
vt 0.25091949 0.40825915
vt 0.61361653 0.18500829
vt 0.55985647 0.17642832
vt 0.57463843 0.34596646
vt 0.30779848 0.18747061
vt 0.62196332 0.33839881
vt 0.26222840 0.18531477
vt 0.44526801 0.37232918
vt 0.43158254 0.18730289
vt 0.54233068 0.35250556
vt 0.33898008 0.18749577
vt 0.20861109 0.17962682
vt 0.75318402 0.29891574
vt 0.13391143 0.15072548
vt 0.64439541 0.85953653
vt 0.00303165 0.44707203
vt 0.84223896 0.19031531
vt 0.33597708 0.39069855
vt 0.53442156 0.18758053
vt 0.12313342 0.13232523
vt 0.09507173 0.12902331
vt 0.04376069 0.13360184
vt 0.04400761 0.12330729
vt 0.01524513 0.13271034
vt 0.01078832 0.12380791
vt 0.09143138 0.12134296
vt 0.12193986 0.11862814
vt 0.84247839 0.12755567
vt 0.56626308 0.93496788
vt 0.00904462 0.12975270
vt 0.12752339 0.12438923
vt 0.04432534 0.11585587
vt 0.75282472 0.11374319
vt 0.82628506 0.11519057
vt 0.70163351 0.11300850
vt 0.53456903 0.11241895
vt 0.50112820 0.11124939
vt 0.58494276 0.11263055
vt 0.32177874 0.11009645
vt 0.13275936 0.10802889
vt 0.16984160 0.11974806
vt 0.08694272 0.11144918
vt 0.65084839 0.11222565
vt 0.41738936 0.10886586
vt 0.35384071 0.09992909
vt 0.46361086 0.11218756
vt 0.27735612 0.10879278
vt 0.24415587 0.10255939
vt 0.21007314 0.09997606
vt 0.79527909 0.27690327
vt 0.08809859 0.14575571
vt 0.27878457 0.09291279
vt 0.14350504 0.10660416
vt 0.43022498 0.08863842
vt 0.46388343 0.09012848
vt 0.49263692 0.09434700
vt 0.39128166 0.09224671
vt 0.57544559 0.09582615
vt 0.12145776 0.10228282
vt 0.17441306 0.10299724
vt 0.62583411 0.78790158
vt 0.84279317 0.10116887
vt 0.66986638 0.09552807
vt 0.37514246 0.08669072
vt 0.29605845 0.08412468
vt 0.22820227 0.08584952
vt 0.13321500 0.09874016
vt 0.73743165 0.09686267
vt 0.82714260 0.09593672
vt 0.19016597 0.09159660
vt 0.21202160 0.08213210
vt 0.62702352 0.81263739
vt 0.84413725 0.12661141
vt 0.05560515 0.09928858
vt 0.02497527 0.10213101
vt 0.56864482 0.91029269
vt 0.01038416 0.10417771
vt 0.46017876 0.07570994
vt 0.63227284 0.08384848
vt 0.17019215 0.09046280
vt 0.41545948 0.07464099
vt 0.48181137 0.07212794
vt 0.62806767 0.76594847
vt 0.84274423 0.07872117
vt 0.15121068 0.08886659
vt 0.53241944 0.08220494
vt 0.48774168 0.08348584
vt 0.37208495 0.07492858
vt 0.29812276 0.07336819
vt 0.22556986 0.07393461
vt 0.73895669 0.60739410
vt 0.12567154 0.08771956
vt 0.75627935 0.08353561
vt 0.71657836 0.08444369
vt 0.67219800 0.08368623
vt 0.57743561 0.08393037
vt 0.83280730 0.08127183
vt 0.18960465 0.07701242
vt 0.13287082 0.08877397
vt 0.15640318 0.58249438
vt 0.70925415 0.05221498
vt 0.66117227 0.06176126
vt 0.21176052 0.06747758
vt 0.32968587 0.58370352
vt 0.53712875 0.05001861
vt 0.79143721 0.06554669
vt 0.16915742 0.07152635
vt 0.56149095 0.57855910
vt 0.30474398 0.05087459
vt 0.45832717 0.57937962
vt 0.40849763 0.05114722
vt 0.44340235 0.05269492
vt 0.47365558 0.04969984
vt 0.71978229 0.61039692
vt 0.14376302 0.06810439
vt 0.65177661 0.58602804
vt 0.21374758 0.04844075
vt 0.68193620 0.58964169
vt 0.18337610 0.06008375
vt 0.69790637 0.60630488
vt 0.16561425 0.05480963
vt 0.45351216 0.64685100
vt 0.42532668 0.64579600
vt 0.44678769 0.61933410
vt 0.46263823 0.62010443
vt 0.41289598 0.62139887
vt 0.38996685 0.64599019
vt 0.38232365 0.62430942
vt 0.48546097 0.62066483
vt 0.48788410 0.64598399
vt 0.53730094 0.64669544
vt 0.52251899 0.61975843
vt 0.54559016 0.61990100
vt 0.58796072 0.61923230
vt 0.57633907 0.64662164
vt 0.61438584 0.64740473
vt 0.61012018 0.62030703
vt 0.63900667 0.62219208
vt 0.65001053 0.64842665
vt 0.65133303 0.62294912
vt 0.33094049 0.63355875
vt 0.32502893 0.62010282
vt 0.23660800 0.63064313
vt 0.29780141 0.64642549
vt 0.23938392 0.62187940
vt 0.10436225 0.62935269
vt 0.12080888 0.62126869
vt 0.03206663 0.62054282
vt 0.04746812 0.62716103
vt 0.03361518 0.64134091
vt 0.05671794 0.64592850
vt 0.02187843 0.63597506
vt 0.09473037 0.64113432
vt 0.09401596 0.64802021
vt 0.23224720 0.64188874
vt 0.22259389 0.64876014
vt 0.34475482 0.64571261
vt 0.64194131 0.72784913
vt 0.02091608 0.61035746
vt 0.66516662 0.62347990
vt 0.66984296 0.64821172
vt 0.68462938 0.62600660
vt 0.38212657 0.61538321
vt 0.04721074 0.61472911
vt 0.15072429 0.61517370
vt 0.24050532 0.61551607
vt 0.29518452 0.61675251
vt 0.69704992 0.65063828
vt 0.70812905 0.62953150
vt 0.71590298 0.63300997
vt 0.72600019 0.64769959
vt 0.73039526 0.63057452
vt 0.35653618 0.59425676
vt 0.51044178 0.03905845
vt 0.39278066 0.59545213
vt 0.47426575 0.03716218
vt 0.52078199 0.60261911
vt 0.56365120 0.59353173
vt 0.05326809 0.65334940
vt 0.09529402 0.65436459
vt 0.13637494 0.65423846
vt 0.23411871 0.65387005
vt 0.30777374 0.65490884
vt 0.33866069 0.65210646
vt 0.73345703 0.65384644
vt 0.39170492 0.65659070
vt 0.43170348 0.66063780
vt 0.66001898 0.72184682
vt 0.02199250 0.65483606
vt 0.65072876 0.65994847
vt 0.68087900 0.65733796
vt 0.30531377 0.60848045
vt 0.30701244 0.59710348
vt 0.20673709 0.60788071
vt 0.43203422 0.59295690
vt 0.43490452 0.03788656
vt 0.17021747 0.59090114
vt 0.08516165 0.60925835
vt 0.03691065 0.59775853
vt 0.09536515 0.58945268
vt 0.65126508 0.60200268
vt 0.63322645 0.59544146
vt 0.47518837 0.59313601
vt 0.68065077 0.60717201
vt 0.52198935 0.59317410
vt 0.60331911 0.59293085
vt 0.73730075 0.63804126
vt 0.59917718 0.66255587
vt 0.31084925 0.59006590
vt 0.67035604 0.59777462
vt 0.05236722 0.58480030
vt 0.81261164 0.05123460
vt 0.55464292 0.66275352
vt 0.03037954 0.58408976
vt 0.83449292 0.05303264
vt 0.73154068 0.61354679
vt 0.13194452 0.07533443
vt 0.70679176 0.66352797
vt 0.47174799 0.66134965
vt 0.53543043 0.66280639
vt 0.10008941 0.58165741
vt 0.76517802 0.05296743
vt 0.27738589 0.58470720
vt 0.58910221 0.04956913
vt 0.73637044 0.62134677
vt 0.75384486 0.63618195
vt 0.75469542 0.62707126
vt 0.81200969 0.63920087
vt 0.81382495 0.62950325
vt 0.84878343 0.63965255
vt 0.75874239 0.64739949
vt 0.85239804 0.35021657
vt 0.85443974 0.63556373
vt 0.81948614 0.64895040
vt 0.75756067 0.61701566
vt 0.81544709 0.61954868
vt 0.04836128 0.09130079
vt 0.60758126 0.57837242
vt 0.25847137 0.05182552
vt 0.75296408 0.65466273
vt 0.73849398 0.65817499
vt 0.81271017 0.65637875
vt 0.84108961 0.65308040
vt 0.84248286 0.34247458
vt 0.85321826 0.66067398
vt 0.72253960 0.66706073
vt 0.69342488 0.67431003
vt 0.67346364 0.68425345
vt 0.83652478 0.66099966
vt 0.65385377 0.68690413
vt 0.40448835 0.68566763
vt 0.73213947 0.67042488
vt 0.52472234 0.68725723
vt 0.46100277 0.68687582
vt 0.60866779 0.68625057
vt 0.38207063 0.69053012
vt 0.77236050 0.60812289
vt 0.09205924 0.09648323
vt 0.53105748 0.57770270
vt 0.33541191 0.05225861
vt 0.71566635 0.68236852
vt 0.18789065 0.66297746
vt 0.05362883 0.68697453
vt 0.33538395 0.67184055
vt 0.34136292 0.69042599
vt 0.30523351 0.67448723
vt 0.26215705 0.68864071
vt 0.10852879 0.68602455
vt 0.15257812 0.67561734
vt 0.19337291 0.68837023
vt 0.23672773 0.67171675
vt 0.19319034 0.69922048
vt 0.26445508 0.70256758
vt 0.40134665 0.44803447
vt 0.04781364 0.69774806
vt 0.18625747 0.44449008
vt 0.11230464 0.70127702
vt 0.25024796 0.44670451
vt 0.67364609 0.73709649
vt 0.02049571 0.69115222
vt 0.15905826 0.43995845
vt 0.57824445 0.69487834
vt 0.71525103 0.43866110
vt 0.76591808 0.66352695
vt 0.74475706 0.67287660
vt 0.88351387 0.47743779
vt 0.78267252 0.67498702
vt 0.92232126 0.48366672
vt 0.73988575 0.67514092
vt 0.87848926 0.47712940
vt 0.46761978 0.69539315
vt 0.60392636 0.43924713
vt 0.84364790 0.67350453
vt 0.98454815 0.48369914
vt 0.84067112 0.33429289
vt 0.85288817 0.66982400
vt 0.99378270 0.47820407
vt 0.18227389 0.70382881
vt 0.31971645 0.44914627
vt 0.64350563 0.85363960
vt 0.66992956 0.74620622
vt 0.66654456 0.84068596
vt 0.62781817 0.77732432
vt 0.84386092 0.08979148
vt 0.65249115 0.72256374
vt 0.02052643 0.63664681
vt 0.66253513 0.86154461
vt 0.67699546 0.83892858
vt 0.68208724 0.77836192
vt 0.63442540 0.83413243
vt 0.68346471 0.76331371
vt 0.15928119 0.47555745
vt 0.63279468 0.75397027
vt 0.00057298 0.39172828
vt 0.66584975 0.86373872
vt 0.65176648 0.86373872
vt 0.00186999 0.42794812
vt 0.63230568 0.83612096
vt 0.84275103 0.15351677
vt 0.66891348 0.72949803
vt 0.02149027 0.67760879
vt 0.63305265 0.74585038
vt 0.02197311 0.58254302
vt 0.84286696 0.05551136
vt 0.88592345 0.56144875
vt 0.47617131 0.79822892
vt 0.88394201 0.55369335
vt 0.89807117 0.54091924
vt 0.90742201 0.52965665
vt 0.05018552 0.77779311
vt 0.87624395 0.58184451
vt 0.46257794 0.79134262
vt 0.89713359 0.55610925
vt 0.88056099 0.59507006
vt 0.87041277 0.60639220
vt 0.45088011 0.78701818
vt 0.88547045 0.58154863
vt 0.90781295 0.54287899
vt 0.86958021 0.63155717
vt 0.86006397 0.64677125
vt 0.43104064 0.78908300
vt 0.86423326 0.66471744
vt 0.42352873 0.78970498
vt 0.85690296 0.66317475
vt 0.92436010 0.52590090
vt 0.04957374 0.81829786
vt 0.92240238 0.54092151
vt 0.93792486 0.54491270
vt 0.85803699 0.69922274
vt 0.40894961 0.77815318
vt 0.90603203 0.75528032
vt 0.91651797 0.87810171
vt 0.98054415 0.74576288
vt 0.98192710 0.80158353
vt 0.93852443 0.95252126
vt 0.89146274 0.94539428
vt 0.87007827 0.87716013
vt 0.85737926 0.74578601
vt 0.86311567 0.69273394
vt 0.92975694 0.70376778
vt 0.95635712 0.64667171
vt 0.92469072 0.57605886
vt 0.95692712 0.57095379
vt 0.89791662 0.56212151
vt 0.97326881 0.90523428
vt 0.96201092 0.95023203
vt 0.94494212 0.97791016
vt 0.91912293 0.98306906
vt 0.86085880 0.81478870
vt 0.85906649 0.81007195
vt 0.98662311 0.66574645
vt 0.99353880 0.73491907
vt 0.99516165 0.81537813
vt 0.99009299 0.85400230
vt 0.98599243 0.65160191
vt 0.87934887 0.91844517
vt 0.86471456 0.85782480
vt 0.97226191 0.92624009
vt 0.85932297 0.71172553
vt 0.90539604 0.97543758
vt 0.98319989 0.88771445
vt 0.98284453 0.63362795
vt 0.97145402 0.59720045
vt 0.99309331 0.68270475
vt 0.97997606 0.91229236
vt 0.87154627 0.89727056
vt 0.88748169 0.94703770
vt 0.70904523 0.38175678
vt 0.95572329 0.56463754
vt 0.99110645 0.65024704
vt 0.53275865 0.90371537
vt 0.99072617 0.88762575
vt 0.25363177 0.78195500
vt 0.97437567 0.94689530
vt 0.22355361 0.78080076
vt 0.95607823 0.98138744
vt 0.20017622 0.78224486
vt 0.91909522 0.99782783
vt 0.66913420 0.38989854
vt 0.56228322 0.89977479
vt 0.99857008 0.71639562
vt 0.86796951 0.35255468
vt 0.37820780 0.78636384
vt 0.85239893 0.77065653
vt 0.87835902 0.93674701
vt 0.71848756 0.39054275
vt 0.89454490 0.97603518
vt 0.69554549 0.39253193
vt 0.85386002 0.80491447
vt 0.36373708 0.78811121
vt 0.25095406 0.77560830
vt 0.23367526 0.77393848
vt 0.25297606 0.76150751
vt 0.23301888 0.75401950
vt 0.24353074 0.75083864
vt 0.22272584 0.75752258
vt 0.88291204 0.05804825
vt 0.22708060 0.74577165
vt 0.25369024 0.75044572
vt 0.96855658 0.96098971
vt 0.21526204 0.78103894
vt 0.26321620 0.77543050
vt 0.21434739 0.75265044
vt 0.98343486 0.91915053
vt 0.23836136 0.77924329
vt 0.20399198 0.77482414
vt 0.86587906 0.12792331
vt 0.26362354 0.74508268
vt 0.88925356 0.04697466
vt 0.21878333 0.74134880
vt 0.87907004 0.08044124
vt 0.23779817 0.73986489
vt 0.20567161 0.74710685
vt 0.19660491 0.75433874
vt 0.19175610 0.77330434
vt 0.91293496 0.00550717
vt 0.18690746 0.74493456
vt 0.93479145 0.99887389
vt 0.17793709 0.78265768
vt 0.65347952 0.39143080
vt 0.66966796 0.40614235
vt 0.68382174 0.39959741
vt 0.67128360 0.42450088
vt 0.68720102 0.42539680
vt 0.69520688 0.41182488
vt 0.67016470 0.39462632
vt 0.95804149 0.02229589
vt 0.69550920 0.42925179
vt 0.70306963 0.39727664
vt 0.70478952 0.41741824
vt 0.71530038 0.39881885
vt 0.97302264 0.05059409
vt 0.71613884 0.42760283
vt 0.72731996 0.41514349
vt 0.98595798 0.09094107
vt 0.73904157 0.42709124
vt 0.73792666 0.40087855
vt 0.86166167 0.87994635
vt 0.33126786 0.79573822
vt 0.74766809 0.39547873
vt 0.86976612 0.90730339
vt 0.73366052 0.39122415
vt 0.90524584 0.99047852
vt 0.68328255 0.39238381
vt 0.17449009 0.75339723
vt 0.65702361 0.42020118
vt 0.65477616 0.39983433
vt 0.17636484 0.77431756
vt 0.92499542 0.00112611
vt 0.65813673 0.43130624
vt 0.17397521 0.74190241
vt 0.93453699 0.00175881
vt 0.66839951 0.43063331
vt 0.89019960 0.38121367
vt 0.83937085 0.89752251
vt 0.06816015 0.95856923
vt 0.87531084 0.33220506
vt 0.50373799 0.92680180
vt 0.83937085 0.83220720
vt 0.49737862 0.91554052
vt 0.54023761 0.94125187
vt 0.86861247 0.25698292
vt 0.46854147 0.92680174
vt 0.87940896 0.42004502
vt 0.00619638 0.14241433
vt 0.56952435 0.94707209
vt 0.42229682 0.82274663
vt 0.99049455 0.33455080
vt 0.43770587 0.82907504
vt 0.99630392 0.29248023
vt 0.41767505 0.82834125
vt 0.43213245 0.82321614
vt 0.44241384 0.82306123
vt 0.99941838 0.27205575
vt 0.40800875 0.82363969
vt 0.96547347 0.42864645
vt 0.48790184 0.82093805
vt 0.06318942 0.74662161
vt 0.47525939 0.82040781
vt 0.97498518 0.41086292
vt 0.99677879 0.16820168
vt 0.36100450 0.82995498
vt 0.38235128 0.82595479
vt 0.36119878 0.81854844
vt 0.37601486 0.81230599
vt 0.34638038 0.82645315
vt 0.99474961 0.13620013
vt 0.36070400 0.79839134
vt 0.34569287 0.79763293
vt 0.39043835 0.78828198
vt 0.85176361 0.74152470
vt 0.39248008 0.81135505
vt 0.85784972 0.84772098
vt 0.34527323 0.79119676
vt 0.41087389 0.78954530
vt 0.41701162 0.81344569
vt 0.43844894 0.79545468
vt 0.45521939 0.79360992
vt 0.45897859 0.81285506
vt 0.91971326 0.42602569
vt 0.06816015 0.86928558
vt 0.06538261 0.88688153
vt 0.90734380 0.41298342
vt 0.06744731 0.90368509
vt 0.06196952 0.87077945
vt 0.06337828 0.96345264
vt 0.83593684 0.87799352
vt 0.51351607 0.94707209
vt 0.06639434 0.97919410
vt 0.06490199 0.94024312
vt 0.05344481 0.96519464
vt 0.05230627 0.93096870
vt 0.06484758 0.92017919
vt 0.05322549 0.88944441
vt 0.06224524 0.89322084
vt 0.05352344 0.85095501
vt 0.95333290 0.54788190
vt 0.04984110 0.89111400
vt 0.98255628 0.60876888
vt 0.51334602 0.91102743
vt 0.05118028 0.98288518
vt 0.93772864 0.53182775
vt 0.04972833 0.85072577
vt 0.93915176 0.44707203
vt 0.06312778 0.81513065
vt 0.05305741 0.81647813
vt 0.96887285 0.57792169
vt 0.04909438 0.93836313
vt 0.05517070 0.78028446
vt 0.89439929 0.53645438
vt 0.48856053 0.79831564
vt 0.05355899 0.74751276
vt 0.99686146 0.72399557
vt 0.86480093 0.35698199
vt 0.85456216 0.62481093
vt 0.85684985 0.34810394
vt 0.57340324 0.90122902
vt 0.00875007 0.09007996
vt 0.83220434 0.35698199
vt 0.99857008 0.80023301
vt 0.84677964 0.34780800
vt 0.85462344 0.64912730
vt 0.82716089 0.34717172
vt 0.81566328 0.34684229
vt 0.27597713 0.77563930
vt 0.83830750 0.33754194
vt 0.85377818 0.67169273
vt 0.82361537 0.33371735
vt 0.82706833 0.32185483
vt 0.80981886 0.32400310
vt 0.27037644 0.75263137
vt 0.83105379 0.31255186
vt 0.86297417 0.18889606
vt 0.99757254 0.84741694
vt 0.81211275 0.35525715
vt 0.27191374 0.78265768
vt 0.56464309 0.91328013
vt 0.56729889 0.91811365
vt 0.01093353 0.11298072
vt 0.54757184 0.91135013
vt 0.55557227 0.92968756
vt 0.54651546 0.93238902
vt 0.54331416 0.90558577
vt 0.99654281 0.67150193
vt 0.48009619 0.91565716
vt 0.55747277 0.94156486
vt 0.53237689 0.92605627
vt 0.53166443 0.91446763
vt 0.50762630 0.92200023
vt 0.83590585 0.83946794
vt 0.52972060 0.94327450
vt 0.51560712 0.92079586
vt 0.05552298 0.98761261
vt 0.83555770 0.85923213
vt 0.52139705 0.94495511
f 627/772 776/988 778/991
f 627/772 638/788 776/988
f 778/991 776/988 775/987
f 778/991 775/987 25/33
f 775/986 23/30 24/31
f 25/32 775/986 24/31
f 775/986 21/26 23/30
f 638/788 771/978 776/988
f 771/978 21/27 775/987
f 776/988 771/978 775/987
f 626/770 627/771 779/992
f 779/994 627/772 778/991
f 778/991 25/33 742/940
f 779/994 778/991 742/940
f 742/938 25/32 26/34
f 626/770 633/780 627/771
f 633/780 639/789 638/787
f 627/771 633/780 638/787
f 638/787 639/789 640/790
f 638/787 640/790 774/984
f 774/985 771/978 638/788
f 21/26 759/962 23/30
f 771/978 22/29 21/27
f 771/978 762/967 22/29
f 762/967 759/963 22/29
f 624/767 779/992 625/769
f 625/768 779/993 742/939
f 625/768 742/939 743/941
f 743/942 742/938 27/35
f 624/767 626/770 779/992
f 624/767 629/775 626/770
f 742/938 26/34 27/35
f 626/770 629/775 633/780
f 629/775 639/789 633/780
f 774/984 640/790 772/979
f 772/980 769/976 771/978
f 774/985 772/980 771/978
f 771/978 769/976 762/967
f 762/967 760/964 759/963
f 769/976 770/977 762/967
f 762/967 770/977 760/964
f 743/942 27/35 28/36
f 629/775 655/806 639/789
f 640/790 654/805 679/831
f 640/790 679/831 772/979
f 759/963 760/964 761/966
f 770/977 761/966 760/964
f 624/767 632/779 629/775
f 632/779 655/806 629/775
f 639/789 653/804 640/790
f 772/980 767/974 769/976
f 770/977 768/975 761/966
f 769/976 767/974 768/975
f 770/977 769/976 768/975
f 743/941 28/37 67/88
f 758/961 743/941 67/88
f 624/767 630/776 632/779
f 639/789 655/806 653/804
f 640/790 653/804 654/805
f 679/831 777/989 772/979
f 772/980 777/990 767/974
f 767/974 765/972 768/975
f 757/960 628/774 758/961
f 761/966 768/975 732/918
f 757/960 631/778 628/774
f 631/777 630/776 628/773
f 632/779 630/776 655/806
f 653/804 652/803 654/805
f 679/831 654/805 674/825
f 679/831 674/825 777/989
f 777/990 766/973 767/974
f 766/973 763/968 765/972
f 767/974 766/973 765/972
f 631/777 634/781 630/776
f 765/972 763/968 732/918
f 630/776 653/804 655/806
f 674/825 773/981 777/989
f 777/990 773/983 766/973
f 766/973 773/983 802/1035
f 766/973 802/1035 763/968
f 802/1035 764/971 763/968
f 763/968 764/971 732/918
f 802/1034 803/1037 764/970
f 634/781 636/784 630/776
f 654/805 673/824 674/825
f 674/825 673/824 773/981
f 773/981 673/824 680/832
f 680/833 800/1030 773/982
f 773/982 800/1030 802/1034
f 636/784 650/801 630/776
f 630/776 650/801 653/804
f 654/805 666/817 673/824
f 732/917 803/1036 733/921
f 802/1034 800/1030 799/1029
f 802/1034 799/1029 801/1033
f 802/1034 801/1033 803/1037
f 637/786 636/784 635/782
f 635/782 636/784 634/781
f 650/801 651/802 653/804
f 801/1032 733/921 803/1036
f 654/805 652/803 666/817
f 673/824 666/817 680/832
f 680/833 797/1025 800/1030
f 799/1029 734/923 801/1033
f 637/786 641/791 636/784
f 650/801 642/793 651/802
f 651/802 652/803 653/804
f 652/803 662/813 666/817
f 662/813 675/826 680/832
f 666/817 662/813 680/832
f 797/1025 794/1022 800/1030
f 800/1030 794/1022 796/1024
f 800/1030 796/1024 799/1029
f 799/1029 796/1024 734/923
f 641/791 650/801 636/784
f 796/1024 798/1028 734/923
f 641/791 670/821 650/801
f 680/832 675/826 797/1026
f 794/1022 795/1023 796/1024
f 796/1024 795/1023 798/1028
f 401/491 348/428 360/440
f 360/440 348/428 325/404
f 348/428 326/405 325/404
f 401/491 400/490 348/428
f 400/490 356/436 348/428
f 348/428 356/436 326/405
f 400/490 399/489 356/436
f 356/436 355/435 326/405
f 326/405 318/397 321/400
f 355/435 338/417 326/405
f 326/405 338/417 318/397
f 356/436 391/481 355/435
f 391/481 354/434 355/435
f 355/435 354/434 338/417
f 391/481 397/487 354/434
f 354/434 340/419 338/417
f 338/417 340/419 339/418
f 340/419 308/387 339/418
f 396/486 349/429 354/434
f 354/434 349/429 340/419
f 349/429 327/406 340/419
f 340/419 327/406 308/387
f 396/486 359/439 349/429
f 327/406 312/391 308/387
f 349/429 359/439 327/406
f 398/488 389/479 359/439
f 389/479 357/437 359/439
f 359/439 357/437 327/406
f 389/479 388/478 357/437
f 357/437 328/407 327/406
f 388/478 390/480 353/433
f 388/478 353/433 357/437
f 357/437 353/433 328/407
f 353/433 330/409 328/407
f 353/433 390/480 395/485
f 395/485 387/477 353/433
f 353/433 332/411 330/409
f 387/477 347/427 353/433
f 353/433 347/427 332/411
f 387/477 385/475 347/427
f 387/477 418/510 385/475
f 347/427 333/412 332/411
f 385/475 346/426 347/427
f 347/427 346/426 333/412
f 385/475 386/476 346/426
f 346/426 335/414 333/412
f 333/412 335/414 334/413
f 386/476 381/470 346/426
f 346/426 381/470 335/414
f 386/476 412/504 381/470
f 412/504 422/515 381/470
f 381/470 422/515 335/414
f 335/414 422/515 621/761
f 650/801 649/800 642/793
f 652/803 644/795 662/813
f 798/1027 735/925 733/920
f 675/826 685/843 797/1026
f 797/1025 685/842 794/1022
f 345/425 393/483 358/438
f 358/438 325/404 345/425
f 325/404 344/424 345/425
f 325/404 324/403 344/424
f 358/438 360/440 325/404
f 401/491 360/440 358/438
f 401/491 421/513 416/508
f 325/404 323/402 324/403
f 324/403 323/402 322/401
f 416/508 400/490 401/491
f 416/508 403/494 400/490
f 416/508 415/507 403/494
f 403/494 399/489 400/490
f 323/402 321/400 322/401
f 321/400 320/399 322/401
f 321/400 318/397 320/399
f 403/494 397/487 391/481
f 403/494 391/481 399/489
f 399/489 391/481 356/436
f 318/397 319/398 320/399
f 403/494 415/507 397/487
f 338/417 339/418 318/397
f 415/507 414/506 397/487
f 318/397 317/396 319/398
f 339/418 316/395 318/397
f 318/397 316/395 317/396
f 316/395 310/389 317/396
f 414/506 408/499 397/487
f 408/499 396/486 397/487
f 397/487 396/486 354/434
f 339/418 308/387 316/395
f 316/395 308/387 310/389
f 414/506 405/496 408/499
f 308/387 309/388 310/389
f 408/499 405/496 396/486
f 405/496 398/488 396/486
f 396/486 398/488 359/439
f 308/387 311/390 309/388
f 405/496 406/497 398/488
f 308/387 312/391 311/390
f 327/406 313/392 312/391
f 406/497 407/498 398/488
f 407/498 389/479 398/488
f 312/391 313/392 311/390
f 313/392 314/393 311/390
f 407/498 409/500 388/478
f 407/498 388/478 389/479
f 328/407 315/394 313/392
f 313/392 315/394 314/393
f 409/500 390/480 388/478
f 328/407 329/408 315/394
f 315/394 329/408 314/393
f 329/408 337/416 314/393
f 314/393 337/416 364/445
f 409/500 395/485 390/480
f 409/500 413/505 395/485
f 329/408 336/415 337/416
f 413/505 387/477 395/485
f 330/409 331/410 329/408
f 329/408 331/410 336/415
f 413/505 418/510 387/477
f 330/409 332/411 331/410
f 331/410 342/421 336/415
f 333/412 334/413 331/410
f 331/410 334/413 342/421
f 334/413 341/420 342/421
f 418/510 419/511 385/475
f 419/511 386/476 385/475
f 621/761 343/423 341/420
f 334/413 621/761 341/420
f 419/511 431/526 412/504
f 419/511 412/504 386/476
f 412/504 431/526 611/746
f 611/745 422/514 412/503
f 422/514 616/752 621/760
f 754/957 751/952 641/792
f 662/813 663/814 675/826
f 663/814 780/995 675/826
f 675/826 780/995 685/843
f 685/842 792/1019 794/1022
f 794/1022 792/1019 795/1023
f 345/425 344/424 350/430
f 393/483 345/425 351/431
f 411/502 358/438 393/483
f 420/512 401/491 411/502
f 411/502 401/491 358/438
f 344/424 324/403 361/441
f 420/512 421/513 401/491
f 324/403 369/454 361/441
f 421/513 448/545 437/532
f 437/532 416/508 421/513
f 324/403 152/196 369/454
f 324/403 322/401 152/196
f 322/401 366/449 152/196
f 437/532 415/507 416/508
f 437/532 436/531 415/507
f 320/399 365/447 366/449
f 320/399 319/398 365/447
f 319/398 368/453 365/447
f 436/531 414/506 415/507
f 319/398 317/396 368/453
f 436/531 435/530 414/506
f 317/396 150/192 368/453
f 317/396 310/389 150/192
f 435/530 429/523 414/506
f 310/389 309/388 150/192
f 429/523 405/496 414/506
f 309/388 367/451 150/192
f 429/523 426/520 405/496
f 426/520 406/497 405/496
f 309/388 311/390 367/451
f 311/390 151/194 367/451
f 426/520 430/524 406/497
f 430/524 434/529 406/497
f 434/529 407/498 406/497
f 434/529 433/528 407/498
f 433/528 409/500 407/498
f 433/528 442/538 409/500
f 314/393 364/445 151/194
f 442/538 427/521 409/500
f 427/521 413/505 409/500
f 337/416 146/186 363/444
f 427/521 447/544 441/537
f 427/521 441/537 413/505
f 146/186 336/415 154/200
f 441/537 440/536 413/505
f 336/415 342/421 154/200
f 440/536 418/510 413/505
f 440/536 446/543 439/535
f 440/536 439/535 418/510
f 342/421 155/202 154/200
f 439/535 419/511 418/510
f 342/421 341/420 155/202
f 439/535 450/548 443/539
f 341/420 362/442 155/202
f 439/535 443/539 419/511
f 443/539 431/526 419/511
f 343/423 371/459 362/442
f 431/525 618/755 611/745
f 611/745 608/742 422/514
f 422/514 608/742 616/752
f 621/760 616/752 608/742
f 621/760 608/742 343/422
f 343/422 608/742 371/457
f 670/821 649/800 650/801
f 795/1023 792/1019 382/471
f 795/1023 382/471 798/1028
f 404/495 351/431 352/432
f 351/431 350/430 352/432
f 404/495 393/483 351/431
f 428/522 411/502 404/495
f 404/495 411/502 393/483
f 350/430 344/424 153/198
f 428/522 420/512 411/502
f 361/441 138/175 153/198
f 444/540 420/512 428/522
f 444/540 421/513 420/512
f 361/441 369/454 138/175
f 444/540 448/545 421/513
f 369/454 144/182 138/175
f 448/545 457/559 437/532
f 369/454 152/196 144/182
f 152/195 366/448 144/181
f 366/448 147/187 144/181
f 437/532 564/681 436/531
f 366/448 365/446 147/187
f 436/531 564/681 452/551
f 436/531 452/551 582/702
f 436/531 582/702 435/530
f 582/702 453/553 435/530
f 435/530 453/553 429/523
f 150/191 367/450 140/177
f 429/523 453/553 426/520
f 426/520 453/553 454/554
f 367/450 151/193 140/177
f 151/193 137/173 140/177
f 426/520 455/555 430/524
f 430/524 455/555 449/547
f 430/524 449/547 433/528
f 430/524 433/528 434/529
f 433/528 552/666 442/538
f 372/460 363/443 149/190
f 552/666 427/521 442/538
f 552/666 447/544 427/521
f 363/443 146/185 149/190
f 154/199 143/180 146/185
f 447/544 440/536 441/537
f 447/544 446/543 440/536
f 446/543 551/664 439/535
f 154/199 142/179 143/180
f 154/199 155/201 142/179
f 551/664 450/548 439/535
f 155/201 145/183 142/179
f 450/548 544/654 443/539
f 544/654 546/657 443/539
f 362/442 371/459 145/184
f 443/539 546/657 431/526
f 623/764 618/755 431/525
f 751/953 686/846 649/800
f 751/953 649/800 641/791
f 641/791 649/800 670/821
f 382/471 735/928 798/1028
f 383/473 352/432 373/462
f 392/482 352/432 383/473
f 373/462 352/432 370/456
f 392/482 417/509 404/495
f 392/482 404/495 352/432
f 350/430 148/189 370/456
f 432/527 404/495 417/509
f 432/527 451/549 428/522
f 153/197 136/172 148/188
f 451/549 444/540 428/522
f 458/561 444/540 451/549
f 458/561 448/545 444/540
f 458/560 543/652 457/558
f 458/561 457/559 448/545
f 457/559 564/681 437/532
f 457/558 535/644 564/680
f 564/680 535/644 539/648
f 564/680 539/648 452/550
f 147/187 139/176 126/162
f 452/550 539/648 513/620
f 147/187 365/446 139/176
f 582/701 452/550 538/647
f 582/701 538/647 453/552
f 453/552 538/647 536/645
f 453/553 529/638 454/554
f 529/638 511/618 454/554
f 454/554 455/555 426/520
f 454/554 511/618 455/555
f 511/618 510/616 455/555
f 455/555 510/616 449/547
f 449/546 510/615 542/651
f 449/547 552/666 433/528
f 449/546 542/651 552/665
f 552/665 542/651 530/639
f 552/666 446/543 447/544
f 552/665 530/639 446/542
f 146/185 129/165 132/168
f 446/542 530/639 533/642
f 446/542 533/642 551/663
f 533/642 544/653 551/663
f 551/664 544/654 450/548
f 623/766 431/526 546/657
f 608/742 613/749 620/758
f 608/742 620/758 371/457
f 662/813 644/795 663/814
f 780/996 781/998 685/844
f 685/842 781/999 792/1019
f 781/999 425/518 792/1019
f 792/1019 425/518 793/1020
f 793/1021 378/467 382/472
f 792/1019 793/1020 382/471
f 378/467 376/465 377/466
f 377/466 376/465 375/464
f 376/465 374/463 375/464
f 384/474 379/468 376/465
f 376/465 379/468 374/463
f 384/474 394/484 379/468
f 374/463 18/23 375/464
f 410/501 380/469 394/484
f 394/484 581/700 410/501
f 394/484 380/469 379/468
f 380/469 373/462 374/463
f 379/468 380/469 374/463
f 373/462 17/21 18/23
f 374/463 373/462 18/23
f 410/501 417/509 380/469
f 380/469 383/473 373/462
f 380/469 392/482 383/473
f 417/509 392/482 380/469
f 373/462 370/456 17/21
f 445/541 432/527 417/509
f 445/541 456/557 432/527
f 456/557 451/549 432/527
f 451/549 456/557 459/563
f 459/563 458/561 451/549
f 459/562 537/646 458/560
f 458/560 537/646 543/652
f 457/558 543/652 534/643
f 457/558 534/643 535/644
f 513/620 538/647 452/550
f 536/645 529/637 453/552
f 542/651 510/615 527/635
f 542/651 527/635 530/639
f 533/642 532/641 544/653
f 544/653 532/641 546/656
f 546/656 496/601 623/765
f 623/764 496/600 618/755
f 651/802 644/795 652/803
f 378/467 377/466 382/472
f 382/472 377/466 735/927
f 425/519 781/1000 424/517
f 425/519 424/517 793/1021
f 424/517 384/474 793/1021
f 793/1021 384/474 376/465
f 793/1021 376/465 378/467
f 375/464 14/16 735/927
f 377/466 375/464 735/927
f 424/517 423/516 384/474
f 423/516 563/679 581/700
f 423/516 581/700 384/474
f 581/699 563/678 562/677
f 581/700 394/484 384/474
f 438/534 410/501 581/700
f 581/699 562/677 438/533
f 438/533 562/677 553/667
f 438/534 417/509 410/501
f 17/20 19/24 10/10
f 547/659 445/541 438/534
f 537/646 497/602 543/652
f 543/652 497/602 534/643
f 534/643 476/580 535/644
f 535/644 476/580 475/579
f 535/644 475/579 539/648
f 475/579 472/576 539/648
f 539/648 472/576 513/620
f 513/620 512/619 538/647
f 512/619 536/645 538/647
f 512/619 463/567 536/645
f 463/567 462/566 536/645
f 536/645 462/566 529/637
f 529/637 462/566 511/617
f 511/617 500/605 510/615
f 500/605 480/584 510/615
f 510/615 526/634 527/635
f 527/635 526/634 528/636
f 527/635 528/636 530/639
f 530/639 528/636 531/640
f 530/639 531/640 533/642
f 533/642 531/640 532/641
f 532/641 531/640 501/606
f 532/641 496/601 546/656
f 618/755 496/600 611/745
f 611/745 609/743 608/742
f 608/742 610/744 613/749
f 620/758 613/749 619/757
f 780/996 560/674 781/998
f 781/1000 563/679 424/517
f 781/997 557/671 563/678
f 15/17 14/15 2/2
f 563/679 423/516 424/517
f 563/678 557/671 562/677
f 562/677 557/671 555/669
f 12/13 13/14 7/7
f 555/669 553/667 562/677
f 553/667 509/614 547/658
f 547/658 509/614 456/556
f 456/556 509/614 506/611
f 459/562 506/611 537/646
f 506/611 499/604 537/646
f 499/604 497/602 537/646
f 80/109 123/159 122/158
f 497/602 478/582 534/643
f 534/643 478/582 476/580
f 472/576 471/575 513/620
f 513/620 471/575 512/619
f 512/619 471/575 470/574
f 512/619 470/574 467/571
f 512/619 467/571 463/567
f 462/566 464/568 511/617
f 511/617 464/568 500/605
f 480/584 526/634 510/615
f 526/634 480/584 504/609
f 526/634 504/609 503/608
f 526/634 503/608 528/636
f 503/608 502/607 528/636
f 111/147 110/146 94/130
f 528/636 502/607 531/640
f 502/607 501/606 531/640
f 532/641 501/606 496/601
f 496/600 612/747 611/745
f 608/742 609/743 610/744
f 642/793 644/795 651/802
f 663/814 782/1002 780/995
f 780/996 782/1001 560/674
f 560/675 558/672 781/997
f 781/997 558/672 557/671
f 557/671 558/672 556/670
f 557/671 556/670 555/669
f 556/670 554/668 555/669
f 554/668 553/667 555/669
f 554/668 540/649 553/667
f 553/667 540/649 509/614
f 509/614 507/612 506/611
f 464/568 466/570 500/605
f 101/137 102/138 103/139
f 500/605 466/570 480/584
f 504/609 480/584 483/587
f 504/609 483/587 503/608
f 503/608 483/587 502/607
f 483/587 485/589 502/607
f 502/607 485/589 501/606
f 485/589 486/590 501/606
f 501/606 486/590 496/601
f 611/745 612/747 609/743
f 686/846 661/812 649/800
f 649/800 648/799 642/793
f 644/795 664/815 663/814
f 663/814 664/815 782/1002
f 782/1001 783/1003 560/674
f 560/675 783/1004 558/672
f 783/1004 561/676 558/672
f 558/672 561/676 556/670
f 561/676 559/673 556/670
f 556/670 559/673 554/668
f 554/668 559/673 540/649
f 520/627 509/614 540/649
f 509/614 508/613 507/612
f 497/602 477/581 478/582
f 471/575 469/573 470/574
f 469/573 467/571 470/574
f 463/567 460/564 462/566
f 464/568 465/569 466/570
f 466/570 479/583 480/584
f 480/584 479/583 481/585
f 480/584 481/585 483/587
f 483/587 481/585 484/588
f 483/587 484/588 485/589
f 485/589 484/588 486/590
f 484/588 487/591 486/590
f 486/590 487/591 488/592
f 488/592 490/594 486/590
f 486/590 490/594 496/601
f 496/601 490/594 612/748
f 610/744 614/750 613/749
f 614/750 619/757 613/749
f 661/812 660/811 649/800
f 644/795 645/796 664/815
f 783/1004 569/687 568/685
f 569/687 573/691 568/685
f 568/685 573/691 567/684
f 561/676 567/684 559/673
f 567/684 565/682 559/673
f 559/673 565/682 540/649
f 565/682 566/683 540/649
f 509/614 520/627 508/613
f 507/612 508/613 505/610
f 507/612 505/610 506/611
f 505/610 498/603 499/604
f 506/611 505/610 499/604
f 497/602 498/603 477/581
f 478/582 477/581 476/580
f 476/580 474/578 475/579
f 475/579 474/578 472/576
f 474/578 473/577 472/576
f 472/576 473/577 469/573
f 472/576 469/573 471/575
f 469/573 468/572 467/571
f 468/572 460/564 467/571
f 467/571 460/564 463/567
f 460/564 461/565 462/566
f 462/566 461/565 464/568
f 461/565 465/569 464/568
f 466/570 465/569 479/583
f 479/583 465/569 495/599
f 479/583 495/599 482/586
f 479/583 482/586 481/585
f 482/586 493/597 481/585
f 493/597 491/595 481/585
f 481/585 491/595 484/588
f 491/595 489/593 484/588
f 484/588 489/593 487/591
f 487/591 489/593 488/592
f 614/750 157/205 619/757
f 686/846 689/851 661/812
f 783/1004 786/1009 569/687
f 569/686 786/1008 606/737
f 606/737 786/1008 271/338
f 606/739 271/339 276/344
f 270/337 273/341 605/736
f 276/344 270/337 605/736
f 605/736 273/341 602/730
f 600/726 601/727 565/682
f 565/682 601/727 566/683
f 601/727 603/731 566/683
f 508/613 520/627 570/688
f 508/613 548/660 505/610
f 505/610 525/633 498/603
f 495/599 519/626 482/586
f 493/597 482/586 494/598
f 494/598 492/596 493/597
f 493/597 492/596 491/595
f 492/596 489/593 491/595
f 488/592 523/631 490/594
f 490/594 523/631 612/748
f 614/750 238/292 157/205
f 782/1001 784/1005 783/1003
f 790/1015 33/45 269/335
f 271/338 790/1014 269/334
f 783/1003 784/1005 786/1008
f 603/731 288/357 576/694
f 548/660 571/689 505/610
f 505/610 571/689 525/633
f 525/633 572/690 498/603
f 572/690 524/632 498/603
f 498/603 524/632 477/581
f 524/632 541/650 474/578
f 477/581 524/632 474/578
f 474/578 541/650 473/577
f 541/650 545/655 473/577
f 473/577 545/655 469/573
f 545/655 550/662 469/573
f 550/662 549/661 469/573
f 469/573 549/661 468/572
f 468/572 549/661 460/564
f 460/564 549/661 461/565
f 549/661 522/629 461/565
f 522/629 521/628 461/565
f 461/565 521/628 465/569
f 521/628 519/626 495/599
f 519/626 518/625 482/586
f 518/625 517/624 482/586
f 482/586 517/624 494/598
f 494/598 517/624 516/623
f 494/598 516/623 492/596
f 516/623 515/622 492/596
f 492/596 515/622 514/621
f 492/596 514/621 489/593
f 514/621 523/631 488/592
f 489/593 514/621 488/592
f 612/747 523/630 598/721
f 612/747 598/721 609/743
f 609/743 239/294 610/744
f 610/744 239/294 614/750
f 239/294 238/292 614/750
f 689/851 753/955 661/812
f 660/811 648/799 649/800
f 786/1008 788/1011 271/338
f 271/338 788/1011 790/1014
f 288/357 302/375 583/703
f 548/660 583/703 571/689
f 571/689 572/690 525/633
f 572/690 574/692 524/632
f 524/632 574/692 541/650
f 550/662 577/695 549/661
f 586/706 588/708 518/625
f 588/708 589/709 517/624
f 518/625 588/708 517/624
f 517/624 589/709 593/713
f 593/713 584/704 517/624
f 584/704 591/711 516/623
f 516/623 591/711 590/710
f 516/623 590/710 515/622
f 515/622 585/705 514/621
f 585/705 622/763 514/621
f 523/630 622/762 598/721
f 609/743 615/751 239/294
f 239/294 221/274 238/292
f 784/1005 787/1010 786/1008
f 786/1008 787/1010 788/1011
f 288/358 234/288 302/376
f 583/703 302/375 307/385
f 571/689 307/385 572/690
f 541/650 579/697 577/695
f 549/661 577/695 578/696
f 578/696 575/693 522/629
f 580/698 587/707 586/706
f 586/706 587/707 588/708
f 588/708 587/707 589/709
f 593/713 589/709 592/712
f 609/743 598/721 615/751
f 661/812 753/955 668/819
f 661/812 668/819 660/811
f 648/799 643/794 642/793
f 298/369 299/371 604/734
f 300/373 293/364 303/378
f 595/715 607/740 594/714
f 594/714 607/740 597/719
f 598/723 596/718 296/367
f 598/721 292/362 617/753
f 598/721 617/753 615/751
f 617/753 183/235 615/751
f 615/751 183/235 239/294
f 183/236 192/245 239/295
f 239/295 192/245 221/275
f 668/819 648/799 660/811
f 642/793 643/794 644/795
f 644/795 643/794 645/796
f 645/796 665/816 664/815
f 782/1001 785/1006 784/1005
f 784/1005 785/1006 787/1010
f 788/1011 34/47 790/1014
f 285/353 201/254 208/261
f 284/352 210/263 283/351
f 289/359 203/256 278/346
f 280/348 199/252 296/367
f 664/815 791/1016 782/1002
f 782/1001 791/1017 785/1006
f 787/1010 34/47 788/1011
f 665/816 791/1016 664/815
f 34/46 35/49 33/45
f 785/1006 789/1012 787/1010
f 787/1010 789/1012 34/47
f 753/955 725/900 668/819
f 791/1018 699/864 785/1007
f 789/1013 703/870 34/48
f 725/900 677/828 668/819
f 668/819 677/828 648/799
f 648/799 647/798 643/794
f 643/794 646/797 645/796
f 645/796 656/807 665/816
f 665/816 681/834 791/1016
f 791/1018 681/835 699/864
f 785/1007 699/864 789/1013
f 667/818 647/798 648/799
f 699/864 692/855 789/1013
f 789/1013 692/855 703/870
f 677/828 667/818 648/799
f 645/796 646/797 656/807
f 656/807 672/823 665/816
f 672/823 681/834 665/816
f 681/835 690/853 699/864
f 699/864 690/853 692/855
f 692/855 697/861 703/870
f 703/870 697/861 36/51
f 672/823 676/827 681/834
f 35/49 36/50 705/873
f 697/861 92/128 36/51
f 726/903 687/847 677/828
f 677/828 687/847 667/818
f 646/797 657/808 656/807
f 656/807 657/808 669/820
f 656/807 676/827 672/823
f 676/827 701/866 681/834
f 36/50 92/127 705/873
f 681/835 701/867 690/853
f 692/855 694/857 697/861
f 697/861 694/857 92/128
f 656/807 669/820 676/827
f 701/867 691/854 690/853
f 690/853 691/854 692/855
f 667/818 687/847 678/829
f 667/818 678/829 647/798
f 643/794 647/798 646/797
f 691/854 693/856 692/855
f 692/855 693/856 694/857
f 694/857 693/856 705/874
f 669/820 682/836 676/827
f 676/827 682/836 701/866
f 659/810 646/797 647/798
f 646/797 658/809 657/808
f 657/808 698/862 669/820
f 669/820 698/862 682/836
f 701/867 682/837 691/854
f 693/856 696/860 705/874
f 718/891 688/850 678/830
f 647/798 678/829 671/822
f 691/854 682/837 695/858
f 678/829 688/849 671/822
f 647/798 671/822 659/810
f 659/810 658/809 646/797
f 658/809 683/838 657/808
f 657/808 683/838 698/862
f 671/822 727/905 684/840
f 671/822 684/840 659/810
f 659/810 684/840 710/880
f 659/810 710/880 658/809
f 658/809 710/880 683/838
f 708/877 709/879 707/876
f 26/34 25/32 24/31
f 26/34 24/31 23/30
f 21/26 22/28 759/962
f 28/36 27/35 26/34
f 26/34 23/30 59/74
f 51/66 26/34 59/74
f 59/74 23/30 759/962
f 624/767 625/769 628/773
f 628/774 625/768 758/961
f 758/961 625/768 743/941
f 630/776 624/767 628/773
f 49/64 28/36 51/66
f 51/66 28/36 26/34
f 59/74 759/962 58/73
f 67/87 28/36 49/64
f 58/73 759/962 761/965
f 58/73 761/965 732/916
f 732/918 768/975 765/972
f 737/930 67/87 49/64
f 631/778 757/960 756/959
f 757/960 758/961 740/935
f 756/959 757/960 740/935
f 740/935 758/961 67/88
f 59/74 58/73 56/71
f 58/73 732/916 62/78
f 740/935 67/88 737/931
f 49/64 51/66 50/65
f 634/781 631/777 635/782
f 635/783 631/778 756/959
f 50/65 51/66 59/74
f 756/959 740/935 739/934
f 739/934 740/935 737/931
f 50/65 59/74 56/71
f 57/72 58/73 62/78
f 732/917 764/969 803/1036
f 635/783 756/959 637/785
f 637/785 756/959 739/934
f 62/78 732/916 733/919
f 637/785 739/934 736/929
f 736/929 739/934 737/931
f 47/62 49/64 50/65
f 56/71 58/73 57/72
f 755/958 637/785 736/929
f 736/929 737/931 738/933
f 737/930 49/64 48/63
f 48/63 49/64 47/62
f 733/920 801/1031 734/922
f 641/792 637/785 754/957
f 637/785 755/958 754/957
f 755/958 736/929 741/937
f 741/937 736/929 738/933
f 738/932 737/930 48/63
f 47/62 50/65 56/71
f 754/957 755/958 741/937
f 741/936 738/932 63/79
f 47/62 56/71 46/61
f 733/920 734/922 798/1027
f 752/954 754/957 741/937
f 323/402 325/404 326/405
f 323/402 326/405 321/400
f 327/406 328/407 313/392
f 328/407 330/409 329/408
f 331/410 332/411 333/412
f 334/413 335/414 621/761
f 56/71 57/72 54/69
f 57/72 62/78 55/70
f 55/70 62/78 735/924
f 62/78 733/919 735/924
f 322/401 320/399 366/449
f 311/390 314/393 151/194
f 364/445 337/416 363/444
f 337/416 336/415 146/186
f 341/420 343/423 362/442
f 63/79 738/932 48/63
f 46/61 56/71 54/69
f 351/431 345/425 350/430
f 153/198 344/424 361/441
f 151/194 364/445 372/461
f 364/445 363/444 372/461
f 155/202 362/442 145/184
f 751/952 754/957 752/954
f 752/954 741/937 745/945
f 745/945 741/937 63/80
f 45/60 48/63 47/62
f 54/69 57/72 55/70
f 370/456 352/432 350/430
f 432/527 428/522 404/495
f 148/189 350/430 153/198
f 136/172 153/197 138/174
f 124/160 144/181 126/162
f 126/162 144/181 147/187
f 365/446 368/452 139/176
f 139/176 368/452 150/191
f 139/176 150/191 141/178
f 141/178 150/191 140/177
f 137/173 151/193 131/167
f 131/167 151/193 372/460
f 131/167 372/460 134/170
f 134/170 372/460 149/190
f 134/170 149/190 133/169
f 133/169 149/190 132/168
f 149/190 146/185 132/168
f 129/165 146/185 143/180
f 129/165 143/180 128/164
f 128/164 143/180 142/179
f 128/164 142/179 130/166
f 142/179 145/183 620/759
f 130/166 142/179 620/759
f 145/183 371/458 620/759
f 16/18 55/70 735/924
f 19/24 370/455 148/188
f 135/171 148/188 127/163
f 127/163 148/188 136/172
f 136/172 138/174 124/160
f 138/174 144/181 124/160
f 126/162 139/176 117/153
f 117/153 139/176 116/152
f 139/176 141/178 116/152
f 116/152 141/178 115/151
f 141/178 140/177 115/151
f 115/151 140/177 113/149
f 140/177 137/173 113/149
f 113/149 137/173 131/167
f 53/68 54/69 55/70
f 14/16 375/464 402/493
f 375/464 18/23 402/493
f 13/14 18/22 17/20
f 438/534 445/541 417/509
f 19/24 17/20 370/455
f 19/24 148/188 135/171
f 127/163 136/172 125/161
f 136/172 124/160 125/161
f 123/159 124/160 126/162
f 123/159 126/162 121/157
f 121/157 126/162 119/155
f 119/155 126/162 117/153
f 113/149 131/167 107/143
f 107/143 131/167 106/142
f 131/167 134/170 106/142
f 106/142 134/170 109/145
f 134/170 133/169 109/145
f 109/145 133/169 108/144
f 108/144 133/169 132/168
f 108/144 132/168 104/140
f 132/168 129/165 104/140
f 104/140 129/165 111/147
f 111/147 129/165 110/146
f 110/146 129/165 128/164
f 110/146 128/164 105/141
f 128/164 130/166 105/141
f 105/141 130/166 112/148
f 130/166 620/759 112/148
f 751/952 752/954 747/947
f 52/67 63/79 48/63
f 52/67 48/63 45/60
f 16/19 735/926 11/12
f 11/11 735/924 2/2
f 2/2 735/924 15/17
f 15/17 735/924 14/15
f 14/15 402/492 12/13
f 402/492 18/22 13/14
f 12/13 402/492 13/14
f 13/14 17/20 10/10
f 547/658 438/533 553/667
f 456/557 445/541 547/659
f 20/25 19/24 135/171
f 77/105 135/171 127/163
f 79/108 127/163 125/161
f 125/161 124/160 80/109
f 80/109 124/160 123/159
f 119/155 117/153 118/154
f 87/119 116/152 115/151
f 115/151 113/149 89/122
f 113/149 107/143 103/139
f 103/139 107/143 106/142
f 106/142 109/145 99/135
f 112/148 620/759 619/756
f 686/845 751/952 747/947
f 747/947 752/954 745/945
f 46/61 54/69 53/68
f 53/68 55/70 16/18
f 16/18 11/11 1/1
f 1/1 11/11 2/2
f 2/2 14/15 4/4
f 14/15 12/13 6/6
f 4/4 14/15 6/6
f 6/6 12/13 7/7
f 7/7 13/14 10/10
f 10/10 19/24 20/25
f 20/25 135/171 77/105
f 459/562 456/556 506/611
f 77/105 127/163 79/108
f 80/109 79/108 125/161
f 122/158 123/159 121/157
f 122/158 121/157 120/156
f 120/156 121/157 119/155
f 120/156 119/155 118/154
f 118/154 117/153 87/119
f 87/119 117/153 116/152
f 87/119 115/151 89/122
f 89/122 113/149 114/150
f 114/150 113/149 103/139
f 103/139 106/142 101/137
f 101/137 106/142 99/135
f 99/135 109/145 108/144
f 99/135 108/144 98/134
f 98/134 108/144 104/140
f 98/134 104/140 94/130
f 94/130 104/140 111/147
f 110/146 105/141 94/130
f 94/130 105/141 97/133
f 97/133 105/141 112/148
f 97/133 112/148 619/756
f 43/58 47/62 46/61
f 1/1 2/2 3/3
f 3/3 2/2 4/4
f 3/3 4/4 5/5
f 4/4 6/6 5/5
f 6/6 7/7 5/5
f 5/5 7/7 8/8
f 8/8 7/7 9/9
f 7/7 10/10 9/9
f 9/9 10/10 20/25
f 80/109 122/158 82/111
f 122/158 120/156 82/111
f 82/111 120/156 85/116
f 120/156 118/154 85/116
f 85/116 118/154 87/119
f 101/137 99/135 100/136
f 102/138 101/137 100/136
f 100/136 99/135 93/129
f 93/129 99/135 98/134
f 93/129 98/134 94/130
f 93/129 94/130 95/131
f 95/131 94/130 96/132
f 94/130 97/133 96/132
f 96/132 97/133 619/756
f 689/852 686/845 749/950
f 749/950 686/845 747/947
f 747/947 745/945 744/944
f 744/944 745/945 63/80
f 269/335 16/18 1/1
f 269/335 1/1 68/89
f 1/1 3/3 68/89
f 68/89 3/3 69/90
f 69/90 3/3 5/5
f 69/90 5/5 70/92
f 70/92 5/5 8/8
f 70/92 8/8 71/93
f 8/8 9/9 71/93
f 71/93 9/9 72/95
f 72/95 9/9 75/101
f 75/101 9/9 20/25
f 20/25 77/105 76/103
f 78/106 77/105 79/108
f 79/108 80/109 254/311
f 82/111 85/116 84/114
f 84/114 85/116 255/313
f 255/313 85/116 86/117
f 86/117 85/116 87/119
f 86/117 87/119 88/120
f 87/119 89/122 88/120
f 88/120 89/122 253/309
f 89/122 114/150 253/309
f 253/309 114/150 158/208
f 114/150 103/139 158/208
f 259/320 93/129 257/316
f 257/316 93/129 260/322
f 93/129 95/131 260/322
f 261/324 95/131 262/326
f 95/131 96/132 262/326
f 262/326 96/132 156/203
f 156/203 96/132 619/756
f 156/203 619/756 157/206
f 45/60 47/62 43/58
f 561/676 783/1004 568/685
f 269/335 68/89 69/90
f 561/676 568/685 567/684
f 73/97 69/90 70/92
f 73/97 70/92 74/99
f 74/99 70/92 71/93
f 520/627 540/649 566/683
f 75/101 20/25 76/103
f 76/103 77/105 78/106
f 78/106 79/108 254/311
f 497/602 499/604 498/603
f 81/110 80/109 82/111
f 254/311 80/109 81/110
f 81/110 82/111 83/112
f 83/112 82/111 84/114
f 158/208 103/139 159/210
f 103/139 102/138 159/210
f 159/210 102/138 100/136
f 159/210 100/136 258/318
f 100/136 93/129 258/318
f 258/318 93/129 259/320
f 260/322 95/131 261/324
f 749/950 747/947 746/946
f 746/946 747/947 744/944
f 744/943 63/79 52/67
f 43/58 46/61 42/57
f 42/57 46/61 53/68
f 60/75 53/68 37/52
f 37/52 53/68 16/18
f 37/52 16/18 269/335
f 276/344 271/339 270/337
f 270/337 271/339 269/336
f 569/687 606/738 605/735
f 606/739 276/344 605/736
f 573/691 569/687 605/735
f 268/333 270/337 269/336
f 268/333 269/336 69/91
f 573/691 605/735 602/729
f 567/684 573/691 602/729
f 268/333 69/91 266/331
f 266/331 69/91 73/98
f 600/726 567/684 602/729
f 565/682 567/684 600/726
f 74/100 266/331 73/98
f 266/331 74/100 264/329
f 600/726 602/729 601/727
f 263/328 74/100 71/94
f 263/328 71/94 72/96
f 576/694 566/683 603/731
f 263/328 72/96 230/284
f 72/96 75/102 230/284
f 520/627 566/683 576/694
f 76/104 78/107 244/300
f 78/107 254/312 245/301
f 254/311 81/110 90/123
f 90/123 81/110 91/125
f 91/125 81/110 83/112
f 476/580 477/581 474/578
f 91/126 83/113 84/115
f 253/310 158/209 237/291
f 159/211 258/319 246/302
f 246/302 258/319 248/304
f 258/319 259/321 248/304
f 248/304 259/321 247/303
f 259/321 257/317 247/303
f 247/303 257/317 251/307
f 251/307 257/317 260/323
f 251/307 260/323 249/305
f 249/305 260/323 261/325
f 261/325 262/327 249/305
f 249/305 262/327 250/306
f 250/306 262/327 156/204
f 250/306 156/204 252/308
f 252/308 156/204 157/207
f 252/308 157/207 238/293
f 273/341 270/337 268/333
f 272/340 273/341 268/333
f 272/340 268/333 267/332
f 267/332 268/333 266/331
f 602/730 273/341 272/340
f 602/730 272/340 274/342
f 274/342 272/340 267/332
f 274/342 267/332 265/330
f 265/330 267/332 266/331
f 265/330 266/331 264/329
f 601/728 602/730 274/342
f 274/342 265/330 256/315
f 256/315 265/330 264/329
f 601/728 274/342 275/343
f 275/343 274/342 256/315
f 256/315 264/329 263/328
f 264/329 74/100 263/328
f 603/732 601/728 275/343
f 256/315 263/328 233/287
f 288/358 603/732 275/343
f 263/328 230/284 233/287
f 570/688 520/627 576/694
f 230/284 75/102 76/104
f 230/284 76/104 244/300
f 508/613 570/688 548/660
f 244/300 78/107 245/301
f 244/300 245/301 214/267
f 245/301 254/312 231/285
f 231/285 254/312 90/124
f 91/126 84/115 243/299
f 84/115 255/314 243/299
f 255/314 86/118 243/299
f 243/299 86/118 242/298
f 86/118 88/121 242/298
f 242/298 88/121 253/310
f 242/298 253/310 241/297
f 241/297 253/310 237/291
f 237/291 158/209 240/296
f 495/599 465/569 521/628
f 240/296 158/209 159/211
f 159/211 246/302 240/296
f 250/306 235/289 249/305
f 235/289 250/306 236/290
f 753/956 689/852 749/950
f 753/956 749/950 750/951
f 744/943 52/67 32/44
f 275/343 256/315 209/262
f 209/262 256/315 233/287
f 288/358 275/343 234/288
f 234/288 275/343 209/262
f 209/262 233/287 207/260
f 207/260 233/287 230/284
f 576/694 288/357 583/703
f 570/688 576/694 583/703
f 207/260 230/284 214/267
f 548/660 570/688 583/703
f 214/267 230/284 244/300
f 214/267 245/301 231/285
f 231/285 90/124 91/126
f 231/285 91/126 226/280
f 226/280 91/126 243/299
f 226/280 243/299 225/279
f 225/279 243/299 242/298
f 225/279 242/298 223/277
f 223/277 242/298 222/276
f 242/298 241/297 222/276
f 222/276 241/297 237/291
f 521/628 522/629 575/693
f 218/271 237/291 240/296
f 218/271 240/296 229/283
f 240/296 246/302 229/283
f 518/625 519/626 586/706
f 246/302 248/304 229/283
f 229/283 248/304 228/282
f 248/304 247/303 228/282
f 228/282 247/303 227/281
f 516/623 517/624 584/704
f 247/303 251/307 227/281
f 251/307 249/305 227/281
f 227/281 249/305 235/289
f 236/290 250/306 232/286
f 250/306 252/308 232/286
f 523/631 514/621 622/763
f 232/286 252/308 238/293
f 749/950 746/946 748/948
f 748/948 746/946 744/944
f 32/44 52/67 45/60
f 234/288 209/262 198/251
f 198/251 209/262 207/260
f 196/249 198/251 207/260
f 196/249 207/260 214/267
f 196/249 214/267 213/266
f 571/689 583/703 307/385
f 213/266 214/267 231/285
f 224/278 213/266 231/285
f 231/285 226/280 224/278
f 224/278 226/280 220/273
f 541/650 574/692 579/697
f 220/273 226/280 225/279
f 545/655 541/650 577/695
f 220/273 225/279 219/272
f 550/662 545/655 577/695
f 219/272 225/279 223/277
f 522/629 549/661 578/696
f 217/270 222/276 237/291
f 521/628 575/693 580/698
f 217/270 237/291 218/271
f 519/626 521/628 580/698
f 519/626 580/698 586/706
f 218/271 229/283 216/269
f 229/283 228/282 216/269
f 216/269 228/282 211/264
f 584/704 593/713 592/712
f 211/264 228/282 227/281
f 591/711 584/704 592/712
f 211/264 227/281 212/265
f 212/265 227/281 235/289
f 215/268 212/265 235/289
f 215/268 235/289 236/290
f 515/622 590/710 585/705
f 215/268 236/290 232/286
f 215/268 232/286 221/275
f 221/275 232/286 238/293
f 750/951 749/950 748/948
f 37/52 269/335 35/49
f 35/49 269/335 33/45
f 202/255 234/288 198/251
f 302/376 234/288 202/255
f 287/356 302/376 202/255
f 307/386 302/376 287/356
f 193/246 196/249 213/266
f 307/386 287/356 286/355
f 572/690 307/385 286/354
f 193/246 213/266 224/278
f 574/692 572/690 305/381
f 305/381 572/690 286/354
f 305/382 286/355 295/366
f 193/246 224/278 195/248
f 574/692 305/381 306/383
f 195/248 224/278 220/273
f 579/697 574/692 306/383
f 171/223 195/248 220/273
f 579/697 306/383 599/724
f 169/221 171/223 220/273
f 577/695 579/697 599/724
f 165/217 169/221 220/273
f 165/217 220/273 219/272
f 577/695 599/724 304/379
f 162/214 165/217 219/272
f 578/696 577/695 304/379
f 578/696 304/379 604/733
f 162/214 219/272 223/277
f 166/218 162/214 223/277
f 166/218 223/277 222/276
f 578/696 604/733 299/370
f 575/693 578/696 299/370
f 166/218 222/276 217/270
f 168/220 166/218 217/270
f 575/693 299/370 300/372
f 300/373 299/371 294/365
f 300/373 294/365 293/364
f 580/698 575/693 300/372
f 168/220 217/270 218/271
f 172/224 168/220 218/271
f 580/698 300/372 303/377
f 587/707 580/698 303/377
f 172/224 218/271 216/269
f 589/709 587/707 303/377
f 589/709 303/377 595/715
f 194/247 172/224 216/269
f 194/247 216/269 211/264
f 589/709 595/715 594/714
f 174/226 194/247 211/264
f 592/712 589/709 594/714
f 177/229 174/226 211/264
f 591/711 592/712 590/710
f 590/710 592/712 594/714
f 177/229 211/264 212/265
f 590/710 594/714 597/719
f 178/230 177/229 212/265
f 190/243 178/230 212/265
f 190/243 212/265 215/268
f 191/244 190/243 215/268
f 590/710 597/719 596/717
f 585/705 590/710 596/717
f 191/244 215/268 221/275
f 585/705 596/717 598/722
f 622/763 585/705 598/722
f 192/245 191/244 221/275
f 33/45 790/1015 34/46
f 197/250 202/255 198/251
f 197/250 198/251 196/249
f 287/356 202/255 197/250
f 197/250 196/249 187/240
f 286/355 287/356 197/250
f 187/240 196/249 193/246
f 286/355 197/250 206/259
f 186/239 187/240 193/246
f 295/366 286/355 206/259
f 186/239 193/246 195/248
f 170/222 186/239 195/248
f 305/382 295/366 301/374
f 301/374 295/366 291/361
f 170/222 195/248 171/223
f 306/384 305/382 301/374
f 599/725 306/384 301/374
f 301/374 291/361 290/360
f 164/216 170/222 171/223
f 599/725 301/374 297/368
f 297/368 301/374 290/360
f 164/216 171/223 169/221
f 297/368 290/360 285/353
f 164/216 169/221 165/217
f 163/215 164/216 165/217
f 297/368 285/353 284/352
f 285/353 208/261 284/352
f 304/380 599/725 297/368
f 304/380 297/368 298/369
f 298/369 297/368 284/352
f 163/215 165/217 162/214
f 298/369 284/352 283/351
f 163/215 161/213 189/242
f 604/734 304/380 298/369
f 161/213 163/215 162/214
f 160/212 161/213 162/214
f 299/371 298/369 283/351
f 299/371 283/351 282/350
f 160/212 162/214 166/218
f 294/365 299/371 282/350
f 294/365 282/350 205/258
f 167/219 160/212 166/218
f 167/219 166/218 168/220
f 167/219 168/220 172/224
f 281/349 293/364 205/258
f 303/378 293/364 281/349
f 173/225 181/233 167/219
f 173/225 167/219 172/224
f 181/233 173/225 180/232
f 595/716 303/378 281/349
f 595/716 281/349 289/359
f 289/359 281/349 277/345
f 180/232 173/225 175/227
f 173/225 172/224 174/226
f 174/226 172/224 194/247
f 607/741 595/716 289/359
f 175/227 173/225 174/226
f 289/359 277/345 203/256
f 175/227 174/226 176/228
f 176/228 174/226 177/229
f 607/741 289/359 278/346
f 607/741 278/346 279/347
f 597/720 607/741 279/347
f 176/228 178/230 179/231
f 176/228 177/229 178/230
f 597/720 279/347 280/348
f 178/230 182/234 179/231
f 182/234 178/230 190/243
f 596/718 597/720 280/348
f 596/718 280/348 296/367
f 182/234 190/243 191/244
f 182/234 191/244 192/245
f 598/723 296/367 292/363
f 183/236 182/234 192/245
f 748/949 744/943 32/44
f 38/53 53/68 60/75
f 206/259 197/250 187/240
f 206/259 187/240 185/238
f 185/238 187/240 186/239
f 185/238 186/239 170/222
f 295/366 206/259 201/254
f 201/254 206/259 185/238
f 291/361 295/366 201/254
f 201/254 185/238 184/237
f 184/237 185/238 170/222
f 290/360 291/361 201/254
f 184/237 170/222 164/216
f 201/254 184/237 188/241
f 188/241 184/237 164/216
f 285/353 290/360 201/254
f 208/261 201/254 188/241
f 188/241 164/216 163/215
f 210/263 208/261 188/241
f 284/352 208/261 210/263
f 210/263 188/241 189/242
f 189/242 188/241 163/215
f 282/350 283/351 210/263
f 189/242 161/213 160/212
f 282/350 210/263 205/258
f 205/258 210/263 189/242
f 205/258 189/242 181/233
f 181/233 189/242 160/212
f 181/233 160/212 167/219
f 293/364 294/365 205/258
f 281/349 205/258 204/257
f 204/257 205/258 181/233
f 204/257 181/233 180/232
f 277/345 281/349 204/257
f 204/257 180/232 175/227
f 277/345 204/257 203/256
f 203/256 204/257 175/227
f 200/253 203/256 175/227
f 278/346 203/256 200/253
f 200/253 175/227 179/231
f 179/231 175/227 176/228
f 279/347 278/346 200/253
f 279/347 200/253 199/252
f 280/348 279/347 199/252
f 199/252 200/253 179/231
f 199/252 179/231 183/236
f 183/236 179/231 182/234
f 292/363 296/367 199/252
f 617/754 199/252 183/236
f 292/363 199/252 617/754
f 753/956 750/951 725/901
f 725/901 750/951 748/948
f 43/58 42/57 41/56
f 40/55 42/57 53/68
f 38/53 60/75 37/52
f 725/901 748/948 29/39
f 29/38 748/949 32/44
f 32/44 45/60 30/41
f 30/41 45/60 44/59
f 35/49 34/46 703/869
f 29/38 32/44 30/41
f 45/60 43/58 44/59
f 44/59 43/58 41/56
f 40/55 53/68 38/53
f 36/50 35/49 703/869
f 677/828 725/900 726/903
f 725/902 29/40 723/898
f 724/899 725/902 723/898
f 723/897 29/38 30/41
f 38/53 37/52 35/49
f 726/904 725/902 724/899
f 41/56 42/57 40/55
f 705/873 38/53 35/49
f 724/899 723/898 722/896
f 722/896 723/898 31/43
f 31/42 723/897 30/41
f 31/42 30/41 44/59
f 726/904 724/899 720/893
f 720/893 724/899 722/896
f 687/848 726/904 720/893
f 720/893 722/896 721/895
f 721/895 722/896 31/43
f 721/894 31/42 64/81
f 694/857 705/874 92/128
f 64/81 31/42 44/59
f 39/54 40/55 38/53
f 704/871 38/53 705/873
f 718/891 687/848 720/893
f 720/893 721/895 719/892
f 719/892 721/895 64/82
f 687/848 718/891 678/830
f 41/56 40/55 44/59
f 718/891 720/893 719/892
f 64/81 44/59 717/889
f 39/54 38/53 704/871
f 696/859 704/871 705/873
f 691/854 695/858 693/856
f 693/856 695/858 696/860
f 719/892 64/82 717/890
f 682/837 698/863 695/858
f 695/858 704/872 696/860
f 688/850 718/891 715/887
f 718/891 719/892 715/887
f 715/887 719/892 717/890
f 717/889 44/59 61/76
f 44/59 40/55 61/76
f 39/54 704/871 66/85
f 65/83 39/54 66/85
f 700/865 66/86 704/872
f 698/863 700/865 695/858
f 695/858 700/865 704/872
f 715/887 717/890 714/886
f 671/822 688/849 727/905
f 714/886 717/890 61/77
f 730/911 40/55 39/54
f 730/911 39/54 65/83
f 65/84 66/86 706/875
f 698/863 683/839 702/868
f 702/868 706/875 700/865
f 700/865 706/875 66/86
f 698/863 702/868 700/865
f 688/850 715/887 712/884
f 727/906 688/850 712/884
f 712/884 715/887 714/886
f 712/884 714/886 713/885
f 713/885 714/886 61/77
f 684/841 727/906 716/888
f 731/914 61/76 40/55
f 731/914 40/55 730/911
f 730/911 65/83 709/878
f 707/876 65/84 706/875
f 702/868 707/876 706/875
f 711/883 712/884 713/885
f 727/906 712/884 716/888
f 716/888 712/884 711/883
f 713/885 61/77 731/915
f 713/885 731/915 730/912
f 683/839 710/881 708/877
f 707/876 709/879 65/84
f 683/839 708/877 702/868
f 702/868 708/877 707/876
f 711/883 713/885 728/908
f 728/908 713/885 730/912
f 684/841 716/888 729/909
f 710/882 684/841 729/909
f 716/888 711/883 729/909
f 729/909 711/883 728/908
f 728/907 730/913 709/879
f 729/910 728/907 709/879
f 710/881 729/910 708/877
f 708/877 729/910 709/879

