# https://github.com/mikedh/trimesh
mtllib material.mtl
usemtl material_0
v -0.44505557 -0.22393441 1.98908377
v 0.44304830 -0.22393334 0.05420357
v -0.44505557 -0.22393334 0.05420357
v 0.44304830 -0.22393441 1.98908377
v -0.44505557 -0.23484948 1.98908377
v 0.44304830 -0.23484841 0.05420357
v 0.44304830 -0.23484948 1.98908377
v -0.44505557 -0.23484841 0.05420357
v 0.44305041 -0.23803025 0.05432674
v -0.44319704 -0.23802999 0.00482625
v 0.44305041 -0.23803025 0.00482649
v -0.44319707 -0.23802999 0.05432644
v -0.44319692 0.19857264 0.05432644
v 0.44305053 0.19857234 0.05432674
v -0.44319692 0.19857264 0.00482625
v 0.44305053 0.19857234 0.00482649
v -0.44538006 -0.23626381 0.05474329
v -0.44538006 -0.23632827 0.00510126
v -0.44538006 -0.23632827 0.05404717
v -0.44538006 -0.23557195 0.05480343
v -0.44537994 0.19680646 0.05474329
v -0.44537994 0.19611460 0.05480343
v -0.44537994 0.19687092 0.05404717
v -0.44537991 0.19687092 0.00510126
v -0.44537991 0.19680646 0.00440937
v -0.44537991 0.19611460 0.00434494
v -0.44538006 -0.23626381 0.00440937
v -0.44538006 -0.23557195 0.00434494
v 0.44305053 0.19638929 0.05650976
v -0.44319707 -0.23584697 0.05650946
v 0.44305041 -0.23584726 0.05650976
v -0.44319692 0.19638959 0.05650946
v 0.44523337 -0.23626408 0.00440961
v 0.44523337 -0.23632854 0.05404747
v 0.44523337 -0.23632854 0.00510150
v 0.44523337 -0.23557222 0.00434518
v 0.44523349 0.19680616 0.00440961
v 0.44523349 0.19611430 0.00434518
v 0.44523349 0.19687063 0.00510150
v 0.44523349 0.19687063 0.05404747
v 0.44523349 0.19680616 0.05474359
v 0.44523349 0.19611430 0.05480373
v 0.44523337 -0.23626408 0.05474359
v 0.44523337 -0.23557222 0.05480373
v 0.44305041 -0.23584726 0.00264347
v -0.44319704 -0.23584697 0.00264323
v -0.44319692 0.19638959 0.00264323
v 0.44305053 0.19638929 0.00264347
v 0.44305041 -0.23748451 0.00318921
v -0.44319704 -0.23748425 0.00318897
v -0.44319707 -0.23748425 0.05596372
v 0.44305041 -0.23748451 0.05596402
v 0.44305053 0.19802657 0.05596402
v -0.44319692 0.19802687 0.05596372
v -0.44319692 0.19802687 0.00318897
v 0.44305053 0.19802657 0.00318921
v 0.44468763 -0.23760483 0.05425802
v 0.44468763 -0.23760483 0.00489521
v -0.44483432 -0.23760456 0.00489497
v -0.44483432 -0.23760456 0.05425772
v -0.44483420 0.19814721 0.05425772
v -0.44483417 0.19814721 0.00489497
v 0.44468775 0.19814691 0.00489521
v 0.44468775 0.19814691 0.05425802
v -0.44483420 0.19632086 0.05608404
v -0.44483432 -0.23577821 0.05608404
v -0.44483432 -0.23577821 0.00306869
v -0.44483417 0.19632086 0.00306869
v 0.44468775 0.19632056 0.05608433
v 0.44468763 -0.23577851 0.05608433
v 0.44468775 0.19632056 0.00306892
v 0.44468763 -0.23577851 0.00306892
v -0.44483432 -0.23717913 0.00349408
v -0.44483432 -0.23717913 0.05565861
v 0.44468763 -0.23717940 0.00349432
v 0.44468763 -0.23717940 0.05565891
v -0.44483417 0.19772175 0.00349408
v -0.44483420 0.19772175 0.05565861
v 0.44468775 0.19772145 0.00349432
v 0.44468775 0.19772145 0.05565891
v 0.44304803 -0.22484007 1.62679422
v -0.44396433 -0.22483978 1.60510564
v 0.44304803 -0.22484007 1.60510588
v -0.44396433 -0.22483978 1.62679386
v -0.44396421 0.16985157 1.62679386
v 0.44304815 0.16985127 1.62679422
v -0.44396421 0.16985157 1.60510564
v 0.44304815 0.16985127 1.60510588
v -0.44614735 -0.22307360 1.62721086
v -0.44614735 -0.22313806 1.60538065
v -0.44614735 -0.22313806 1.62651885
v -0.44614735 -0.22238174 1.62727523
v -0.44614723 0.16808537 1.62721086
v -0.44614723 0.16739351 1.62727523
v -0.44614723 0.16814983 1.62651885
v -0.44614723 0.16814983 1.60538065
v -0.44614723 0.16808537 1.60468876
v -0.44614723 0.16739351 1.60462427
v -0.44614735 -0.22307360 1.60468876
v -0.44614735 -0.22238174 1.60462427
v 0.44304815 0.16766825 1.62897730
v -0.44396433 -0.22265676 1.62897694
v 0.44304803 -0.22265705 1.62897730
v -0.44396421 0.16766855 1.62897694
v 0.44523099 -0.22307387 1.60468912
v 0.44523099 -0.22313833 1.62651920
v 0.44523099 -0.22313833 1.60538101
v 0.44523099 -0.22238204 1.60462463
v 0.44523111 0.16808507 1.60468912
v 0.44523111 0.16739321 1.60462463
v 0.44523111 0.16814953 1.60538101
v 0.44523111 0.16814953 1.62651920
v 0.44523111 0.16808507 1.62721109
v 0.44523111 0.16739321 1.62727547
v 0.44523099 -0.22307387 1.62721109
v 0.44523099 -0.22238204 1.62727547
v 0.44304803 -0.22265705 1.60292292
v -0.44396433 -0.22265676 1.60292256
v -0.44396421 0.16766855 1.60292256
v 0.44304815 0.16766825 1.60292292
v 0.44304803 -0.22429430 1.60346866
v -0.44396433 -0.22429404 1.60346830
v -0.44396433 -0.22429404 1.62843120
v 0.44304803 -0.22429430 1.62843156
v 0.44304815 0.16930550 1.62843156
v -0.44396421 0.16930580 1.62843120
v -0.44396421 0.16930580 1.60346830
v 0.44304815 0.16930550 1.60346866
v 0.44468525 -0.22441462 1.62672544
v 0.44468525 -0.22441462 1.60517466
v -0.44560161 -0.22441435 1.60517442
v -0.44560161 -0.22441435 1.62672520
v -0.44560149 0.16942614 1.62672520
v -0.44560149 0.16942614 1.60517442
v 0.44468537 0.16942585 1.60517466
v 0.44468537 0.16942585 1.62672544
v -0.44560149 0.16759977 1.62855148
v -0.44560161 -0.22258800 1.62855148
v -0.44560161 -0.22258800 1.60334802
v -0.44560149 0.16759977 1.60334802
v 0.44468537 0.16759947 1.62855184
v 0.44468525 -0.22258830 1.62855184
v 0.44468537 0.16759947 1.60334826
v 0.44468525 -0.22258830 1.60334826
v -0.44560161 -0.22398892 1.60377347
v -0.44560161 -0.22398892 1.62812614
v 0.44468525 -0.22398919 1.60377371
v 0.44468525 -0.22398919 1.62812638
v -0.44560149 0.16900072 1.60377347
v -0.44560149 0.16900072 1.62812614
v 0.44468537 0.16900042 1.60377371
v 0.44468537 0.16900042 1.62812638
v 0.44304982 -0.22483826 0.47520745
v -0.44396254 -0.22483796 0.45351884
v 0.44304982 -0.22483826 0.45351914
v -0.44396254 -0.22483796 0.47520715
v -0.44396242 0.16985339 0.47520715
v 0.44304994 0.16985309 0.47520745
v -0.44396242 0.16985339 0.45351884
v 0.44304994 0.16985309 0.45351914
v -0.44614556 -0.22307178 0.47562402
v -0.44614556 -0.22313625 0.45379388
v -0.44614556 -0.22313625 0.47493210
v -0.44614556 -0.22237992 0.47568843
v -0.44614545 0.16808718 0.47562402
v -0.44614545 0.16739532 0.47568843
v -0.44614545 0.16815165 0.47493210
v -0.44614545 0.16815165 0.45379388
v -0.44614545 0.16808718 0.45310202
v -0.44614545 0.16739532 0.45303756
v -0.44614556 -0.22307178 0.45310202
v -0.44614556 -0.22237992 0.45303756
v 0.44304994 0.16767007 0.47739047
v -0.44396254 -0.22265494 0.47739017
v 0.44304982 -0.22265524 0.47739047
v -0.44396242 0.16767037 0.47739017
v 0.44523278 -0.22307205 0.45310232
v 0.44523278 -0.22313651 0.47493240
v 0.44523278 -0.22313651 0.45379418
v 0.44523278 -0.22238022 0.45303786
v 0.44523290 0.16808689 0.45310232
v 0.44523290 0.16739503 0.45303786
v 0.44523290 0.16815135 0.45379418
v 0.44523290 0.16815135 0.47493240
v 0.44523290 0.16808689 0.47562432
v 0.44523290 0.16739503 0.47568873
v 0.44523278 -0.22307205 0.47562432
v 0.44523278 -0.22238022 0.47568873
v 0.44304982 -0.22265524 0.45133612
v -0.44396254 -0.22265494 0.45133582
v -0.44396242 0.16767037 0.45133582
v 0.44304994 0.16767007 0.45133612
v 0.44304982 -0.22429249 0.45188186
v -0.44396254 -0.22429222 0.45188156
v -0.44396254 -0.22429222 0.47684443
v 0.44304982 -0.22429249 0.47684473
v 0.44304994 0.16930732 0.47684473
v -0.44396242 0.16930762 0.47684443
v -0.44396242 0.16930762 0.45188156
v 0.44304994 0.16930732 0.45188186
v 0.44468704 -0.22441280 0.47513872
v 0.44468704 -0.22441280 0.45358792
v -0.44559982 -0.22441253 0.45358762
v -0.44559982 -0.22441253 0.47513843
v -0.44559970 0.16942796 0.47513843
v -0.44559970 0.16942796 0.45358762
v 0.44468716 0.16942766 0.45358792
v 0.44468716 0.16942766 0.47513872
v -0.44559970 0.16760159 0.47696474
v -0.44559982 -0.22258618 0.47696474
v -0.44559982 -0.22258618 0.45176125
v -0.44559970 0.16760159 0.45176125
v 0.44468716 0.16760129 0.47696504
v 0.44468704 -0.22258648 0.47696504
v 0.44468716 0.16760129 0.45176154
v 0.44468704 -0.22258648 0.45176154
v -0.44559982 -0.22398710 0.45218667
v -0.44559982 -0.22398710 0.47653931
v 0.44468704 -0.22398737 0.45218697
v 0.44468704 -0.22398737 0.47653961
v -0.44559970 0.16900253 0.45218667
v -0.44559970 0.16900253 0.47653931
v 0.44468716 0.16900223 0.45218697
v 0.44468716 0.16900223 0.47653961
v 0.44304863 -0.22483948 1.25979435
v -0.44396374 -0.22483918 1.23810577
v 0.44304863 -0.22483948 1.23810601
v -0.44396374 -0.22483918 1.25979400
v -0.44396362 0.16985217 1.25979400
v 0.44304875 0.16985187 1.25979435
v -0.44396362 0.16985217 1.23810577
v 0.44304875 0.16985187 1.23810601
v -0.44614676 -0.22307301 1.26021099
v -0.44614676 -0.22313747 1.23838079
v -0.44614676 -0.22313747 1.25951898
v -0.44614676 -0.22238114 1.26027536
v -0.44614664 0.16808596 1.26021099
v -0.44614664 0.16739410 1.26027536
v -0.44614664 0.16815042 1.25951898
v -0.44614664 0.16815042 1.23838079
v -0.44614664 0.16808596 1.23768890
v -0.44614664 0.16739410 1.23762441
v -0.44614676 -0.22307301 1.23768890
v -0.44614676 -0.22238114 1.23762441
v 0.44304875 0.16766885 1.26197743
v -0.44396374 -0.22265616 1.26197708
v 0.44304863 -0.22265646 1.26197743
v -0.44396362 0.16766915 1.26197708
v 0.44523159 -0.22307327 1.23768926
v 0.44523159 -0.22313774 1.25951934
v 0.44523159 -0.22313774 1.23838115
v 0.44523159 -0.22238144 1.23762476
v 0.44523171 0.16808566 1.23768926
v 0.44523171 0.16739380 1.23762476
v 0.44523171 0.16815013 1.23838115
v 0.44523171 0.16815013 1.25951934
v 0.44523171 0.16808566 1.26021123
v 0.44523171 0.16739380 1.26027560
v 0.44523159 -0.22307327 1.26021123
v 0.44523159 -0.22238144 1.26027560
v 0.44304863 -0.22265646 1.23592305
v -0.44396374 -0.22265616 1.23592269
v -0.44396362 0.16766915 1.23592269
v 0.44304875 0.16766885 1.23592305
v 0.44304863 -0.22429371 1.23646879
v -0.44396374 -0.22429344 1.23646843
v -0.44396374 -0.22429344 1.26143134
v 0.44304863 -0.22429371 1.26143169
v 0.44304875 0.16930610 1.26143169
v -0.44396362 0.16930640 1.26143134
v -0.44396362 0.16930640 1.23646843
v 0.44304875 0.16930610 1.23646879
v 0.44468585 -0.22441402 1.25972557
v 0.44468585 -0.22441402 1.23817480
v -0.44560102 -0.22441375 1.23817456
v -0.44560102 -0.22441375 1.25972533
v -0.44560090 0.16942674 1.25972533
v -0.44560090 0.16942674 1.23817456
v 0.44468597 0.16942644 1.23817480
v 0.44468597 0.16942644 1.25972557
v -0.44560090 0.16760036 1.26155162
v -0.44560102 -0.22258741 1.26155162
v -0.44560102 -0.22258741 1.23634815
v -0.44560090 0.16760036 1.23634815
v 0.44468597 0.16760007 1.26155198
v 0.44468585 -0.22258770 1.26155198
v 0.44468597 0.16760007 1.23634839
v 0.44468585 -0.22258770 1.23634839
v -0.44560102 -0.22398832 1.23677361
v -0.44560102 -0.22398832 1.26112628
v 0.44468585 -0.22398859 1.23677385
v 0.44468585 -0.22398859 1.26112652
v -0.44560090 0.16900131 1.23677361
v -0.44560090 0.16900131 1.26112628
v 0.44468597 0.16900101 1.23677385
v 0.44468597 0.16900101 1.26112652
v 0.44304910 -0.22483885 0.86579430
v -0.44396326 -0.22483855 0.84410572
v 0.44304910 -0.22483885 0.84410596
v -0.44396326 -0.22483855 0.86579400
v -0.44396314 0.16985279 0.86579400
v 0.44304922 0.16985250 0.86579430
v -0.44396314 0.16985279 0.84410572
v 0.44304922 0.16985250 0.84410596
v -0.44614628 -0.22307238 0.86621088
v -0.44614628 -0.22313684 0.84438074
v -0.44614628 -0.22313684 0.86551893
v -0.44614628 -0.22238052 0.86627531
v -0.44614616 0.16808659 0.86621088
v -0.44614616 0.16739473 0.86627531
v -0.44614616 0.16815105 0.86551893
v -0.44614616 0.16815105 0.84438074
v -0.44614616 0.16808659 0.84368885
v -0.44614616 0.16739473 0.84362441
v -0.44614628 -0.22307238 0.84368885
v -0.44614628 -0.22238052 0.84362441
v 0.44304922 0.16766948 0.86797732
v -0.44396326 -0.22265553 0.86797702
v 0.44304910 -0.22265583 0.86797732
v -0.44396314 0.16766977 0.86797702
v 0.44523206 -0.22307265 0.84368920
v 0.44523206 -0.22313711 0.86551929
v 0.44523206 -0.22313711 0.84438103
v 0.44523206 -0.22238082 0.84362471
v 0.44523218 0.16808629 0.84368920
v 0.44523218 0.16739443 0.84362471
v 0.44523218 0.16815075 0.84438103
v 0.44523218 0.16815075 0.86551929
v 0.44523218 0.16808629 0.86621118
v 0.44523218 0.16739443 0.86627555
v 0.44523206 -0.22307265 0.86621118
v 0.44523206 -0.22238082 0.86627555
v 0.44304910 -0.22265583 0.84192300
v -0.44396326 -0.22265553 0.84192264
v -0.44396314 0.16766977 0.84192264
v 0.44304922 0.16766948 0.84192300
v 0.44304910 -0.22429308 0.84246874
v -0.44396326 -0.22429281 0.84246838
v -0.44396326 -0.22429281 0.86743128
v 0.44304910 -0.22429308 0.86743158
v 0.44304922 0.16930673 0.86743158
v -0.44396314 0.16930702 0.86743128
v -0.44396314 0.16930702 0.84246838
v 0.44304922 0.16930673 0.84246874
v 0.44468632 -0.22441339 0.86572558
v 0.44468632 -0.22441339 0.84417474
v -0.44560054 -0.22441313 0.84417450
v -0.44560054 -0.22441313 0.86572528
v -0.44560042 0.16942737 0.86572528
v -0.44560042 0.16942737 0.84417450
v 0.44468644 0.16942707 0.84417474
v 0.44468644 0.16942707 0.86572558
v -0.44560042 0.16760099 0.86755157
v -0.44560054 -0.22258678 0.86755157
v -0.44560054 -0.22258678 0.84234810
v -0.44560042 0.16760099 0.84234810
v 0.44468644 0.16760069 0.86755192
v 0.44468632 -0.22258708 0.86755192
v 0.44468644 0.16760069 0.84234840
v 0.44468632 -0.22258708 0.84234840
v -0.44560054 -0.22398770 0.84277356
v -0.44560054 -0.22398770 0.86712617
v 0.44468632 -0.22398797 0.84277380
v 0.44468632 -0.22398797 0.86712646
v -0.44560042 0.16900194 0.84277356
v -0.44560042 0.16900194 0.86712617
v 0.44468644 0.16900164 0.84277380
v 0.44468644 0.16900164 0.86712646
v 0.44742286 -0.23803121 2.01710415
v 0.46056819 -0.23803011 0.00218296
v 0.46056819 -0.23803121 2.01710415
v 0.44742286 -0.23803011 0.00218296
v 0.44742286 0.19857138 2.01710439
v 0.46056819 0.19857252 0.00218320
v 0.44742286 0.19857252 0.00218320
v 0.46056819 0.19857138 2.01710439
v 0.44700599 -0.23626393 0.00000000
v 0.46029317 -0.23632839 0.00000000
v 0.44769791 -0.23632839 0.00000000
v 0.44694158 -0.23557207 0.00000000
v 0.44700599 0.19680634 0.00000024
v 0.44694158 0.19611448 0.00000024
v 0.44769791 0.19687080 0.00000024
v 0.46029317 0.19687080 0.00000024
v 0.46098503 0.19680634 0.00000024
v 0.46104950 0.19611448 0.00000024
v 0.46098503 -0.23626393 0.00000000
v 0.46104950 -0.23557207 0.00000000
v 0.44523984 -0.23584822 2.01710415
v 0.44523984 0.19638833 2.01710439
v 0.44523984 -0.23584709 0.00218296
v 0.44523984 0.19638947 0.00218320
v 0.46098503 -0.23626503 2.01928711
v 0.44769791 -0.23632950 2.01928711
v 0.46029317 -0.23632950 2.01928711
v 0.46104950 -0.23557317 2.01928711
v 0.46098503 0.19680521 2.01928735
v 0.46104950 0.19611335 2.01928735
v 0.46029317 0.19686967 2.01928735
v 0.44769791 0.19686967 2.01928735
v 0.44700599 0.19680521 2.01928735
v 0.44694158 0.19611335 2.01928735
v 0.44700599 -0.23626503 2.01928711
v 0.44694158 -0.23557317 2.01928711
v 0.46275121 -0.23584822 2.01710415
v 0.46275121 -0.23584709 0.00218296
v 0.46275121 0.19638947 0.00218320
v 0.46275121 0.19638833 2.01710439
v 0.46220547 -0.23748547 2.01710415
v 0.46220547 -0.23748437 0.00218296
v 0.44578558 -0.23748437 0.00218296
v 0.44578558 -0.23748547 2.01710415
v 0.44578558 0.19802561 2.01710439
v 0.44578558 0.19802675 0.00218320
v 0.46220547 0.19802675 0.00218320
v 0.46220547 0.19802561 2.01710439
v 0.44749159 -0.23760578 2.01874137
v 0.46049944 -0.23760578 2.01874137
v 0.46049944 -0.23760468 0.00054574
v 0.44749159 -0.23760468 0.00054574
v 0.44749159 0.19814709 0.00054598
v 0.46049944 0.19814709 0.00054598
v 0.46049944 0.19814596 2.01874161
v 0.44749159 0.19814596 2.01874161
v 0.44566527 0.19632074 0.00054598
v 0.44566527 -0.23577833 0.00054574
v 0.46232578 -0.23577833 0.00054574
v 0.46232578 0.19632074 0.00054598
v 0.44566527 0.19631961 2.01874161
v 0.44566527 -0.23577946 2.01874137
v 0.46232578 0.19631961 2.01874161
v 0.46232578 -0.23577946 2.01874137
v 0.46190035 -0.23717925 0.00054574
v 0.44609070 -0.23717925 0.00054574
v 0.46190035 -0.23718035 2.01874137
v 0.44609070 -0.23718035 2.01874137
v 0.46190035 0.19772163 0.00054598
v 0.44609070 0.19772163 0.00054598
v 0.46190035 0.19772050 2.01874161
v 0.44609070 0.19772050 2.01874161
v -0.46056819 -0.23803121 2.01710415
v -0.44742286 -0.23803011 0.00218296
v -0.44742286 -0.23803121 2.01710415
v -0.46056819 -0.23803011 0.00218296
v -0.46056819 0.19857138 2.01710439
v -0.44742286 0.19857252 0.00218320
v -0.46056819 0.19857252 0.00218320
v -0.44742286 0.19857138 2.01710439
v -0.46098506 -0.23626393 0.00000000
v -0.44769788 -0.23632839 0.00000000
v -0.46029314 -0.23632839 0.00000000
v -0.46104947 -0.23557207 0.00000000
v -0.46098506 0.19680634 0.00000024
v -0.46104947 0.19611448 0.00000024
v -0.46029314 0.19687080 0.00000024
v -0.44769788 0.19687080 0.00000024
v -0.44700602 0.19680634 0.00000024
v -0.44694155 0.19611448 0.00000024
v -0.44700602 -0.23626393 0.00000000
v -0.44694155 -0.23557207 0.00000000
v -0.46275121 -0.23584822 2.01710415
v -0.46275121 0.19638833 2.01710439
v -0.46275121 -0.23584709 0.00218296
v -0.46275121 0.19638947 0.00218320
v -0.44700602 -0.23626503 2.01928711
v -0.46029314 -0.23632950 2.01928711
v -0.44769788 -0.23632950 2.01928711
v -0.44694155 -0.23557317 2.01928711
v -0.44700602 0.19680521 2.01928735
v -0.44694155 0.19611335 2.01928735
v -0.44769788 0.19686967 2.01928735
v -0.46029314 0.19686967 2.01928735
v -0.46098506 0.19680521 2.01928735
v -0.46104947 0.19611335 2.01928735
v -0.46098506 -0.23626503 2.01928711
v -0.46104947 -0.23557317 2.01928711
v -0.44523984 -0.23584822 2.01710415
v -0.44523984 -0.23584709 0.00218296
v -0.44523984 0.19638947 0.00218320
v -0.44523984 0.19638833 2.01710439
v -0.44578558 -0.23748547 2.01710415
v -0.44578558 -0.23748437 0.00218296
v -0.46220547 -0.23748437 0.00218296
v -0.46220547 -0.23748547 2.01710415
v -0.46220547 0.19802561 2.01710439
v -0.46220547 0.19802675 0.00218320
v -0.44578558 0.19802675 0.00218320
v -0.44578558 0.19802561 2.01710439
v -0.46049947 -0.23760578 2.01874137
v -0.44749162 -0.23760578 2.01874137
v -0.44749162 -0.23760468 0.00054574
v -0.46049947 -0.23760468 0.00054574
v -0.46049947 0.19814709 0.00054598
v -0.44749162 0.19814709 0.00054598
v -0.44749162 0.19814596 2.01874161
v -0.46049947 0.19814596 2.01874161
v -0.46232578 0.19632074 0.00054598
v -0.46232578 -0.23577833 0.00054574
v -0.44566527 -0.23577833 0.00054574
v -0.44566527 0.19632074 0.00054598
v -0.46232578 0.19631961 2.01874161
v -0.46232578 -0.23577946 2.01874137
v -0.44566527 0.19631961 2.01874161
v -0.44566527 -0.23577946 2.01874137
v -0.44609070 -0.23717925 0.00054574
v -0.46190035 -0.23717925 0.00054574
v -0.44609070 -0.23718035 2.01874137
v -0.46190035 -0.23718035 2.01874137
v -0.44609070 0.19772163 0.00054598
v -0.46190035 0.19772163 0.00054598
v -0.44609070 0.19772050 2.01874161
v -0.46190035 0.19772050 2.01874161
v 0.44468477 -0.23803326 1.98841083
v -0.44258970 -0.23803300 1.98786485
v 0.44304755 -0.23803326 1.98786509
v 0.44523051 -0.23803326 1.99004817
v 0.44468477 -0.23803326 2.01843166
v 0.44523051 -0.23803326 2.01679420
v 0.44304755 -0.23803326 2.01897740
v -0.44258973 -0.23803300 2.01897717
v -0.44422698 -0.23803300 2.01843119
v -0.44477272 -0.23803300 2.01679397
v -0.44422695 -0.23803300 1.98841059
v -0.44477272 -0.23803300 1.99004793
v -0.44258958 0.19856963 2.01679397
v 0.44304767 0.19856933 2.01679420
v -0.44258958 0.19856963 1.99004793
v 0.44304767 0.19856933 1.99004817
v -0.44477257 0.19680345 2.01721096
v -0.44477257 0.19611159 2.01727533
v -0.44477257 0.19686791 2.01651907
v -0.44477257 0.19686791 1.99032283
v -0.44477257 0.19680345 1.98963094
v -0.44477257 0.19611159 1.98956656
v 0.44304767 0.19638628 2.01897740
v -0.44258958 0.19638658 2.01897717
v 0.44523063 0.19680315 1.98963118
v 0.44523063 0.19611129 1.98956680
v 0.44523063 0.19686761 1.99032307
v 0.44523063 0.19686761 2.01651931
v 0.44523063 0.19680315 2.01721120
v 0.44523063 0.19611129 2.01727557
v -0.44258958 0.19638658 1.98786485
v 0.44304767 0.19638628 1.98786509
v 0.44304767 0.19802356 2.01843166
v -0.44258958 0.19802386 2.01843119
v -0.44258958 0.19802386 1.98841059
v 0.44304767 0.19802356 1.98841083
v -0.44422683 0.19814420 2.01672530
v -0.44422683 0.19814420 1.99011660
v 0.44468489 0.19814390 1.99011683
v 0.44468489 0.19814390 2.01672554
v -0.44422683 0.19631785 2.01855159
v -0.44422683 0.19631785 1.98829031
v 0.44468489 0.19631755 2.01855183
v 0.44468489 0.19631755 1.98829055
v -0.44422683 0.19771874 1.98871565
v -0.44422683 0.19771874 2.01812625
v 0.44468489 0.19771844 1.98871589
v 0.44468489 0.19771844 2.01812649
vt 0.80450627 0.34982933
vt 0.79755704 0.34659924
vt 0.80450627 0.34659924
vt 0.79755704 0.34982933
vt 0.79842031 0.34982933
vt 0.80536954 0.34659924
vt 0.80536954 0.34982933
vt 0.79842031 0.34659924
vt 0.79755704 0.31696429
vt 0.79755704 0.37896429
vt 0.80450627 0.37896431
vt 0.80450627 0.31696429
vt 0.80166517 0.37896431
vt 0.80126141 0.31696429
vt 0.80126141 0.37896431
vt 0.80166517 0.31696429
vt 0.79842031 0.31696429
vt 0.79842031 0.37896431
vt 0.80536954 0.37896429
vt 0.80536954 0.31696429
vt 0.80126141 0.37896429
vt 0.80166517 0.37896429
vt 0.71013145 0.34123935
vt 0.71013145 0.37946429
vt 0.70231895 0.37946429
vt 0.70231895 0.34123935
vt 0.70244512 0.31696429
vt 0.70231895 0.31696429
vt 0.70246786 0.31696429
vt 0.70244515 0.31696429
vt 0.70246790 0.31696429
vt 0.70535333 0.31696429
vt 0.71013145 0.31696429
vt 0.71000530 0.31696429
vt 0.70998256 0.31696429
vt 0.70709707 0.31696429
vt 0.70709704 0.31696429
vt 0.70231895 0.32229759
vt 0.70709715 0.32731904
vt 0.70709715 0.32229902
vt 0.70231895 0.32229735
vt 0.70231895 0.32731749
vt 0.70709715 0.32731880
vt 0.70535342 0.37946429
vt 0.70535327 0.33229055
vt 0.70535327 0.33731069
vt 0.71013145 0.33730938
vt 0.71013145 0.33228924
vt 0.70709698 0.37946429
vt 0.70709707 0.37946429
vt 0.70535333 0.36373104
vt 0.71013145 0.36875071
vt 0.71013145 0.36373057
vt 0.70535333 0.36875119
vt 0.71013145 0.36875077
vt 0.70535333 0.36373110
vt 0.70535333 0.37946429
vt 0.70709704 0.37946429
vt 0.71013145 0.37185587
vt 0.71013145 0.37185563
vt 0.71013145 0.37677683
vt 0.71013145 0.37677659
vt 0.70231895 0.31947609
vt 0.70231895 0.32439669
vt 0.70231895 0.31947573
vt 0.70231895 0.32439707
vt 0.70231895 0.32167329
vt 0.70501189 0.31696429
vt 0.70439677 0.31696429
vt 0.70978573 0.31696429
vt 0.70817291 0.31773974
vt 0.70836074 0.32418682
vt 0.70781715 0.32187505
vt 0.71013145 0.34464796
vt 0.71013145 0.34792026
vt 0.71013145 0.34136857
vt 0.70231895 0.36602976
vt 0.70231895 0.36195703
vt 0.70231895 0.36102428
vt 0.70231895 0.32653703
vt 0.70231895 0.32560428
vt 0.70231895 0.33060982
vt 0.70604343 0.37946429
vt 0.70669917 0.31696429
vt 0.70608411 0.31696429
vt 0.70819597 0.31696429
vt 0.70807750 0.31696429
vt 0.70853682 0.31696429
vt 0.70434978 0.31782605
vt 0.70500212 0.32189872
vt 0.70439762 0.32283153
vt 0.70231895 0.36980005
vt 0.70231895 0.36959048
vt 0.70231895 0.37383743
vt 0.71013145 0.33366718
vt 0.71013145 0.33780243
vt 0.71013145 0.33135523
vt 0.70335979 0.31696429
vt 0.70317195 0.31696429
vt 0.70371556 0.31696429
vt 0.70632493 0.31696429
vt 0.70666577 0.31696429
vt 0.70678426 0.31696429
vt 0.70426322 0.31696429
vt 0.70365874 0.31696429
vt 0.70361088 0.31696429
vt 0.70585616 0.37946429
vt 0.70520042 0.37946429
vt 0.70581548 0.37946429
vt 0.70231895 0.32426356
vt 0.70231895 0.32947727
vt 0.70231895 0.32926609
vt 0.70530047 0.31696429
vt 0.70590515 0.31696429
vt 0.70586868 0.31696429
vt 0.70423183 0.37946429
vt 0.70337793 0.37946429
vt 0.70385365 0.37711586
vt 0.70630318 0.35648205
vt 0.70576916 0.35893263
vt 0.70545067 0.35551919
vt 0.70506534 0.31696429
vt 0.70554106 0.31696429
vt 0.70591923 0.31696429
vt 0.70231895 0.32885160
vt 0.70231895 0.32981433
vt 0.70231895 0.33226504
vt 0.70589168 0.37946429
vt 0.70527662 0.37946429
vt 0.70532910 0.37911521
vt 0.70382978 0.37003447
vt 0.70326157 0.36485990
vt 0.70386623 0.36578508
vt 0.70294329 0.31696429
vt 0.70246757 0.31696429
vt 0.70447847 0.36545505
vt 0.70362596 0.36449243
vt 0.70415997 0.36204173
vt 0.70641128 0.31696429
vt 0.70702637 0.31696429
vt 0.70697389 0.31696429
vt 0.71013145 0.31892468
vt 0.71013145 0.31892492
vt 0.71013145 0.31892480
vt 0.70231895 0.33911933
vt 0.70231895 0.33507802
vt 0.70231895 0.33507814
vt 0.70248766 0.31696429
vt 0.70310278 0.31696429
vt 0.70310276 0.31696429
vt 0.70248764 0.31696429
vt 0.70279930 0.31696429
vt 0.70341442 0.31696429
vt 0.71013145 0.35830814
vt 0.71013145 0.35538522
vt 0.71013145 0.35402808
vt 0.70494355 0.31696429
vt 0.70441785 0.31696429
vt 0.70480303 0.31696429
vt 0.71013145 0.32911210
vt 0.71013145 0.32768713
vt 0.71013145 0.32500370
vt 0.70819339 0.37946429
vt 0.70836246 0.37946429
vt 0.70844531 0.37946429
vt 0.71013145 0.37605669
vt 0.70231895 0.37748172
vt 0.70983869 0.37946429
vt 0.70998646 0.37946429
vt 0.70403976 0.35976555
vt 0.70395691 0.35573353
vt 0.70420883 0.35553612
vt 0.70718786 0.37946429
vt 0.70733563 0.37946429
vt 0.70769255 0.37946429
vt 0.70651407 0.37946429
vt 0.70637358 0.37946429
vt 0.70689927 0.37946429
vt 0.70231895 0.34833123
vt 0.71013145 0.34691657
vt 0.70231895 0.34631314
vt 0.71013145 0.32018900
vt 0.71013145 0.31958201
vt 0.70876284 0.34984674
vt 0.70886196 0.34583833
vt 0.70936763 0.34717156
vt 0.70478220 0.34270905
vt 0.70453040 0.34250172
vt 0.70512438 0.33967538
vt 0.71013145 0.32551338
vt 0.71013145 0.32150497
vt 0.71013145 0.32283820
vt 0.70998729 0.35665383
vt 0.70973549 0.35644652
vt 0.71013145 0.35362019
vt 0.70930786 0.37644438
vt 0.70894061 0.37176080
vt 0.70932780 0.37442561
vt 0.71013145 0.34306421
vt 0.71013145 0.34039952
vt 0.71013145 0.33838071
vt 0.70700012 0.37946429
vt 0.70649445 0.37946429
vt 0.70709924 0.37946429
vt 0.60708085 0.34123935
vt 0.61220645 0.37946429
vt 0.61220645 0.34123935
vt 0.60708085 0.37946429
vt 0.61220647 0.37946429
vt 0.61489335 0.37946429
vt 0.61489335 0.34123935
vt 0.60976777 0.37946429
vt 0.60976773 0.34123935
vt 0.61489335 0.32922447
vt 0.60986826 0.32904245
vt 0.61489335 0.32904250
vt 0.61489335 0.33124130
vt 0.61489335 0.34204270
vt 0.61489335 0.34002580
vt 0.61489335 0.34222473
vt 0.60986815 0.34223677
vt 0.60961605 0.34205474
vt 0.61489335 0.34223677
vt 0.61489335 0.34222485
vt 0.60961605 0.34204282
vt 0.60959331 0.34002592
vt 0.60986813 0.32904251
vt 0.60959344 0.34002592
vt 0.60961615 0.32922448
vt 0.60986826 0.32904251
vt 0.60959352 0.34002592
vt 0.60959349 0.33124136
vt 0.60961624 0.32922448
vt 0.61011524 0.34083046
vt 0.61489335 0.33043719
vt 0.61011524 0.33043771
vt 0.61011524 0.34083010
vt 0.61489335 0.34082963
vt 0.61489335 0.33043683
vt 0.61235807 0.32922471
vt 0.60708085 0.32904298
vt 0.61210596 0.32904273
vt 0.61238081 0.33124154
vt 0.61235807 0.34204318
vt 0.61238081 0.34002628
vt 0.61210596 0.34222509
vt 0.60708085 0.34222509
vt 0.60708085 0.34204318
vt 0.60708085 0.34002628
vt 0.60708085 0.32922496
vt 0.60708085 0.33124185
vt 0.61185897 0.33043717
vt 0.60708085 0.33043693
vt 0.60708085 0.34082975
vt 0.61185897 0.33043742
vt 0.60708085 0.34082999
vt 0.61185897 0.34083046
vt 0.60708085 0.31696429
vt 0.61185903 0.31696429
vt 0.61489335 0.36474146
vt 0.61489335 0.35972132
vt 0.61011533 0.35972287
vt 0.61489335 0.36474361
vt 0.61011533 0.35972513
vt 0.61011533 0.36474528
vt 0.61011518 0.34401633
vt 0.61011518 0.34903647
vt 0.61489335 0.34903528
vt 0.61489335 0.34401514
vt 0.61185888 0.31696429
vt 0.61185888 0.37946429
vt 0.61185897 0.37946429
vt 0.61185897 0.31696429
vt 0.61011524 0.37946429
vt 0.61011524 0.34599199
vt 0.61489335 0.34599163
vt 0.61011524 0.34097184
vt 0.61489335 0.34097149
vt 0.61185894 0.32562079
vt 0.60708085 0.32060023
vt 0.60708085 0.32562037
vt 0.61185894 0.32060065
vt 0.61221120 0.37946429
vt 0.61221110 0.37946429
vt 0.61218598 0.37946429
vt 0.61489335 0.33129122
vt 0.60979288 0.33621218
vt 0.60976774 0.33129122
vt 0.61489335 0.33621218
vt 0.61489335 0.31696429
vt 0.60976764 0.31696429
vt 0.60979278 0.31696429
vt 0.60708085 0.37323822
vt 0.61218134 0.36831726
vt 0.61220648 0.37323822
vt 0.60708085 0.36831726
vt 0.61489335 0.34062876
vt 0.61489335 0.34002568
vt 0.61489335 0.33124121
vt 0.61489335 0.33063816
vt 0.60725715 0.34002580
vt 0.60708085 0.33063813
vt 0.60725713 0.33124124
vt 0.60708085 0.34062888
vt 0.61103890 0.34062936
vt 0.61042378 0.34083046
vt 0.61042378 0.33043771
vt 0.61103890 0.33063875
vt 0.61037603 0.34062936
vt 0.60987086 0.34002628
vt 0.60987086 0.33124154
vt 0.61037603 0.33063847
vt 0.60708085 0.33252056
vt 0.60708085 0.33579286
vt 0.60708085 0.32924117
vt 0.60708085 0.35089453
vt 0.60708085 0.34996177
vt 0.60708085 0.35496731
vt 0.60946671 0.31696429
vt 0.61012245 0.31696429
vt 0.60950739 0.31696429
vt 0.60929919 0.37946429
vt 0.60965497 0.37946429
vt 0.60984278 0.37946429
vt 0.61060764 0.37533535
vt 0.61125998 0.37940802
vt 0.61065549 0.37946429
vt 0.60744891 0.31696429
vt 0.60748959 0.31696429
vt 0.61336413 0.33013655
vt 0.61300834 0.33427181
vt 0.61282053 0.32782461
vt 0.61361789 0.37946429
vt 0.61373636 0.37946429
vt 0.61327705 0.37946429
vt 0.60768499 0.31696429
vt 0.60802581 0.31696429
vt 0.60814430 0.31696429
vt 0.61023692 0.35668780
vt 0.60963244 0.35762061
vt 0.60958458 0.35261502
vt 0.61194122 0.32897045
vt 0.61128545 0.32493295
vt 0.61190054 0.32472350
vt 0.60708085 0.34896861
vt 0.60725707 0.35418229
vt 0.60708085 0.35397114
vt 0.61153246 0.32454483
vt 0.61213713 0.32547002
vt 0.61210067 0.32971938
vt 0.60708085 0.36911752
vt 0.60708085 0.36823763
vt 0.60708085 0.36511149
vt 0.60770681 0.34242167
vt 0.60717279 0.34487225
vt 0.60708085 0.34145881
vt 0.60745618 0.31696429
vt 0.61198247 0.37946429
vt 0.61136741 0.37946429
vt 0.61141989 0.37946429
vt 0.60977767 0.37946429
vt 0.60920945 0.37946429
vt 0.60981414 0.37946429
vt 0.61115033 0.31696429
vt 0.61067463 0.31696429
vt 0.61029643 0.31696429
vt 0.61263602 0.36350771
vt 0.61178351 0.36254509
vt 0.61231752 0.36009445
vt 0.60708085 0.34922160
vt 0.61487973 0.34400775
vt 0.60708085 0.34421899
vt 0.60708085 0.32455828
vt 0.60708085 0.32363297
vt 0.60708085 0.31938352
vt 0.60982845 0.36780761
vt 0.61044351 0.36801879
vt 0.61039106 0.37302132
vt 0.61489335 0.32272108
vt 0.61489335 0.32789572
vt 0.61489335 0.32697053
vt 0.60711468 0.37946429
vt 0.60708085 0.35421087
vt 0.60708085 0.35016956
vt 0.61218185 0.35016932
vt 0.60708085 0.35422136
vt 0.61218195 0.35017969
vt 0.61210658 0.35422100
vt 0.60986826 0.31696429
vt 0.60979288 0.31696429
vt 0.60986828 0.31696429
vt 0.60979278 0.37946429
vt 0.60979276 0.37946429
vt 0.60986815 0.37946429
vt 0.60708085 0.34765971
vt 0.61210596 0.34361832
vt 0.61218134 0.34765971
vt 0.60708085 0.34361832
vt 0.60708085 0.34082963
vt 0.60708085 0.34062852
vt 0.60708085 0.33063789
vt 0.60708085 0.33043683
vt 0.60879870 0.33043691
vt 0.60941383 0.33063792
vt 0.60941381 0.34062864
vt 0.60879869 0.34082975
vt 0.60895095 0.34062936
vt 0.60895095 0.33063875
vt 0.60945613 0.34002628
vt 0.60945613 0.33124185
vt 0.60708085 0.33063847
vt 0.60708085 0.34083046
vt 0.60708085 0.34062936
vt 0.60708085 0.33043742
vt 0.60811443 0.33883468
vt 0.60828350 0.33460535
vt 0.60836636 0.33863726
vt 0.60708085 0.34411971
vt 0.60708085 0.34269475
vt 0.60708085 0.34001130
vt 0.61489335 0.36506276
vt 0.61489335 0.36363779
vt 0.61489335 0.36095433
vt 0.61200568 0.32057651
vt 0.61198472 0.31855844
vt 0.61251085 0.31997307
vt 0.60708085 0.32266666
vt 0.60708085 0.31974365
vt 0.60708085 0.31838657
vt 0.61489335 0.31847312
vt 0.61489335 0.31827571
vt 0.60775442 0.31696429
vt 0.60761391 0.31696429
vt 0.60813961 0.31696429
vt 0.60711562 0.33275070
vt 0.60708085 0.33133592
vt 0.60709467 0.33073248
vt 0.60958450 0.33509912
vt 0.60973228 0.33081903
vt 0.61008919 0.33374192
vt 0.60708085 0.33304931
vt 0.60708085 0.32876916
vt 0.60741716 0.33169212
vt 0.61374988 0.34453209
vt 0.61366703 0.34050007
vt 0.61391895 0.34030266
vt 0.61489335 0.32314427
vt 0.61489335 0.31903585
vt 0.61489335 0.32046087
vt 0.60806406 0.37946429
vt 0.60753793 0.37946429
vt 0.60804311 0.37946429
vt 0.60708085 0.35680500
vt 0.60708085 0.35619796
vt 0.60708085 0.35209533
vt 0.61116854 0.34821062
vt 0.61080130 0.34352707
vt 0.61118849 0.34619185
vt 0.60850296 0.37946429
vt 0.60860210 0.37946429
vt 0.60910777 0.37946429
vt 0.60708085 0.37649979
vt 0.60708085 0.37629242
vt 0.60708085 0.37346609
vt 0.61263723 0.35923292
vt 0.61273635 0.35522463
vt 0.61324204 0.35655774
vt 0.60966956 0.37946429
vt 0.60941776 0.37946429
vt 0.61001173 0.37946429
vt 0.60708085 0.33074577
vt 0.60708085 0.33013876
vt 0.60708085 0.32603608
vt 0.60708085 0.32169642
vt 0.60708085 0.32036318
vt 0.60708085 0.31768812
vt 0.60737458 0.33096804
vt 0.60771675 0.32793440
vt 0.60796855 0.32814171
vt 0.61315610 0.37946429
vt 0.61276891 0.37946429
vt 0.61278886 0.37946429
vt 0.61489335 0.34100820
vt 0.61489335 0.33629854
vt 0.61489335 0.33690556
vt 0.61489335 0.32708957
vt 0.61489335 0.32442476
vt 0.61489335 0.32240607
vt 0.61489335 0.35684799
vt 0.61489335 0.35551474
vt 0.61489335 0.35283955
vt 0.60708085 0.32691576
vt 0.60708085 0.32388209
vt 0.60708085 0.32408942
vt 0.51184276 0.34123935
vt 0.51696836 0.37946429
vt 0.51696836 0.34123935
vt 0.51184276 0.37946429
vt 0.51696837 0.37946429
vt 0.51965526 0.37946429
vt 0.51965526 0.34123935
vt 0.51452968 0.37946429
vt 0.51452963 0.34123935
vt 0.51965526 0.32922447
vt 0.51463017 0.32904245
vt 0.51965526 0.32904250
vt 0.51965526 0.33124130
vt 0.51965526 0.34204270
vt 0.51965526 0.34002580
vt 0.51965526 0.34222473
vt 0.51463005 0.34223677
vt 0.51437795 0.34205474
vt 0.51965526 0.34223677
vt 0.51965526 0.34222485
vt 0.51437795 0.34204282
vt 0.51435521 0.34002592
vt 0.51463004 0.32904251
vt 0.51435535 0.34002592
vt 0.51437806 0.32922448
vt 0.51463017 0.32904251
vt 0.51435542 0.34002592
vt 0.51435539 0.33124136
vt 0.51437815 0.32922448
vt 0.51487714 0.34083046
vt 0.51965526 0.33043719
vt 0.51487714 0.33043771
vt 0.51487714 0.34083010
vt 0.51965526 0.34082963
vt 0.51965526 0.33043683
vt 0.51711997 0.32922471
vt 0.51184276 0.32904298
vt 0.51686786 0.32904273
vt 0.51714271 0.33124154
vt 0.51711997 0.34204318
vt 0.51714271 0.34002628
vt 0.51686786 0.34222509
vt 0.51184276 0.34222509
vt 0.51184276 0.34204318
vt 0.51184276 0.34002628
vt 0.51184276 0.32922496
vt 0.51184276 0.33124185
vt 0.51662087 0.33043717
vt 0.51184276 0.33043693
vt 0.51184276 0.34082975
vt 0.51662087 0.33043742
vt 0.51184276 0.34082999
vt 0.51662087 0.34083046
vt 0.51184276 0.31696429
vt 0.51662093 0.31696429
vt 0.51965526 0.36474146
vt 0.51965526 0.35972132
vt 0.51487723 0.35972287
vt 0.51965526 0.36474361
vt 0.51487723 0.35972513
vt 0.51487723 0.36474528
vt 0.51487708 0.34401633
vt 0.51487708 0.34903647
vt 0.51965526 0.34903528
vt 0.51965526 0.34401514
vt 0.51662079 0.31696429
vt 0.51662079 0.37946429
vt 0.51662087 0.37946429
vt 0.51662087 0.31696429
vt 0.51487714 0.37946429
vt 0.51487714 0.34599199
vt 0.51965526 0.34599163
vt 0.51487714 0.34097184
vt 0.51965526 0.34097149
vt 0.51662085 0.32562079
vt 0.51184276 0.32060023
vt 0.51184276 0.32562037
vt 0.51662085 0.32060065
vt 0.51697311 0.37946429
vt 0.51697300 0.37946429
vt 0.51694788 0.37946429
vt 0.51965526 0.33129122
vt 0.51455478 0.33621218
vt 0.51452965 0.33129122
vt 0.51965526 0.33621218
vt 0.51965526 0.31696429
vt 0.51452954 0.31696429
vt 0.51455468 0.31696429
vt 0.51184276 0.37323822
vt 0.51694325 0.36831726
vt 0.51696838 0.37323822
vt 0.51184276 0.36831726
vt 0.51965526 0.34062876
vt 0.51965526 0.34002568
vt 0.51965526 0.33124121
vt 0.51965526 0.33063816
vt 0.51201905 0.34002580
vt 0.51184276 0.33063813
vt 0.51201904 0.33124124
vt 0.51184276 0.34062888
vt 0.51580080 0.34062936
vt 0.51518568 0.34083046
vt 0.51518568 0.33043771
vt 0.51580080 0.33063875
vt 0.51513794 0.34062936
vt 0.51463277 0.34002628
vt 0.51463277 0.33124154
vt 0.51513794 0.33063847
vt 0.51184276 0.33252056
vt 0.51184276 0.33579286
vt 0.51184276 0.32924117
vt 0.51184276 0.35089453
vt 0.51184276 0.34996177
vt 0.51184276 0.35496731
vt 0.51422861 0.31696429
vt 0.51488435 0.31696429
vt 0.51426929 0.31696429
vt 0.51406109 0.37946429
vt 0.51441687 0.37946429
vt 0.51460469 0.37946429
vt 0.51536954 0.37533535
vt 0.51602189 0.37940802
vt 0.51541739 0.37946429
vt 0.51221082 0.31696429
vt 0.51225150 0.31696429
vt 0.51812603 0.33013655
vt 0.51777025 0.33427181
vt 0.51758244 0.32782461
vt 0.51837979 0.37946429
vt 0.51849826 0.37946429
vt 0.51803895 0.37946429
vt 0.51244690 0.31696429
vt 0.51278772 0.31696429
vt 0.51290621 0.31696429
vt 0.51499882 0.35668780
vt 0.51439434 0.35762061
vt 0.51434648 0.35261502
vt 0.51670313 0.32897045
vt 0.51604736 0.32493295
vt 0.51666245 0.32472350
vt 0.51184276 0.34896861
vt 0.51201898 0.35418229
vt 0.51184276 0.35397114
vt 0.51629436 0.32454483
vt 0.51689903 0.32547002
vt 0.51686257 0.32971938
vt 0.51184276 0.36911752
vt 0.51184276 0.36823763
vt 0.51184276 0.36511149
vt 0.51246871 0.34242167
vt 0.51193469 0.34487225
vt 0.51184276 0.34145881
vt 0.51221809 0.31696429
vt 0.51674438 0.37946429
vt 0.51612932 0.37946429
vt 0.51618180 0.37946429
vt 0.51453957 0.37946429
vt 0.51397136 0.37946429
vt 0.51457605 0.37946429
vt 0.51591224 0.31696429
vt 0.51543653 0.31696429
vt 0.51505834 0.31696429
vt 0.51739793 0.36350771
vt 0.51654542 0.36254509
vt 0.51707943 0.36009445
vt 0.51184276 0.34922160
vt 0.51964163 0.34400775
vt 0.51184276 0.34421899
vt 0.51184276 0.32455828
vt 0.51184276 0.32363297
vt 0.51184276 0.31938352
vt 0.51459035 0.36780761
vt 0.51520541 0.36801879
vt 0.51515296 0.37302132
vt 0.51965526 0.32272108
vt 0.51965526 0.32789572
vt 0.51965526 0.32697053
vt 0.51187658 0.37946429
vt 0.51184276 0.35421087
vt 0.51184276 0.35016956
vt 0.51694375 0.35016932
vt 0.51184276 0.35422136
vt 0.51694386 0.35017969
vt 0.51686849 0.35422100
vt 0.51463017 0.31696429
vt 0.51455478 0.31696429
vt 0.51463018 0.31696429
vt 0.51455468 0.37946429
vt 0.51455466 0.37946429
vt 0.51463005 0.37946429
vt 0.51184276 0.34765971
vt 0.51686786 0.34361832
vt 0.51694325 0.34765971
vt 0.51184276 0.34361832
vt 0.51184276 0.34082963
vt 0.51184276 0.34062852
vt 0.51184276 0.33063789
vt 0.51184276 0.33043683
vt 0.51356061 0.33043691
vt 0.51417574 0.33063792
vt 0.51417571 0.34062864
vt 0.51356059 0.34082975
vt 0.51371285 0.34062936
vt 0.51371285 0.33063875
vt 0.51421803 0.34002628
vt 0.51421803 0.33124185
vt 0.51184276 0.33063847
vt 0.51184276 0.34083046
vt 0.51184276 0.34062936
vt 0.51184276 0.33043742
vt 0.51287633 0.33883468
vt 0.51304540 0.33460535
vt 0.51312827 0.33863726
vt 0.51184276 0.34411971
vt 0.51184276 0.34269475
vt 0.51184276 0.34001130
vt 0.51965526 0.36506276
vt 0.51965526 0.36363779
vt 0.51965526 0.36095433
vt 0.51676759 0.32057651
vt 0.51674662 0.31855844
vt 0.51727275 0.31997307
vt 0.51184276 0.32266666
vt 0.51184276 0.31974365
vt 0.51184276 0.31838657
vt 0.51965526 0.31847312
vt 0.51965526 0.31827571
vt 0.51251632 0.31696429
vt 0.51237582 0.31696429
vt 0.51290152 0.31696429
vt 0.51187752 0.33275070
vt 0.51184276 0.33133592
vt 0.51185657 0.33073248
vt 0.51434641 0.33509912
vt 0.51449418 0.33081903
vt 0.51485109 0.33374192
vt 0.51184276 0.33304931
vt 0.51184276 0.32876916
vt 0.51217906 0.33169212
vt 0.51851179 0.34453209
vt 0.51842894 0.34050007
vt 0.51868086 0.34030266
vt 0.51965526 0.32314427
vt 0.51965526 0.31903585
vt 0.51965526 0.32046087
vt 0.51282597 0.37946429
vt 0.51229984 0.37946429
vt 0.51280502 0.37946429
vt 0.51184276 0.35680500
vt 0.51184276 0.35619796
vt 0.51184276 0.35209533
vt 0.51593044 0.34821062
vt 0.51556321 0.34352707
vt 0.51595040 0.34619185
vt 0.51326487 0.37946429
vt 0.51336400 0.37946429
vt 0.51386967 0.37946429
vt 0.51184276 0.37649979
vt 0.51184276 0.37629242
vt 0.51184276 0.37346609
vt 0.51739913 0.35923292
vt 0.51749826 0.35522463
vt 0.51800394 0.35655774
vt 0.51443146 0.37946429
vt 0.51417966 0.37946429
vt 0.51477364 0.37946429
vt 0.51184276 0.33074577
vt 0.51184276 0.33013876
vt 0.51184276 0.32603608
vt 0.51184276 0.32169642
vt 0.51184276 0.32036318
vt 0.51184276 0.31768812
vt 0.51213649 0.33096804
vt 0.51247865 0.32793440
vt 0.51273045 0.32814171
vt 0.51791801 0.37946429
vt 0.51753081 0.37946429
vt 0.51755077 0.37946429
vt 0.51965526 0.34100820
vt 0.51965526 0.33629854
vt 0.51965526 0.33690556
vt 0.51965526 0.32708957
vt 0.51965526 0.32442476
vt 0.51965526 0.32240607
vt 0.51965526 0.35684799
vt 0.51965526 0.35551474
vt 0.51965526 0.35283955
vt 0.51184276 0.32691576
vt 0.51184276 0.32388209
vt 0.51184276 0.32408942
vt 0.41660466 0.34123935
vt 0.42173026 0.37946429
vt 0.42173026 0.34123935
vt 0.41660466 0.37946429
vt 0.42173027 0.37946429
vt 0.42441716 0.37946429
vt 0.42441716 0.34123935
vt 0.41929158 0.37946429
vt 0.41929154 0.34123935
vt 0.42441716 0.32922447
vt 0.41939207 0.32904245
vt 0.42441716 0.32904250
vt 0.42441716 0.33124130
vt 0.42441716 0.34204270
vt 0.42441716 0.34002580
vt 0.42441716 0.34222473
vt 0.41939195 0.34223677
vt 0.41913986 0.34205474
vt 0.42441716 0.34223677
vt 0.42441716 0.34222485
vt 0.41913986 0.34204282
vt 0.41911712 0.34002592
vt 0.41939194 0.32904251
vt 0.41911725 0.34002592
vt 0.41913996 0.32922448
vt 0.41939207 0.32904251
vt 0.41911733 0.34002592
vt 0.41911730 0.33124136
vt 0.41914005 0.32922448
vt 0.41963905 0.34083046
vt 0.42441716 0.33043719
vt 0.41963905 0.33043771
vt 0.41963905 0.34083010
vt 0.42441716 0.34082963
vt 0.42441716 0.33043683
vt 0.42188188 0.32922471
vt 0.41660466 0.32904298
vt 0.42162977 0.32904273
vt 0.42190462 0.33124154
vt 0.42188188 0.34204318
vt 0.42190462 0.34002628
vt 0.42162977 0.34222509
vt 0.41660466 0.34222509
vt 0.41660466 0.34204318
vt 0.41660466 0.34002628
vt 0.41660466 0.32922496
vt 0.41660466 0.33124185
vt 0.42138278 0.33043717
vt 0.41660466 0.33043693
vt 0.41660466 0.34082975
vt 0.42138278 0.33043742
vt 0.41660466 0.34082999
vt 0.42138278 0.34083046
vt 0.41660466 0.31696429
vt 0.42138284 0.31696429
vt 0.42441716 0.36474146
vt 0.42441716 0.35972132
vt 0.41963914 0.35972287
vt 0.42441716 0.36474361
vt 0.41963914 0.35972513
vt 0.41963914 0.36474528
vt 0.41963899 0.34401633
vt 0.41963899 0.34903647
vt 0.42441716 0.34903528
vt 0.42441716 0.34401514
vt 0.42138269 0.31696429
vt 0.42138269 0.37946429
vt 0.42138278 0.37946429
vt 0.42138278 0.31696429
vt 0.41963905 0.37946429
vt 0.41963905 0.34599199
vt 0.42441716 0.34599163
vt 0.41963905 0.34097184
vt 0.42441716 0.34097149
vt 0.42138275 0.32562079
vt 0.41660466 0.32060023
vt 0.41660466 0.32562037
vt 0.42138275 0.32060065
vt 0.42173501 0.37946429
vt 0.42173491 0.37946429
vt 0.42170979 0.37946429
vt 0.42441716 0.33129122
vt 0.41931669 0.33621218
vt 0.41929155 0.33129122
vt 0.42441716 0.33621218
vt 0.42441716 0.31696429
vt 0.41929145 0.31696429
vt 0.41931658 0.31696429
vt 0.41660466 0.37323822
vt 0.42170515 0.36831726
vt 0.42173029 0.37323822
vt 0.41660466 0.36831726
vt 0.42441716 0.34062876
vt 0.42441716 0.34002568
vt 0.42441716 0.33124121
vt 0.42441716 0.33063816
vt 0.41678096 0.34002580
vt 0.41660466 0.33063813
vt 0.41678094 0.33124124
vt 0.41660466 0.34062888
vt 0.42056271 0.34062936
vt 0.41994759 0.34083046
vt 0.41994759 0.33043771
vt 0.42056271 0.33063875
vt 0.41989984 0.34062936
vt 0.41939467 0.34002628
vt 0.41939467 0.33124154
vt 0.41989984 0.33063847
vt 0.41660466 0.33252056
vt 0.41660466 0.33579286
vt 0.41660466 0.32924117
vt 0.41660466 0.35089453
vt 0.41660466 0.34996177
vt 0.41660466 0.35496731
vt 0.41899052 0.31696429
vt 0.41964626 0.31696429
vt 0.41903120 0.31696429
vt 0.41882300 0.37946429
vt 0.41917878 0.37946429
vt 0.41936659 0.37946429
vt 0.42013145 0.37533535
vt 0.42078379 0.37940802
vt 0.42017929 0.37946429
vt 0.41697272 0.31696429
vt 0.41701340 0.31696429
vt 0.42288794 0.33013655
vt 0.42253215 0.33427181
vt 0.42234434 0.32782461
vt 0.42314170 0.37946429
vt 0.42326017 0.37946429
vt 0.42280086 0.37946429
vt 0.41720880 0.31696429
vt 0.41754962 0.31696429
vt 0.41766811 0.31696429
vt 0.41976073 0.35668780
vt 0.41915625 0.35762061
vt 0.41910839 0.35261502
vt 0.42146503 0.32897045
vt 0.42080926 0.32493295
vt 0.42142435 0.32472350
vt 0.41660466 0.34896861
vt 0.41678088 0.35418229
vt 0.41660466 0.35397114
vt 0.42105627 0.32454483
vt 0.42166094 0.32547002
vt 0.42162448 0.32971938
vt 0.41660466 0.36911752
vt 0.41660466 0.36823763
vt 0.41660466 0.36511149
vt 0.41723062 0.34242167
vt 0.41669660 0.34487225
vt 0.41660466 0.34145881
vt 0.41697999 0.31696429
vt 0.42150628 0.37946429
vt 0.42089122 0.37946429
vt 0.42094370 0.37946429
vt 0.41930147 0.37946429
vt 0.41873326 0.37946429
vt 0.41933795 0.37946429
vt 0.42067414 0.31696429
vt 0.42019844 0.31696429
vt 0.41982024 0.31696429
vt 0.42215983 0.36350771
vt 0.42130732 0.36254509
vt 0.42184133 0.36009445
vt 0.41660466 0.34922160
vt 0.42440354 0.34400775
vt 0.41660466 0.34421899
vt 0.41660466 0.32455828
vt 0.41660466 0.32363297
vt 0.41660466 0.31938352
vt 0.41935226 0.36780761
vt 0.41996732 0.36801879
vt 0.41991487 0.37302132
vt 0.42441716 0.32272108
vt 0.42441716 0.32789572
vt 0.42441716 0.32697053
vt 0.41663849 0.37946429
vt 0.41660466 0.35421087
vt 0.41660466 0.35016956
vt 0.42170566 0.35016932
vt 0.41660466 0.35422136
vt 0.42170576 0.35017969
vt 0.42163039 0.35422100
vt 0.41939207 0.31696429
vt 0.41931669 0.31696429
vt 0.41939209 0.31696429
vt 0.41931658 0.37946429
vt 0.41931657 0.37946429
vt 0.41939195 0.37946429
vt 0.41660466 0.34765971
vt 0.42162977 0.34361832
vt 0.42170515 0.34765971
vt 0.41660466 0.34361832
vt 0.41660466 0.34082963
vt 0.41660466 0.34062852
vt 0.41660466 0.33063789
vt 0.41660466 0.33043683
vt 0.41832251 0.33043691
vt 0.41893764 0.33063792
vt 0.41893762 0.34062864
vt 0.41832250 0.34082975
vt 0.41847476 0.34062936
vt 0.41847476 0.33063875
vt 0.41897994 0.34002628
vt 0.41897994 0.33124185
vt 0.41660466 0.33063847
vt 0.41660466 0.34083046
vt 0.41660466 0.34062936
vt 0.41660466 0.33043742
vt 0.41763824 0.33883468
vt 0.41780731 0.33460535
vt 0.41789017 0.33863726
vt 0.41660466 0.34411971
vt 0.41660466 0.34269475
vt 0.41660466 0.34001130
vt 0.42441716 0.36506276
vt 0.42441716 0.36363779
vt 0.42441716 0.36095433
vt 0.42152949 0.32057651
vt 0.42150853 0.31855844
vt 0.42203466 0.31997307
vt 0.41660466 0.32266666
vt 0.41660466 0.31974365
vt 0.41660466 0.31838657
vt 0.42441716 0.31847312
vt 0.42441716 0.31827571
vt 0.41727822 0.31696429
vt 0.41713772 0.31696429
vt 0.41766342 0.31696429
vt 0.41663943 0.33275070
vt 0.41660466 0.33133592
vt 0.41661848 0.33073248
vt 0.41910831 0.33509912
vt 0.41925609 0.33081903
vt 0.41961300 0.33374192
vt 0.41660466 0.33304931
vt 0.41660466 0.32876916
vt 0.41694097 0.33169212
vt 0.42327369 0.34453209
vt 0.42319084 0.34050007
vt 0.42344276 0.34030266
vt 0.42441716 0.32314427
vt 0.42441716 0.31903585
vt 0.42441716 0.32046087
vt 0.41758787 0.37946429
vt 0.41706174 0.37946429
vt 0.41756692 0.37946429
vt 0.41660466 0.35680500
vt 0.41660466 0.35619796
vt 0.41660466 0.35209533
vt 0.42069235 0.34821062
vt 0.42032511 0.34352707
vt 0.42071230 0.34619185
vt 0.41802677 0.37946429
vt 0.41812591 0.37946429
vt 0.41863158 0.37946429
vt 0.41660466 0.37649979
vt 0.41660466 0.37629242
vt 0.41660466 0.37346609
vt 0.42216104 0.35923292
vt 0.42226016 0.35522463
vt 0.42276585 0.35655774
vt 0.41919337 0.37946429
vt 0.41894157 0.37946429
vt 0.41953554 0.37946429
vt 0.41660466 0.33074577
vt 0.41660466 0.33013876
vt 0.41660466 0.32603608
vt 0.41660466 0.32169642
vt 0.41660466 0.32036318
vt 0.41660466 0.31768812
vt 0.41689839 0.33096804
vt 0.41724055 0.32793440
vt 0.41749235 0.32814171
vt 0.42267991 0.37946429
vt 0.42229272 0.37946429
vt 0.42231267 0.37946429
vt 0.42441716 0.34100820
vt 0.42441716 0.33629854
vt 0.42441716 0.33690556
vt 0.42441716 0.32708957
vt 0.42441716 0.32442476
vt 0.42441716 0.32240607
vt 0.42441716 0.35684799
vt 0.42441716 0.35551474
vt 0.42441716 0.35283955
vt 0.41660466 0.32691576
vt 0.41660466 0.32388209
vt 0.41660466 0.32408942
vt 0.32136657 0.34123935
vt 0.32649216 0.37946429
vt 0.32649216 0.34123935
vt 0.32136657 0.37946429
vt 0.32649218 0.37946429
vt 0.32917907 0.37946429
vt 0.32917907 0.34123935
vt 0.32405349 0.37946429
vt 0.32405344 0.34123935
vt 0.32917907 0.32922447
vt 0.32415398 0.32904245
vt 0.32917907 0.32904250
vt 0.32917907 0.33124130
vt 0.32917907 0.34204270
vt 0.32917907 0.34002580
vt 0.32917907 0.34222473
vt 0.32415386 0.34223677
vt 0.32390176 0.34205474
vt 0.32917907 0.34223677
vt 0.32917907 0.34222485
vt 0.32390176 0.34204282
vt 0.32387902 0.34002592
vt 0.32415384 0.32904251
vt 0.32387916 0.34002592
vt 0.32390187 0.32922448
vt 0.32415398 0.32904251
vt 0.32387923 0.34002592
vt 0.32387920 0.33124136
vt 0.32390196 0.32922448
vt 0.32440095 0.34083046
vt 0.32917907 0.33043719
vt 0.32440095 0.33043771
vt 0.32440095 0.34083010
vt 0.32917907 0.34082963
vt 0.32917907 0.33043683
vt 0.32664378 0.32922471
vt 0.32136657 0.32904298
vt 0.32639167 0.32904273
vt 0.32666652 0.33124154
vt 0.32664378 0.34204318
vt 0.32666652 0.34002628
vt 0.32639167 0.34222509
vt 0.32136657 0.34222509
vt 0.32136657 0.34204318
vt 0.32136657 0.34002628
vt 0.32136657 0.32922496
vt 0.32136657 0.33124185
vt 0.32614468 0.33043717
vt 0.32136657 0.33043693
vt 0.32136657 0.34082975
vt 0.32614468 0.33043742
vt 0.32136657 0.34082999
vt 0.32614468 0.34083046
vt 0.32136657 0.31696429
vt 0.32614474 0.31696429
vt 0.32917907 0.36474146
vt 0.32917907 0.35972132
vt 0.32440104 0.35972287
vt 0.32917907 0.36474361
vt 0.32440104 0.35972513
vt 0.32440104 0.36474528
vt 0.32440089 0.34401633
vt 0.32440089 0.34903647
vt 0.32917907 0.34903528
vt 0.32917907 0.34401514
vt 0.32614459 0.31696429
vt 0.32614459 0.37946429
vt 0.32614468 0.37946429
vt 0.32614468 0.31696429
vt 0.32440095 0.37946429
vt 0.32440095 0.34599199
vt 0.32917907 0.34599163
vt 0.32440095 0.34097184
vt 0.32917907 0.34097149
vt 0.32614465 0.32562079
vt 0.32136657 0.32060023
vt 0.32136657 0.32562037
vt 0.32614465 0.32060065
vt 0.32649692 0.37946429
vt 0.32649681 0.37946429
vt 0.32647169 0.37946429
vt 0.32917907 0.33129122
vt 0.32407859 0.33621218
vt 0.32405346 0.33129122
vt 0.32917907 0.33621218
vt 0.32917907 0.31696429
vt 0.32405335 0.31696429
vt 0.32407849 0.31696429
vt 0.32136657 0.37323822
vt 0.32646706 0.36831726
vt 0.32649219 0.37323822
vt 0.32136657 0.36831726
vt 0.32917907 0.34062876
vt 0.32917907 0.34002568
vt 0.32917907 0.33124121
vt 0.32917907 0.33063816
vt 0.32154286 0.34002580
vt 0.32136657 0.33063813
vt 0.32154285 0.33124124
vt 0.32136657 0.34062888
vt 0.32532461 0.34062936
vt 0.32470949 0.34083046
vt 0.32470949 0.33043771
vt 0.32532461 0.33063875
vt 0.32466175 0.34062936
vt 0.32415658 0.34002628
vt 0.32415658 0.33124154
vt 0.32466175 0.33063847
vt 0.32136657 0.33252056
vt 0.32136657 0.33579286
vt 0.32136657 0.32924117
vt 0.32136657 0.35089453
vt 0.32136657 0.34996177
vt 0.32136657 0.35496731
vt 0.32375242 0.31696429
vt 0.32440816 0.31696429
vt 0.32379310 0.31696429
vt 0.32358490 0.37946429
vt 0.32394068 0.37946429
vt 0.32412850 0.37946429
vt 0.32489335 0.37533535
vt 0.32554569 0.37940802
vt 0.32494120 0.37946429
vt 0.32173463 0.31696429
vt 0.32177531 0.31696429
vt 0.32764984 0.33013655
vt 0.32729406 0.33427181
vt 0.32710625 0.32782461
vt 0.32790360 0.37946429
vt 0.32802207 0.37946429
vt 0.32756276 0.37946429
vt 0.32197071 0.31696429
vt 0.32231152 0.31696429
vt 0.32243002 0.31696429
vt 0.32452263 0.35668780
vt 0.32391815 0.35762061
vt 0.32387029 0.35261502
vt 0.32622694 0.32897045
vt 0.32557117 0.32493295
vt 0.32618626 0.32472350
vt 0.32136657 0.34896861
vt 0.32154279 0.35418229
vt 0.32136657 0.35397114
vt 0.32581817 0.32454483
vt 0.32642284 0.32547002
vt 0.32638638 0.32971938
vt 0.32136657 0.36911752
vt 0.32136657 0.36823763
vt 0.32136657 0.36511149
vt 0.32199252 0.34242167
vt 0.32145850 0.34487225
vt 0.32136657 0.34145881
vt 0.32174190 0.31696429
vt 0.32626819 0.37946429
vt 0.32565312 0.37946429
vt 0.32570561 0.37946429
vt 0.32406338 0.37946429
vt 0.32349517 0.37946429
vt 0.32409986 0.37946429
vt 0.32543604 0.31696429
vt 0.32496034 0.31696429
vt 0.32458215 0.31696429
vt 0.32692174 0.36350771
vt 0.32606922 0.36254509
vt 0.32660324 0.36009445
vt 0.32136657 0.34922160
vt 0.32916544 0.34400775
vt 0.32136657 0.34421899
vt 0.32136657 0.32455828
vt 0.32136657 0.32363297
vt 0.32136657 0.31938352
vt 0.32411416 0.36780761
vt 0.32472922 0.36801879
vt 0.32467677 0.37302132
vt 0.32917907 0.32272108
vt 0.32917907 0.32789572
vt 0.32917907 0.32697053
vt 0.32140039 0.37946429
vt 0.32136657 0.35421087
vt 0.32136657 0.35016956
vt 0.32646756 0.35016932
vt 0.32136657 0.35422136
vt 0.32646767 0.35017969
vt 0.32639230 0.35422100
vt 0.32415398 0.31696429
vt 0.32407859 0.31696429
vt 0.32415399 0.31696429
vt 0.32407849 0.37946429
vt 0.32407847 0.37946429
vt 0.32415386 0.37946429
vt 0.32136657 0.34765971
vt 0.32639167 0.34361832
vt 0.32646706 0.34765971
vt 0.32136657 0.34361832
vt 0.32136657 0.34082963
vt 0.32136657 0.34062852
vt 0.32136657 0.33063789
vt 0.32136657 0.33043683
vt 0.32308442 0.33043691
vt 0.32369955 0.33063792
vt 0.32369952 0.34062864
vt 0.32308440 0.34082975
vt 0.32323666 0.34062936
vt 0.32323666 0.33063875
vt 0.32374184 0.34002628
vt 0.32374184 0.33124185
vt 0.32136657 0.33063847
vt 0.32136657 0.34083046
vt 0.32136657 0.34062936
vt 0.32136657 0.33043742
vt 0.32240014 0.33883468
vt 0.32256921 0.33460535
vt 0.32265208 0.33863726
vt 0.32136657 0.34411971
vt 0.32136657 0.34269475
vt 0.32136657 0.34001130
vt 0.32917907 0.36506276
vt 0.32917907 0.36363779
vt 0.32917907 0.36095433
vt 0.32629140 0.32057651
vt 0.32627043 0.31855844
vt 0.32679656 0.31997307
vt 0.32136657 0.32266666
vt 0.32136657 0.31974365
vt 0.32136657 0.31838657
vt 0.32917907 0.31847312
vt 0.32917907 0.31827571
vt 0.32204013 0.31696429
vt 0.32189963 0.31696429
vt 0.32242532 0.31696429
vt 0.32140133 0.33275070
vt 0.32136657 0.33133592
vt 0.32138038 0.33073248
vt 0.32387022 0.33509912
vt 0.32401799 0.33081903
vt 0.32437490 0.33374192
vt 0.32136657 0.33304931
vt 0.32136657 0.32876916
vt 0.32170287 0.33169212
vt 0.32803560 0.34453209
vt 0.32795275 0.34050007
vt 0.32820467 0.34030266
vt 0.32917907 0.32314427
vt 0.32917907 0.31903585
vt 0.32917907 0.32046087
vt 0.32234978 0.37946429
vt 0.32182365 0.37946429
vt 0.32232882 0.37946429
vt 0.32136657 0.35680500
vt 0.32136657 0.35619796
vt 0.32136657 0.35209533
vt 0.32545425 0.34821062
vt 0.32508701 0.34352707
vt 0.32547421 0.34619185
vt 0.32278867 0.37946429
vt 0.32288781 0.37946429
vt 0.32339348 0.37946429
vt 0.32136657 0.37649979
vt 0.32136657 0.37629242
vt 0.32136657 0.37346609
vt 0.32692294 0.35923292
vt 0.32702206 0.35522463
vt 0.32752775 0.35655774
vt 0.32395527 0.37946429
vt 0.32370347 0.37946429
vt 0.32429745 0.37946429
vt 0.32136657 0.33074577
vt 0.32136657 0.33013876
vt 0.32136657 0.32603608
vt 0.32136657 0.32169642
vt 0.32136657 0.32036318
vt 0.32136657 0.31768812
vt 0.32166030 0.33096804
vt 0.32200246 0.32793440
vt 0.32225426 0.32814171
vt 0.32744182 0.37946429
vt 0.32705462 0.37946429
vt 0.32707458 0.37946429
vt 0.32917907 0.34100820
vt 0.32917907 0.33629854
vt 0.32917907 0.33690556
vt 0.32917907 0.32708957
vt 0.32917907 0.32442476
vt 0.32917907 0.32240607
vt 0.32917907 0.35684799
vt 0.32917907 0.35551474
vt 0.32917907 0.35283955
vt 0.32136657 0.32691576
vt 0.32136657 0.32388209
vt 0.32136657 0.32408942
vt 0.22612847 0.34123935
vt 0.22814722 0.35518922
vt 0.22814722 0.34123935
vt 0.22612847 0.35518922
vt 0.23394097 0.34123911
vt 0.23192222 0.35518922
vt 0.23394097 0.35518922
vt 0.23192222 0.34123935
vt 0.23394097 0.31696429
vt 0.23202275 0.31696429
vt 0.23202273 0.31696429
vt 0.23202468 0.31696429
vt 0.23177257 0.31696429
vt 0.23177248 0.31696429
vt 0.23174973 0.31696429
vt 0.23202456 0.31696429
vt 0.23174789 0.31696429
vt 0.23177063 0.31696429
vt 0.22916286 0.31696429
vt 0.22916283 0.31696429
vt 0.23090659 0.31696429
vt 0.22829881 0.31696429
vt 0.22612847 0.31696429
vt 0.22804670 0.31696429
vt 0.22832155 0.31696429
vt 0.22804865 0.31696429
vt 0.22804855 0.31696429
vt 0.22916286 0.37946429
vt 0.23090659 0.37946429
vt 0.23090659 0.35260655
vt 0.23090659 0.34758653
vt 0.22916286 0.34758653
vt 0.22916286 0.35260655
vt 0.22916283 0.37043120
vt 0.22916283 0.37545134
vt 0.23090659 0.37545134
vt 0.23090659 0.37043120
vt 0.23090659 0.33791651
vt 0.22916286 0.33289637
vt 0.22916286 0.33791651
vt 0.23090659 0.33289637
vt 0.23090659 0.36352872
vt 0.22916286 0.36352872
vt 0.23090659 0.36854883
vt 0.22916286 0.36854883
vt 0.22916286 0.35101713
vt 0.23090659 0.35603722
vt 0.23090659 0.35101713
vt 0.22916286 0.35603722
vt 0.22612847 0.37185921
vt 0.22814722 0.37185921
vt 0.22612847 0.37678017
vt 0.22812210 0.37678017
vt 0.23394097 0.37185921
vt 0.23194736 0.37678017
vt 0.23192222 0.37185921
vt 0.23394097 0.37678017
vt 0.23394097 0.37946429
vt 0.23192409 0.37946429
vt 0.23192410 0.37946429
vt 0.23194924 0.37946429
vt 0.22612847 0.37946429
vt 0.22812395 0.37946429
vt 0.22814907 0.37946429
vt 0.22812396 0.37946429
vt 0.23207085 0.31696429
vt 0.23156567 0.31696429
vt 0.23156570 0.31696429
vt 0.23207088 0.31696429
vt 0.23350293 0.31696429
vt 0.23008649 0.31696429
vt 0.22947137 0.31696429
vt 0.22947140 0.31696429
vt 0.23008652 0.31696429
vt 0.22656651 0.31696429
vt 0.23394097 0.33092942
vt 0.22612847 0.33737649
vt 0.23394097 0.33506479
vt 0.23394097 0.33305659
vt 0.23394097 0.33632888
vt 0.23394097 0.32977738
vt 0.23143728 0.34768005
vt 0.23078494 0.34360729
vt 0.23138942 0.34267457
vt 0.22973643 0.37946429
vt 0.22912137 0.37946429
vt 0.22908066 0.37946429
vt 0.22769601 0.37946429
vt 0.22835176 0.37946429
vt 0.22773669 0.37946429
vt 0.22834636 0.37946429
vt 0.22870214 0.37809165
vt 0.22888999 0.37946429
vt 0.23394097 0.34374155
vt 0.22612847 0.34781434
vt 0.23394097 0.34874709
vt 0.23171736 0.37946429
vt 0.23233245 0.37946429
vt 0.23237313 0.37946429
vt 0.23172326 0.31696429
vt 0.23136748 0.31696429
vt 0.23117964 0.31696429
vt 0.22612847 0.35303273
vt 0.23394097 0.34658565
vt 0.22612847 0.34889735
vt 0.22612847 0.34316887
vt 0.22612847 0.33989658
vt 0.22612847 0.34644808
vt 0.22928451 0.31696429
vt 0.22868003 0.31696429
vt 0.22863217 0.31696429
vt 0.23098881 0.37946429
vt 0.23033307 0.37946429
vt 0.23094813 0.37946429
vt 0.23145266 0.32060690
vt 0.23201527 0.32582058
vt 0.23140021 0.32560946
vt 0.22612847 0.37478055
vt 0.22612847 0.37570574
vt 0.23394097 0.36512114
vt 0.23394097 0.36757167
vt 0.23390828 0.36415829
vt 0.22612847 0.37854208
vt 0.23103009 0.37246238
vt 0.23041503 0.37225123
vt 0.23046748 0.36724867
vt 0.22882528 0.35899015
vt 0.22825707 0.35381557
vt 0.22886176 0.35474073
vt 0.23394097 0.31804432
vt 0.23394097 0.32117047
vt 0.23394097 0.31716432
vt 0.22612847 0.37522163
vt 0.22612847 0.37425865
vt 0.22612847 0.37180819
vt 0.22960184 0.31696429
vt 0.22903924 0.37946429
vt 0.22965430 0.37946429
vt 0.23181231 0.31696429
vt 0.23120765 0.31696429
vt 0.23124410 0.31696429
vt 0.22805454 0.32966925
vt 0.22866960 0.32988043
vt 0.22861714 0.33488299
vt 0.22616230 0.31696429
vt 0.22612847 0.31892480
vt 0.22812208 0.31696429
vt 0.22612847 0.31892492
vt 0.22804671 0.31892492
vt 0.23202275 0.31892480
vt 0.23194736 0.31696429
vt 0.23202275 0.31892492
vt 0.23394097 0.31892492
vt 0.23194924 0.31696429
vt 0.23194930 0.31696429
vt 0.22804859 0.31696429
vt 0.22812396 0.31696429
vt 0.23059802 0.31696429
vt 0.22998290 0.31696429
vt 0.22998293 0.31696429
vt 0.23059805 0.31696429
vt 0.22799857 0.31696429
vt 0.22850375 0.31696429
vt 0.23394097 0.32193615
vt 0.23394097 0.31901325
vt 0.23394097 0.31765606
vt 0.23020769 0.32441320
vt 0.23037676 0.32018377
vt 0.23045963 0.32421579
vt 0.23297877 0.36879064
vt 0.23295782 0.36677253
vt 0.23348395 0.36818717
vt 0.23183162 0.32569863
vt 0.23130593 0.32427366
vt 0.23169111 0.32159023
vt 0.22818991 0.37946429
vt 0.22816895 0.37946429
vt 0.22869508 0.37946429
vt 0.22837821 0.37946429
vt 0.22823770 0.37946429
vt 0.22876339 0.37946429
vt 0.23190058 0.31696429
vt 0.23137445 0.31696429
vt 0.23187962 0.31696429
vt 0.23394097 0.31976314
vt 0.23394097 0.31840596
vt 0.22612847 0.33820166
vt 0.22612847 0.33416966
vt 0.22612847 0.33397224
vt 0.22969287 0.31696429
vt 0.22961001 0.31696429
vt 0.22986194 0.31696429
vt 0.22711168 0.34887697
vt 0.22658555 0.34746231
vt 0.22709073 0.34685888
vt 0.22705682 0.31696429
vt 0.22655172 0.31696429
vt 0.22669484 0.37946429
vt 0.22661026 0.37946429
vt 0.22624302 0.37946429
vt 0.22663021 0.37946429
vt 0.22612847 0.31867339
vt 0.22860001 0.32250490
vt 0.22869913 0.31849648
vt 0.22920480 0.31982972
vt 0.22612847 0.35510387
vt 0.22612847 0.35489656
vt 0.22612847 0.35207023
vt 0.23394097 0.37561001
vt 0.23394097 0.37092643
vt 0.23394097 0.37359125
vt 0.23137127 0.31696429
vt 0.23086560 0.31696429
vt 0.23147040 0.31696429
vt 0.23394097 0.33391123
vt 0.23394097 0.33087756
vt 0.23394097 0.33108489
vt 0.22612847 0.34431197
vt 0.22612847 0.34164705
vt 0.22612847 0.33962836
vt 0.23337418 0.31696429
vt 0.23301220 0.31696429
vt 0.23351729 0.31696429
vt 0.23382681 0.31696429
vt 0.23343962 0.37946429
vt 0.23345957 0.37946429
vt 0.13089038 0.34123935
vt 0.13290913 0.35518922
vt 0.13290913 0.34123935
vt 0.13089038 0.35518922
vt 0.13870288 0.34123911
vt 0.13668413 0.35518922
vt 0.13870288 0.35518922
vt 0.13668413 0.34123935
vt 0.13870288 0.31696429
vt 0.13678465 0.31696429
vt 0.13678464 0.31696429
vt 0.13678659 0.31696429
vt 0.13653447 0.31696429
vt 0.13653439 0.31696429
vt 0.13651163 0.31696429
vt 0.13678647 0.31696429
vt 0.13650980 0.31696429
vt 0.13653254 0.31696429
vt 0.13392476 0.31696429
vt 0.13392473 0.31696429
vt 0.13566849 0.31696429
vt 0.13306072 0.31696429
vt 0.13089038 0.31696429
vt 0.13280860 0.31696429
vt 0.13308346 0.31696429
vt 0.13281056 0.31696429
vt 0.13281045 0.31696429
vt 0.13392476 0.37946429
vt 0.13566849 0.37946429
vt 0.13566849 0.35260655
vt 0.13566849 0.34758653
vt 0.13392476 0.34758653
vt 0.13392476 0.35260655
vt 0.13392473 0.37043120
vt 0.13392473 0.37545134
vt 0.13566849 0.37545134
vt 0.13566849 0.37043120
vt 0.13566849 0.33791651
vt 0.13392476 0.33289637
vt 0.13392476 0.33791651
vt 0.13566849 0.33289637
vt 0.13566849 0.36352872
vt 0.13392476 0.36352872
vt 0.13566849 0.36854883
vt 0.13392476 0.36854883
vt 0.13392476 0.35101713
vt 0.13566849 0.35603722
vt 0.13566849 0.35101713
vt 0.13392476 0.35603722
vt 0.13089038 0.37185921
vt 0.13290913 0.37185921
vt 0.13089038 0.37678017
vt 0.13288400 0.37678017
vt 0.13870288 0.37185921
vt 0.13670927 0.37678017
vt 0.13668413 0.37185921
vt 0.13870288 0.37678017
vt 0.13870288 0.37946429
vt 0.13668599 0.37946429
vt 0.13668600 0.37946429
vt 0.13671114 0.37946429
vt 0.13089038 0.37946429
vt 0.13288585 0.37946429
vt 0.13291097 0.37946429
vt 0.13288587 0.37946429
vt 0.13683275 0.31696429
vt 0.13632757 0.31696429
vt 0.13632760 0.31696429
vt 0.13683278 0.31696429
vt 0.13826483 0.31696429
vt 0.13484839 0.31696429
vt 0.13423327 0.31696429
vt 0.13423330 0.31696429
vt 0.13484842 0.31696429
vt 0.13132842 0.31696429
vt 0.13870288 0.33092942
vt 0.13089038 0.33737649
vt 0.13870288 0.33506479
vt 0.13870288 0.33305659
vt 0.13870288 0.33632888
vt 0.13870288 0.32977738
vt 0.13619918 0.34768005
vt 0.13554684 0.34360729
vt 0.13615132 0.34267457
vt 0.13449834 0.37946429
vt 0.13388328 0.37946429
vt 0.13384257 0.37946429
vt 0.13245792 0.37946429
vt 0.13311366 0.37946429
vt 0.13249860 0.37946429
vt 0.13310827 0.37946429
vt 0.13346405 0.37809165
vt 0.13365189 0.37946429
vt 0.13870288 0.34374155
vt 0.13089038 0.34781434
vt 0.13870288 0.34874709
vt 0.13647927 0.37946429
vt 0.13709436 0.37946429
vt 0.13713504 0.37946429
vt 0.13648517 0.31696429
vt 0.13612939 0.31696429
vt 0.13594154 0.31696429
vt 0.13089038 0.35303273
vt 0.13870288 0.34658565
vt 0.13089038 0.34889735
vt 0.13089038 0.34316887
vt 0.13089038 0.33989658
vt 0.13089038 0.34644808
vt 0.13404641 0.31696429
vt 0.13344193 0.31696429
vt 0.13339407 0.31696429
vt 0.13575072 0.37946429
vt 0.13509498 0.37946429
vt 0.13571004 0.37946429
vt 0.13621456 0.32060690
vt 0.13677717 0.32582058
vt 0.13616211 0.32560946
vt 0.13089038 0.37478055
vt 0.13089038 0.37570574
vt 0.13870288 0.36512114
vt 0.13870288 0.36757167
vt 0.13867018 0.36415829
vt 0.13089038 0.37854208
vt 0.13579199 0.37246238
vt 0.13517693 0.37225123
vt 0.13522939 0.36724867
vt 0.13358719 0.35899015
vt 0.13301898 0.35381557
vt 0.13362367 0.35474073
vt 0.13870288 0.31804432
vt 0.13870288 0.32117047
vt 0.13870288 0.31716432
vt 0.13089038 0.37522163
vt 0.13089038 0.37425865
vt 0.13089038 0.37180819
vt 0.13436375 0.31696429
vt 0.13380114 0.37946429
vt 0.13441620 0.37946429
vt 0.13657422 0.31696429
vt 0.13596956 0.31696429
vt 0.13600601 0.31696429
vt 0.13281644 0.32966925
vt 0.13343150 0.32988043
vt 0.13337905 0.33488299
vt 0.13092420 0.31696429
vt 0.13089038 0.31892480
vt 0.13288399 0.31696429
vt 0.13089038 0.31892492
vt 0.13280862 0.31892492
vt 0.13678465 0.31892480
vt 0.13670927 0.31696429
vt 0.13678465 0.31892492
vt 0.13870288 0.31892492
vt 0.13671114 0.31696429
vt 0.13671120 0.31696429
vt 0.13281050 0.31696429
vt 0.13288587 0.31696429
vt 0.13535992 0.31696429
vt 0.13474480 0.31696429
vt 0.13474483 0.31696429
vt 0.13535995 0.31696429
vt 0.13276047 0.31696429
vt 0.13326565 0.31696429
vt 0.13870288 0.32193615
vt 0.13870288 0.31901325
vt 0.13870288 0.31765606
vt 0.13496960 0.32441320
vt 0.13513867 0.32018377
vt 0.13522153 0.32421579
vt 0.13774068 0.36879064
vt 0.13771973 0.36677253
vt 0.13824586 0.36818717
vt 0.13659352 0.32569863
vt 0.13606783 0.32427366
vt 0.13645301 0.32159023
vt 0.13295182 0.37946429
vt 0.13293085 0.37946429
vt 0.13345698 0.37946429
vt 0.13314012 0.37946429
vt 0.13299960 0.37946429
vt 0.13352530 0.37946429
vt 0.13666249 0.31696429
vt 0.13613635 0.31696429
vt 0.13664152 0.31696429
vt 0.13870288 0.31976314
vt 0.13870288 0.31840596
vt 0.13089038 0.33820166
vt 0.13089038 0.33416966
vt 0.13089038 0.33397224
vt 0.13445478 0.31696429
vt 0.13437191 0.31696429
vt 0.13462385 0.31696429
vt 0.13187359 0.34887697
vt 0.13134746 0.34746231
vt 0.13185263 0.34685888
vt 0.13181873 0.31696429
vt 0.13131363 0.31696429
vt 0.13145674 0.37946429
vt 0.13137216 0.37946429
vt 0.13100492 0.37946429
vt 0.13139212 0.37946429
vt 0.13089038 0.31867339
vt 0.13336191 0.32250490
vt 0.13346104 0.31849648
vt 0.13396671 0.31982972
vt 0.13089038 0.35510387
vt 0.13089038 0.35489656
vt 0.13089038 0.35207023
vt 0.13870288 0.37561001
vt 0.13870288 0.37092643
vt 0.13870288 0.37359125
vt 0.13613317 0.31696429
vt 0.13562750 0.31696429
vt 0.13623231 0.31696429
vt 0.13870288 0.33391123
vt 0.13870288 0.33087756
vt 0.13870288 0.33108489
vt 0.13089038 0.34431197
vt 0.13089038 0.34164705
vt 0.13089038 0.33962836
vt 0.13813609 0.31696429
vt 0.13777410 0.31696429
vt 0.13827920 0.31696429
vt 0.13858872 0.31696429
vt 0.13820152 0.37946429
vt 0.13822148 0.37946429
vt 0.04321237 0.34600176
vt 0.04341078 0.37946429
vt 0.04341081 0.34123935
vt 0.04261705 0.34758915
vt 0.03565228 0.34600176
vt 0.03565228 0.34758915
vt 0.03565228 0.34123935
vt 0.03565228 0.37946429
vt 0.04321234 0.37946429
vt 0.04261704 0.37946429
vt 0.04346478 0.37946429
vt 0.04346478 0.34123935
vt 0.03650007 0.37946429
vt 0.03650001 0.34123935
vt 0.04346478 0.31696429
vt 0.03650002 0.31696429
vt 0.03660049 0.31696429
vt 0.03634837 0.31696429
vt 0.03634839 0.31696429
vt 0.03632564 0.31696429
vt 0.03649993 0.31696429
vt 0.03868666 0.31696429
vt 0.03868664 0.31696429
vt 0.04276864 0.31696429
vt 0.04261705 0.31696429
vt 0.04279140 0.31696429
vt 0.04251655 0.31696429
vt 0.03565228 0.31696429
vt 0.04251747 0.31696429
vt 0.04251746 0.31696429
vt 0.04043040 0.31696429
vt 0.04043037 0.31696429
vt 0.03868658 0.37043192
vt 0.03868658 0.37545206
vt 0.04346478 0.37545087
vt 0.04346478 0.37043072
vt 0.04043031 0.31696429
vt 0.04043028 0.31696429
vt 0.04043037 0.37946429
vt 0.04346478 0.32339134
vt 0.03649996 0.32339134
vt 0.04346478 0.31847038
vt 0.04346478 0.31845506
vt 0.03650019 0.32337643
vt 0.03652531 0.31845547
vt 0.04259284 0.37946429
vt 0.04261796 0.37946429
vt 0.03828056 0.31696429
vt 0.03761165 0.31696429
vt 0.03823917 0.31696429
vt 0.03961030 0.31696429
vt 0.03899518 0.31696429
vt 0.03899521 0.31696429
vt 0.04310119 0.31696429
vt 0.04061228 0.31696429
vt 0.04010710 0.31696429
vt 0.03994679 0.31696429
vt 0.04281783 0.31696429
vt 0.04214896 0.31696429
vt 0.04277647 0.31696429
vt 0.03825145 0.32571365
vt 0.03890380 0.32978644
vt 0.03829930 0.33071919
vt 0.03565228 0.37696494
vt 0.03565228 0.37675543
vt 0.04233620 0.36441078
vt 0.04198041 0.36854603
vt 0.04179260 0.36209883
vt 0.04256056 0.31696429
vt 0.04267903 0.31696429
vt 0.04221972 0.31696429
vt 0.03565228 0.32373847
vt 0.03565228 0.31729140
vt 0.03565228 0.31960310
vt 0.03748667 0.31696429
vt 0.03782749 0.31696429
vt 0.03794600 0.31921520
vt 0.03880832 0.31696429
vt 0.03820384 0.31696429
vt 0.03815597 0.31696429
vt 0.04051262 0.37946429
vt 0.03985688 0.37946429
vt 0.04047194 0.37946429
vt 0.03817140 0.33089866
vt 0.03769568 0.33402471
vt 0.03731750 0.33001866
vt 0.03967227 0.37946429
vt 0.03881978 0.37946429
vt 0.03935380 0.37946429
vt 0.03888619 0.31799068
vt 0.03950128 0.31820186
vt 0.03944880 0.32320436
vt 0.03568611 0.31696429
vt 0.03652513 0.33981706
vt 0.04346478 0.33577563
vt 0.04346478 0.33981694
vt 0.03652510 0.33981849
vt 0.03660049 0.33577706
vt 0.04346478 0.33577706
vt 0.04259284 0.31696429
vt 0.04105791 0.31696429
vt 0.04168543 0.31696429
vt 0.04167163 0.31696429
vt 0.03642328 0.31696429
vt 0.03642329 0.31696429
vt 0.03703840 0.31696429
vt 0.03752673 0.31696429
vt 0.03756684 0.31696429
vt 0.03803191 0.31696429
vt 0.03592760 0.31696429
vt 0.03851637 0.31696429
vt 0.03914389 0.31696429
vt 0.03565228 0.37761261
vt 0.03565228 0.37903764
vt 0.03822436 0.31696429
vt 0.03837213 0.37946429
vt 0.03872904 0.31696429
vt 0.03565228 0.36103918
vt 0.03565228 0.35700728
vt 0.03565228 0.35680987
vt 0.03730561 0.37946429
vt 0.03745339 0.37946429
vt 0.03781028 0.37946429
vt 0.03663549 0.34887697
vt 0.03610936 0.34746231
vt 0.03661454 0.34685888
vt 0.04196745 0.34396602
vt 0.04158026 0.34130134
vt 0.04160021 0.33928253
f 1/1 2/2 3/3
f 1/1 4/4 2/2
f 5/5 6/6 7/7
f 8/8 6/6 5/5
f 2/9 6/10 8/11
f 3/12 2/9 8/11
f 5/13 3/14 8/15
f 1/16 3/14 5/13
f 1/17 5/18 7/19
f 1/17 7/19 4/20
f 7/21 6/22 4/14
f 4/14 6/22 2/16
f 9/23 10/24 11/23
f 12/24 10/24 9/23
f 13/25 14/26 15/25
f 14/26 16/26 15/25
f 17/27 18/28 19/28
f 20/29 18/28 17/27
f 21/30 20/29 22/31
f 23/28 20/29 21/30
f 23/28 18/28 20/29
f 24/28 25/28 23/28
f 23/28 25/28 26/28
f 23/28 26/28 18/28
f 26/28 27/28 18/28
f 26/28 28/28 27/28
f 29/32 30/33 31/32
f 29/32 32/33 30/33
f 33/33 34/33 35/33
f 36/33 34/33 33/33
f 37/33 36/33 38/33
f 39/33 36/33 37/33
f 39/33 34/33 36/33
f 40/33 41/34 39/33
f 39/33 41/34 42/35
f 39/33 42/35 34/33
f 42/35 43/34 34/33
f 42/35 44/35 43/34
f 45/36 46/28 47/28
f 45/37 47/28 48/37
f 10/38 49/39 11/40
f 10/41 50/42 49/43
f 51/24 12/24 9/44
f 51/24 9/44 52/44
f 53/45 14/46 13/47
f 54/48 53/45 13/47
f 15/25 16/49 55/25
f 16/49 56/49 55/25
f 49/50 50/25 45/50
f 45/50 50/25 46/25
f 52/51 30/52 51/53
f 31/54 30/55 52/56
f 53/32 54/33 29/57
f 29/57 54/33 32/24
f 56/58 47/25 55/25
f 48/58 47/25 56/58
f 9/59 11/60 57/61
f 57/61 11/60 58/62
f 12/63 59/64 10/65
f 12/63 60/66 59/64
f 13/67 15/67 61/28
f 61/28 15/67 62/28
f 14/24 63/24 16/24
f 14/24 64/24 63/24
f 65/28 22/28 20/28
f 65/28 20/28 66/28
f 26/33 67/33 28/33
f 68/33 67/33 26/33
f 69/68 29/69 31/69
f 69/68 31/69 70/68
f 71/33 38/70 36/70
f 71/33 36/70 72/33
f 10/71 73/72 50/73
f 59/74 73/75 10/76
f 30/77 74/78 51/79
f 30/25 66/25 74/25
f 75/80 49/81 45/82
f 75/83 45/84 72/85
f 52/28 9/25 76/28
f 76/86 9/87 57/88
f 47/89 77/90 55/91
f 47/92 68/93 77/94
f 54/95 13/96 78/97
f 78/24 13/24 61/24
f 16/98 79/99 56/100
f 63/101 79/102 16/103
f 80/104 53/105 29/106
f 80/107 29/108 69/109
f 50/110 67/111 46/112
f 50/113 73/114 67/115
f 51/116 60/117 12/118
f 51/119 74/120 60/121
f 58/122 11/123 49/124
f 58/125 49/126 75/127
f 70/128 31/129 52/130
f 70/131 52/132 76/133
f 62/134 15/135 55/28
f 62/136 55/137 77/138
f 54/28 65/28 32/28
f 54/25 78/25 65/25
f 71/139 48/140 56/141
f 71/24 56/25 79/24
f 53/24 64/24 14/24
f 53/24 80/25 64/25
f 34/142 57/33 58/33
f 34/143 58/33 35/144
f 18/25 59/25 60/25
f 19/25 18/25 60/25
f 62/145 23/146 61/145
f 62/145 24/147 23/147
f 64/33 39/33 63/33
f 64/33 40/33 39/33
f 32/28 65/28 66/28
f 32/28 66/28 30/28
f 46/148 67/149 68/150
f 47/151 46/148 68/150
f 69/28 70/28 42/28
f 42/28 70/28 44/28
f 72/152 48/153 71/152
f 72/152 45/153 48/153
f 27/154 73/155 59/156
f 27/33 59/28 18/28
f 66/157 17/158 74/159
f 20/28 17/28 66/28
f 72/160 33/161 75/162
f 36/24 33/24 72/24
f 43/33 76/33 57/33
f 43/163 57/164 34/165
f 77/24 68/166 25/167
f 25/33 68/33 26/33
f 61/168 21/169 78/24
f 61/170 23/171 21/172
f 63/173 37/174 79/175
f 63/28 39/33 37/28
f 80/176 69/177 41/178
f 41/179 69/180 42/181
f 28/182 67/183 73/33
f 28/28 73/28 27/28
f 19/184 60/185 74/186
f 17/187 19/188 74/189
f 35/190 58/191 75/192
f 33/193 35/194 75/195
f 44/33 70/33 76/33
f 44/196 76/197 43/198
f 62/24 77/24 24/24
f 77/24 25/24 24/24
f 78/25 22/25 65/25
f 78/199 21/200 22/201
f 79/28 38/28 71/28
f 79/25 37/25 38/25
f 64/202 80/203 40/204
f 80/24 41/24 40/24
f 81/205 82/206 83/207
f 84/208 82/209 81/205
f 85/210 86/211 87/212
f 86/211 88/213 87/212
f 89/214 90/215 91/216
f 92/217 90/215 89/214
f 93/218 92/217 94/219
f 95/220 92/217 93/218
f 95/220 90/215 92/217
f 96/221 97/222 95/223
f 95/224 97/225 98/226
f 95/220 98/226 90/227
f 98/228 99/229 90/230
f 98/231 100/232 99/233
f 101/234 102/235 103/236
f 101/237 104/238 102/239
f 105/240 106/241 107/242
f 108/243 106/241 105/240
f 109/244 108/243 110/245
f 111/246 108/243 109/244
f 111/246 106/241 108/243
f 112/247 113/248 111/246
f 111/246 113/248 114/249
f 111/246 114/249 106/241
f 114/249 115/250 106/241
f 114/249 116/251 115/250
f 117/252 118/253 119/254
f 117/255 119/256 120/257
f 82/258 121/259 83/259
f 82/258 122/258 121/259
f 123/260 84/261 81/262
f 123/263 81/264 124/265
f 125/266 86/267 85/268
f 126/269 125/266 85/268
f 87/258 88/270 127/208
f 88/270 128/271 127/208
f 121/272 122/208 117/273
f 117/273 122/208 118/258
f 124/274 102/210 123/210
f 103/274 102/210 124/274
f 125/275 126/276 101/277
f 101/277 126/276 104/278
f 128/279 119/280 127/281
f 120/282 119/280 128/279
f 81/208 83/283 129/208
f 129/208 83/284 130/285
f 84/286 131/287 82/288
f 84/286 132/289 131/287
f 85/290 87/291 133/290
f 133/290 87/291 134/292
f 86/293 135/294 88/295
f 86/293 136/296 135/294
f 137/297 94/298 92/299
f 137/297 92/299 138/300
f 98/301 139/302 100/303
f 140/304 139/302 98/301
f 141/305 101/306 103/307
f 141/305 103/307 142/308
f 143/309 110/310 108/311
f 143/309 108/311 144/312
f 82/290 145/290 122/290
f 131/313 145/314 82/315
f 102/208 146/208 123/208
f 102/258 138/258 146/258
f 147/316 121/317 117/318
f 147/319 117/320 144/321
f 124/322 81/323 148/324
f 148/290 81/290 129/290
f 119/325 149/326 127/327
f 119/258 140/328 149/329
f 126/330 85/331 150/332
f 150/333 85/334 133/335
f 88/258 151/258 128/258
f 135/336 151/337 88/338
f 152/339 125/340 101/341
f 152/342 101/343 141/344
f 122/345 139/346 118/347
f 122/348 145/349 139/350
f 123/351 132/352 84/353
f 123/354 146/355 132/356
f 130/258 83/258 121/357
f 130/290 121/290 147/290
f 142/358 103/359 124/360
f 142/361 124/362 148/363
f 134/364 87/365 127/366
f 134/367 127/368 149/369
f 126/370 137/371 104/372
f 126/373 150/374 137/375
f 143/376 120/377 128/378
f 143/379 128/380 151/381
f 125/208 136/208 86/208
f 125/208 152/208 136/382
f 106/383 129/384 130/385
f 106/386 130/387 107/388
f 90/389 131/390 132/290
f 91/290 90/391 132/290
f 134/392 95/210 133/210
f 134/393 96/394 95/210
f 136/395 111/396 135/397
f 136/395 112/398 111/396
f 104/399 137/400 138/401
f 104/399 138/401 102/402
f 118/403 139/404 140/405
f 119/406 118/403 140/405
f 141/407 142/408 114/409
f 114/409 142/408 116/410
f 144/411 120/412 143/413
f 144/411 117/414 120/412
f 99/258 145/258 131/258
f 99/415 131/416 90/417
f 138/418 89/419 146/420
f 92/290 89/290 138/290
f 144/421 105/422 147/423
f 108/424 105/425 144/426
f 115/427 148/428 129/429
f 115/430 129/290 106/431
f 149/432 140/433 97/434
f 97/435 140/436 98/437
f 133/438 93/439 150/440
f 133/208 95/208 93/208
f 135/441 109/442 151/443
f 135/444 111/445 109/446
f 152/447 141/448 113/449
f 113/450 141/451 114/452
f 100/453 139/454 145/455
f 100/456 145/457 99/458
f 91/459 132/460 146/461
f 89/462 91/463 146/464
f 107/465 130/466 147/467
f 105/468 107/469 147/470
f 116/471 142/472 148/473
f 116/210 148/210 115/210
f 134/474 149/475 96/476
f 149/477 97/478 96/479
f 150/290 94/290 137/290
f 150/480 93/481 94/482
f 151/483 110/484 143/485
f 151/486 109/487 110/488
f 136/489 152/490 112/491
f 152/492 113/493 112/494
f 153/495 154/496 155/497
f 156/498 154/499 153/495
f 157/500 158/501 159/502
f 158/501 160/503 159/502
f 161/504 162/505 163/506
f 164/507 162/505 161/504
f 165/508 164/507 166/509
f 167/510 164/507 165/508
f 167/510 162/505 164/507
f 168/511 169/512 167/513
f 167/514 169/515 170/516
f 167/510 170/516 162/517
f 170/518 171/519 162/520
f 170/521 172/522 171/523
f 173/524 174/525 175/526
f 173/527 176/528 174/529
f 177/530 178/531 179/532
f 180/533 178/531 177/530
f 181/534 180/533 182/535
f 183/536 180/533 181/534
f 183/536 178/531 180/533
f 184/537 185/538 183/536
f 183/536 185/538 186/539
f 183/536 186/539 178/531
f 186/539 187/540 178/531
f 186/539 188/541 187/540
f 189/542 190/543 191/544
f 189/545 191/546 192/547
f 154/548 193/549 155/549
f 154/548 194/548 193/549
f 195/550 156/551 153/552
f 195/553 153/554 196/555
f 197/556 158/557 157/558
f 198/559 197/556 157/558
f 159/548 160/560 199/498
f 160/560 200/561 199/498
f 193/562 194/498 189/563
f 189/563 194/498 190/548
f 196/564 174/500 195/500
f 175/564 174/500 196/564
f 197/565 198/566 173/567
f 173/567 198/566 176/568
f 200/569 191/570 199/571
f 192/572 191/570 200/569
f 153/498 155/573 201/498
f 201/498 155/574 202/575
f 156/576 203/577 154/578
f 156/576 204/579 203/577
f 157/580 159/581 205/580
f 205/580 159/581 206/582
f 158/583 207/584 160/585
f 158/583 208/586 207/584
f 209/587 166/588 164/589
f 209/587 164/589 210/590
f 170/591 211/592 172/593
f 212/594 211/592 170/591
f 213/595 173/596 175/597
f 213/595 175/597 214/598
f 215/599 182/600 180/601
f 215/599 180/601 216/602
f 154/580 217/580 194/580
f 203/603 217/604 154/605
f 174/498 218/498 195/498
f 174/548 210/548 218/548
f 219/606 193/607 189/608
f 219/609 189/610 216/611
f 196/612 153/613 220/614
f 220/580 153/580 201/580
f 191/615 221/616 199/617
f 191/548 212/618 221/619
f 198/620 157/621 222/622
f 222/623 157/624 205/625
f 160/548 223/548 200/548
f 207/626 223/627 160/628
f 224/629 197/630 173/631
f 224/632 173/633 213/634
f 194/635 211/636 190/637
f 194/638 217/639 211/640
f 195/641 204/642 156/643
f 195/644 218/645 204/646
f 202/548 155/548 193/647
f 202/580 193/580 219/580
f 214/648 175/649 196/650
f 214/651 196/652 220/653
f 206/654 159/655 199/656
f 206/657 199/658 221/659
f 198/660 209/661 176/662
f 198/663 222/664 209/665
f 215/666 192/667 200/668
f 215/669 200/670 223/671
f 197/498 208/498 158/498
f 197/498 224/498 208/672
f 178/673 201/674 202/675
f 178/676 202/677 179/678
f 162/679 203/680 204/580
f 163/580 162/681 204/580
f 206/682 167/500 205/500
f 206/683 168/684 167/500
f 208/685 183/686 207/687
f 208/685 184/688 183/686
f 176/689 209/690 210/691
f 176/689 210/691 174/692
f 190/693 211/694 212/695
f 191/696 190/693 212/695
f 213/697 214/698 186/699
f 186/699 214/698 188/700
f 216/701 192/702 215/703
f 216/701 189/704 192/702
f 171/548 217/548 203/548
f 171/705 203/706 162/707
f 210/708 161/709 218/710
f 164/580 161/580 210/580
f 216/711 177/712 219/713
f 180/714 177/715 216/716
f 187/717 220/718 201/719
f 187/720 201/580 178/721
f 221/722 212/723 169/724
f 169/725 212/726 170/727
f 205/728 165/729 222/730
f 205/498 167/498 165/498
f 207/731 181/732 223/733
f 207/734 183/735 181/736
f 224/737 213/738 185/739
f 185/740 213/741 186/742
f 172/743 211/744 217/745
f 172/746 217/747 171/748
f 163/749 204/750 218/751
f 161/752 163/753 218/754
f 179/755 202/756 219/757
f 177/758 179/759 219/760
f 188/761 214/762 220/763
f 188/500 220/500 187/500
f 206/764 221/765 168/766
f 221/767 169/768 168/769
f 222/580 166/580 209/580
f 222/770 165/771 166/772
f 223/773 182/774 215/775
f 223/776 181/777 182/778
f 208/779 224/780 184/781
f 224/782 185/783 184/784
f 225/785 226/786 227/787
f 228/788 226/789 225/785
f 229/790 230/791 231/792
f 230/791 232/793 231/792
f 233/794 234/795 235/796
f 236/797 234/795 233/794
f 237/798 236/797 238/799
f 239/800 236/797 237/798
f 239/800 234/795 236/797
f 240/801 241/802 239/803
f 239/804 241/805 242/806
f 239/800 242/806 234/807
f 242/808 243/809 234/810
f 242/811 244/812 243/813
f 245/814 246/815 247/816
f 245/817 248/818 246/819
f 249/820 250/821 251/822
f 252/823 250/821 249/820
f 253/824 252/823 254/825
f 255/826 252/823 253/824
f 255/826 250/821 252/823
f 256/827 257/828 255/826
f 255/826 257/828 258/829
f 255/826 258/829 250/821
f 258/829 259/830 250/821
f 258/829 260/831 259/830
f 261/832 262/833 263/834
f 261/835 263/836 264/837
f 226/838 265/839 227/839
f 226/838 266/838 265/839
f 267/840 228/841 225/842
f 267/843 225/844 268/845
f 269/846 230/847 229/848
f 270/849 269/846 229/848
f 231/838 232/850 271/788
f 232/850 272/851 271/788
f 265/852 266/788 261/853
f 261/853 266/788 262/838
f 268/854 246/790 267/790
f 247/854 246/790 268/854
f 269/855 270/856 245/857
f 245/857 270/856 248/858
f 272/859 263/860 271/861
f 264/862 263/860 272/859
f 225/788 227/863 273/788
f 273/788 227/864 274/865
f 228/866 275/867 226/868
f 228/866 276/869 275/867
f 229/870 231/871 277/870
f 277/870 231/871 278/872
f 230/873 279/874 232/875
f 230/873 280/876 279/874
f 281/877 238/878 236/879
f 281/877 236/879 282/880
f 242/881 283/882 244/883
f 284/884 283/882 242/881
f 285/885 245/886 247/887
f 285/885 247/887 286/888
f 287/889 254/890 252/891
f 287/889 252/891 288/892
f 226/870 289/870 266/870
f 275/893 289/894 226/895
f 246/788 290/788 267/788
f 246/838 282/838 290/838
f 291/896 265/897 261/898
f 291/899 261/900 288/901
f 268/902 225/903 292/904
f 292/870 225/870 273/870
f 263/905 293/906 271/907
f 263/838 284/908 293/909
f 270/910 229/911 294/912
f 294/913 229/914 277/915
f 232/838 295/838 272/838
f 279/916 295/917 232/918
f 296/919 269/920 245/921
f 296/922 245/923 285/924
f 266/925 283/926 262/927
f 266/928 289/929 283/930
f 267/931 276/932 228/933
f 267/934 290/935 276/936
f 274/838 227/838 265/937
f 274/870 265/870 291/870
f 286/938 247/939 268/940
f 286/941 268/942 292/943
f 278/944 231/945 271/946
f 278/947 271/948 293/949
f 270/950 281/951 248/952
f 270/953 294/954 281/955
f 287/956 264/957 272/958
f 287/959 272/960 295/961
f 269/788 280/788 230/788
f 269/788 296/788 280/962
f 250/963 273/964 274/965
f 250/966 274/967 251/968
f 234/969 275/970 276/870
f 235/870 234/971 276/870
f 278/972 239/790 277/790
f 278/973 240/974 239/790
f 280/975 255/976 279/977
f 280/975 256/978 255/976
f 248/979 281/980 282/981
f 248/979 282/981 246/982
f 262/983 283/984 284/985
f 263/986 262/983 284/985
f 285/987 286/988 258/989
f 258/989 286/988 260/990
f 288/991 264/992 287/993
f 288/991 261/994 264/992
f 243/838 289/838 275/838
f 243/995 275/996 234/997
f 282/998 233/999 290/1000
f 236/870 233/870 282/870
f 288/1001 249/1002 291/1003
f 252/1004 249/1005 288/1006
f 259/1007 292/1008 273/1009
f 259/1010 273/870 250/1011
f 293/1012 284/1013 241/1014
f 241/1015 284/1016 242/1017
f 277/1018 237/1019 294/1020
f 277/788 239/788 237/788
f 279/1021 253/1022 295/1023
f 279/1024 255/1025 253/1026
f 296/1027 285/1028 257/1029
f 257/1030 285/1031 258/1032
f 244/1033 283/1034 289/1035
f 244/1036 289/1037 243/1038
f 235/1039 276/1040 290/1041
f 233/1042 235/1043 290/1044
f 251/1045 274/1046 291/1047
f 249/1048 251/1049 291/1050
f 260/1051 286/1052 292/1053
f 260/790 292/790 259/790
f 278/1054 293/1055 240/1056
f 293/1057 241/1058 240/1059
f 294/870 238/870 281/870
f 294/1060 237/1061 238/1062
f 295/1063 254/1064 287/1065
f 295/1066 253/1067 254/1068
f 280/1069 296/1070 256/1071
f 296/1072 257/1073 256/1074
f 297/1075 298/1076 299/1077
f 300/1078 298/1079 297/1075
f 301/1080 302/1081 303/1082
f 302/1081 304/1083 303/1082
f 305/1084 306/1085 307/1086
f 308/1087 306/1085 305/1084
f 309/1088 308/1087 310/1089
f 311/1090 308/1087 309/1088
f 311/1090 306/1085 308/1087
f 312/1091 313/1092 311/1093
f 311/1094 313/1095 314/1096
f 311/1090 314/1096 306/1097
f 314/1098 315/1099 306/1100
f 314/1101 316/1102 315/1103
f 317/1104 318/1105 319/1106
f 317/1107 320/1108 318/1109
f 321/1110 322/1111 323/1112
f 324/1113 322/1111 321/1110
f 325/1114 324/1113 326/1115
f 327/1116 324/1113 325/1114
f 327/1116 322/1111 324/1113
f 328/1117 329/1118 327/1116
f 327/1116 329/1118 330/1119
f 327/1116 330/1119 322/1111
f 330/1119 331/1120 322/1111
f 330/1119 332/1121 331/1120
f 333/1122 334/1123 335/1124
f 333/1125 335/1126 336/1127
f 298/1128 337/1129 299/1129
f 298/1128 338/1128 337/1129
f 339/1130 300/1131 297/1132
f 339/1133 297/1134 340/1135
f 341/1136 302/1137 301/1138
f 342/1139 341/1136 301/1138
f 303/1128 304/1140 343/1078
f 304/1140 344/1141 343/1078
f 337/1142 338/1078 333/1143
f 333/1143 338/1078 334/1128
f 340/1144 318/1080 339/1080
f 319/1144 318/1080 340/1144
f 341/1145 342/1146 317/1147
f 317/1147 342/1146 320/1148
f 344/1149 335/1150 343/1151
f 336/1152 335/1150 344/1149
f 297/1078 299/1153 345/1078
f 345/1078 299/1154 346/1155
f 300/1156 347/1157 298/1158
f 300/1156 348/1159 347/1157
f 301/1160 303/1161 349/1160
f 349/1160 303/1161 350/1162
f 302/1163 351/1164 304/1165
f 302/1163 352/1166 351/1164
f 353/1167 310/1168 308/1169
f 353/1167 308/1169 354/1170
f 314/1171 355/1172 316/1173
f 356/1174 355/1172 314/1171
f 357/1175 317/1176 319/1177
f 357/1175 319/1177 358/1178
f 359/1179 326/1180 324/1181
f 359/1179 324/1181 360/1182
f 298/1160 361/1160 338/1160
f 347/1183 361/1184 298/1185
f 318/1078 362/1078 339/1078
f 318/1128 354/1128 362/1128
f 363/1186 337/1187 333/1188
f 363/1189 333/1190 360/1191
f 340/1192 297/1193 364/1194
f 364/1160 297/1160 345/1160
f 335/1195 365/1196 343/1197
f 335/1128 356/1198 365/1199
f 342/1200 301/1201 366/1202
f 366/1203 301/1204 349/1205
f 304/1128 367/1128 344/1128
f 351/1206 367/1207 304/1208
f 368/1209 341/1210 317/1211
f 368/1212 317/1213 357/1214
f 338/1215 355/1216 334/1217
f 338/1218 361/1219 355/1220
f 339/1221 348/1222 300/1223
f 339/1224 362/1225 348/1226
f 346/1128 299/1128 337/1227
f 346/1160 337/1160 363/1160
f 358/1228 319/1229 340/1230
f 358/1231 340/1232 364/1233
f 350/1234 303/1235 343/1236
f 350/1237 343/1238 365/1239
f 342/1240 353/1241 320/1242
f 342/1243 366/1244 353/1245
f 359/1246 336/1247 344/1248
f 359/1249 344/1250 367/1251
f 341/1078 352/1078 302/1078
f 341/1078 368/1078 352/1252
f 322/1253 345/1254 346/1255
f 322/1256 346/1257 323/1258
f 306/1259 347/1260 348/1160
f 307/1160 306/1261 348/1160
f 350/1262 311/1080 349/1080
f 350/1263 312/1264 311/1080
f 352/1265 327/1266 351/1267
f 352/1265 328/1268 327/1266
f 320/1269 353/1270 354/1271
f 320/1269 354/1271 318/1272
f 334/1273 355/1274 356/1275
f 335/1276 334/1273 356/1275
f 357/1277 358/1278 330/1279
f 330/1279 358/1278 332/1280
f 360/1281 336/1282 359/1283
f 360/1281 333/1284 336/1282
f 315/1128 361/1128 347/1128
f 315/1285 347/1286 306/1287
f 354/1288 305/1289 362/1290
f 308/1160 305/1160 354/1160
f 360/1291 321/1292 363/1293
f 324/1294 321/1295 360/1296
f 331/1297 364/1298 345/1299
f 331/1300 345/1160 322/1301
f 365/1302 356/1303 313/1304
f 313/1305 356/1306 314/1307
f 349/1308 309/1309 366/1310
f 349/1078 311/1078 309/1078
f 351/1311 325/1312 367/1313
f 351/1314 327/1315 325/1316
f 368/1317 357/1318 329/1319
f 329/1320 357/1321 330/1322
f 316/1323 355/1324 361/1325
f 316/1326 361/1327 315/1328
f 307/1329 348/1330 362/1331
f 305/1332 307/1333 362/1334
f 323/1335 346/1336 363/1337
f 321/1338 323/1339 363/1340
f 332/1341 358/1342 364/1343
f 332/1080 364/1080 331/1080
f 350/1344 365/1345 312/1346
f 365/1347 313/1348 312/1349
f 366/1160 310/1160 353/1160
f 366/1350 309/1351 310/1352
f 367/1353 326/1354 359/1355
f 367/1356 325/1357 326/1358
f 352/1359 368/1360 328/1361
f 368/1362 329/1363 328/1364
f 369/1365 370/1366 371/1367
f 372/1368 370/1366 369/1365
f 373/1369 374/1370 375/1371
f 373/1369 376/1372 374/1370
f 377/1373 378/1374 379/1373
f 380/1373 378/1374 377/1373
f 381/1373 380/1373 382/1373
f 383/1373 380/1373 381/1373
f 383/1373 378/1375 380/1373
f 384/1376 385/1377 383/1373
f 383/1373 385/1378 386/1379
f 383/1373 386/1379 378/1380
f 386/1381 387/1382 378/1374
f 386/1381 388/1381 387/1382
f 389/1383 390/1384 391/1385
f 390/1384 392/1385 391/1385
f 393/1386 394/1387 395/1388
f 396/1389 394/1387 393/1386
f 397/1386 396/1389 398/1389
f 399/1388 396/1389 397/1386
f 399/1388 394/1387 396/1389
f 400/1387 401/1387 399/1390
f 399/1391 401/1387 402/1387
f 399/1391 402/1387 394/1387
f 402/1387 403/1387 394/1387
f 402/1387 404/1387 403/1387
f 405/1385 406/1383 407/1383
f 405/1385 407/1383 408/1385
f 370/1392 409/1393 371/1393
f 370/1392 410/1392 409/1393
f 411/1394 372/1395 369/1396
f 411/1394 369/1396 412/1397
f 413/1398 373/1399 375/1400
f 413/1398 375/1400 414/1401
f 376/1402 415/1403 374/1404
f 376/1402 416/1405 415/1403
f 409/1406 410/1407 405/1408
f 405/1408 410/1407 406/1409
f 412/1410 391/1411 411/1412
f 389/1413 391/1411 412/1410
f 413/1384 414/1385 390/1384
f 390/1384 414/1385 392/1385
f 416/1385 407/1392 415/1383
f 408/1393 407/1392 416/1385
f 369/1414 371/1415 417/1416
f 417/1416 371/1415 418/1417
f 372/1418 419/1419 370/1420
f 372/1418 420/1421 419/1419
f 375/1422 374/1423 421/1422
f 421/1422 374/1424 422/1425
f 373/1426 423/1427 376/1428
f 373/1426 424/1426 423/1429
f 425/1430 382/1431 380/1432
f 425/1433 380/1432 426/1433
f 386/1373 427/1434 388/1373
f 428/1434 427/1434 386/1373
f 429/1435 390/1436 389/1437
f 430/1438 429/1435 389/1437
f 431/1439 398/1373 396/1373
f 431/1439 396/1373 432/1439
f 370/1440 433/1441 410/1442
f 419/1443 433/1444 370/1445
f 391/1446 434/1447 411/1448
f 391/1449 426/1450 434/1451
f 435/1373 409/1387 405/1387
f 435/1452 405/1453 432/1454
f 412/1455 369/1456 436/1457
f 436/1422 369/1422 417/1422
f 407/1458 437/1459 415/1460
f 407/1461 428/1462 437/1463
f 414/1464 375/1465 438/1466
f 438/1426 375/1426 421/1426
f 376/1467 439/1468 416/1469
f 423/1470 439/1471 376/1472
f 440/1473 413/1474 390/1475
f 440/1476 390/1477 429/1478
f 410/1479 427/1480 406/1481
f 410/1482 433/1483 427/1426
f 411/1422 420/1422 372/1422
f 411/1484 434/1485 420/1486
f 418/1426 371/1487 409/1426
f 418/1422 409/1422 435/1422
f 430/1488 389/1489 412/1490
f 430/1491 412/1492 436/1493
f 422/1494 374/1495 415/1496
f 422/1497 415/1498 437/1499
f 414/1500 425/1501 392/1502
f 414/1503 438/1504 425/1505
f 431/1506 408/1507 416/1508
f 431/1422 416/1373 439/1373
f 413/1387 424/1387 373/1387
f 413/1387 440/1387 424/1509
f 394/1510 417/1387 418/1511
f 394/1512 418/1511 395/1513
f 378/1514 419/1515 420/1373
f 378/1516 420/1373 379/1517
f 422/1518 383/1373 421/1373
f 422/1519 384/1376 383/1373
f 424/1387 399/1520 423/1521
f 424/1387 400/1387 399/1390
f 392/1522 425/1523 426/1524
f 391/1525 392/1522 426/1524
f 406/1373 427/1373 428/1373
f 406/1373 428/1373 407/1373
f 429/1526 430/1526 402/1527
f 402/1527 430/1526 404/1527
f 432/1387 408/1387 431/1387
f 432/1387 405/1387 408/1387
f 387/1528 433/1529 419/1530
f 387/1531 419/1532 378/1533
f 426/1387 377/1387 434/1387
f 380/1534 377/1535 426/1536
f 432/1537 393/1538 435/1539
f 396/1540 393/1541 432/1542
f 403/1387 436/1426 417/1426
f 403/1422 417/1422 394/1422
f 437/1543 428/1544 385/1545
f 385/1546 428/1547 386/1548
f 421/1549 381/1373 438/1550
f 421/1551 383/1552 381/1553
f 423/1426 397/1426 439/1426
f 423/1554 399/1555 397/1556
f 440/1422 429/1422 401/1422
f 401/1557 429/1558 402/1559
f 388/1560 427/1561 433/1562
f 388/1563 433/1564 387/1565
f 379/1566 420/1387 434/1387
f 377/1373 379/1373 434/1373
f 395/1567 418/1568 435/1569
f 393/1570 395/1571 435/1572
f 404/1387 430/1387 436/1387
f 404/1573 436/1574 403/1575
f 422/1576 437/1577 384/1578
f 437/1579 385/1580 384/1581
f 438/1373 382/1373 425/1373
f 438/1582 381/1583 382/1584
f 439/1585 398/1586 431/1587
f 439/1588 397/1589 398/1590
f 424/1422 440/1422 400/1422
f 440/1426 401/1426 400/1426
f 441/1591 442/1592 443/1593
f 444/1594 442/1592 441/1591
f 445/1595 446/1596 447/1597
f 445/1595 448/1598 446/1596
f 449/1599 450/1600 451/1599
f 452/1599 450/1600 449/1599
f 453/1599 452/1599 454/1599
f 455/1599 452/1599 453/1599
f 455/1599 450/1601 452/1599
f 456/1602 457/1603 455/1599
f 455/1599 457/1604 458/1605
f 455/1599 458/1605 450/1606
f 458/1607 459/1608 450/1600
f 458/1607 460/1607 459/1608
f 461/1609 462/1610 463/1611
f 462/1610 464/1611 463/1611
f 465/1612 466/1613 467/1614
f 468/1615 466/1613 465/1612
f 469/1612 468/1615 470/1615
f 471/1614 468/1615 469/1612
f 471/1614 466/1613 468/1615
f 472/1613 473/1613 471/1616
f 471/1617 473/1613 474/1613
f 471/1617 474/1613 466/1613
f 474/1613 475/1613 466/1613
f 474/1613 476/1613 475/1613
f 477/1611 478/1609 479/1609
f 477/1611 479/1609 480/1611
f 442/1618 481/1619 443/1619
f 442/1618 482/1618 481/1619
f 483/1620 444/1621 441/1622
f 483/1620 441/1622 484/1623
f 485/1624 445/1625 447/1626
f 485/1624 447/1626 486/1627
f 448/1628 487/1629 446/1630
f 448/1628 488/1631 487/1629
f 481/1632 482/1633 477/1634
f 477/1634 482/1633 478/1635
f 484/1636 463/1637 483/1638
f 461/1639 463/1637 484/1636
f 485/1610 486/1611 462/1610
f 462/1610 486/1611 464/1611
f 488/1611 479/1618 487/1609
f 480/1619 479/1618 488/1611
f 441/1640 443/1641 489/1642
f 489/1642 443/1641 490/1643
f 444/1644 491/1645 442/1646
f 444/1644 492/1647 491/1645
f 447/1648 446/1649 493/1648
f 493/1648 446/1650 494/1651
f 445/1652 495/1653 448/1654
f 445/1652 496/1652 495/1655
f 497/1656 454/1657 452/1658
f 497/1659 452/1658 498/1659
f 458/1599 499/1660 460/1599
f 500/1660 499/1660 458/1599
f 501/1661 462/1662 461/1663
f 502/1664 501/1661 461/1663
f 503/1665 470/1599 468/1599
f 503/1665 468/1599 504/1665
f 442/1666 505/1667 482/1668
f 491/1669 505/1670 442/1671
f 463/1672 506/1673 483/1674
f 463/1675 498/1676 506/1677
f 507/1599 481/1613 477/1613
f 507/1678 477/1679 504/1680
f 484/1681 441/1682 508/1683
f 508/1648 441/1648 489/1648
f 479/1684 509/1685 487/1686
f 479/1687 500/1688 509/1689
f 486/1690 447/1691 510/1692
f 510/1652 447/1652 493/1652
f 448/1693 511/1694 488/1695
f 495/1696 511/1697 448/1698
f 512/1699 485/1700 462/1701
f 512/1702 462/1703 501/1704
f 482/1705 499/1706 478/1707
f 482/1708 505/1709 499/1652
f 483/1648 492/1648 444/1648
f 483/1710 506/1711 492/1712
f 490/1652 443/1713 481/1652
f 490/1648 481/1648 507/1648
f 502/1714 461/1715 484/1716
f 502/1717 484/1718 508/1719
f 494/1720 446/1721 487/1722
f 494/1723 487/1724 509/1725
f 486/1726 497/1727 464/1728
f 486/1729 510/1730 497/1731
f 503/1732 480/1733 488/1734
f 503/1648 488/1599 511/1599
f 485/1613 496/1613 445/1613
f 485/1613 512/1613 496/1735
f 466/1736 489/1613 490/1737
f 466/1738 490/1737 467/1739
f 450/1740 491/1741 492/1599
f 450/1742 492/1599 451/1743
f 494/1744 455/1599 493/1599
f 494/1745 456/1602 455/1599
f 496/1613 471/1746 495/1747
f 496/1613 472/1613 471/1616
f 464/1748 497/1749 498/1750
f 463/1751 464/1748 498/1750
f 478/1599 499/1599 500/1599
f 478/1599 500/1599 479/1599
f 501/1752 502/1752 474/1753
f 474/1753 502/1752 476/1753
f 504/1613 480/1613 503/1613
f 504/1613 477/1613 480/1613
f 459/1754 505/1755 491/1756
f 459/1757 491/1758 450/1759
f 498/1613 449/1613 506/1613
f 452/1760 449/1761 498/1762
f 504/1763 465/1764 507/1765
f 468/1766 465/1767 504/1768
f 475/1613 508/1652 489/1652
f 475/1648 489/1648 466/1648
f 509/1769 500/1770 457/1771
f 457/1772 500/1773 458/1774
f 493/1775 453/1599 510/1776
f 493/1777 455/1778 453/1779
f 495/1652 469/1652 511/1652
f 495/1780 471/1781 469/1782
f 512/1648 501/1648 473/1648
f 473/1783 501/1784 474/1785
f 460/1786 499/1787 505/1788
f 460/1789 505/1790 459/1791
f 451/1792 492/1613 506/1613
f 449/1599 451/1599 506/1599
f 467/1793 490/1794 507/1795
f 465/1796 467/1797 507/1798
f 476/1613 502/1613 508/1613
f 476/1799 508/1800 475/1801
f 494/1802 509/1803 456/1804
f 509/1805 457/1806 456/1807
f 510/1599 454/1599 497/1599
f 510/1808 453/1809 454/1810
f 511/1811 470/1812 503/1813
f 511/1814 469/1815 470/1816
f 496/1648 512/1648 472/1648
f 512/1652 473/1652 472/1652
f 513/1817 514/1818 515/1819
f 516/1820 514/1818 513/1817
f 517/1821 516/1820 518/1822
f 519/1823 516/1820 517/1821
f 519/1823 514/1818 516/1820
f 520/1824 521/1824 519/1823
f 519/1823 521/1824 522/1824
f 519/1823 522/1824 514/1818
f 522/1824 523/1825 514/1818
f 522/1824 524/1826 523/1825
f 525/1827 526/1828 527/1829
f 526/1828 528/1830 527/1829
f 529/1831 522/1831 530/1831
f 531/1831 522/1831 529/1831
f 531/1831 524/1832 522/1831
f 532/1833 533/1834 531/1831
f 531/1831 533/1835 534/1836
f 531/1831 534/1836 524/1837
f 519/1838 535/1839 520/1831
f 535/1838 536/1831 520/1831
f 537/1840 516/1841 538/1842
f 539/1843 516/1841 537/1840
f 539/1843 518/1844 516/1841
f 540/1844 541/1844 539/1845
f 539/1846 541/1844 542/1844
f 539/1846 542/1844 518/1844
f 515/1847 514/1844 543/1844
f 515/1848 543/1844 544/1848
f 545/1849 526/1850 525/1851
f 546/1852 545/1849 525/1851
f 527/1844 528/1853 547/1844
f 528/1853 548/1854 547/1844
f 545/1838 546/1831 535/1838
f 535/1838 546/1831 536/1831
f 548/1855 543/1824 547/1824
f 544/1855 543/1824 548/1855
f 525/1856 527/1857 549/1858
f 549/1859 527/1860 550/1861
f 526/1824 551/1862 528/1863
f 526/1824 552/1824 551/1862
f 553/1831 530/1831 522/1831
f 553/1864 522/1865 521/1866
f 534/1844 523/1831 524/1844
f 554/1844 523/1844 534/1844
f 555/1867 535/1868 519/1869
f 517/1831 555/1831 519/1870
f 556/1871 538/1872 516/1873
f 556/1874 516/1875 513/1876
f 543/1877 557/1878 547/1879
f 543/1880 554/1881 557/1824
f 546/1882 525/1883 558/1884
f 558/1885 525/1886 549/1887
f 528/1888 559/1889 548/1890
f 551/1891 559/1892 528/1893
f 560/1894 545/1895 535/1896
f 560/1897 535/1898 555/1899
f 550/1900 527/1901 547/1902
f 550/1903 547/1904 557/1905
f 546/1844 553/1844 536/1844
f 546/1824 558/1824 553/1824
f 556/1906 544/1907 548/1908
f 556/1827 548/1827 559/1827
f 545/1844 552/1844 526/1844
f 545/1844 560/1844 552/1909
f 550/1910 531/1911 549/1912
f 550/1913 532/1914 531/1915
f 552/1844 539/1846 551/1916
f 552/1844 540/1844 539/1845
f 536/1844 553/1844 521/1844
f 536/1844 521/1844 520/1844
f 514/1917 523/1918 554/1919
f 543/1920 514/1921 554/1922
f 555/1923 517/1924 542/1925
f 542/1831 517/1831 518/1831
f 513/1844 544/1926 556/1844
f 513/1927 515/1928 544/1928
f 557/1824 554/1929 533/1930
f 533/1844 554/1844 534/1844
f 549/1931 529/1932 558/1933
f 549/1934 531/1935 529/1936
f 551/1937 537/1938 559/1939
f 551/1831 539/1831 537/1831
f 560/1827 555/1827 541/1827
f 541/1940 555/1941 542/1942
f 550/1824 557/1824 532/1824
f 557/1824 533/1824 532/1824
f 558/1827 530/1827 553/1827
f 558/1943 529/1944 530/1945
f 559/1844 538/1831 556/1844
f 559/1824 537/1827 538/1827
f 552/1827 560/1827 540/1827
f 560/1824 541/1824 540/1824

