# https://github.com/mikedh/trimesh
mtllib material.mtl
usemtl material_0
v -0.30243872 0.28876491 0.50725123
v -0.39717297 0.28896315 0.50480143
v -0.35306912 0.28896313 0.50480143
v -0.30243872 0.28947926 0.50772993
v -0.30243872 0.28976351 0.50514174
v -0.34905969 0.28976354 0.50514174
v -0.44831954 0.28579151 0.51213582
v -0.30243872 0.28711924 0.51187404
v -0.43577508 0.28711924 0.51187404
v -0.45159588 0.28558205 0.51127184
v -0.40048301 0.28088817 0.51128311
v -0.43645950 0.28088817 0.51128311
v -0.32104972 0.28088814 0.51128311
v -0.29320803 0.28558203 0.51127184
v -0.29320803 0.28579148 0.51213582
v -0.43577508 0.28904169 0.49736223
v -0.43577508 0.28908657 0.49669276
v -0.30243872 0.28908654 0.49669276
v -0.37311632 0.28989069 0.50247875
v -0.36509745 0.28993556 0.50012997
v -0.37311632 0.28993556 0.50012997
v -0.43577508 0.28897810 0.50987305
v -0.43577508 0.28947929 0.50772993
v -0.43577508 0.28836846 0.50926343
v -0.38915411 0.28876491 0.50725123
v -0.40519560 0.28996175 0.49847308
v -0.36108802 0.28996175 0.49847308
v -0.30243872 0.28995799 0.49737349
v -0.27871493 0.28880602 0.50755790
v -0.28025214 0.28897434 0.50546716
v -0.27960883 0.28900800 0.50525771
v -0.44172189 0.28993556 0.50026836
v -0.44172563 0.28996178 0.49862642
v -0.45018962 0.28995428 0.49982324
v -0.46047125 0.28845450 0.50943919
v -0.45949884 0.28880608 0.50755790
v -0.46008230 0.28840212 0.50943919
v -0.46066576 0.28042439 0.51216204
v -0.45997386 0.28240667 0.51219193
v -0.46066576 0.28240293 0.51215082
v -0.45882937 0.27616434 0.51222189
v -0.27938443 0.27832241 0.51222189
v -0.45882937 0.27832241 0.51222189
v -0.30243872 0.28818519 0.51118583
v -0.30243872 0.28897810 0.50987305
v -0.27813147 0.28891078 0.50999649
v -0.27871493 0.28940819 0.50799924
v -0.27938816 0.28944933 0.50814884
v -0.46043388 0.28812908 0.51121952
v -0.46008230 0.28891078 0.50999649
v -0.46082283 0.28808046 0.51112972
v -0.46066576 0.28576532 0.51209471
v -0.45997386 0.28578030 0.51213208
v -0.45991775 0.28709681 0.51189647
v -0.27715903 0.28239914 0.51206102
v -0.27692342 0.28042063 0.51192263
v -0.27692342 0.28417947 0.51190394
v -0.28661788 0.27616434 0.51222189
v -0.43577508 0.28950171 0.49599333
v -0.30243872 0.28950171 0.49599333
v -0.30243872 0.28932592 0.49607187
v -0.28741827 0.28982334 0.49779982
v -0.29040665 0.28983084 0.49711166
v -0.29052633 0.28991688 0.49750062
v -0.27922735 0.28908280 0.50509689
v -0.28089171 0.28907906 0.50287897
v -0.28052892 0.28915760 0.50263215
v -0.30243872 0.28989066 0.50247875
v -0.34905969 0.28989069 0.50247875
v -0.43577508 0.28770643 0.51046772
v -0.30243872 0.28770643 0.51046772
v -0.29935685 0.28677887 0.51107366
v -0.27721515 0.28704444 0.51177676
v -0.27715903 0.28574660 0.51201617
v -0.27692342 0.28571291 0.51187778
v -0.45860491 0.28900803 0.50525771
v -0.45732208 0.28907909 0.50287897
v -0.45674984 0.28904169 0.50321561
v -0.45079550 0.28917634 0.49779235
v -0.44780715 0.28917634 0.49711166
v -0.44768744 0.28908657 0.49750062
v -0.43577508 0.28677890 0.51107366
v -0.46082283 0.28777376 0.51061732
v -0.27846810 0.28815897 0.51127558
v -0.27881218 0.28894441 0.51008624
v -0.27777992 0.28812908 0.51121952
v -0.27739094 0.28808044 0.51112972
v -0.27774252 0.28885092 0.50988426
v -0.43577508 0.28991688 0.49669276
v -0.30243872 0.28983084 0.49630380
v -0.43577508 0.28983087 0.49630380
v -0.44469156 0.28908657 0.49709671
v -0.44475141 0.28917634 0.49670770
v -0.44177053 0.28908657 0.49685357
v -0.28264211 0.28987198 0.50085182
v -0.28231296 0.28978596 0.50051519
v -0.28493107 0.28989816 0.49926226
v -0.28730233 0.28967747 0.49756794
v -0.28741827 0.28917629 0.49779235
v -0.29052633 0.28908654 0.49750062
v -0.29040665 0.28917629 0.49711166
v -0.33703136 0.28904166 0.49736223
v -0.40118241 0.28976354 0.50514174
v -0.45797661 0.28944936 0.50249749
v -0.45921832 0.28949050 0.50517543
v -0.45790554 0.28960646 0.50259472
v -0.46060964 0.28679761 0.51113725
v -0.45974567 0.28771393 0.51056126
v -0.45991775 0.28678640 0.51110356
v -0.27922735 0.28961391 0.50534746
v -0.27899545 0.28949050 0.50517543
v -0.28052892 0.28974106 0.50278922
v -0.27750687 0.28875741 0.50974961
v -0.27809033 0.28922867 0.50768508
v -0.27832597 0.28933713 0.50783468
v -0.27754801 0.28559324 0.51132796
v -0.27715903 0.28561195 0.51141023
v -0.27715903 0.27616434 0.51142150
v -0.27739094 0.28777376 0.51061732
v -0.27715903 0.28784482 0.51072208
v -0.27721515 0.28682751 0.51120825
v -0.45590081 0.28916887 0.50043665
v -0.45354824 0.28917261 0.49886204
v -0.45328273 0.28908657 0.49922109
v -0.45557165 0.28987200 0.50085182
v -0.45328273 0.28989819 0.49926226
v -0.45590081 0.28978596 0.50051519
v -0.45940162 0.28894444 0.51008624
v -0.43577508 0.28818519 0.51118583
v -0.43882702 0.28991688 0.49673392
v -0.43883450 0.28983087 0.49634491
v -0.44179295 0.28983087 0.49646462
v -0.44469156 0.28991688 0.49709671
v -0.44177053 0.28991688 0.49685357
v -0.44475141 0.28983087 0.49670770
v -0.27774252 0.28845444 0.50943919
v -0.27832597 0.28886961 0.50748310
v -0.30243872 0.28836843 0.50926343
v -0.29352221 0.28908654 0.49709671
v -0.29644327 0.28908654 0.49685357
v -0.29346236 0.28917629 0.49670770
v -0.29937553 0.28932592 0.49611304
v -0.29937553 0.28950171 0.49603450
v -0.29640587 0.28932592 0.49623274
v -0.45510416 0.28904169 0.50122209
v -0.43577508 0.28902674 0.50226930
v -0.44172563 0.28902674 0.49858152
v -0.36910688 0.28902671 0.50226930
v -0.28211474 0.28964384 0.50030200
v -0.28450472 0.28966626 0.49866753
v -0.28466553 0.28981212 0.49889199
v -0.28231296 0.28916881 0.50043665
v -0.28450472 0.28931842 0.49864885
v -0.28211474 0.28930720 0.50025715
v -0.27760413 0.28707807 0.51185536
v -0.45898645 0.28961394 0.50534746
v -0.45882563 0.28944936 0.50814884
v -0.46043388 0.28773265 0.51057248
v -0.46129038 0.28237674 0.51156737
v -0.46105471 0.27616434 0.51142150
v -0.46129038 0.27616434 0.51157110
v -0.28146396 0.28904166 0.50321561
v -0.35306912 0.28902671 0.49843192
v -0.45079550 0.28982339 0.49779982
v -0.44788195 0.28968126 0.49687979
v -0.45091147 0.28967753 0.49756794
v -0.45354824 0.28981215 0.49889199
v -0.45370911 0.28966629 0.49866753
v -0.29644327 0.28991688 0.49685357
v -0.29346236 0.28983084 0.49670770
v -0.29642082 0.28983084 0.49646462
v -0.30243872 0.28991688 0.49669276
v -0.46099865 0.28704444 0.51177676
v -0.44179295 0.28917634 0.49646462
v -0.43577508 0.28917634 0.49630380
v -0.43577508 0.28932595 0.49607187
v -0.46136892 0.28238422 0.51174313
v -0.46129038 0.28239172 0.51191515
v -0.46136892 0.28567554 0.51171323
v -0.46123053 0.28699209 0.51164590
v -0.46105471 0.28574660 0.51201617
v -0.27777992 0.28773259 0.51057248
v -0.27813147 0.28840209 0.50943919
v -0.27750687 0.28854422 0.50950652
v -0.45796166 0.28973361 0.50581127
v -0.45674984 0.28986450 0.50343253
v -0.45860491 0.28969248 0.50557186
v -0.45448701 0.28991688 0.50198131
v -0.45255708 0.28994307 0.50069101
v -0.45510416 0.28991314 0.50133432
v -0.45988779 0.28886964 0.50748310
v -0.46047125 0.28885092 0.50988426
v -0.45988779 0.28933716 0.50783468
v -0.46012346 0.28922869 0.50768508
v -0.27823996 0.28578024 0.51213208
v -0.27754801 0.28576529 0.51209471
v -0.27823996 0.27616434 0.51220688
v -0.27823996 0.28240664 0.51219193
v -0.46105471 0.28800940 0.51100259
v -0.46099865 0.28682751 0.51120825
v -0.29640213 0.28950171 0.49615420
v -0.29341372 0.28950171 0.49639729
v -0.29342496 0.28932592 0.49647583
v -0.29033185 0.28932592 0.49687979
v -0.29030940 0.28950171 0.49680125
v -0.28730233 0.28932218 0.49756421
v -0.44480005 0.28950171 0.49639729
v -0.44478884 0.28968126 0.49647583
v -0.44181170 0.28950171 0.49615420
v -0.44790437 0.28950171 0.49680125
v -0.45796166 0.28897437 0.50546716
v -0.28089171 0.28982334 0.50307348
v -0.28025214 0.28973359 0.50581127
v -0.43577508 0.28968126 0.49607187
v -0.30243872 0.28968124 0.49607187
v -0.44180796 0.28968126 0.49623274
v -0.43883823 0.28968126 0.49611304
v -0.43883823 0.28950171 0.49603450
v -0.27698324 0.28699206 0.51164590
v -0.27698324 0.28687612 0.51133543
v -0.46129038 0.27616434 0.51192636
v -0.46105471 0.28042063 0.51207223
v -0.45949884 0.28940822 0.50799924
v -0.45616264 0.28947555 0.50021598
v -0.45609905 0.28930723 0.50025715
v -0.29646943 0.28904166 0.49751936
v -0.28358463 0.28902669 0.50383270
v -0.29074699 0.28902669 0.49918746
v -0.28565666 0.28902669 0.50060867
v -0.45462914 0.28902674 0.50383270
v -0.45255708 0.28902674 0.50060867
v -0.44746678 0.28902674 0.49918746
v -0.44174431 0.28904169 0.49751936
v -0.44831954 0.28421690 0.51218072
v -0.37311632 0.28421690 0.51218072
v -0.45997386 0.28042436 0.51220315
v -0.29937927 0.28983084 0.49634491
v -0.46066576 0.28559327 0.51132796
v -0.45997386 0.28558579 0.51128685
v -0.29642082 0.28917632 0.49646462
v -0.29937927 0.28917632 0.49634491
v -0.30243872 0.28917632 0.49630380
v -0.28466553 0.28917255 0.49886204
v -0.28761277 0.28908654 0.49817388
v -0.45060099 0.28908657 0.49817388
v -0.44186028 0.28897810 0.50989921
v -0.44497207 0.28818519 0.51121205
v -0.27960883 0.28969245 0.50557186
v -0.28146396 0.28986450 0.50343253
v -0.45293862 0.28993933 0.49983824
v -0.44768744 0.28991688 0.49750062
v -0.44780715 0.28983087 0.49711166
v -0.28783344 0.28995425 0.49882466
v -0.28761277 0.28991311 0.49818509
v -0.29065351 0.28995799 0.49816641
v -0.28527515 0.28993930 0.49983824
v -0.43883823 0.28932595 0.49611304
v -0.29635349 0.28897810 0.50989921
v -0.29338756 0.28947926 0.50785711
v -0.45130416 0.28836846 0.50945788
v -0.44482621 0.28876491 0.50737835
v -0.44813625 0.28836846 0.50938682
v -0.45147624 0.28770646 0.51054626
v -0.28673759 0.28770643 0.51054626
v -0.28132183 0.28770643 0.51057995
v -0.28664781 0.28677887 0.51109234
v -0.28401848 0.28836843 0.50951400
v -0.29937553 0.28968124 0.49611304
v -0.45898645 0.28908283 0.50509689
v -0.45921832 0.28920251 0.50504078
v -0.45768488 0.28915763 0.50263215
v -0.45159588 0.28241041 0.51220688
v -0.30926074 0.28241038 0.51220688
v -0.27938443 0.28042436 0.51221815
v -0.27938443 0.28240664 0.51220688
v -0.28030825 0.28928852 0.50250871
v -0.27899545 0.28920251 0.50504078
v -0.46123053 0.28687615 0.51133543
v -0.46105471 0.28561195 0.51141023
v -0.27692342 0.28564185 0.51154862
v -0.27692342 0.28237672 0.51156737
v -0.44497207 0.28770646 0.51049394
v -0.44499829 0.28677890 0.51107740
v -0.45591202 0.28987574 0.50385138
v -0.27892064 0.28934463 0.50507068
v -0.28023719 0.28944933 0.50249749
v -0.28030825 0.28960641 0.50259472
v -0.28720134 0.28876491 0.50764392
v -0.28441868 0.28876491 0.50775988
v -0.28754545 0.28896313 0.50544094
v -0.27754801 0.27616434 0.51216204
v -0.27715903 0.27616434 0.51207602
v -0.29633107 0.28818519 0.51119704
v -0.44174431 0.28995802 0.49753057
v -0.43577508 0.28995802 0.49737349
v -0.27715903 0.28800937 0.51100259
v -0.46113330 0.28792713 0.51085673
v -0.46078172 0.28864897 0.50961496
v -0.45732208 0.28982339 0.50307348
v -0.45768488 0.28974112 0.50278922
v -0.28310961 0.28904166 0.50122209
v -0.28493107 0.28908654 0.49922109
v -0.46032165 0.28088817 0.51130180
v -0.45997386 0.28088817 0.51129059
v -0.46070692 0.28875744 0.50974961
v -0.27829605 0.28709679 0.51189647
v -0.46060964 0.28707813 0.51185536
v -0.45974567 0.28815903 0.51127558
v -0.27829605 0.28678634 0.51110356
v -0.27760413 0.28679755 0.51113725
v -0.27823996 0.28558576 0.51128685
v -0.45790554 0.28928852 0.50250871
v -0.45101243 0.28876491 0.50764392
v -0.45066832 0.28896315 0.50544094
v -0.29648814 0.28996173 0.49862642
v -0.29646943 0.28995799 0.49753057
v -0.29352221 0.28991688 0.49709671
v -0.33301819 0.28902671 0.49843192
v -0.34104080 0.28902671 0.50226930
v -0.28277677 0.28896313 0.50577758
v -0.44482621 0.28947929 0.50785711
v -0.43577508 0.28976354 0.50514174
v -0.28230174 0.28987571 0.50385138
v -0.28372675 0.28991685 0.50198131
v -0.28310961 0.28991311 0.50133432
v -0.28565666 0.28994304 0.50069101
v -0.28132183 0.28817769 0.51130553
v -0.28401848 0.28897434 0.51012741
v -0.28673759 0.28818516 0.51126437
v -0.28664781 0.28711924 0.51189273
v -0.27938443 0.28558203 0.51127184
v -0.44463176 0.28902674 0.50254982
v -0.45379512 0.28876491 0.50775988
v -0.45543706 0.28896315 0.50577758
v -0.44824474 0.28818519 0.51123447
v -0.44491602 0.28897810 0.50993664
v -0.44830085 0.28711924 0.51188526
v -0.46129038 0.28564191 0.51154862
v -0.28996906 0.28770643 0.51052010
v -0.29007752 0.28836843 0.50938682
v -0.28690961 0.28836843 0.50945788
v -0.29026079 0.28876491 0.50750553
v -0.46129038 0.28571297 0.51187778
v -0.46105471 0.28419447 0.51204607
v -0.45038033 0.28904169 0.49880219
v -0.44756026 0.28904169 0.49815514
v -0.29065351 0.28904166 0.49815514
v -0.28783344 0.28904166 0.49880219
v -0.45861244 0.28817398 0.51130180
v -0.45828328 0.28896315 0.51014236
v -0.29938675 0.28908654 0.49673392
v -0.38915411 0.28989069 0.50247875
v -0.45095257 0.28949797 0.49748940
v -0.44788195 0.28932595 0.49687979
v -0.44180796 0.28932595 0.49623274
v -0.44478884 0.28932595 0.49647583
v -0.29033185 0.28968124 0.49687979
v -0.28726119 0.28949797 0.49748940
v -0.29640587 0.28968124 0.49623274
v -0.29342496 0.28968124 0.49647583
v -0.46012346 0.28897437 0.50749058
v -0.46019827 0.28910154 0.50756538
v -0.27809033 0.28897434 0.50749058
v -0.27801553 0.28910149 0.50756538
v -0.45376143 0.28949050 0.49858526
v -0.45091147 0.28932221 0.49756421
v -0.45370911 0.28931847 0.49864885
v -0.28445234 0.28949050 0.49858526
v -0.29358204 0.28902669 0.50254982
v -0.27754801 0.28420563 0.51212834
v -0.27823996 0.28420939 0.51216951
v -0.27754801 0.28240288 0.51215082
v -0.28205115 0.28947552 0.50021598
v -0.45609905 0.28964384 0.50030200
v -0.44472151 0.28896315 0.50500335
v -0.46130907 0.28693226 0.51148877
v -0.27743207 0.28864895 0.50961496
v -0.45038033 0.28995428 0.49882466
v -0.44756026 0.28995804 0.49816641
v -0.45060099 0.28991314 0.49818509
v -0.45882937 0.28240667 0.51220688
v -0.45882937 0.28042436 0.51221815
v -0.27690470 0.28693221 0.51148877
v -0.27708049 0.28792710 0.51085673
v -0.34104080 0.28993556 0.50012997
v -0.46070692 0.28854425 0.50950652
v -0.45379512 0.28947929 0.50823859
v -0.45066832 0.28975980 0.50578131
v -0.45328646 0.28975980 0.50601319
v -0.45273290 0.28988322 0.50383270
v -0.45659650 0.28897063 0.51016104
v -0.45610279 0.28947181 0.50829844
v -0.27684488 0.28567554 0.51171323
v -0.27684488 0.28041689 0.51174687
v -0.27960135 0.28817395 0.51130180
v -0.27943678 0.28710802 0.51190768
v -0.27993048 0.28896313 0.51014236
v -0.28161730 0.28897060 0.51016104
v -0.28211101 0.28947178 0.50829844
v -0.28492733 0.28975977 0.50601319
v -0.28548087 0.28988319 0.50383270
v -0.28754545 0.28975977 0.50578131
v -0.28441868 0.28947926 0.50823859
v -0.44463176 0.28989072 0.50275927
v -0.43883450 0.28917634 0.49634491
v -0.28047657 0.28946805 0.50825733
v -0.28277677 0.28975227 0.50612916
v -0.45543706 0.28975233 0.50612916
v -0.45773720 0.28946807 0.50825733
v -0.27846810 0.28771391 0.51056126
v -0.29358204 0.28989066 0.50275927
v -0.29649188 0.28993556 0.50026836
v -0.29349229 0.28976351 0.50534372
v -0.28117597 0.28677887 0.51109982
v -0.28661788 0.28558203 0.51127184
v -0.45929312 0.28934463 0.50507068
v -0.46105471 0.28784482 0.51072208
v -0.38113521 0.28993556 0.50012997
v -0.28661788 0.28579148 0.51213582
v -0.27684488 0.28416078 0.51173192
v -0.28264211 0.28908280 0.50075454
v -0.28527515 0.28904166 0.49978586
v -0.45557165 0.28908283 0.50075454
v -0.45293862 0.28904169 0.49978586
v -0.28802418 0.28995425 0.49982324
v -0.46066576 0.27616434 0.51133170
v -0.46086774 0.28074605 0.51137660
v -0.45695182 0.28974859 0.50603193
v -0.45462914 0.28987574 0.50406831
v -0.28126198 0.28974853 0.50603193
v -0.28358463 0.28987571 0.50406831
v -0.45443469 0.28770646 0.51056874
v -0.45455434 0.28677890 0.51109608
v -0.45877699 0.28710802 0.51190768
v -0.45455434 0.28711924 0.51190020
v -0.45443469 0.28818519 0.51129059
v -0.45882937 0.28578777 0.51214335
v -0.28720134 0.28947926 0.50812268
v -0.28690961 0.28897807 0.51006756
v -0.27715903 0.28419442 0.51204607
v -0.45419528 0.28897437 0.51012741
v -0.45130416 0.28897810 0.51006756
v -0.45101243 0.28947929 0.50812268
v -0.45828328 0.28836846 0.50951773
v -0.45940162 0.28837596 0.50947657
v -0.45610279 0.28876491 0.50781220
v -0.28161730 0.28836843 0.50954389
v -0.28211101 0.28876488 0.50781220
v -0.27881218 0.28837590 0.50947657
v -0.27960135 0.28770643 0.51057248
v -0.29635349 0.28836843 0.50928959
v -0.29338756 0.28876491 0.50737835
v -0.30243872 0.28896313 0.50480143
v -0.45882937 0.28558205 0.51127184
v -0.45882937 0.28411217 0.51127184
v -0.44491602 0.28836846 0.50932696
v -0.43884197 0.28876491 0.50726618
v -0.45997386 0.27616434 0.51220688
v -0.45689197 0.28817772 0.51130553
v -0.29633107 0.28770643 0.51047893
v -0.44499829 0.28711924 0.51187778
v -0.43577508 0.28989072 0.50247875
v -0.45882563 0.28877239 0.50766634
v -0.45882937 0.28421316 0.51218446
v -0.45459551 0.28579151 0.51213582
v -0.43577508 0.28896315 0.50480143
v -0.40519560 0.28876491 0.50725123
v -0.29324169 0.28770643 0.51049394
v -0.29321551 0.28677887 0.51107740
v -0.43882702 0.28908657 0.49673392
v -0.30243872 0.28904166 0.49736223
v -0.29938675 0.28991688 0.49673392
v -0.46066576 0.27616434 0.51216204
v -0.45877699 0.28677890 0.51109608
v -0.27938816 0.28877239 0.50766634
v -0.29349229 0.28896313 0.50500335
v -0.27938443 0.28421313 0.51218446
v -0.27938443 0.28578771 0.51214335
v -0.45689197 0.28770646 0.51057995
v -0.45861244 0.28770646 0.51057248
v -0.45659650 0.28836846 0.50954389
v -0.46066576 0.28420568 0.51212834
v -0.45997386 0.28420942 0.51216951
v -0.44472151 0.28976354 0.50534372
v -0.29631983 0.28711924 0.51187404
v -0.39717297 0.28993556 0.50012997
v -0.29324169 0.28818516 0.51121205
v -0.29321551 0.28711924 0.51187778
v -0.28996906 0.28818516 0.51123447
v -0.29007752 0.28897807 0.51000023
v -0.45591202 0.28902674 0.50361951
v -0.30243872 0.28902669 0.49843192
v -0.29631983 0.28421687 0.51218072
v -0.44813625 0.28897810 0.51000023
v -0.28230174 0.28902669 0.50361951
v -0.29329778 0.28897807 0.50993664
v -0.44830085 0.28677890 0.51108487
v -0.44824474 0.28770646 0.51052010
v -0.27754801 0.27616434 0.51133170
v -0.45520139 0.28088817 0.51128311
v -0.45882937 0.28088817 0.51128311
v -0.45419528 0.28836846 0.50951400
v -0.28991297 0.28711924 0.51188526
v -0.29026079 0.28947926 0.50798429
v -0.44795301 0.28947929 0.50798429
v -0.30243872 0.28902669 0.50226930
v -0.28025214 0.28088812 0.51128311
v -0.28388009 0.28088812 0.51128311
v -0.30926074 0.28421687 0.51218072
v -0.45156599 0.28711924 0.51189273
v -0.45156599 0.28677890 0.51109234
v -0.45147624 0.28818519 0.51126437
v -0.27943678 0.28677887 0.51109608
v -0.46105471 0.27616434 0.51207602
v -0.28991297 0.28677887 0.51108487
v -0.31698040 0.28993556 0.50012997
v -0.27938443 0.27616434 0.51222189
v -0.29329778 0.28836843 0.50932696
v -0.28718639 0.28088812 0.51128311
v -0.27881218 0.28088812 0.51128685
v -0.30243872 0.28421687 0.51218072
v -0.45929312 0.28088817 0.51128685
v -0.27692342 0.27616434 0.51192636
v -0.27684488 0.27616434 0.51174687
v -0.45882937 0.27616434 0.51127184
v -0.42123336 0.27616434 0.51127184
v -0.34905969 0.27616434 0.51127184
v -0.28112735 0.27616434 0.51127184
v -0.45997386 0.27616434 0.51128685
v -0.27823996 0.28088812 0.51129059
v -0.27823996 0.27616434 0.51128685
v -0.27789212 0.28088812 0.51130180
v -0.27684488 0.27955665 0.51174313
v -0.27685983 0.27975863 0.51171323
v -0.27692342 0.27616434 0.51157110
v -0.27699448 0.28047671 0.51152994
v -0.46131654 0.28033088 0.51162716
v -0.46131654 0.28013263 0.51164211
v -0.46136892 0.27616434 0.51174687
v -0.46136892 0.27955665 0.51173939
v -0.55904665 0.26232955 0.51173565
v -0.17655649 0.26232949 0.51173565
v -0.17655649 0.27955662 0.51173565
v -0.17655649 0.27955662 0.41542679
v -0.17655649 0.26232949 0.41542679
v -0.55904665 0.27955668 0.41542679
v -0.55904665 0.26232955 0.41542679
v -0.55904665 0.27955668 0.51173565
v -0.17832933 0.28132945 0.50996280
v -0.17832933 0.28132945 0.41719961
v -0.55727386 0.28132950 0.50996280
v -0.55727386 0.28132950 0.41719961
v -0.17666494 0.28033082 0.51162716
v -0.17666494 0.28033082 0.41553525
v -0.55893822 0.28033088 0.41553525
v -0.55893822 0.28033088 0.51162716
v -0.17699782 0.28088812 0.51129432
v -0.17755512 0.28122101 0.51073703
v -0.55804802 0.28122107 0.51073703
v -0.17699782 0.28088812 0.41586812
v -0.17755512 0.28122101 0.41642539
v -0.55860532 0.28088817 0.41586812
v -0.55804802 0.28122107 0.41642539
v -0.55860532 0.28088817 0.51129432
v -0.18926931 0.01547960 0.42148582
v -0.53126858 0.26247915 0.42148582
v -0.18926926 0.26247912 0.42148582
v -0.55026857 0.01547966 0.42148582
v -0.55026851 0.26247915 0.42148582
v -0.53126858 0.26247915 0.43098582
v -0.19876927 0.02497956 0.43098582
v -0.19876924 0.26247912 0.43098582
v -0.54076858 0.02497962 0.43098582
v -0.54076852 0.26247915 0.43098582
v -0.18926931 0.01547960 0.50223566
v -0.18926926 0.26247912 0.50223566
v -0.19876924 0.26247912 0.50223566
v -0.55026851 0.26247915 0.50223566
v -0.54076852 0.26247915 0.50223566
v -0.55026857 0.01547966 0.50223566
v -0.54076858 0.02497962 0.50223566
v -0.19876927 0.02497956 0.50223566
vt 0.47497389 0.37946429
vt 0.45942540 0.37946429
vt 0.46392300 0.37946429
vt 0.45950192 0.37946429
vt 0.46720262 0.37946429
vt 0.45942540 0.31696429
vt 0.45950192 0.31696429
vt 0.47505040 0.31696429
vt 0.45942676 0.31696429
vt 0.47505040 0.37946429
vt 0.46502136 0.37946429
vt 0.46377942 0.37946429
vt 0.46249825 0.37946429
vt 0.46303609 0.37946429
vt 0.46725421 0.37946429
vt 0.46802021 0.37946429
vt 0.46758213 0.37946429
vt 0.45942540 0.36093484
vt 0.45942540 0.36268948
vt 0.45942540 0.36037959
vt 0.46517037 0.31696429
vt 0.47148669 0.31696429
vt 0.47200885 0.37946429
vt 0.47253843 0.37946429
vt 0.47310207 0.37946429
vt 0.46171195 0.36943749
vt 0.46126870 0.36477851
vt 0.46203676 0.36909803
vt 0.46064290 0.31874107
vt 0.46008815 0.31941159
vt 0.45970901 0.31696429
vt 0.45942540 0.36800687
vt 0.45942540 0.36714907
vt 0.45942540 0.36701723
vt 0.47497389 0.31696429
vt 0.46390491 0.37946429
vt 0.46252708 0.37946429
vt 0.46283799 0.37946429
vt 0.45942540 0.33841032
vt 0.47497389 0.33841033
vt 0.47505040 0.34210830
vt 0.46674309 0.37258788
vt 0.46570148 0.37405740
vt 0.46561297 0.37322034
vt 0.46913323 0.37946429
vt 0.47020210 0.37946429
vt 0.47068047 0.37946429
vt 0.45942540 0.33833671
vt 0.47505040 0.34203739
vt 0.45942540 0.34203352
vt 0.46704107 0.37946429
vt 0.46725433 0.37946429
vt 0.46758225 0.37946429
vt 0.47270027 0.37891264
vt 0.47250283 0.37389555
vt 0.47307268 0.37424573
vt 0.47475466 0.37367107
vt 0.47442967 0.37333436
vt 0.47486789 0.36861383
vt 0.47505040 0.37688346
vt 0.47505040 0.37722534
vt 0.46731674 0.36135299
vt 0.46795723 0.35750263
vt 0.46789276 0.36113706
vt 0.47505040 0.32079692
vt 0.47505040 0.32021661
vt 0.45990140 0.36363538
vt 0.45991783 0.36496391
vt 0.45942540 0.36513247
vt 0.47101457 0.37946429
vt 0.47296841 0.37946429
vt 0.47319826 0.37946429
vt 0.46070322 0.37946429
vt 0.46098367 0.37946429
vt 0.46457001 0.37946429
vt 0.46362563 0.37656049
vt 0.46419561 0.37621378
vt 0.46504468 0.37946429
vt 0.46427107 0.37946429
vt 0.46459992 0.37946429
vt 0.47062564 0.37946429
vt 0.47014718 0.37946429
vt 0.47199883 0.37946429
vt 0.47505040 0.32144024
vt 0.46065523 0.37946429
vt 0.46084640 0.37946429
vt 0.47505040 0.37044566
vt 0.47505040 0.37406238
vt 0.47505040 0.36993870
vt 0.47505040 0.33760970
vt 0.45950192 0.34184844
vt 0.45950192 0.33760970
vt 0.45942540 0.32161817
vt 0.45942540 0.32103759
vt 0.46450926 0.37946429
vt 0.46399614 0.37946429
vt 0.46508070 0.37946429
vt 0.46715971 0.37946429
vt 0.46767322 0.37946429
vt 0.46748549 0.37946429
vt 0.46316298 0.37946429
vt 0.46161573 0.37946429
vt 0.46209410 0.37946429
vt 0.45942540 0.32329180
vt 0.45942540 0.31743589
vt 0.45942540 0.37482624
vt 0.45942540 0.37170974
vt 0.45942540 0.37121067
vt 0.47505040 0.34184844
vt 0.45942540 0.35393131
vt 0.45942540 0.35300704
vt 0.47497389 0.35300704
vt 0.46874288 0.36383938
vt 0.46967928 0.36612602
vt 0.46863845 0.36464764
vt 0.46494690 0.37946429
vt 0.46473230 0.37946429
vt 0.46506021 0.37946429
vt 0.45942540 0.36170720
vt 0.45942540 0.36129600
vt 0.45942540 0.35688380
vt 0.47214044 0.37946429
vt 0.47156900 0.37946429
vt 0.47265357 0.37946429
vt 0.46343271 0.37946429
vt 0.46241522 0.37946429
vt 0.46397111 0.37946429
vt 0.46139764 0.37946429
vt 0.45978302 0.37946429
vt 0.46191310 0.37946429
vt 0.46726442 0.37946429
vt 0.46770918 0.37946429
vt 0.46803804 0.37946429
vt 0.47031762 0.31696429
vt 0.47131859 0.31696429
vt 0.47051711 0.31696429
vt 0.47505040 0.32358405
vt 0.47505040 0.32292249
vt 0.47505040 0.31871946
vt 0.47452543 0.36992319
vt 0.47260676 0.36712633
vt 0.45942540 0.36426230
vt 0.47048395 0.35937408
vt 0.47031363 0.35997714
vt 0.46979084 0.35640352
vt 0.46831135 0.37946429
vt 0.46821857 0.37946429
vt 0.46853918 0.37946429
vt 0.46506020 0.37946429
vt 0.46473228 0.37946429
vt 0.46429420 0.37946429
vt 0.47505040 0.32922623
vt 0.45942540 0.33120056
vt 0.45942540 0.33183453
vt 0.47505040 0.35678907
vt 0.47505040 0.35179743
vt 0.47505040 0.35123430
vt 0.46851575 0.37946429
vt 0.46925908 0.37946429
vt 0.46979692 0.37946429
vt 0.47473816 0.37946429
vt 0.47260512 0.37946429
vt 0.47204094 0.37946429
vt 0.47334328 0.37946429
vt 0.47505040 0.37029779
vt 0.45950192 0.37029779
vt 0.47505040 0.36964820
vt 0.46688565 0.35845995
vt 0.46617646 0.36145504
vt 0.46600692 0.36084850
vt 0.47464153 0.31696429
vt 0.47479462 0.31696429
vt 0.45942540 0.36160700
vt 0.45942540 0.36249788
vt 0.45942540 0.36154892
vt 0.46463574 0.37946429
vt 0.46354251 0.37946429
vt 0.46410615 0.37946429
vt 0.46404509 0.37946429
vt 0.46330692 0.37946429
vt 0.46460926 0.37946429
vt 0.46357765 0.37946429
vt 0.46343906 0.37946429
vt 0.46252807 0.37946429
vt 0.47173440 0.37946429
vt 0.47154322 0.37946429
vt 0.47361550 0.37946429
vt 0.46075643 0.37946429
vt 0.45957396 0.37946429
vt 0.45947871 0.37946429
vt 0.47281583 0.37946429
vt 0.47454844 0.37946429
vt 0.45942540 0.36128275
vt 0.45942540 0.36359219
vt 0.45942540 0.36299636
vt 0.45953693 0.37946429
vt 0.45953671 0.37946429
vt 0.47067387 0.37946429
vt 0.47087129 0.37946429
vt 0.47121104 0.37946429
vt 0.47505040 0.35776439
vt 0.47505040 0.35728479
vt 0.47505040 0.35636079
vt 0.47497389 0.35393131
vt 0.47310791 0.37946429
vt 0.47321872 0.37946429
vt 0.47268032 0.37946429
vt 0.47423622 0.37946429
vt 0.46188383 0.37946429
vt 0.45968316 0.37946429
vt 0.45997000 0.37946429
vt 0.47477119 0.37946429
vt 0.45942540 0.35495550
vt 0.45942540 0.35419115
vt 0.45942540 0.35403124
vt 0.47505040 0.37626030
vt 0.47505040 0.37690953
vt 0.47505040 0.37592332
vt 0.45946475 0.37946429
vt 0.45948474 0.37946429
vt 0.45948510 0.37946429
vt 0.45942540 0.33388061
vt 0.46146597 0.33410274
vt 0.45942540 0.33747668
vt 0.46140496 0.37946429
vt 0.45959966 0.37946429
vt 0.45959862 0.37946429
vt 0.47149153 0.37946429
vt 0.47127543 0.37946429
vt 0.47245538 0.37946429
vt 0.46520124 0.31696429
vt 0.46099509 0.37946429
vt 0.46024307 0.37946429
vt 0.46121120 0.37946429
vt 0.47505040 0.31766920
vt 0.47481959 0.37946429
vt 0.46018114 0.37717553
vt 0.46020739 0.37808071
vt 0.45942540 0.37819095
vt 0.46666087 0.37138708
vt 0.46553089 0.37202375
vt 0.46655668 0.37057831
vt 0.47505040 0.34078614
vt 0.47505040 0.33712311
vt 0.45942540 0.33696492
vt 0.46402246 0.37946429
vt 0.46230598 0.37946429
vt 0.46300717 0.37946429
vt 0.47505040 0.37511704
vt 0.47505040 0.37545951
vt 0.47258395 0.37946429
vt 0.47377051 0.37946429
vt 0.47272269 0.37946429
vt 0.45949111 0.37946429
vt 0.45949152 0.37946429
vt 0.45947499 0.37946429
vt 0.45942540 0.36913374
vt 0.45942540 0.36469077
vt 0.45942540 0.36516756
vt 0.47053908 0.35115685
vt 0.46969238 0.34891180
vt 0.46978069 0.34840654
vt 0.46188100 0.37946429
vt 0.46048087 0.37946429
vt 0.46079297 0.37946429
vt 0.46157683 0.37946429
vt 0.45981551 0.37946429
vt 0.46009742 0.37946429
vt 0.46167123 0.37946429
vt 0.46029805 0.37946429
vt 0.46214969 0.37946429
vt 0.46129227 0.37946429
vt 0.45942540 0.34946774
vt 0.47338299 0.34798824
vt 0.45942540 0.34831344
vt 0.45950192 0.36964820
vt 0.45986767 0.37632703
vt 0.45942540 0.37601472
vt 0.45986318 0.37567768
vt 0.47505040 0.36504082
vt 0.47505040 0.36060097
vt 0.47505040 0.36012241
vt 0.47226298 0.31696429
vt 0.47168741 0.31696429
vt 0.47194026 0.31696429
vt 0.45995501 0.31696429
vt 0.45955498 0.31696429
vt 0.46489899 0.31696429
vt 0.46432358 0.31696429
vt 0.46406969 0.31696429
vt 0.46286091 0.37055034
vt 0.46341275 0.37124546
vt 0.46258908 0.37445939
vt 0.46440919 0.36180459
vt 0.46491686 0.35832314
vt 0.46498535 0.36201483
vt 0.47149108 0.37946429
vt 0.47288414 0.37946429
vt 0.47308057 0.37946429
vt 0.46841186 0.37946429
vt 0.46947878 0.37946429
vt 0.46978967 0.37946429
vt 0.47397355 0.37946429
vt 0.46022450 0.37946429
vt 0.47263338 0.37946429
vt 0.47364868 0.37946429
vt 0.47434988 0.37946429
vt 0.47474380 0.37946429
vt 0.47307013 0.37946429
vt 0.47505040 0.33407109
vt 0.47505040 0.33820875
vt 0.47300031 0.33432932
vt 0.46338724 0.31696429
vt 0.46437453 0.31696429
vt 0.46434004 0.31696429
vt 0.47344544 0.37946429
vt 0.47207010 0.37946429
vt 0.45942540 0.34077784
vt 0.45942540 0.33644228
vt 0.45942540 0.33660452
vt 0.46906110 0.37511482
vt 0.46880054 0.37116963
vt 0.46935446 0.37050153
vt 0.45942540 0.37289261
vt 0.45942540 0.37074782
vt 0.45942540 0.37202127
vt 0.45942540 0.31778552
vt 0.46433052 0.37946429
vt 0.46302568 0.37946429
vt 0.46356385 0.37946429
vt 0.46946516 0.36611106
vt 0.46937690 0.36694856
vt 0.46843860 0.36467441
vt 0.45942540 0.35113256
vt 0.45942540 0.35213433
vt 0.45942540 0.35196041
vt 0.46466780 0.37946429
vt 0.46437456 0.37946429
vt 0.46561445 0.37946429
vt 0.46549792 0.32225545
vt 0.46436196 0.31835354
vt 0.46530801 0.31818283
vt 0.46945445 0.37946429
vt 0.47505040 0.33274189
vt 0.47505040 0.33140166
vt 0.47505040 0.33337580
vt 0.46078815 0.34791972
vt 0.45942540 0.35234751
vt 0.46070500 0.34735584
vt 0.47231671 0.37946429
vt 0.47308338 0.37946429
vt 0.47362154 0.37946429
vt 0.47505040 0.34099990
vt 0.45942540 0.33418225
vt 0.45942540 0.33464492
vt 0.47505040 0.34402471
vt 0.45942540 0.33756918
vt 0.47505040 0.34443116
vt 0.45942540 0.37943723
vt 0.47505040 0.32992861
vt 0.47505040 0.32946554
vt 0.47505040 0.33668967
vt 0.47404128 0.37459919
vt 0.47418078 0.37427438
vt 0.47505040 0.33272910
vt 0.47505040 0.33964744
vt 0.47505040 0.34005347
vt 0.45952120 0.37946429
vt 0.47242949 0.37393208
vt 0.47377902 0.37041296
vt 0.47390452 0.37267636
vt 0.45942540 0.35671820
vt 0.45942540 0.35610092
vt 0.45942540 0.35992214
vt 0.46937447 0.37946429
vt 0.46786512 0.37946429
vt 0.46773091 0.37946429
vt 0.46858824 0.37946429
vt 0.46845429 0.37946429
vt 0.46706971 0.37946429
vt 0.45942540 0.37072583
vt 0.45942540 0.36932110
vt 0.45942540 0.36849015
vt 0.47505040 0.37834917
vt 0.47505040 0.37896930
vt 0.47505040 0.37551512
vt 0.46517060 0.31696429
vt 0.46520141 0.31696429
vt 0.46435639 0.35386098
vt 0.46518320 0.35165524
vt 0.46527164 0.35216013
vt 0.45986774 0.37633409
vt 0.45942540 0.37667106
vt 0.45942540 0.37602183
vt 0.47505040 0.33268835
vt 0.47505040 0.33070201
vt 0.47505040 0.33133984
vt 0.46720607 0.37946429
vt 0.46050225 0.37946429
vt 0.46107070 0.37946429
vt 0.46064997 0.37946429
vt 0.46058308 0.37946429
vt 0.46011911 0.37946429
vt 0.46019877 0.37946429
vt 0.46487304 0.37946429
vt 0.46318044 0.37946429
vt 0.46459143 0.37946429
vt 0.46322509 0.37946429
vt 0.46281051 0.37946429
vt 0.46463611 0.37946429
vt 0.46451470 0.31858058
vt 0.46382524 0.31696429
vt 0.46487095 0.31696429
vt 0.47505040 0.36230003
vt 0.47505040 0.36313440
vt 0.47505040 0.36363293
vt 0.47505040 0.36382182
vt 0.47505040 0.36334692
vt 0.47505040 0.36469059
vt 0.47198289 0.37946429
vt 0.47103623 0.37946429
vt 0.47134284 0.37946429
vt 0.47230618 0.31696429
vt 0.47212206 0.32070871
vt 0.47136016 0.31696429
vt 0.47322322 0.37946429
vt 0.47206646 0.37946429
vt 0.47347746 0.37946429
vt 0.47343193 0.37946429
vt 0.47202091 0.37946429
vt 0.47384650 0.37946429
vt 0.47505040 0.34227371
vt 0.45942540 0.33853823
vt 0.45942540 0.34223505
vt 0.46009219 0.37946429
vt 0.45994564 0.37946429
vt 0.46014526 0.37946429
vt 0.47384950 0.37946429
vt 0.47248421 0.37946429
vt 0.47440576 0.37946429
vt 0.47206154 0.37946429
vt 0.47252335 0.37946429
vt 0.47388860 0.37946429
vt 0.46280752 0.37946429
vt 0.46225124 0.37946429
vt 0.46417279 0.37946429
vt 0.46459540 0.37946429
vt 0.46276834 0.37946429
vt 0.46413360 0.37946429
vt 0.46415233 0.34403093
vt 0.46472796 0.34408956
vt 0.46425613 0.34765077
vt 0.46463726 0.37946429
vt 0.46406150 0.37946429
vt 0.46436557 0.37946429
vt 0.45949541 0.37946429
vt 0.45948405 0.37946429
vt 0.47461377 0.31696429
vt 0.47236789 0.31696429
vt 0.47233602 0.31696429
vt 0.47133890 0.31696429
vt 0.47505040 0.37940903
vt 0.47505040 0.37675122
vt 0.47505040 0.37765633
vt 0.47505040 0.36272453
vt 0.47505040 0.36180395
vt 0.45942540 0.36176890
vt 0.46157754 0.31696429
vt 0.45942540 0.33251511
vt 0.46139395 0.32901986
vt 0.46151531 0.33257263
vt 0.45942540 0.36851556
vt 0.45942540 0.36692721
vt 0.45942540 0.36600915
vt 0.47505040 0.35782321
vt 0.47505040 0.35642037
vt 0.47505040 0.35689970
vt 0.47075361 0.37946429
vt 0.47019581 0.37946429
vt 0.47060823 0.37946429
vt 0.46982938 0.37946429
vt 0.46968408 0.37946429
vt 0.47050909 0.37946429
vt 0.46966922 0.37946429
vt 0.46913119 0.37946429
vt 0.47067842 0.37946429
vt 0.47211378 0.37946429
vt 0.47278944 0.37946429
vt 0.46362560 0.37946429
vt 0.46309632 0.37946429
vt 0.46377091 0.37946429
vt 0.46318708 0.37946429
vt 0.46276544 0.37946429
vt 0.46291083 0.37946429
vt 0.46346190 0.31696429
vt 0.46266021 0.31696429
vt 0.46273710 0.31696429
vt 0.45959975 0.37946429
vt 0.47505040 0.36151573
vt 0.45942540 0.36055802
vt 0.45942540 0.36148060
vt 0.45942540 0.35512514
vt 0.45942540 0.35420093
vt 0.45942540 0.35496524
vt 0.46275408 0.37946429
vt 0.46262700 0.37946429
vt 0.46161781 0.37946429
vt 0.46316504 0.37946429
vt 0.46018077 0.37946429
vt 0.45950510 0.37946429
vt 0.47505040 0.33302939
vt 0.47151103 0.33313310
vt 0.47308458 0.32901387
vt 0.47144383 0.31696429
vt 0.47171024 0.31696429
vt 0.47066328 0.31696429
vt 0.47071433 0.31696429
vt 0.46521352 0.31696429
vt 0.46515811 0.31696429
vt 0.46442658 0.31696429
vt 0.46229004 0.31696429
vt 0.46336950 0.31696429
vt 0.46232213 0.31696429
vt 0.45972139 0.31696429
vt 0.46934565 0.31696429
vt 0.47020744 0.31696429
vt 0.46940132 0.31696429
vt 0.46238537 0.31696429
vt 0.46341396 0.31696429
vt 0.46346480 0.31696429
vt 0.47279732 0.37946429
vt 0.47291870 0.37946429
vt 0.47305483 0.37946429
vt 0.47452021 0.37946429
vt 0.47438432 0.37946429
vt 0.47487528 0.37946429
vt 0.45942540 0.35526781
vt 0.45942540 0.35842529
vt 0.45942540 0.35903362
vt 0.47505040 0.36127459
vt 0.47505040 0.35806966
vt 0.47505040 0.35868714
vt 0.46156717 0.32233876
vt 0.46095555 0.37946429
vt 0.46117167 0.37946429
vt 0.46429413 0.37946429
vt 0.46357621 0.37946429
vt 0.46462320 0.37946429
vt 0.46802023 0.37946429
vt 0.46769116 0.37946429
vt 0.46873814 0.37946429
vt 0.47071124 0.32318635
vt 0.47132055 0.37946429
vt 0.47153667 0.37946429
vt 0.45942540 0.36128141
vt 0.45942540 0.36135800
vt 0.45942540 0.36039169
vt 0.46062773 0.37946429
vt 0.46049397 0.37861261
vt 0.46063010 0.37872029
vt 0.47493332 0.37946429
vt 0.47345127 0.37946429
vt 0.47482645 0.37946429
vt 0.46138826 0.37946429
vt 0.45993752 0.37946429
vt 0.46169972 0.37946429
vt 0.46320543 0.37946429
vt 0.46131480 0.37946429
vt 0.46183024 0.37946429
vt 0.45949127 0.37946429
vt 0.45949193 0.37946429
vt 0.45947858 0.34231977
vt 0.45942540 0.33814333
vt 0.45947630 0.33808105
vt 0.46061074 0.37946429
vt 0.47168521 0.37946429
vt 0.47359852 0.37946429
vt 0.47388529 0.37946429
vt 0.46625160 0.33639266
vt 0.46602214 0.33735331
vt 0.46517182 0.33446701
vt 0.45942540 0.37374900
vt 0.45942540 0.37440644
vt 0.47482666 0.37368988
vt 0.45942540 0.37508239
vt 0.46412920 0.37946429
vt 0.46220683 0.37946429
vt 0.46347100 0.37946429
vt 0.46225875 0.37946429
vt 0.46158228 0.37946429
vt 0.46352295 0.37946429
vt 0.47252773 0.37946429
vt 0.47318593 0.37946429
vt 0.47445011 0.37946429
vt 0.47439827 0.37946429
vt 0.47313407 0.37946429
vt 0.47293290 0.37946429
vt 0.47276220 0.33625870
vt 0.47285221 0.33268945
vt 0.47505040 0.33253385
vt 0.46513662 0.33412728
vt 0.46161078 0.33407331
vt 0.46151133 0.32996878
vt 0.46523778 0.31696429
vt 0.46167604 0.31696429
vt 0.46520170 0.31696429
vt 0.46967150 0.34448375
vt 0.46944117 0.34352644
vt 0.47028078 0.34065597
vt 0.45983583 0.37946429
vt 0.46120371 0.37946429
vt 0.45998023 0.37946429
vt 0.46666300 0.37946429
vt 0.46575241 0.37946429
vt 0.46651438 0.37946429
vt 0.46752107 0.37946429
vt 0.46675354 0.37946429
vt 0.46690213 0.37946429
vt 0.47200649 0.37946429
vt 0.47323019 0.37946429
vt 0.47308574 0.37946429
vt 0.47505040 0.35187070
vt 0.47505040 0.35242149
vt 0.47505040 0.34705001
vt 0.47119279 0.37946429
vt 0.46931279 0.37946429
vt 0.46942723 0.37946429
vt 0.47391470 0.37946429
vt 0.47379672 0.37946429
vt 0.47195698 0.37946429
vt 0.46404657 0.31696429
vt 0.46263411 0.31696429
vt 0.46276925 0.31696429
vt 0.46673421 0.37946429
vt 0.46472672 0.37946429
vt 0.46662011 0.37946429
vt 0.46007936 0.34488148
vt 0.45942540 0.34970182
vt 0.45942540 0.34915178
vt 0.46460032 0.37900508
vt 0.46265575 0.37946429
vt 0.46253745 0.37946429
vt 0.47315812 0.37946429
vt 0.47160187 0.31696429
vt 0.47302325 0.37946429
vt 0.46134493 0.37946429
vt 0.46162549 0.37946429
vt 0.46143307 0.37946429
vt 0.47505040 0.36783484
vt 0.47505040 0.36624634
vt 0.47505040 0.36716448
vt 0.47505040 0.36085341
vt 0.47505040 0.35830517
vt 0.47505040 0.36146152
vt 0.46977477 0.37946429
vt 0.46884183 0.37946429
vt 0.47159781 0.37946429
vt 0.46870439 0.37946429
vt 0.46900126 0.37946429
vt 0.46993398 0.37946429
vt 0.46109710 0.37946429
vt 0.46068472 0.37946429
vt 0.46344106 0.37946429
vt 0.46268938 0.37946429
vt 0.46099767 0.37946429
vt 0.46334141 0.37946429
vt 0.47218489 0.34376727
vt 0.47211500 0.34431386
vt 0.47136087 0.34154491
vt 0.47037211 0.31696429
vt 0.47115462 0.31696429
vt 0.47123129 0.31696429
vt 0.46340688 0.34549369
vt 0.46432050 0.34377888
vt 0.46347659 0.34604064
vt 0.47500350 0.37946429
vt 0.47498572 0.37946429
vt 0.47498591 0.37946429
vt 0.47505040 0.32999210
vt 0.47505040 0.32935433
vt 0.45942540 0.33197829
vt 0.45942540 0.36243268
vt 0.47505040 0.36055641
vt 0.45942540 0.36151207
vt 0.46250042 0.37777086
vt 0.46236697 0.37815067
vt 0.46171040 0.36864054
vt 0.47505040 0.36478190
vt 0.47505040 0.35618563
vt 0.47505040 0.35581883
vt 0.45942540 0.36883811
vt 0.45942540 0.36634498
vt 0.45942540 0.36792492
vt 0.45942540 0.37723074
vt 0.45942540 0.37632580
vt 0.45942540 0.37639895
vt 0.45942540 0.37904144
vt 0.47284871 0.37946429
vt 0.47505040 0.37803235
vt 0.46930548 0.31696429
vt 0.47287708 0.31696429
vt 0.46930546 0.37917398
vt 0.47505040 0.37917398
vt 0.46930546 0.31696429
vt 0.45950437 0.37946429
vt 0.46062662 0.37946429
vt 0.47156683 0.37946429
vt 0.47347459 0.37946429
vt 0.47363799 0.37946429
vt 0.47299274 0.37946429
vt 0.47283708 0.37946429
vt 0.46249816 0.33323299
vt 0.46238750 0.33367774
vt 0.46189523 0.32635823
vt 0.46272474 0.35762625
vt 0.46260120 0.35803512
vt 0.46207478 0.34910658
vt 0.47505040 0.34009236
vt 0.47505040 0.33316168
vt 0.47505040 0.33275971
vt 0.45942540 0.35476978
vt 0.45942540 0.35563489
vt 0.45942540 0.35901301
vt 0.47505040 0.37895520
vt 0.46357210 0.37946429
vt 0.46152129 0.37946429
vt 0.46132158 0.37946429
vt 0.46520275 0.33411866
vt 0.46158435 0.32986507
vt 0.46363506 0.32996381
vt 0.47505040 0.36373350
vt 0.47505040 0.35517204
vt 0.47505040 0.35553922
vt 0.47362197 0.37491210
vt 0.47454946 0.36613468
vt 0.47375552 0.37529132
vt 0.47498221 0.37946429
vt 0.47498248 0.37946429
vt 0.47499721 0.37946429
vt 0.45942540 0.35707726
vt 0.45942540 0.35238785
vt 0.45942540 0.35264954
vt 0.46169346 0.33412749
vt 0.46148588 0.33389713
vt 0.46140742 0.32706580
vt 0.45942540 0.34209009
vt 0.47505040 0.34205117
vt 0.47505040 0.33781244
vt 0.45942540 0.32660964
vt 0.45942540 0.31873767
vt 0.45942540 0.31799679
vt 0.45942540 0.31959978
vt 0.45942540 0.31883396
vt 0.47505040 0.31882018
vt 0.47505040 0.31805502
vt 0.47505040 0.32520230
vt 0.45942540 0.31725785
vt 0.45942540 0.31799922
vt 0.47120549 0.37946429
vt 0.47217535 0.37946429
vt 0.47238706 0.37946429
vt 0.47173837 0.37946429
vt 0.47152761 0.37946429
vt 0.47311602 0.37946429
vt 0.46071642 0.37946429
vt 0.45953536 0.37946429
vt 0.46092717 0.37946429
vt 0.46106709 0.37946429
vt 0.46010151 0.37946429
vt 0.46031321 0.37946429
vt 0.45942540 0.37288033
vt 0.47453490 0.37343617
vt 0.47455138 0.37210764
vt 0.45942540 0.37360938
vt 0.46406094 0.31696429
vt 0.46344668 0.31696429
vt 0.46425453 0.31696429
vt 0.46859405 0.36370732
vt 0.46770396 0.36602758
vt 0.46841490 0.36312524
vt 0.45942540 0.36487341
vt 0.45942540 0.36440912
vt 0.45942540 0.36038263
vt 0.46140579 0.37946429
vt 0.46107483 0.37946429
vt 0.46100913 0.37946429
vt 0.47426382 0.36475285
vt 0.47440318 0.35965419
vt 0.47445903 0.36434046
vt 0.47342000 0.35540086
vt 0.47420207 0.34725423
vt 0.47354362 0.35580935
vt 0.47505040 0.34017837
vt 0.47505040 0.33328785
vt 0.47505040 0.33369003
vt 0.47505040 0.32365608
vt 0.47505040 0.32230656
vt 0.47505040 0.32163602
vt 0.45942540 0.32319008
vt 0.45942540 0.32251911
vt 0.45942540 0.32450925
vt 0.47371361 0.33154494
vt 0.47443977 0.32507384
vt 0.47382432 0.33198953
vt 0.46891153 0.37946429
vt 0.46939434 0.37946429
vt 0.47166957 0.37946429
vt 0.47159576 0.37946429
vt 0.46932040 0.37946429
vt 0.47004214 0.37946429
vt 0.46947923 0.37946429
vt 0.47095506 0.37946429
vt 0.47123632 0.37946429
vt 0.47130231 0.37946429
vt 0.47102237 0.37946429
vt 0.47320646 0.37946429
vt 0.46100394 0.37946429
vt 0.46128390 0.37946429
vt 0.46283672 0.37946429
vt 0.46107962 0.37946429
vt 0.46136089 0.37946429
vt 0.47082145 0.33535411
vt 0.47132110 0.32826099
vt 0.47102903 0.33512366
vt 0.47320136 0.35954528
vt 0.47315822 0.35471840
vt 0.47336353 0.35445743
vt 0.47056722 0.33425318
vt 0.47085880 0.32719512
vt 0.47107264 0.32716660
vt 0.47080343 0.32355701
vt 0.47162689 0.37946429
vt 0.47101727 0.32352905
vt 0.46169119 0.32268577
vt 0.46147735 0.32265781
vt 0.46108389 0.37946429
vt 0.46172067 0.33296883
vt 0.46142302 0.32610999
vt 0.46163686 0.32613853
vt 0.46539350 0.31696429
vt 0.46191691 0.31696429
vt 0.46545134 0.31696429
vt 0.46521138 0.31696429
vt 0.46167338 0.31696429
vt 0.46164563 0.31696429
vt 0.45942540 0.36635513
vt 0.45942540 0.36140100
vt 0.45942540 0.36589277
vt 0.46715045 0.35624342
vt 0.46769897 0.35975477
vt 0.46697198 0.35682881
vt 0.47424392 0.37946429
vt 0.47391558 0.37946429
vt 0.47480714 0.37946429
vt 0.47505040 0.36638044
vt 0.47505040 0.36133907
vt 0.47505040 0.36177361
vt 0.46156581 0.37946429
vt 0.46243261 0.37946429
vt 0.46210617 0.37946429
vt 0.45942540 0.36051108
vt 0.45942540 0.36070259
vt 0.45942540 0.35979100
vt 0.47389335 0.31696429
vt 0.47318457 0.31878720
vt 0.47217030 0.31696429
vt 0.47505040 0.33874189
vt 0.45942540 0.33890009
vt 0.47505040 0.34240535
vt 0.47500636 0.37946429
vt 0.47498336 0.37946429
vt 0.47498340 0.37946429
vt 0.45951097 0.37946429
vt 0.45951095 0.37946429
vt 0.45953699 0.37946429
vt 0.45942540 0.36138587
vt 0.45942540 0.36370470
vt 0.45942540 0.36350672
vt 0.45961074 0.37946429
vt 0.47474412 0.37946429
vt 0.46191278 0.37946429
vt 0.45978270 0.37946429
vt 0.46010353 0.37946429
vt 0.46930081 0.31696429
vt 0.46934595 0.31696429
vt 0.47287181 0.31696429
vt 0.46934982 0.33295558
vt 0.47297619 0.32938835
vt 0.47287568 0.33295311
vt 0.45942540 0.37256401
vt 0.45942540 0.37024634
vt 0.45942540 0.36952640
vt 0.46069879 0.37946429
vt 0.46225241 0.37946429
vt 0.46297415 0.37946429
vt 0.46338307 0.37946429
vt 0.46062504 0.37946429
vt 0.46290027 0.37946429
vt 0.47145877 0.33970304
vt 0.47060072 0.34255247
vt 0.47122376 0.33876027
vt 0.45964791 0.37946429
vt 0.46090072 0.37946429
vt 0.46977474 0.37946429
vt 0.46992995 0.37946429
vt 0.47008523 0.37946429
vt 0.47505040 0.34154285
vt 0.47505040 0.33787540
vt 0.47505040 0.34157793
vt 0.47499394 0.37946429
vt 0.47498038 0.37946429
vt 0.47131489 0.31696429
vt 0.47127468 0.31696429
vt 0.47145758 0.31696429
vt 0.47149926 0.31696429
vt 0.47505040 0.37690759
vt 0.47505040 0.37657055
vt 0.47505040 0.37592121
vt 0.47505040 0.35508462
vt 0.47505040 0.35400052
vt 0.47505040 0.35416042
vt 0.45948942 0.37946429
vt 0.45948954 0.37946429
vt 0.45947332 0.37946429
vt 0.46035976 0.36819402
vt 0.45956442 0.36395420
vt 0.45988965 0.36352283
vt 0.46236634 0.37946429
vt 0.46180312 0.37946429
vt 0.46269469 0.37946429
vt 0.46577173 0.33614852
vt 0.46468849 0.33425422
vt 0.46492434 0.33331482
vt 0.45942540 0.37945451
vt 0.45942540 0.37620767
vt 0.47095992 0.37946429
vt 0.46952148 0.37946429
vt 0.47120876 0.37946429
vt 0.46943777 0.33041419
vt 0.46958224 0.32685590
vt 0.47102063 0.32691792
vt 0.45942540 0.35739406
vt 0.45942540 0.35694965
vt 0.45942540 0.35647005
vt 0.46254761 0.37946429
vt 0.46301070 0.37946429
vt 0.46285901 0.37946429
vt 0.47306550 0.37946429
vt 0.47328130 0.31696429
vt 0.47229392 0.31696429
vt 0.47450054 0.37946429
vt 0.47417044 0.37946429
vt 0.47494563 0.37946429
vt 0.46211503 0.37946429
vt 0.46133577 0.37946429
vt 0.46244512 0.37946429
vt 0.46164624 0.37946429
vt 0.46074436 0.37946429
vt 0.46107377 0.37946429
vt 0.47334460 0.37946429
vt 0.47311651 0.37946429
vt 0.47370385 0.37946429
vt 0.47505040 0.36934516
vt 0.47505040 0.36843210
vt 0.47505040 0.36776545
vt 0.46189427 0.37946429
vt 0.46078349 0.37946429
vt 0.46110973 0.37946429
vt 0.46180605 0.37946429
vt 0.46073133 0.37946429
vt 0.46213227 0.37946429
vt 0.47471196 0.37946429
vt 0.47481699 0.37946429
vt 0.47449078 0.37946429
vt 0.46516720 0.31696429
vt 0.47146445 0.31696429
vt 0.47145337 0.31696429
vt 0.46520109 0.31696429
vt 0.47460936 0.37404849
vt 0.47438639 0.37618844
vt 0.47317273 0.37420987
vt 0.45942540 0.37226214
vt 0.45942540 0.36912953
vt 0.45942540 0.37144618
vt 0.47441611 0.37339603
vt 0.47430891 0.37111725
vt 0.45942540 0.37002196
vt 0.45948274 0.31696429
vt 0.45949600 0.34118690
vt 0.45942540 0.34120259
vt 0.45942540 0.33697748
vt 0.45942540 0.33827510
vt 0.45942540 0.34248063
vt 0.47505040 0.33843397
vt 0.45942540 0.36224947
vt 0.47505040 0.36129178
vt 0.47505040 0.36036921
vt 0.46769340 0.37946429
vt 0.46841689 0.37946429
vt 0.46874183 0.37946429
vt 0.46873692 0.37946429
vt 0.46841178 0.37946429
vt 0.46978973 0.37946429
vt 0.46357963 0.37946429
vt 0.46252680 0.37946429
vt 0.46390477 0.37946429
vt 0.46461936 0.37946429
vt 0.46357093 0.37946429
vt 0.46389586 0.37946429
vt 0.46377174 0.37946429
vt 0.46409196 0.37946429
vt 0.46367710 0.37946429
vt 0.46517750 0.37946429
vt 0.46485168 0.37946429
vt 0.46499044 0.37946429
vt 0.47192595 0.37946429
vt 0.47135062 0.37946429
vt 0.47170070 0.37946429
vt 0.47353210 0.31696429
vt 0.47323906 0.31696429
vt 0.47296096 0.31696429
vt 0.46021550 0.37946429
vt 0.46060765 0.37946429
vt 0.47208044 0.37946429
vt 0.47168828 0.37946429
vt 0.47388837 0.37946429
vt 0.47451188 0.37946429
vt 0.47499405 0.37946429
vt 0.47316391 0.37946429
vt 0.47403411 0.37946429
vt 0.47174507 0.37946429
vt 0.47007623 0.37946429
vt 0.47178982 0.37946429
vt 0.47286057 0.37946429
vt 0.47321603 0.37093546
vt 0.47442589 0.37289338
vt 0.47298936 0.37306889
vt 0.46765715 0.37946429
vt 0.46850005 0.37946429
vt 0.46823289 0.37946429
vt 0.46746749 0.35024112
vt 0.46757392 0.34656385
vt 0.46814955 0.34650675
vt 0.46016040 0.37946429
vt 0.45948463 0.37946429
vt 0.46226878 0.37946429
vt 0.46063416 0.37946429
vt 0.46007844 0.37946429
vt 0.46218669 0.37946429
vt 0.47166043 0.37946429
vt 0.47010790 0.37946429
vt 0.47221616 0.37946429
vt 0.47213414 0.37946429
vt 0.47002576 0.37946429
vt 0.47280992 0.37946429
vt 0.45942540 0.34084760
vt 0.47505040 0.33648363
vt 0.45942540 0.33664248
vt 0.46127272 0.32606723
vt 0.46271110 0.32600458
vt 0.46140355 0.32961462
vt 0.46133464 0.37946429
vt 0.46108579 0.37946429
vt 0.46277308 0.37946429
vt 0.46518689 0.31696429
vt 0.47147259 0.31696429
vt 0.46017904 0.33551772
vt 0.46039097 0.32842969
vt 0.46113343 0.33083795
vt 0.46054947 0.37946429
vt 0.46221834 0.37946429
vt 0.45943399 0.37946429
vt 0.46050474 0.37946429
vt 0.46166302 0.37946429
vt 0.45993043 0.37946429
vt 0.46154491 0.37946429
vt 0.46349307 0.37946429
vt 0.46155216 0.37946429
vt 0.46262287 0.37946429
vt 0.45942540 0.35827331
vt 0.45942540 0.35906978
vt 0.45942540 0.35803731
vt 0.46404475 0.31696429
vt 0.46318244 0.31696429
vt 0.46375387 0.31696429
vt 0.46469115 0.37946429
vt 0.46434395 0.37853229
vt 0.46526642 0.37946429
vt 0.47505040 0.34046091
vt 0.47505040 0.33682976
vt 0.47505040 0.33666772
vt 0.46392274 0.37946429
vt 0.45965445 0.36512511
vt 0.45942540 0.36652141
vt 0.45942540 0.36518802
vt 0.47228441 0.37946429
vt 0.47135142 0.37946429
vt 0.47275377 0.37946429
vt 0.47225643 0.37946429
vt 0.47163058 0.37946429
vt 0.47256313 0.37946429
vt 0.46308434 0.37946429
vt 0.46123112 0.37946429
vt 0.46162361 0.37946429
vt 0.46149835 0.37946429
vt 0.45968991 0.37946429
vt 0.46189060 0.37946429
vt 0.47356874 0.37946429
vt 0.47502947 0.37946429
vt 0.47476446 0.37946429
vt 0.46263844 0.37946429
vt 0.46126381 0.37946429
vt 0.46311711 0.37946429
vt 0.46382963 0.37946429
vt 0.46227351 0.37946429
vt 0.46275221 0.37946429
vt 0.47401491 0.37946429
vt 0.47353624 0.37946429
vt 0.47282039 0.37946429
vt 0.47389779 0.37946429
vt 0.47437651 0.37946429
vt 0.47499842 0.33829263
vt 0.47505040 0.33835480
vt 0.47505040 0.34201272
vt 0.47498260 0.37946429
vt 0.47498309 0.37946429
vt 0.47387165 0.34950340
vt 0.47130157 0.33694871
vt 0.47505040 0.33590372
vt 0.47087734 0.34759419
vt 0.46577975 0.32617451
vt 0.46482634 0.32625941
vt 0.46466338 0.32218315
vt 0.46536018 0.31696429
vt 0.46428219 0.31696429
vt 0.46523398 0.31696429
vt 0.45942540 0.34661015
vt 0.45942540 0.34770711
vt 0.45942540 0.34750958
vt 0.47086037 0.37946429
vt 0.47110344 0.37946429
vt 0.47310846 0.37946429
vt 0.47114845 0.37946429
vt 0.47348810 0.37946429
vt 0.47315352 0.37946429
vt 0.45942540 0.33855129
vt 0.47505040 0.33859185
vt 0.47505040 0.33441979
vt 0.46979101 0.37946429
vt 0.46948023 0.37946429
vt 0.47123782 0.37946429
vt 0.47013115 0.37946429
vt 0.47159030 0.37946429
vt 0.47198269 0.37946429
vt 0.46252411 0.37946429
vt 0.46107731 0.37946429
vt 0.46283490 0.37946429
vt 0.46216594 0.37946429
vt 0.46031441 0.37946429
vt 0.46070680 0.37946429
vt 0.46535771 0.37946429
vt 0.46410547 0.37946429
vt 0.46503805 0.37946429
vt 0.46437175 0.37946429
vt 0.46390239 0.37946429
vt 0.46530475 0.37946429
vt 0.46114609 0.37946429
vt 0.46143423 0.37946429
vt 0.46119116 0.37946429
vt 0.45942540 0.35795722
vt 0.45942540 0.35703372
vt 0.45942540 0.35747789
vt 0.47238183 0.31696429
vt 0.47225672 0.31696429
vt 0.47143008 0.31696429
vt 0.47182431 0.32839790
vt 0.47087089 0.32831462
vt 0.47104019 0.32422748
vt 0.47500630 0.37946429
vt 0.47500652 0.37946429
vt 0.47505040 0.35507734
vt 0.47505040 0.35491743
vt 0.47505040 0.35399317
vt 0.47152294 0.37946429
vt 0.47202032 0.37946429
vt 0.47293027 0.37946429
vt 0.47275264 0.37946429
vt 0.47184247 0.37946429
vt 0.47341483 0.37946429
vt 0.46390352 0.37946429
vt 0.46324134 0.37946429
vt 0.46481369 0.37946429
vt 0.46513223 0.37946429
vt 0.46372489 0.37946429
vt 0.46463485 0.37946429
vt 0.47318029 0.32778686
vt 0.47159841 0.33185470
vt 0.47174184 0.32776671
vt 0.47316081 0.37946429
vt 0.47172235 0.37946429
vt 0.47200016 0.37946429
vt 0.46327042 0.37946429
vt 0.46239863 0.37946429
vt 0.46411466 0.37946429
vt 0.46466176 0.37946429
vt 0.46308721 0.37946429
vt 0.46393126 0.37946429
vt 0.47199357 0.37946429
vt 0.47272406 0.37946429
vt 0.47356813 0.37946429
vt 0.47338587 0.37946429
vt 0.47254163 0.37946429
vt 0.47425765 0.37946429
vt 0.47204178 0.31696429
vt 0.47108708 0.31696429
vt 0.47119570 0.31696429
vt 0.46226121 0.31696429
vt 0.45942540 0.37938626
vt 0.46298569 0.37937577
vt 0.46149114 0.31696429
vt 0.46298905 0.31696429
vt 0.47166646 0.37946429
vt 0.47233980 0.37946429
vt 0.47446974 0.37946429
vt 0.47232709 0.37946429
vt 0.47413612 0.37946429
vt 0.47445703 0.37946429
vt 0.46062814 0.37946429
vt 0.45995481 0.37946429
vt 0.45996754 0.37946429
vt 0.47498225 0.34565978
vt 0.47498462 0.34183617
vt 0.45942540 0.34183575
vt 0.46795807 0.31696429
vt 0.46887134 0.31696429
vt 0.46891066 0.31696429
vt 0.45942540 0.33876372
vt 0.45942540 0.33871590
vt 0.45942540 0.33454378
vt 0.46172776 0.31696429
vt 0.47505040 0.33843455
vt 0.47505040 0.33475993
vt 0.47505040 0.33838985
vt 0.45954217 0.35607858
vt 0.46113546 0.36090477
vt 0.45942540 0.35985945
vt 0.47156177 0.37946429
vt 0.47211598 0.37946429
vt 0.47349062 0.37946429
vt 0.47112061 0.37946429
vt 0.47153048 0.37946429
vt 0.47345931 0.37946429
vt 0.47498184 0.37946429
vt 0.46171994 0.33717586
vt 0.45942540 0.33290002
vt 0.46163179 0.33306723
vt 0.46154629 0.37946429
vt 0.46789707 0.37946429
vt 0.46818567 0.37946429
vt 0.46875676 0.37946429
vt 0.46858556 0.37946429
vt 0.46801424 0.37946429
vt 0.46905681 0.37946429
vt 0.46414970 0.37946429
vt 0.46310221 0.37946429
vt 0.46366580 0.37946429
vt 0.46326943 0.37946429
vt 0.46255322 0.37946429
vt 0.46383329 0.37946429
vt 0.46902611 0.37946429
vt 0.46846226 0.37946429
vt 0.46974232 0.37946429
vt 0.46814499 0.37946429
vt 0.46862890 0.37946429
vt 0.46919248 0.37946429
vt 0.46017834 0.37946429
vt 0.45991151 0.37946429
vt 0.46019796 0.37946429
vt 0.46307287 0.33859627
vt 0.46389440 0.33504144
vt 0.46402635 0.33864656
vt 0.46329313 0.31696429
vt 0.46424569 0.31696429
vt 0.46328921 0.31696429
vt 0.46555821 0.31696429
vt 0.46460354 0.31696429
vt 0.46449627 0.31696429
vt 0.45942540 0.36129160
vt 0.45942540 0.36342888
vt 0.45942540 0.36111017
vt 0.46370975 0.37946429
vt 0.46323851 0.37946429
vt 0.46428107 0.37946429
vt 0.46381294 0.37946429
vt 0.46352833 0.37946429
vt 0.46409940 0.37946429
vt 0.47499184 0.37946429
vt 0.47497786 0.37946429
vt 0.47233774 0.31696429
vt 0.47505040 0.33824295
vt 0.45942540 0.33465357
vt 0.45942540 0.33828344
vt 0.47277336 0.37946429
vt 0.47001980 0.37946429
vt 0.47103191 0.37946429
vt 0.47173317 0.37946429
vt 0.47163025 0.37946429
vt 0.47092892 0.37946429
vt 0.47230352 0.37946429
vt 0.46066443 0.37946429
vt 0.45999116 0.37946429
vt 0.46136576 0.37946429
vt 0.46227474 0.37946429
vt 0.46056137 0.37946429
vt 0.46126263 0.37946429
vt 0.45942540 0.35502555
vt 0.45942540 0.35428222
vt 0.45942540 0.35412537
vt 0.45998773 0.37946429
vt 0.45974408 0.37946429
vt 0.45942540 0.35838004
vt 0.45942540 0.35930433
vt 0.45942540 0.35928573
vt 0.45942540 0.36914145
vt 0.45942540 0.36399056
vt 0.45942540 0.36844908
vt 0.47165115 0.37946429
vt 0.47148674 0.31696429
vt 0.45942670 0.31696429
vt 0.47475077 0.35759689
vt 0.47505040 0.34859133
vt 0.47505040 0.36100814
vt 0.47470997 0.31696429
vt 0.47473988 0.31696429
vt 0.47424988 0.37946429
vt 0.47427613 0.37946429
vt 0.45950243 0.37946429
vt 0.45951915 0.37946429
vt 0.45942540 0.33839437
vt 0.45942540 0.34261960
vt 0.45942540 0.33848854
vt 0.47498263 0.37946429
vt 0.47498267 0.37946429
vt 0.46310639 0.37946429
vt 0.46289975 0.37941675
vt 0.46412280 0.37759458
vt 0.45985748 0.37946429
vt 0.46017831 0.37946429
vt 0.45994545 0.37946429
vt 0.46009138 0.37946429
vt 0.47505040 0.33771323
vt 0.47505040 0.33780815
vt 0.47505040 0.34147139
vt 0.47398960 0.37946429
vt 0.47370316 0.37946429
vt 0.47448855 0.37946429
vt 0.47416767 0.37946429
vt 0.46361737 0.37946429
vt 0.46137000 0.37946429
vt 0.46337501 0.37946429
vt 0.46331833 0.37946429
vt 0.46131325 0.37946429
vt 0.46097849 0.37946429
vt 0.47505040 0.33686392
vt 0.47505040 0.34103742
vt 0.47505040 0.33704697
vt 0.46805934 0.31696429
vt 0.46805911 0.31696429
vt 0.46901174 0.31696429
vt 0.46826577 0.33686885
vt 0.46934410 0.33324726
vt 0.46921925 0.33681742
vt 0.45942540 0.33914352
vt 0.45942540 0.33481752
vt 0.45942540 0.33500511
vt 0.45942540 0.33706507
vt 0.45942540 0.33724393
vt 0.45942540 0.34069640
vt 0.46335385 0.37946429
vt 0.46101548 0.37946429
vt 0.46294429 0.37946429
vt 0.46290521 0.37946429
vt 0.46097637 0.37946429
vt 0.46055356 0.37946429
vt 0.47375185 0.37946429
vt 0.47330319 0.37946429
vt 0.47371275 0.37946429
vt 0.47303965 0.37946429
vt 0.47328201 0.37946429
vt 0.47333874 0.37946429
vt 0.47505040 0.33852644
vt 0.47505040 0.33492948
vt 0.47505040 0.33474550
vt 0.46349608 0.37946429
vt 0.46324569 0.37946429
vt 0.46493453 0.37946429
vt 0.46505861 0.33180164
vt 0.46347672 0.32773380
vt 0.46491518 0.32771366
vt 0.45942540 0.36088921
vt 0.45942540 0.35986169
vt 0.45942540 0.36077421
vt 0.47313515 0.37946429
vt 0.47286260 0.37946429
vt 0.47305693 0.37946429
vt 0.46526540 0.31696429
vt 0.46529791 0.31696429
vt 0.46523492 0.31696429
vt 0.46171042 0.31696429
vt 0.46250807 0.37946429
vt 0.46131877 0.37946429
vt 0.46320939 0.37946429
vt 0.46162203 0.37946429
vt 0.46150380 0.37946429
vt 0.46269278 0.37946429
vt 0.47503503 0.37946429
vt 0.47396427 0.37946429
vt 0.47414863 0.37946429
vt 0.47344731 0.37946429
vt 0.47090085 0.37946429
vt 0.47315140 0.37946429
vt 0.47295166 0.37946429
vt 0.46928332 0.33267060
vt 0.47085281 0.32907924
vt 0.47290357 0.32900529
vt 0.46117396 0.37946429
vt 0.46076409 0.37946429
vt 0.46073277 0.37946429
vt 0.46017857 0.37946429
vt 0.47417811 0.31696429
vt 0.47505040 0.32100167
vt 0.47345353 0.31893461
vt 0.46189221 0.36325453
vt 0.46177524 0.36552559
vt 0.46029730 0.36432569
vt 0.47505040 0.33645266
vt 0.47505040 0.33650167
vt 0.47505040 0.33236572
vt 0.46147030 0.33222166
vt 0.46278347 0.32864434
vt 0.46292248 0.33220610
vt 0.46140811 0.31696429
vt 0.46286023 0.31696429
vt 0.46291498 0.31696429
vt 0.45942540 0.35478558
vt 0.45942540 0.35860922
vt 0.45942540 0.35860913
vt 0.45950196 0.37946429
vt 0.46294806 0.37946429
vt 0.46059737 0.37946429
vt 0.46239472 0.37946429
vt 0.46234991 0.37946429
vt 0.46055252 0.37946429
vt 0.46008827 0.37946429
vt 0.47430716 0.37946429
vt 0.47370898 0.37946429
vt 0.47426232 0.37946429
vt 0.46123611 0.36236455
vt 0.45964353 0.36348982
vt 0.45975886 0.36121778
vt 0.45942540 0.36666592
vt 0.45942540 0.36574163
vt 0.45942540 0.36572688
vt 0.47500292 0.37946429
vt 0.47426825 0.37946429
vt 0.47494357 0.37946429
vt 0.46165415 0.37946429
vt 0.46006816 0.37946429
vt 0.45992152 0.37946429
vt 0.46238879 0.37946429
vt 0.46012755 0.37946429
vt 0.46171348 0.37946429
vt 0.45950045 0.37946429
vt 0.47164968 0.37946429
vt 0.47164994 0.37946429
vt 0.46957302 0.37946429
vt 0.46985210 0.37946429
vt 0.47126306 0.37946429
vt 0.47120576 0.37946429
vt 0.46979476 0.37946429
vt 0.47161842 0.37946429
vt 0.46720056 0.37946429
vt 0.46050019 0.37946429
vt 0.46050182 0.37946429
vt 0.47505040 0.34053903
vt 0.47505040 0.33683656
vt 0.47505040 0.34049949
vt 0.45942540 0.34059823
vt 0.45942540 0.34055852
vt 0.45942540 0.33635348
vt 0.46281329 0.37946429
vt 0.46347224 0.37946429
vt 0.46375997 0.37946429
vt 0.46271428 0.32697105
vt 0.46366086 0.32690486
vt 0.46285860 0.33052942
vt 0.45942540 0.33584218
vt 0.45942540 0.33229369
vt 0.45942540 0.33588813
vt 0.46847823 0.33259452
vt 0.46862908 0.32900126
vt 0.46957567 0.32906597
vt 0.46948273 0.37946429
vt 0.46853605 0.37946429
vt 0.46975683 0.37946429
vt 0.46168630 0.31696429
vt 0.46163893 0.31696429
vt 0.47284834 0.33586861
vt 0.47505040 0.33223633
vt 0.47505040 0.33583068
vt 0.47277023 0.31696429
vt 0.47347540 0.37946429
vt 0.47308612 0.37946429
vt 0.47341840 0.37946429
vt 0.45994495 0.31696429
vt 0.45997504 0.31696429
vt 0.46173008 0.31696429
vt 0.46171082 0.31696429
vt 0.46163084 0.33653854
vt 0.45942540 0.33649123
vt 0.45942540 0.33235532
vt 0.45942540 0.36733352
vt 0.45942540 0.36350988
vt 0.45942540 0.36733343
vt 0.46523800 0.31696429
vt 0.46528151 0.31696429
vt 0.46522429 0.31696429
vt 0.47144642 0.31696429
vt 0.47142336 0.31696429
vt 0.47140317 0.31696429
vt 0.45942540 0.34028042
vt 0.45942540 0.34030423
vt 0.45942540 0.33609928
vt 0.46500591 0.31696429
vt 0.46213858 0.31696429
vt 0.46720262 0.31696429
vt 0.47504905 0.31696429
vt 0.47294345 0.31696429
vt 0.47504896 0.31696429
vt 0.45942540 0.34507390
vt 0.45942540 0.34280773
vt 0.45942540 0.34393876
vt 0.45942540 0.33444296
vt 0.45942540 0.33635535
vt 0.45942540 0.33520691
vt 0.45942540 0.33984779
vt 0.45942540 0.34100734
vt 0.45942540 0.33961542
vt 0.46517133 0.31696429
vt 0.46213921 0.31696429
vt 0.47221191 0.31696429
vt 0.45942540 0.35563652
vt 0.45942540 0.35331808
vt 0.45942540 0.35411538
vt 0.45942540 0.35830967
vt 0.47455780 0.35814239
vt 0.45942540 0.35706152
vt 0.46371667 0.33054184
vt 0.46767129 0.33072306
vt 0.46376933 0.33244769
vt 0.46797963 0.32750039
vt 0.46809249 0.33129724
vt 0.46413768 0.33120673
vt 0.46001273 0.37700163
vt 0.45942540 0.37799640
vt 0.45942540 0.37776546
vt 0.45942540 0.37517072
vt 0.45964308 0.37510942
vt 0.45942540 0.37580310
vt 0.45942540 0.37530038
vt 0.45942540 0.37554769
vt 0.45942540 0.37548961
vt 0.45942540 0.34459762
vt 0.46003001 0.34669776
vt 0.45942540 0.34691657
vt 0.45942540 0.31943685
vt 0.46106461 0.31947842
vt 0.46500830 0.31957163
vt 0.45942540 0.32088126
vt 0.45942540 0.32085942
vt 0.45942540 0.32087559
vt 0.45942540 0.34468310
vt 0.45942540 0.34700148
vt 0.45942540 0.34543903
vt 0.46116592 0.33887045
vt 0.45942540 0.34037988
vt 0.45942540 0.33922051
vt 0.46513491 0.33943279
vt 0.46647838 0.33627416
vt 0.46910108 0.33919947
vt 0.46666651 0.33949365
vt 0.47063068 0.33893870
vt 0.47056904 0.34119733
vt 0.45942540 0.37670364
vt 0.45942540 0.37760176
vt 0.45942540 0.37762790
vt 0.45942540 0.31977928
vt 0.45966581 0.32026133
vt 0.45942540 0.32014127
vt 0.45942540 0.36179941
vt 0.47442044 0.36128785
vt 0.47458589 0.36136396
vt 0.45942540 0.32135813
vt 0.45942540 0.32132916
vt 0.45942540 0.32096182
vt 0.45942540 0.35562445
vt 0.45942540 0.35341363
vt 0.45942540 0.35330548
vt 0.47262595 0.34835430
vt 0.46875151 0.34512241
vt 0.46878955 0.34397792
vt 0.45942540 0.32560714
vt 0.45942540 0.33434095
vt 0.45942540 0.33523752
vt 0.46371126 0.34199988
vt 0.45966303 0.34070723
vt 0.46356092 0.33822380
vt 0.45942540 0.34390296
vt 0.45942540 0.34283973
vt 0.45942540 0.34129290
vt 0.26587702 0.33188414
vt 0.28150202 0.33188414
vt 0.28150202 0.31696429
vt 0.27777206 0.32084210
vt 0.26587702 0.37395971
vt 0.26587702 0.32084210
vt 0.27777205 0.37395974
vt 0.26587702 0.31696429
vt 0.26960699 0.37395974
vt 0.26960697 0.32084210
vt 0.28150202 0.32084210
vt 0.26587702 0.37395974
vt 0.28150202 0.37395974
vt 0.28150202 0.37946429
vt 0.26587702 0.37946429
vt 0.26953719 0.37395974
vt 0.27019262 0.32047135
vt 0.26953720 0.32084212
vt 0.27019260 0.37433048
vt 0.27784184 0.37395974
vt 0.27784183 0.32084212
vt 0.27718643 0.37433048
vt 0.27718641 0.32047135
vt 0.27264939 0.37433054
vt 0.27318987 0.31935910
vt 0.27264940 0.32047138
vt 0.27318986 0.37544279
vt 0.27965101 0.31935910
vt 0.27965099 0.37544279
vt 0.28019146 0.31750530
vt 0.28019146 0.37729658
vt 0.28150202 0.31750527
vt 0.28150202 0.37729658
vt 0.26587702 0.33968313
vt 0.28150202 0.34184502
vt 0.28150202 0.33968313
vt 0.26587702 0.34184502
vt 0.27472964 0.37433054
vt 0.27472963 0.32047138
vt 0.27418917 0.37544279
vt 0.27418916 0.31935910
vt 0.26772802 0.31935910
vt 0.26718757 0.37729658
vt 0.26772804 0.37544279
vt 0.26718757 0.31750530
vt 0.26587702 0.31750527
vt 0.26587702 0.37729658
vt 0.27161124 0.31696429
vt 0.26587702 0.33185263
vt 0.27581878 0.31696429
vt 0.27374101 0.31696429
vt 0.27373962 0.31696429
vt 0.27583022 0.31696429
vt 0.27582009 0.31696429
vt 0.27374113 0.31696429
vt 0.27581891 0.31696429
vt 0.27582897 0.31696429
vt 0.27374061 0.31696429
vt 0.27582841 0.31696429
vt 0.27369899 0.31696429
vt 0.27374405 0.31696429
vt 0.27370301 0.31696429
vt 0.27374044 0.31696429
vt 0.27583034 0.31696429
vt 0.27369769 0.31696429
vt 0.27582911 0.31696429
vt 0.27369149 0.31696429
vt 0.27582204 0.31696429
vt 0.27368901 0.31696429
vt 0.27369969 0.31696429
vt 0.27369760 0.31696429
vt 0.27369767 0.36160623
vt 0.28150202 0.36160517
vt 0.27594362 0.36102250
vt 0.27369792 0.35617212
vt 0.27594388 0.35555178
vt 0.27332371 0.35456174
vt 0.26587702 0.35400489
vt 0.27369774 0.35616176
vt 0.27332352 0.35455146
vt 0.26587702 0.35590832
vt 0.27369766 0.35590945
vt 0.26587702 0.35374644
vt 0.27594314 0.35535712
vt 0.28150202 0.35597810
vt 0.28150202 0.35381609
vt 0.27669323 0.34954988
vt 0.27594411 0.35111615
vt 0.28150202 0.34949693
vt 0.27332333 0.35009385
vt 0.27594352 0.35113739
vt 0.27669258 0.34957069
vt 0.27332049 0.31912723
vt 0.27668969 0.31887105
vt 0.27697948 0.31883641
vt 0.27332065 0.37946429
vt 0.27697964 0.37946429
vt 0.27745900 0.37946429
vt 0.27332092 0.37946429
vt 0.27745927 0.37946429
vt 0.27866191 0.37946429
vt 0.27332345 0.36067935
vt 0.27866448 0.36010971
vt 0.28150202 0.36010972
vt 0.27332345 0.36074047
vt 0.28150202 0.36017122
vt 0.27332345 0.36073730
vt 0.28150202 0.36016802
vt 0.28150066 0.36016803
vt 0.27332345 0.36073985
vt 0.28150066 0.36017060
vt 0.28150202 0.36017060
vt 0.27332345 0.36074143
vt 0.28150202 0.36017218
vt 0.26858987 0.36017218
vt 0.27332344 0.36074285
vt 0.26858986 0.36017361
vt 0.27162198 0.36017360
vt 0.27336204 0.35417132
vt 0.27166203 0.35353631
vt 0.27204984 0.35355662
vt 0.27335992 0.35441311
vt 0.27204762 0.35380163
vt 0.27261560 0.35382945
vt 0.27338579 0.35453546
vt 0.27265172 0.35377169
vt 0.27293932 0.35386916
vt 0.26587702 0.34646031
vt 0.27332282 0.34705834
vt 0.27286566 0.34652053
vt 0.27162222 0.37946429
vt 0.26587702 0.31929028
vt 0.27200981 0.31926772
vt 0.27162199 0.31925765
vt 0.26587702 0.31940559
vt 0.27257781 0.31939689
vt 0.27200981 0.31938303
vt 0.27286631 0.31944548
vt 0.27257781 0.31940837
vt 0.26587702 0.31941708
vt 0.27866425 0.37946429
vt 0.27866448 0.37946429
vt 0.27162199 0.37946429
vt 0.28150202 0.31931600
vt 0.27866448 0.31928338
vt 0.27746183 0.31929575
vt 0.28150202 0.31940109
vt 0.27746183 0.31938084
vt 0.27698248 0.31939239
vt 0.27669269 0.31933385
vt 0.28150202 0.31930791
vt 0.27698248 0.31929921
vt 0.08795363 0.37946429
vt 0.08418469 0.33139018
vt 0.08795363 0.33139018
vt 0.07232863 0.37946429
vt 0.07232863 0.33139018
vt 0.07609756 0.33139018
vt 0.07953507 0.37514015
vt 0.07953507 0.33139018
vt 0.08403506 0.37514015
vt 0.08403506 0.33139018
vt 0.08434716 0.37946429
vt 0.07609756 0.31696429
vt 0.07609756 0.37946429
vt 0.07953507 0.31696429
vt 0.07953507 0.37946429
vt 0.08403506 0.31696429
vt 0.08403506 0.37946429
vt 0.07593510 0.37946429
vt 0.08687259 0.31696429
vt 0.07593510 0.31696429
vt 0.08687259 0.37946429
vt 0.07340966 0.37946429
vt 0.08434716 0.31696429
vt 0.07340966 0.31696429
f 1/1 2/2 3/3
f 4/4 5/4 6/5
f 7/6 8/7 9/8
f 10/8 11/6 12/6
f 13/9 10/8 14/8
f 10/8 13/9 11/6
f 7/6 15/6 8/7
f 16/2 17/2 18/1
f 19/2 20/2 21/2
f 22/10 4/4 23/10
f 24/2 25/11 1/1
f 26/10 27/2 28/4
f 29/12 30/13 31/14
f 32/10 33/10 34/2
f 35/15 36/16 37/17
f 38/18 39/19 40/20
f 41/21 42/22 43/21
f 44/4 45/4 22/10
f 46/23 47/24 48/25
f 49/26 50/27 51/28
f 52/29 53/30 54/31
f 55/32 56/33 57/34
f 41/21 58/8 42/22
f 59/6 60/35 61/35
f 62/10 63/10 64/10
f 65/36 66/37 67/38
f 6/5 68/4 69/5
f 70/39 71/40 72/41
f 73/42 74/43 75/44
f 76/45 77/46 78/47
f 79/10 80/10 81/10
f 70/48 72/49 82/50
f 83/51 35/52 37/53
f 84/54 46/55 85/56
f 86/57 87/58 88/59
f 89/10 90/4 91/10
f 92/10 93/10 94/2
f 95/10 96/10 97/10
f 62/10 98/10 63/10
f 99/2 100/2 101/2
f 16/2 18/1 102/10
f 4/4 103/10 23/10
f 104/60 105/10 106/61
f 107/62 108/63 109/64
f 110/65 111/66 112/10
f 113/2 114/2 115/2
f 116/67 117/68 118/69
f 119/8 120/8 121/8
f 122/70 123/71 124/72
f 125/73 126/2 127/74
f 49/75 128/76 50/77
f 44/4 22/10 129/10
f 130/10 131/10 132/10
f 133/2 134/10 135/2
f 136/78 29/79 137/80
f 71/1 24/2 138/1
f 139/10 140/10 141/10
f 142/8 143/8 144/8
f 78/81 77/82 145/83
f 146/2 147/2 148/2
f 149/84 150/10 151/10
f 152/85 153/2 154/86
f 86/87 155/88 87/89
f 129/90 8/91 44/92
f 156/93 106/2 105/94
f 128/95 157/96 50/97
f 83/98 37/99 158/100
f 71/1 70/2 24/2
f 159/2 160/2 161/2
f 31/101 162/102 66/103
f 148/2 147/2 163/3
f 164/2 165/2 166/2
f 127/104 167/105 168/2
f 169/2 170/2 171/2
f 172/4 90/4 89/10
f 173/106 49/107 51/108
f 129/90 9/109 8/91
f 94/2 93/10 174/2
f 175/110 176/111 61/112
f 177/6 178/6 179/6
f 180/113 181/114 173/115
f 182/116 183/117 136/118
f 120/119 119/120 184/121
f 85/122 46/123 48/124
f 45/4 4/4 22/10
f 185/125 186/126 187/127
f 188/128 189/129 190/130
f 35/131 191/132 36/133
f 192/2 193/2 194/2
f 116/134 121/135 117/136
f 82/6 72/8 14/8
f 195/137 196/138 155/139
f 42/140 197/141 198/142
f 180/143 173/144 199/145
f 200/146 83/147 158/148
f 136/149 183/150 29/151
f 24/2 1/1 138/1
f 201/152 202/153 203/154
f 204/2 205/2 206/2
f 207/10 208/10 209/10
f 166/155 165/156 210/157
f 36/158 76/159 211/160
f 25/11 2/2 1/1
f 110/161 112/10 212/10
f 48/162 47/163 213/164
f 214/165 215/166 59/167
f 216/10 217/10 218/10
f 87/168 73/169 219/170
f 121/171 120/8 220/172
f 221/173 222/174 178/175
f 50/176 157/177 223/178
f 157/179 185/180 223/181
f 104/182 106/183 224/184
f 122/185 225/186 123/187
f 112/10 96/10 95/10
f 67/188 152/2 154/189
f 226/10 140/10 139/10
f 227/190 228/2 229/2
f 230/191 231/192 232/10
f 233/2 92/10 94/2
f 234/6 235/6 7/6
f 38/193 236/194 39/195
f 172/196 237/2 90/197
f 60/8 143/8 142/8
f 10/8 82/6 14/8
f 238/198 109/199 239/200
f 240/201 241/202 142/203
f 175/110 61/112 242/204
f 150/10 98/10 62/10
f 243/2 244/2 99/2
f 123/205 79/10 245/10
f 167/2 166/2 168/2
f 246/10 22/10 23/10
f 247/2 22/10 246/10
f 5/4 68/4 6/5
f 213/206 248/207 249/208
f 125/209 250/210 126/211
f 164/2 251/2 252/2
f 253/10 254/10 255/10
f 95/212 97/10 256/10
f 175/213 257/214 176/215
f 218/216 217/217 59/218
f 258/2 259/2 4/219
f 259/2 5/220 4/221
f 260/10 261/10 262/10
f 263/10 260/10 262/10
f 264/222 265/223 266/224
f 265/225 264/2 267/2
f 90/226 268/2 215/227
f 90/4 215/4 214/10
f 269/228 270/229 271/230
f 193/2 105/2 194/2
f 272/6 273/231 235/6
f 274/2 198/2 275/2
f 65/232 276/233 277/234
f 114/235 111/2 110/2
f 278/6 83/6 200/6
f 159/2 279/236 160/2
f 117/237 280/238 281/239
f 73/240 75/241 219/242
f 282/10 24/2 70/2
f 283/243 282/244 70/245
f 185/246 284/247 186/248
f 4/4 6/5 103/10
f 285/10 286/249 287/250
f 286/251 149/252 287/253
f 267/2 288/2 289/2
f 289/2 288/2 290/2
f 291/2 292/2 55/2
f 258/2 4/254 45/255
f 293/2 258/2 45/256
f 294/10 134/10 133/2
f 28/4 89/10 295/10
f 88/10 113/10 115/10
f 296/257 113/258 88/259
f 180/260 199/261 297/262
f 297/10 199/10 298/10
f 156/263 299/264 300/265
f 300/266 125/267 127/268
f 162/269 301/270 66/271
f 152/272 302/2 243/2
f 303/273 239/274 304/275
f 59/167 215/166 60/276
f 215/277 143/278 60/279
f 192/2 194/2 305/2
f 51/280 192/281 305/282
f 306/283 155/284 86/285
f 306/8 195/8 155/8
f 52/286 54/6 307/287
f 307/288 54/289 308/290
f 309/291 310/292 311/293
f 309/294 182/295 310/296
f 312/297 225/298 122/299
f 269/300 271/301 77/302
f 260/10 313/10 261/10
f 313/10 314/10 261/10
f 315/2 255/10 316/2
f 317/2 170/2 169/2
f 148/2 318/10 319/303
f 289/2 290/2 320/304
f 246/10 23/10 321/2
f 321/2 23/10 322/10
f 213/305 249/306 323/307
f 324/10 325/308 326/10
f 327/309 328/10 329/10
f 329/310 330/311 327/312
f 331/313 309/314 311/315
f 332/10 147/2 146/2
f 333/316 334/317 314/10
f 335/2 247/2 336/2
f 337/318 247/319 335/320
f 238/321 107/322 109/323
f 338/324 200/325 279/326
f 339/2 340/2 341/2
f 341/2 340/2 342/2
f 193/327 156/2 105/2
f 223/328 185/329 187/330
f 343/331 181/332 180/333
f 178/334 222/335 344/336
f 232/10 345/10 346/10
f 245/10 79/10 81/10
f 244/2 100/2 99/2
f 228/2 347/2 348/2
f 349/337 350/338 308/339
f 54/340 349/341 308/342
f 18/1 175/2 242/1
f 351/10 241/10 240/10
f 103/10 6/5 352/343
f 19/2 21/2 352/343
f 353/10 210/10 354/10
f 207/344 355/345 356/346
f 357/347 358/348 205/349
f 359/2 360/2 202/2
f 361/10 362/10 270/10
f 298/10 362/10 361/10
f 115/10 114/10 110/10
f 47/350 248/351 213/352
f 363/10 285/10 364/10
f 184/10 363/10 364/10
f 365/353 353/354 366/355
f 353/10 354/10 366/10
f 365/356 366/357 367/358
f 224/2 365/359 367/2
f 205/2 358/2 206/2
f 206/360 358/361 153/362
f 153/363 368/364 154/10
f 358/365 368/366 153/367
f 165/10 208/10 207/10
f 252/2 133/2 135/2
f 290/2 369/10 227/368
f 227/190 369/10 228/2
f 176/6 59/6 61/35
f 218/6 59/6 176/6
f 198/369 370/370 371/371
f 372/2 291/2 55/2
f 203/372 202/373 204/374
f 101/2 139/10 141/10
f 150/375 149/376 373/377
f 286/10 373/10 149/10
f 224/10 106/10 374/10
f 224/378 374/379 365/380
f 2/2 146/2 148/2
f 375/10 332/10 146/2
f 338/381 278/382 200/383
f 179/6 343/6 376/6
f 120/8 184/8 377/8
f 184/10 364/10 377/10
f 378/2 379/2 380/2
f 34/2 33/10 379/2
f 236/384 381/385 39/386
f 382/387 273/388 272/6
f 383/389 384/390 296/391
f 384/10 113/10 296/10
f 215/392 268/393 143/394
f 359/2 202/2 201/2
f 218/6 176/6 257/6
f 207/395 209/396 355/397
f 20/2 27/2 26/10
f 69/5 20/2 19/2
f 69/398 27/2 20/2
f 68/4 385/399 69/5
f 297/6 298/6 386/6
f 386/10 298/10 361/10
f 387/400 388/2 389/401
f 389/402 388/2 390/403
f 132/10 131/10 217/10
f 90/4 214/10 91/10
f 167/2 164/2 166/2
f 126/404 378/2 380/2
f 349/405 391/406 350/407
f 391/408 392/409 350/410
f 393/6 219/6 75/6
f 394/6 57/6 56/6
f 275/411 198/412 371/413
f 7/6 235/6 15/6
f 121/414 220/415 117/416
f 117/417 220/418 280/419
f 395/420 84/421 85/422
f 395/423 396/424 84/425
f 327/426 397/427 398/428
f 398/429 397/430 399/431
f 283/432 70/433 82/434
f 10/8 283/8 82/6
f 400/10 401/10 402/10
f 403/10 400/10 402/10
f 390/435 32/10 189/436
f 388/2 404/2 390/437
f 17/2 175/2 18/1
f 17/2 405/2 175/2
f 399/438 406/439 407/440
f 397/441 406/442 399/443
f 392/444 408/445 409/446
f 350/447 392/448 409/449
f 410/450 182/451 309/452
f 182/453 410/454 183/455
f 222/2 38/2 40/2
f 411/2 412/2 68/456
f 413/2 411/2 68/457
f 28/4 172/4 89/10
f 316/2 317/2 169/2
f 151/10 150/10 62/10
f 97/10 254/10 253/10
f 159/6 177/6 179/458
f 338/459 179/460 278/461
f 98/10 357/10 63/10
f 170/2 360/2 171/2
f 366/462 354/463 80/464
f 93/465 356/466 174/467
f 266/6 414/468 415/6
f 266/469 265/470 414/471
f 252/2 135/2 208/2
f 132/10 217/10 216/10
f 101/472 141/473 203/474
f 240/475 142/476 144/477
f 312/478 416/479 104/480
f 312/481 104/482 225/483
f 211/484 76/485 78/486
f 334/487 230/488 314/10
f 276/489 373/490 286/491
f 277/492 276/493 286/494
f 417/6 297/6 386/6
f 376/495 297/496 417/497
f 360/2 359/2 171/2
f 237/2 268/2 90/498
f 356/499 355/500 174/501
f 405/502 257/503 175/504
f 20/2 26/10 21/2
f 352/343 21/2 418/505
f 30/506 162/507 31/508
f 320/509 290/2 227/510
f 330/511 396/512 327/513
f 330/8 419/8 396/514
f 179/515 376/516 278/517
f 278/518 376/519 417/520
f 26/10 28/4 295/10
f 33/10 294/10 379/2
f 280/521 383/522 393/523
f 281/6 280/524 420/6
f 220/525 384/526 383/527
f 280/528 220/529 383/530
f 362/531 416/532 270/533
f 270/534 416/535 312/536
f 202/537 205/538 204/539
f 360/2 205/2 202/2
f 210/10 165/10 207/10
f 210/540 207/541 356/542
f 137/543 65/544 277/545
f 29/546 31/547 137/548
f 36/549 191/550 76/551
f 361/552 270/553 269/554
f 55/555 292/556 56/557
f 277/10 286/10 285/10
f 363/558 277/559 285/560
f 212/10 112/561 95/10
f 249/562 325/563 324/10
f 299/564 125/565 300/566
f 186/567 188/568 190/569
f 293/2 45/570 44/571
f 8/572 293/573 44/574
f 421/575 422/2 302/2
f 348/2 347/2 244/2
f 345/10 245/10 346/10
f 423/576 124/577 424/578
f 3/3 148/2 319/303
f 2/2 148/2 3/3
f 425/10 255/10 315/2
f 401/10 326/10 412/2
f 221/6 178/6 177/6
f 181/579 52/580 307/581
f 222/2 40/2 344/2
f 426/582 427/583 238/584
f 427/583 426/582 160/585
f 409/586 408/587 428/588
f 408/589 429/590 428/591
f 406/592 430/593 407/594
f 407/595 430/596 431/10
f 432/597 260/10 263/10
f 433/598 432/599 263/600
f 434/601 435/602 436/603
f 437/604 435/605 434/606
f 328/10 438/10 439/10
f 329/10 328/10 439/10
f 196/607 74/608 73/609
f 372/2 440/2 370/2
f 224/610 367/611 225/612
f 225/613 104/614 224/615
f 6/5 19/2 352/343
f 6/5 69/5 19/2
f 276/616 154/617 373/618
f 368/619 373/620 154/621
f 353/622 166/623 210/624
f 168/625 166/626 353/627
f 365/628 168/629 353/630
f 374/631 168/632 365/633
f 98/634 368/635 358/636
f 357/637 98/638 358/639
f 98/640 150/641 368/642
f 150/643 373/644 368/645
f 441/646 442/2 443/2
f 436/647 442/2 441/648
f 357/10 360/2 170/2
f 360/2 357/2 205/2
f 354/649 356/650 93/651
f 210/652 356/653 354/654
f 444/655 445/656 446/657
f 108/658 445/659 444/660
f 447/661 448/662 449/663
f 450/664 447/665 449/666
f 376/667 180/668 297/669
f 343/6 180/6 376/6
f 120/8 377/10 384/8
f 220/670 120/671 384/672
f 393/6 383/6 219/6
f 383/673 296/674 219/675
f 451/10 1/676 452/10
f 452/10 1/677 453/678
f 208/10 216/10 209/10
f 135/2 216/10 208/2
f 144/679 201/680 203/681
f 141/682 144/683 203/684
f 416/685 105/686 104/687
f 194/688 105/689 416/690
f 252/2 208/2 165/2
f 164/2 252/2 165/2
f 101/691 203/692 204/693
f 99/2 101/694 204/695
f 99/2 204/696 206/697
f 243/2 99/2 206/2
f 367/698 366/10 79/10
f 79/10 366/10 80/699
f 454/700 433/701 10/8
f 454/702 10/703 455/704
f 243/2 206/2 153/705
f 152/706 243/2 153/2
f 225/707 367/708 123/709
f 123/710 367/711 79/10
f 298/712 305/713 362/714
f 199/10 305/10 298/10
f 456/10 457/2 24/2
f 282/10 456/10 24/2
f 362/715 194/716 416/717
f 305/718 194/719 362/720
f 236/721 458/722 43/723
f 236/724 382/10 381/10
f 459/725 436/726 441/727
f 434/728 436/729 459/730
f 364/731 285/732 111/733
f 285/734 287/735 111/736
f 451/10 138/737 1/738
f 460/10 138/739 451/10
f 119/740 136/741 184/742
f 184/743 136/744 363/745
f 7/6 9/8 461/6
f 461/746 9/747 129/748
f 300/749 127/750 374/751
f 127/752 168/2 374/753
f 96/754 149/755 151/10
f 287/756 149/757 96/758
f 23/10 103/10 322/10
f 103/10 462/10 322/10
f 270/759 312/760 271/761
f 271/762 312/763 122/764
f 67/765 154/766 276/767
f 65/768 67/769 276/770
f 427/771 279/772 238/773
f 279/772 427/771 160/774
f 279/775 107/776 238/777
f 87/778 219/779 296/780
f 87/781 296/782 88/783
f 328/10 403/10 438/10
f 403/10 402/10 438/10
f 441/784 443/2 387/785
f 387/786 443/2 388/2
f 278/6 417/6 83/6
f 417/787 35/788 83/789
f 364/790 111/791 114/792
f 377/793 364/794 114/795
f 111/796 287/2 112/2
f 112/797 287/798 96/10
f 300/799 374/2 106/800
f 156/801 300/2 106/2
f 377/802 114/803 113/804
f 384/10 377/2 113/2
f 445/805 463/806 446/807
f 446/808 463/809 211/810
f 271/811 122/812 423/813
f 423/814 122/815 124/816
f 421/817 302/2 152/818
f 67/819 421/820 152/821
f 1/1 3/3 453/1
f 453/1 3/3 319/303
f 148/2 163/3 318/10
f 228/2 226/10 347/2
f 386/822 191/823 35/824
f 417/825 386/826 35/827
f 209/8 218/6 257/6
f 209/10 216/10 218/10
f 268/2 201/2 143/2
f 143/8 201/8 144/8
f 386/828 361/829 191/830
f 361/831 269/832 191/833
f 363/834 137/835 277/836
f 136/837 137/838 363/839
f 464/840 465/841 437/842
f 437/843 465/844 435/845
f 147/2 16/2 102/10
f 147/2 346/10 233/2
f 51/846 305/847 199/848
f 199/849 173/850 51/851
f 46/852 88/853 47/854
f 86/855 88/856 46/857
f 311/858 310/859 116/860
f 466/2 146/2 2/2
f 467/2 466/2 2/2
f 370/2 440/2 74/2
f 74/861 440/862 57/863
f 39/864 381/865 464/866
f 272/6 235/6 234/6
f 339/2 468/10 340/2
f 468/867 339/868 469/869
f 16/2 470/2 17/2
f 470/2 405/2 17/2
f 351/10 18/870 241/10
f 471/871 18/872 351/10
f 130/10 89/10 131/10
f 295/10 89/10 130/10
f 28/873 472/2 172/874
f 472/2 237/2 172/875
f 473/876 458/877 236/878
f 167/879 380/2 164/2
f 380/2 251/2 164/2
f 151/10 62/10 254/10
f 254/10 62/10 64/10
f 425/10 253/10 255/10
f 325/880 256/10 326/10
f 34/2 379/2 378/2
f 190/881 189/882 250/883
f 454/884 474/885 433/886
f 474/887 432/888 433/889
f 197/890 291/891 372/892
f 448/893 30/894 475/895
f 449/896 448/897 475/898
f 155/8 73/8 87/8
f 155/899 196/900 73/901
f 126/2 380/2 167/902
f 127/903 126/2 167/2
f 97/10 151/10 254/10
f 96/10 151/10 97/10
f 279/6 200/6 107/6
f 200/904 158/905 107/906
f 379/2 294/10 133/2
f 380/2 379/2 251/2
f 255/10 317/2 316/2
f 254/10 64/10 255/10
f 72/8 469/8 14/8
f 72/907 460/908 469/909
f 452/10 453/910 476/10
f 476/10 453/911 369/10
f 419/8 477/912 478/913
f 419/8 478/914 396/915
f 217/916 214/917 59/918
f 131/10 214/10 217/10
f 61/8 60/8 142/8
f 241/919 61/920 142/921
f 413/2 68/922 5/923
f 259/2 413/2 5/924
f 51/925 50/926 192/927
f 50/928 223/929 192/930
f 181/931 307/932 173/933
f 173/934 307/6 49/935
f 479/936 480/937 481/938
f 474/939 480/940 479/941
f 237/2 359/2 268/2
f 268/2 359/2 201/2
f 405/942 355/943 257/944
f 209/8 257/6 355/8
f 310/945 119/946 121/947
f 310/948 121/949 116/950
f 244/2 347/2 100/2
f 347/2 226/10 139/10
f 245/10 81/10 346/10
f 346/10 92/10 233/2
f 47/951 115/952 248/10
f 88/953 115/10 47/10
f 223/954 187/955 193/956
f 192/957 223/958 193/959
f 124/960 123/961 245/10
f 124/962 245/10 345/10
f 302/2 348/2 244/2
f 302/2 244/2 243/2
f 63/10 357/10 170/2
f 63/10 170/2 317/2
f 80/10 93/10 92/10
f 80/963 354/964 93/965
f 193/966 187/967 156/968
f 187/969 299/970 156/971
f 115/972 110/10 248/10
f 248/973 110/974 212/10
f 273/975 274/976 275/977
f 382/21 274/22 273/978
f 482/979 483/980 53/981
f 483/2 464/2 437/2
f 197/982 372/983 198/984
f 198/985 372/986 370/987
f 321/2 322/10 484/2
f 484/2 322/10 462/10
f 8/988 15/6 485/6
f 8/989 485/990 293/991
f 103/10 352/343 462/10
f 352/343 486/10 462/10
f 484/2 462/10 404/2
f 462/10 33/10 32/10
f 487/992 488/993 489/994
f 489/10 490/10 487/2
f 135/2 132/10 216/10
f 134/10 132/10 135/2
f 140/10 240/10 141/10
f 141/995 240/996 144/997
f 191/998 269/999 76/1000
f 76/1001 269/1002 77/1003
f 31/1004 66/1005 65/1006
f 137/1007 31/1008 65/1009
f 375/10 146/2 466/2
f 457/2 375/10 466/2
f 182/1010 119/1011 310/1012
f 119/1013 182/1014 136/1015
f 84/1016 86/1017 46/1018
f 84/1019 306/1020 86/1021
f 229/2 228/2 348/2
f 301/1022 422/2 421/1023
f 145/1024 423/1025 424/1026
f 231/1027 345/10 232/10
f 431/1028 324/10 326/10
f 430/1029 323/1030 431/10
f 230/191 491/1031 231/192
f 211/1032 491/1033 230/1034
f 52/1035 482/1036 53/1037
f 344/2 482/2 52/2
f 158/1038 445/1039 108/1040
f 107/1041 158/1042 108/1043
f 320/1044 227/1045 30/1046
f 448/1047 320/1048 30/1049
f 446/1050 211/1051 334/1052
f 334/1053 211/1054 230/1055
f 461/1056 129/1057 247/1058
f 247/2 129/10 22/10
f 471/1 102/10 18/1
f 492/1 102/10 471/1
f 265/1059 450/1060 414/1061
f 265/1062 447/1063 450/1064
f 273/1065 275/1066 493/6
f 275/1067 371/1068 477/1069
f 261/10 375/10 457/2
f 456/10 261/10 457/2
f 335/2 336/2 494/2
f 494/2 336/2 321/2
f 227/190 229/2 495/1070
f 30/1071 227/1072 495/1073
f 487/2 490/10 496/2
f 490/10 259/2 496/2
f 429/1074 189/1075 188/1076
f 428/1077 429/1078 284/1079
f 178/1080 344/1081 343/1082
f 178/6 343/6 179/6
f 307/1083 308/1084 49/1085
f 308/1086 128/1087 49/1088
f 497/1089 498/1090 282/1091
f 498/10 456/10 282/10
f 147/2 102/10 163/1092
f 163/3 102/10 318/10
f 319/303 318/10 228/2
f 318/10 102/10 492/1
f 116/1093 118/1094 499/1095
f 397/1096 85/1097 406/1098
f 395/1099 85/1100 397/1101
f 299/1102 190/1103 125/1104
f 190/1105 250/1106 125/1107
f 212/1108 95/1109 325/10
f 325/10 95/1110 256/10
f 186/1111 190/1112 299/1113
f 187/1114 186/1115 299/1116
f 249/1117 212/1118 325/10
f 248/1119 212/1120 249/1121
f 71/1122 460/1123 72/1124
f 460/10 71/1125 138/1126
f 500/1127 455/1128 10/1129
f 455/1128 500/1127 501/1130
f 54/1131 434/1132 349/1133
f 53/1134 434/1135 54/1136
f 343/1137 344/1138 181/1139
f 344/2 52/2 181/2
f 479/1140 481/1141 502/1142
f 481/1143 333/1144 502/1145
f 488/1146 503/1147 489/1148
f 488/6 15/6 503/8
f 490/10 504/10 259/2
f 504/10 413/2 259/2
f 505/2 321/2 484/2
f 494/2 321/2 505/2
f 77/1149 271/1150 423/1151
f 77/1152 423/1153 145/1154
f 66/1155 421/1156 67/1157
f 66/1158 301/1159 421/1160
f 308/1161 350/1162 128/1163
f 350/1164 409/1165 128/1166
f 447/1167 267/2 289/2
f 265/1168 267/2 447/1169
f 472/2 171/2 237/2
f 171/2 359/2 237/2
f 174/1170 355/1171 405/1172
f 470/2 174/2 405/2
f 319/303 228/2 506/1
f 453/1 319/303 506/1
f 396/1173 478/1174 306/1175
f 396/1176 306/1177 84/1178
f 89/10 91/10 131/10
f 131/10 91/10 214/10
f 18/1179 242/1180 241/10
f 241/1181 242/1182 61/1183
f 85/1184 48/1185 406/1186
f 406/1187 48/1188 430/1189
f 409/1190 428/1191 157/1192
f 128/1193 409/1194 157/1195
f 327/1196 396/1197 395/1198
f 327/1199 395/1200 397/1201
f 428/1202 284/1203 185/1204
f 157/1205 428/1206 185/1207
f 48/1208 213/1209 430/1210
f 430/1211 213/1212 323/1213
f 477/8 195/8 478/8
f 478/1214 195/1215 306/1216
f 507/1217 415/1218 331/1219
f 415/1218 507/1217 508/6
f 415/6 414/1220 331/1221
f 235/6 273/978 509/978
f 235/6 509/978 15/6
f 491/1222 145/1223 231/1224
f 145/1225 424/1226 231/1227
f 495/1228 229/2 301/1229
f 301/1230 229/2 422/2
f 340/2 452/10 342/2
f 342/2 452/10 476/10
f 239/1231 454/1232 455/1233
f 239/1234 474/1235 454/1236
f 394/6 420/6 57/6
f 394/6 281/6 420/6
f 402/10 401/10 411/2
f 401/10 412/2 411/2
f 510/1237 337/1238 335/1239
f 465/1240 337/6 510/6
f 10/8 511/8 497/8
f 511/1241 498/1242 497/1243
f 43/21 42/22 382/21
f 236/1244 43/1245 382/1246
f 446/1247 334/1248 333/1249
f 481/1250 446/1251 333/1252
f 228/2 492/1253 226/10
f 228/2 318/10 492/1
f 435/1254 512/1255 436/1256
f 436/1257 512/2 442/2
f 158/1258 37/1259 445/1260
f 445/1261 37/1262 463/1263
f 183/1264 475/1265 29/1266
f 475/1267 30/1268 29/1269
f 463/1270 36/1271 211/1272
f 37/1273 36/1274 463/1275
f 100/2 139/10 101/2
f 347/2 139/10 100/2
f 81/10 80/10 92/10
f 346/10 81/10 92/10
f 250/1276 34/2 378/2
f 250/1277 378/2 126/1278
f 256/10 97/10 253/10
f 256/10 253/10 425/10
f 513/1279 410/1280 309/1281
f 513/1282 309/1283 331/1284
f 64/10 63/10 317/2
f 255/10 64/10 317/2
f 251/2 133/2 252/2
f 379/2 133/2 251/2
f 483/2 437/2 53/2
f 53/1285 437/1286 434/1287
f 473/1288 236/1289 38/1290
f 514/2 473/2 38/2
f 504/10 402/10 413/2
f 402/10 411/2 413/2
f 505/2 484/2 388/2
f 388/2 484/2 404/2
f 449/1291 475/1292 183/1293
f 410/1294 449/1295 183/1296
f 147/2 233/2 16/2
f 233/2 470/2 16/2
f 226/10 471/1297 351/10
f 492/1298 471/1298 226/10
f 500/1299 10/8 12/6
f 469/1300 339/1301 515/1302
f 469/8 515/6 14/8
f 314/10 230/1303 332/10
f 230/191 232/10 332/10
f 211/1304 78/1305 491/1306
f 491/1307 78/1308 145/1309
f 495/1310 301/1311 162/1312
f 30/1313 495/1314 162/1315
f 74/1316 57/1317 75/1318
f 420/6 75/6 57/6
f 195/1319 371/2 196/1320
f 477/10 371/10 195/10
f 221/1321 514/1322 222/1323
f 222/2 514/2 38/2
f 382/21 42/22 274/22
f 42/1324 198/1325 274/1326
f 412/2 425/10 315/2
f 68/4 516/1327 385/399
f 58/8 517/1328 42/1328
f 340/2 518/10 452/10
f 468/10 518/10 340/2
f 13/1329 14/8 519/6
f 507/1330 331/1331 520/1332
f 159/6 179/1333 338/1334
f 159/2 338/1335 279/1336
f 33/10 295/10 294/10
f 294/10 295/10 130/10
f 315/2 316/2 28/1337
f 316/2 472/2 28/1338
f 487/2 496/2 293/2
f 293/1339 485/1340 487/1341
f 439/10 504/10 490/10
f 489/10 439/10 490/10
f 453/1342 506/1343 369/10
f 369/10 506/1 228/2
f 370/2 74/2 196/2
f 371/1344 370/1345 196/1346
f 189/1347 34/2 250/1348
f 189/1349 32/10 34/2
f 326/10 425/10 412/2
f 326/10 256/10 425/10
f 404/2 462/10 32/10
f 390/1350 404/2 32/10
f 460/1351 468/1352 469/1353
f 468/10 460/10 518/10
f 512/2 494/2 442/2
f 442/2 494/2 505/2
f 498/10 262/10 456/10
f 262/10 261/10 456/10
f 424/1354 124/1355 345/10
f 231/1356 424/1357 345/10
f 229/2 348/2 422/2
f 422/2 348/2 302/2
f 459/1358 441/1359 391/1360
f 391/1361 441/1362 387/1363
f 329/10 439/10 489/10
f 489/1364 503/1365 329/1366
f 239/1367 109/1368 474/1369
f 109/1370 480/1371 474/1372
f 512/2 335/2 494/2
f 510/1373 335/1374 512/1375
f 264/2 339/2 341/2
f 339/1376 264/1377 515/1378
f 391/1379 387/1380 392/1381
f 392/1382 387/1383 389/1384
f 399/1385 400/10 403/10
f 398/1386 399/1387 403/10
f 327/1388 398/1389 328/10
f 398/1390 403/10 328/10
f 511/1391 263/1392 498/1393
f 263/10 262/10 498/10
f 21/2 26/10 418/505
f 33/10 26/10 295/10
f 459/1394 391/1395 349/1396
f 434/1397 459/1398 349/1399
f 372/2 55/2 440/2
f 55/1400 57/1401 440/1402
f 502/1403 313/10 260/10
f 432/1404 502/1405 260/10
f 381/1406 234/6 464/1407
f 464/1408 234/6 465/1409
f 273/978 521/7 509/978
f 509/978 521/7 15/6
f 284/1410 188/1411 186/1412
f 429/1413 188/1414 284/1415
f 431/1416 323/1417 324/10
f 323/1418 249/1419 324/10
f 342/2 476/10 290/2
f 290/2 476/10 369/10
f 261/10 314/10 375/10
f 314/10 332/10 375/10
f 264/2 341/2 267/2
f 267/2 341/2 288/2
f 479/1420 502/1421 432/1422
f 474/1423 479/1424 432/1425
f 447/1426 289/2 448/1427
f 448/1428 289/2 320/1429
f 483/1430 39/1431 464/1432
f 40/1433 39/1434 483/1435
f 503/8 419/8 330/8
f 503/1436 330/1437 329/1438
f 414/1439 450/1440 513/1441
f 414/1442 513/1443 331/1444
f 522/8 455/8 501/8
f 458/1445 41/1446 43/1447
f 493/6 419/8 15/6
f 15/6 419/8 503/8
f 516/1327 315/2 385/399
f 315/2 28/1448 27/2
f 332/10 232/10 147/2
f 232/10 346/10 147/2
f 392/1449 389/1450 408/1451
f 408/1452 389/1453 390/1454
f 407/1455 401/10 400/10
f 399/1456 407/1457 400/10
f 344/2 40/2 482/2
f 40/1458 483/1459 482/1460
f 94/2 174/2 470/2
f 233/2 94/2 470/2
f 226/10 351/10 140/10
f 140/10 351/10 240/10
f 352/343 418/505 486/10
f 418/505 26/10 486/10
f 169/2 171/2 472/2
f 316/2 169/2 472/2
f 294/10 130/10 134/10
f 134/10 130/10 132/10
f 442/2 505/2 443/2
f 443/2 505/2 388/2
f 438/10 402/10 504/10
f 439/10 438/10 504/10
f 292/1461 523/1462 56/1463
f 524/6 56/6 523/6
f 462/10 486/10 33/10
f 486/10 26/10 33/10
f 273/978 493/6 521/7
f 521/7 493/6 15/6
f 496/2 259/2 258/2
f 293/2 496/2 258/2
f 431/1464 326/10 401/10
f 407/1465 431/1466 401/10
f 429/1467 390/1468 189/1469
f 408/1470 390/1471 429/1472
f 24/2 467/2 25/11
f 467/2 2/2 25/11
f 519/6 415/6 508/6
f 415/6 519/6 14/8
f 14/8 515/6 415/6
f 68/1473 412/2 516/1474
f 412/2 315/2 516/1475
f 480/1476 444/1477 481/1478
f 481/1479 444/1480 446/1481
f 69/1482 385/1483 27/2
f 385/1484 315/2 27/2
f 10/8 497/8 283/8
f 497/1485 282/1486 283/1487
f 337/1488 461/1489 247/1490
f 7/6 461/6 337/6
f 518/10 451/10 452/10
f 460/10 451/10 518/10
f 450/1491 449/1492 410/1493
f 450/1494 410/1495 513/1496
f 515/1497 264/1498 266/1499
f 515/6 266/6 415/6
f 109/1500 108/1501 480/1502
f 480/1503 108/1504 444/1505
f 457/2 466/2 467/2
f 24/2 457/2 467/2
f 465/1506 234/6 7/6
f 465/1507 7/6 337/6
f 433/1508 263/1509 511/1510
f 433/1511 511/8 10/8
f 333/1512 314/10 313/10
f 502/1513 333/1514 313/10
f 420/6 280/1515 393/1516
f 420/6 393/6 75/6
f 288/2 342/2 290/2
f 341/2 342/2 288/2
f 465/1517 510/6 435/1518
f 435/1519 510/1520 512/1521
f 517/1522 197/1523 42/1524
f 382/1525 272/6 381/1526
f 381/1527 272/6 234/6
f 247/2 246/10 336/2
f 336/2 246/10 321/2
f 493/6 477/1528 419/8
f 493/6 275/1529 477/1530
f 485/6 15/6 488/6
f 485/1531 488/1532 487/1533
f 525/21 12/8 526/1534
f 12/8 525/21 500/1535
f 526/1534 11/8 527/1536
f 11/8 526/1534 12/8
f 11/8 13/1537 527/1536
f 527/1536 519/8 528/1538
f 519/8 527/1536 13/1539
f 304/1540 522/1541 529/1542
f 520/1543 530/1544 531/1545
f 530/1546 532/1547 531/1548
f 501/1549 500/1550 525/21
f 508/8 507/1551 528/1538
f 519/8 508/8 528/1538
f 238/1552 239/1553 303/1554
f 426/1555 238/1556 303/1557
f 533/6 534/6 394/6
f 535/6 534/6 533/6
f 535/6 533/6 524/6
f 520/1558 311/1559 530/1560
f 331/1561 311/1562 520/1563
f 117/1564 281/1565 536/1566
f 118/1567 117/1568 536/1569
f 161/6 537/6 159/6
f 161/1570 538/1571 537/1572
f 161/6 539/6 538/6
f 531/1573 116/1574 499/1575
f 531/1576 532/1577 116/1578
f 524/6 394/6 56/6
f 524/1579 533/1580 394/1581
f 311/1582 116/1583 532/1584
f 311/1585 532/1586 530/1587
f 239/1588 455/1589 522/1590
f 239/1591 522/1592 304/1593
f 118/1594 281/1595 535/1596
f 118/1597 281/1598 536/1599
f 535/6 281/6 534/6
f 534/6 281/6 394/6
f 221/6 177/6 540/6
f 539/6 221/6 540/6
f 540/6 177/6 159/6
f 540/6 159/6 537/6
f 540/1600 537/1601 538/1602
f 539/1603 540/1604 538/1605
f 426/1606 304/1607 529/1608
f 426/1609 303/1610 304/1611
f 528/1612 520/1613 531/1614
f 528/10 507/8 520/8
f 529/1615 501/1616 525/1617
f 529/1618 522/1619 501/1620
f 541/1621 542/1622 543/1623
f 542/1624 544/1625 543/1626
f 545/1627 544/1625 542/1624
f 546/1623 544/1628 545/1621
f 547/1622 546/1623 545/1621
f 547/1629 548/1626 546/1625
f 547/1629 541/1630 548/1626
f 541/1631 545/1632 542/1626
f 541/1631 547/1633 545/1632
f 549/1634 550/1634 551/1635
f 551/1635 550/1634 552/1635
f 544/1636 553/1637 543/1638
f 544/1636 554/1639 553/1637
f 546/1628 554/1623 544/1623
f 546/1628 555/1628 554/1623
f 546/1640 548/1641 555/1642
f 548/1641 556/1643 555/1642
f 557/1634 558/1634 559/1635
f 558/1634 551/1635 559/1635
f 558/1634 549/1634 551/1635
f 554/1644 557/1645 553/1646
f 554/1644 560/1647 557/1645
f 557/1648 560/1649 558/1650
f 558/1650 560/1649 561/1651
f 558/1652 561/1653 549/1635
f 549/1635 561/1653 550/1635
f 555/1654 560/1655 554/1656
f 555/1654 562/1657 560/1655
f 561/1634 560/1634 562/1635
f 561/1634 562/1635 563/1635
f 550/1634 561/1634 563/1635
f 550/1634 563/1635 552/1635
f 555/1658 556/1659 562/1660
f 556/1659 564/1661 562/1660
f 564/1662 563/1663 562/1664
f 564/1662 559/1665 563/1663
f 559/1666 552/1634 563/1667
f 559/1666 551/1634 552/1634
f 541/1623 543/1628 533/1668
f 541/1669 533/1670 540/1671
f 541/1621 540/1672 548/1628
f 534/1673 533/1674 543/1623
f 540/1675 533/1676 534/1677
f 540/1678 534/1679 538/1680
f 556/1628 540/1681 538/1682
f 548/1628 540/1683 556/1628
f 534/1684 543/1623 553/1623
f 537/1685 534/1686 553/1623
f 538/1687 534/1688 537/1689
f 556/1628 538/1690 537/1691
f 537/1692 553/1693 536/1694
f 537/1695 536/1696 427/1697
f 564/1698 537/1699 427/1700
f 556/1701 537/1702 564/1703
f 536/1704 553/1705 557/1706
f 532/1707 536/1708 557/1709
f 427/1710 536/1711 532/1712
f 427/1713 532/1714 530/1715
f 427/1716 530/1717 520/1718
f 427/1719 520/1720 507/1721
f 427/1722 507/1723 508/1724
f 427/1725 508/1726 519/1726
f 427/1727 519/1728 13/1729
f 427/1730 13/1731 11/1732
f 427/1730 11/1732 12/1732
f 427/1733 12/1734 500/1735
f 427/1736 500/1737 501/1738
f 427/1739 501/1740 522/1741
f 427/1742 522/1743 304/1744
f 427/1745 304/1746 303/1747
f 564/1748 427/1749 303/1750
f 564/1635 501/1751 559/1635
f 564/1752 522/1753 501/1754
f 564/1755 304/1756 522/1757
f 303/1758 304/1759 564/1760
f 557/1634 559/1635 507/1761
f 507/1762 559/1635 501/1763
f 557/1764 507/1765 520/1766
f 557/1767 520/1768 530/1769
f 532/1770 557/1771 530/1772
f 565/1773 566/1774 567/1775
f 566/1774 565/1773 568/1776
f 566/1774 568/1776 569/1777
f 570/1778 571/1779 572/1780
f 571/1779 570/1778 573/1781
f 573/1781 570/1778 574/1782
f 575/1776 567/1783 576/1783
f 567/1783 575/1776 565/1776
f 570/1784 567/1776 566/1785
f 567/1776 570/1784 572/1786
f 567/1776 572/1786 576/1776
f 576/1776 572/1786 577/1787
f 569/1773 574/1788 566/1785
f 574/1788 569/1773 578/1773
f 574/1788 578/1773 579/1789
f 570/1784 566/1785 574/1788
f 568/1773 578/1790 569/1790
f 578/1790 568/1773 580/1773
f 575/1773 568/1776 565/1773
f 568/1776 575/1773 580/1776
f 578/1775 581/1781 579/1782
f 577/1780 575/1776 576/1777
f 575/1776 577/1780 582/1779
f 575/1776 582/1779 580/1773
f 580/1773 582/1779 581/1781
f 580/1773 581/1781 578/1775
f 571/1791 577/1790 572/1792
f 577/1790 571/1791 582/1793
f 581/1789 571/1786 573/1788
f 571/1786 581/1789 582/1787
f 581/1794 574/1795 579/1783
f 574/1795 581/1794 573/1796

