# https://github.com/mikedh/trimesh
mtllib material.mtl

o geometry_0.001
usemtl Material_0.001
v -0.00501265 0.02073646 -0.01130977
v -0.07328006 0.02013949 -0.01113634
v -0.02637705 0.02401636 -0.01302291
v -0.07940809 0.02553990 -0.01410576
v 0.03217583 0.02556350 -0.01407933
v 0.04186977 0.02023089 -0.01118186
v -0.02859642 0.02553177 -0.01401867
v -0.12266623 0.02441677 -0.01315316
v -0.11166062 0.02074348 -0.01108791
v 0.08569605 0.02079761 -0.01119161
v 0.10990091 0.02562530 -0.01382618
v 0.13496381 0.02066962 -0.01116904
v 0.17798789 0.02548669 -0.01391850
v 0.19323881 0.02350463 -0.01266777
v -0.16601744 0.02050786 -0.01132165
v -0.16662961 0.02551784 -0.01412151
v -0.22388208 0.02094619 -0.01120457
v -0.23700656 0.02578327 -0.01418340
v -0.26222402 0.02074926 -0.01162839
v -0.27974799 0.02547910 -0.01435932
v -0.30385634 0.02042072 -0.01099760
v 0.19319169 0.02090952 -0.01127886
v 0.27624765 0.02085735 -0.01134290
v 0.25596005 0.02545575 -0.01401028
v 0.30493638 0.02545329 -0.01381220
v 0.32381290 0.02024277 -0.01050110
v 0.32564902 0.02416698 -0.01291278
v -0.32232699 0.02001132 -0.01015194
v -0.30730611 0.02581631 -0.01383104
v -0.32899964 0.02446023 -0.01281411
v 0.30318928 0.02576740 -0.01403663
v 0.16023724 0.01732885 -0.00864386
v 0.01344436 0.01743051 -0.00888428
v -0.04209039 0.01736834 -0.00874976
v 0.09497041 0.01749634 -0.00845783
v 0.24927926 0.01743483 -0.00854110
v 0.19503413 0.01742293 -0.00841475
v -0.17412154 0.01737499 -0.00865088
v -0.21150117 0.01756244 -0.00835393
v -0.33245265 0.01921590 -0.00791333
v 0.33101234 0.01860301 -0.00767465
v 0.33758163 0.02408576 -0.01041746
v -0.33545116 0.02355671 -0.00999382
v -0.30453262 0.01758541 -0.00772979
v -0.33600864 0.01756275 -0.00532608
v -0.33898658 0.01994761 -0.00732323
v -0.34554788 0.02473247 -0.00796656
v 0.32907212 0.02732913 -0.01331218
v -0.33983016 0.02641897 -0.01362603
v -0.32492492 0.02745690 -0.01321232
v -0.32777134 0.02915478 -0.01413850
v 0.33777744 0.01808233 -0.00832969
v 0.34031808 0.02163379 -0.00943678
v 0.33478621 0.01468230 -0.00430505
v 0.34032357 0.00819669 -0.00815179
v 0.34496981 0.01168059 -0.00984320
v 0.34945717 0.00893796 -0.00967515
v 0.34763035 0.00409195 -0.00747381
v 0.35440221 0.00845824 -0.00851260
v 0.34996277 0.01779409 -0.01006087
v 0.34496593 0.02278492 -0.00981921
v 0.35389474 0.02378330 -0.00851296
v 0.35471117 0.00366242 -0.00460652
v 0.35681608 0.02060622 -0.00816087
v 0.35956350 0.02596759 -0.00638961
v -0.34850058 0.02063562 -0.00933711
v -0.34630251 0.01073491 -0.01034383
v -0.35296842 0.01409459 -0.01026050
v -0.35088155 0.00694859 -0.01034055
v -0.34188977 0.00875215 -0.00894144
v -0.35842934 0.00907298 -0.00828256
v -0.35345963 0.00379298 -0.00812554
v -0.35942262 0.01756670 -0.00818864
v -0.35677624 0.02246948 -0.00825989
v -0.30691752 0.03140322 -0.01240275
v 0.26192668 0.03165792 -0.01199477
v -0.00057403 0.03156013 -0.01201505
v -0.11661709 0.03161214 -0.01197272
v -0.13638034 0.02692191 -0.01350442
v 0.04374290 0.03163834 -0.01208196
v -0.23798969 0.02756722 -0.01352180
v 0.35852033 0.01168155 -0.00638507
v -0.35926676 0.02549985 -0.00653592
v -0.35898101 0.02718720 -0.00776457
v -0.35825241 0.00380673 -0.00446540
v 0.35793376 0.00479141 -0.00255137
v -0.36299485 0.01895962 -0.00467169
v -0.36277521 0.01063900 -0.00392206
v 0.36174822 0.01010394 -0.00094704
v 0.36257824 0.02757289 -0.00223171
v -0.35305300 0.02834618 -0.03852685
v -0.34301022 0.02780670 -0.02463307
v -0.37034568 0.02749575 -0.01528657
v -0.38087371 0.02805112 -0.04548549
v -0.39263237 0.02741021 -0.03399685
v -0.38953587 0.02643227 -0.00441007
v -0.39837405 0.02602610 -0.00366168
v -0.35580468 0.02913683 -0.05160692
v -0.34169978 0.02934027 -0.04751587
v -0.33108854 0.02885757 -0.03800147
v -0.33097446 0.02816568 -0.02530796
v -0.37552512 0.02709970 -0.00585587
v -0.36706582 0.02717885 0.00802482
v -0.38752925 0.02677800 0.02406093
v -0.39399633 0.02681924 0.02371588
v -0.38916197 0.02664342 0.03999856
v -0.37148553 0.02718514 0.04376335
v -0.38495925 0.02672839 0.04412545
v -0.35097882 0.02760788 0.05033501
v -0.36564508 0.02743403 0.02773046
v -0.34642154 0.02731848 0.02391222
v -0.34129292 0.02749748 0.04610536
v -0.33066577 0.02701095 0.02567034
v -0.36019671 0.02703356 0.01754386
v -0.33769479 0.02689490 0.01634034
v -0.39798492 0.02714463 0.02617599
v -0.39293322 0.02687436 0.03491245
v -0.35147348 0.02701570 -0.01069516
v -0.39780226 0.02729660 -0.02497654
v -0.36465502 0.02674553 0.00505552
v -0.33629754 0.02624167 0.01152262
v -0.32806915 0.02851572 -0.01992849
v -0.33866939 0.03017523 -0.04770734
v -0.34348777 0.02478837 -0.00852465
v -0.38347027 0.02906949 -0.04552497
v -0.35288432 0.02514422 -0.00810340
v -0.39276218 0.02906430 -0.03686317
v -0.00924783 0.03140313 0.00937548
v 0.05662824 0.03141546 0.00945155
v 0.16140148 0.03150306 0.00957910
v 0.14604896 0.02689118 0.01152612
v 0.21357766 0.02784376 0.01139468
v -0.14810672 0.02694210 0.01152439
v -0.08066250 0.02661039 0.01140293
v -0.08879221 0.03136754 0.00938341
v -0.17350256 0.03174447 0.00914502
v -0.17739375 0.02731892 0.01122541
v -0.22603881 0.02722187 0.01161349
v -0.20579389 0.03193853 0.00930188
v -0.27506351 0.03186247 0.00940255
v -0.32535166 0.03187227 0.00962074
v -0.32641280 0.02743030 0.01166377
v 0.30404165 0.03179025 0.00976288
v 0.31410396 0.02697576 0.01179270
v 0.23464166 0.03379469 0.00806699
v 0.31769747 0.03395780 0.00803979
v 0.15249933 0.03495490 0.00638384
v 0.03691306 0.03499366 0.00604086
v -0.01661011 0.03484698 0.00627732
v -0.06591932 0.03500682 0.00591437
v -0.29719433 0.03547356 0.00611716
v -0.18023399 0.03547039 0.00549006
v 0.22134808 0.03528654 0.00629787
v -0.05157535 0.03628029 0.00376503
v 0.05808767 0.03632378 0.00364813
v -0.31279254 0.03712834 0.00305715
v -0.14677146 0.03651726 0.00346247
v -0.21885499 0.03671219 0.00335229
v 0.32833382 0.03119743 0.01126614
v -0.34323663 0.01498731 0.01220758
v -0.34411585 0.00790514 0.01098636
v -0.33926961 0.01781079 0.00924014
v -0.33599234 0.01365125 0.00438342
v -0.33584017 0.01888751 0.00514990
v -0.34285817 0.02399944 0.01071452
v -0.34955108 0.01137237 0.01393775
v -0.34964079 0.00376837 0.01069349
v -0.35599443 0.02452208 0.01292655
v -0.35552463 0.00481930 0.01045266
v -0.35237294 0.00017634 0.00497903
v -0.39791867 0.03213112 0.02825858
v -0.38921654 0.03186819 0.04018395
v -0.37466511 0.02706237 0.05065448
v -0.39298072 0.03257259 0.03408581
v -0.39943016 0.02842820 -0.00854517
v -0.39825562 0.03109452 -0.02971361
v -0.39758518 0.02906350 -0.02970941
v -0.40000001 0.03183267 0.01577401
v -0.39944971 0.02893309 0.01790526
v -0.36408579 0.01116091 0.00113261
v -0.36295739 0.01228265 0.00744776
v -0.36491895 0.01754221 0.00189046
v -0.36217329 0.00692176 0.00441996
v -0.36285064 0.01774438 0.00830408
v -0.36216876 0.02481218 0.00805764
v -0.36382744 0.02530742 0.00228326
v -0.35898888 0.01567830 0.01230376
v -0.35883939 0.00387961 0.00652216
v -0.35302198 0.01097257 0.01385655
v -0.36199120 0.00696882 -0.00189786
v -0.35884187 0.00271275 0.00092620
v -0.36286578 0.02547807 -0.00228032
v -0.36385697 0.02750098 -0.00266284
v 0.32896161 0.02930737 -0.01633175
v 0.32785210 0.03124775 -0.03444710
v 0.33107170 0.02696171 -0.02222992
v 0.33059338 0.02794695 -0.03595530
v 0.32857388 0.03282030 -0.01294975
v -0.32837558 0.02839074 0.02336129
v -0.33080935 0.03008564 0.03337008
v -0.33333823 0.02743372 0.03708101
v -0.32998481 0.03296205 0.03091477
v -0.33565739 0.03207374 0.04124610
v 0.36201638 0.01927274 0.00799118
v 0.35753569 0.01542035 0.01195669
v 0.35893163 0.00830464 0.00779508
v 0.36222607 0.01077746 0.00399610
v 0.35810712 0.02542501 0.01183139
v 0.36216477 0.02681304 0.00789013
v 0.35446903 0.02196692 0.01396677
v 0.35479963 0.00863074 0.01074367
v 0.35152182 0.01417258 0.01435956
v 0.34849948 0.02082295 0.01578373
v 0.36019945 0.00674381 0.00258951
v 0.36427140 0.02049192 0.00219824
v 0.36214283 0.01907086 -0.00427944
v 0.33030349 0.02794723 0.02811581
v 0.33192500 0.03204150 0.03592115
v 0.33403704 0.02851068 0.03844342
v 0.33698931 0.02999308 0.04294360
v 0.33395156 0.02761297 0.03523147
v 0.34604427 0.02864377 -0.05068995
v 0.33914891 0.02874311 -0.04765280
v 0.33950058 0.03235535 -0.04873283
v 0.32842311 0.02924404 -0.03702074
v 0.36960271 0.02812883 -0.05003574
v 0.35687244 0.02723723 -0.02680134
v 0.36948949 0.02723411 -0.01001991
v 0.34308237 0.02658467 -0.01750858
v 0.36722711 0.02736542 -0.03872399
v 0.38227400 0.02701951 -0.03093349
v 0.38506868 0.02737489 -0.04075665
v 0.39340729 0.02745203 -0.03356765
v 0.39467230 0.02735298 -0.02862270
v 0.38611853 0.02712213 -0.00747473
v 0.36894366 0.02712256 0.02235135
v 0.38748410 0.02678536 0.02943368
v 0.36177075 0.02685674 0.04549313
v 0.34268987 0.02722872 0.02435457
v 0.36363053 0.02700258 0.00366596
v 0.38701904 0.02711019 0.04346076
v 0.39344978 0.02697155 0.03635393
v 0.39198774 0.02646271 0.00681874
v 0.39282295 0.02689458 -0.01255536
v 0.39729908 0.02715784 -0.02416171
v 0.38272876 0.02734191 -0.04535373
v 0.35453698 0.02648880 0.01501902
v 0.34819874 0.02650321 0.01803881
v 0.35120314 0.02651849 -0.01280140
v 0.33129814 0.02533793 -0.01311528
v 0.35954547 0.02694064 -0.00846927
v 0.39799502 0.02547237 0.00421432
v 0.35282665 0.02572666 -0.00997132
v 0.39772269 0.02914423 -0.02699579
v 0.38222116 0.03136437 0.04700828
v 0.37415582 0.02976745 0.05097068
v 0.37826368 0.02705692 0.04927004
v 0.39012182 0.03189847 0.04010308
v 0.36626005 0.03038044 0.05227572
v -0.36170661 0.02762580 0.05246525
v -0.35244811 0.03162969 0.05191593
v -0.37406749 0.03120417 0.05064598
v -0.34516656 0.02915250 0.04979974
v 0.33582708 0.00775413 0.00465375
v 0.33856758 0.01385067 0.01015473
v 0.33497649 0.01681137 0.00594049
v 0.33775815 0.02396132 0.01043591
v 0.33858716 0.00633155 0.00733553
v 0.34179440 0.01685486 0.01319498
v 0.34142134 0.00796331 0.01043422
v 0.34151235 0.02446356 0.01329056
v 0.34574521 0.01298557 0.01410589
v 0.34583458 0.02469153 0.01516167
v 0.33735994 0.02637220 0.01259675
v 0.34779319 0.00710533 0.01163394
v 0.36389577 0.02951911 -0.05232655
v 0.34804696 0.03138287 -0.05183442
v -0.37530228 0.03212363 -0.04973055
v -0.37269232 0.02867802 -0.05028895
v -0.38577443 0.03151607 -0.04386775
v -0.39203465 0.03184940 -0.03788086
v -0.36650971 0.03242371 -0.05148876
v -0.39984289 0.03185175 -0.01373475
v -0.39787787 0.03236386 -0.02869578
v -0.39862868 0.03420189 -0.00688994
v -0.39871562 0.03396722 0.01133169
v -0.05969187 0.03741860 -0.00391870
v -0.07344428 0.03752580 -0.00032570
v 0.00510818 0.03727038 -0.00384675
v -0.11873800 0.03733692 -0.00392737
v -0.15360801 0.03768436 -0.00045185
v 0.00214661 0.03745318 -0.00026696
v 0.09374992 0.03726899 -0.00384891
v 0.08695932 0.03748871 -0.00031944
v 0.16092266 0.03729310 -0.00392075
v 0.15779334 0.03757432 -0.00030515
v 0.25688258 0.03741843 -0.00379940
v 0.31834492 0.03787423 -0.00038857
v 0.32137454 0.03751563 -0.00378307
v 0.21732531 0.03768524 -0.00036406
v -0.23458217 0.03741907 -0.00389403
v -0.24376912 0.03782390 -0.00051394
v -0.31707212 0.03791499 -0.00049405
v -0.31764776 0.03749184 -0.00381536
v -0.33278421 0.03589292 -0.00526016
v -0.33255792 0.03629355 0.00167234
v -0.35710406 0.03598595 0.00297141
v -0.35358712 0.03539457 -0.00810167
v -0.33224550 0.03494272 -0.01404984
v -0.32861960 0.03426068 -0.03119237
v -0.35912725 0.03347564 -0.04328398
v -0.37659234 0.03348801 -0.03762330
v -0.33344290 0.03363584 -0.04119011
v -0.34508300 0.03284246 -0.04941715
v -0.37685746 0.03462742 -0.00813906
v -0.39451453 0.03295200 -0.03064832
v -0.36793810 0.03503297 -0.00012763
v -0.38988024 0.03382318 0.01747091
v -0.36032957 0.03477945 0.01022686
v -0.38040251 0.03300240 0.03828980
v -0.35802004 0.03350979 0.03822470
v -0.34604171 0.03483547 0.01257281
v -0.33189940 0.03400887 0.03056304
v -0.33163986 0.03464574 0.01102297
v -0.33969349 0.03289614 0.04526018
v 0.33542573 0.03607768 0.00238866
v -0.34563008 0.03235676 0.04957285
v 0.33420268 0.03602947 -0.00331975
v 0.36286205 0.03562506 0.00190200
v 0.34804356 0.03499804 -0.01330126
v 0.38798109 0.03458261 -0.01057516
v 0.35023361 0.03357282 -0.04003581
v 0.36956939 0.03303440 -0.04299374
v 0.33157435 0.03348121 -0.03905828
v 0.33129871 0.03474992 -0.01395112
v 0.39876375 0.03463063 -0.00657448
v 0.39573836 0.03474085 0.00700484
v 0.37810531 0.03456364 0.01282278
v 0.36720753 0.03520199 0.00225007
v 0.35784462 0.03481114 0.01131073
v 0.33206633 0.03498250 0.00969624
v 0.33123332 0.03429377 0.02481599
v 0.39492023 0.03372790 0.02275124
v 0.37814382 0.03322699 0.03525815
v 0.35270762 0.03324202 0.03862064
v 0.32803431 0.03543383 0.00648443
v 0.39865503 0.03375254 0.01988843
v 0.36234057 0.03266927 0.04298778
v 0.36270687 0.03204230 -0.05201938
v 0.32954040 0.03518558 -0.00850065
v 0.37641013 0.03183366 -0.04917160
v -0.37979972 0.03187811 0.04770072
v 0.34171644 0.03187942 0.04625964
v 0.33517596 0.03303400 0.03717672
v -0.32628614 0.03394923 -0.02635078
v 0.39724874 0.03229965 0.03052647
v 0.32828766 0.03316855 -0.03289122
v 0.27062240 0.03688338 0.00370734
v -0.33069775 0.03524663 0.00625277
v 0.31915480 0.03687944 0.00373649
v 0.20238337 0.03649243 0.00375686
v 0.14257087 0.03644014 0.00373379
v -0.32857230 0.03444013 -0.00953702
v -0.36058345 0.03137663 0.05260304
v 0.32917011 0.03306848 0.02861039
v -0.06441157 0.03639000 -0.00707056
v 0.00320352 0.03618054 -0.00696237
v 0.06426094 0.03621020 -0.00702617
v 0.13538606 0.03614734 -0.00703348
v -0.14295498 0.03622037 -0.00703035
v 0.39888042 0.03405723 -0.01242080
v 0.31044349 0.03633358 -0.00703423
v 0.21854846 0.03611952 -0.00696246
v -0.34314871 0.03223246 -0.05032127
v 0.32892755 0.03376222 0.01052922
v -0.31478441 0.03626774 -0.00671859
v -0.24190152 0.03615043 -0.00702633
v -0.32752192 0.03273886 -0.03618209
v -0.32801503 0.03293929 -0.01347339
v 0.08685996 0.03482991 0.00634552
v -0.32913095 0.03331295 0.00996066
v -0.29943410 0.03410361 -0.01023943
v -0.25389016 0.03416442 -0.01026208
v -0.16179949 0.03439747 -0.00988573
v -0.32578146 0.03202806 -0.01229455
v 0.14321263 0.03443825 -0.00967446
v 0.10799544 0.03439994 -0.00950805
v 0.32547233 0.03253884 0.01002482
v -0.06434863 0.03485946 -0.00941101
v 0.01273398 0.03431454 -0.00976625
v 0.04921665 0.03445517 -0.00975512
v 0.33127835 0.03174194 -0.04239382
v 0.30656740 0.03423522 -0.01020075
v -0.23710349 0.03428605 -0.00974933
v -0.11463303 0.03425009 -0.00974326
v 0.18727005 0.03431135 -0.00972955
v 0.24991809 0.03422338 -0.00984237
v 0.32597157 0.03181820 -0.01190282
v 0.35392365 0.02909701 0.05259857
v -0.06482907 0.03224629 -0.01183047
v -0.16662818 0.03176488 -0.01207505
v -0.24838528 0.03177142 -0.01212819
v 0.11999962 0.03150371 -0.01198346
v 0.19512935 0.03153678 -0.01202572
v 0.30350083 0.03141237 -0.01243231
v 0.35071677 0.00185803 -0.00275861
v 0.34878546 0.00190927 0.00402783
v 0.34421983 0.00163835 0.00061638
v 0.35568580 0.00320077 0.00354464
v 0.35223106 0.00355285 0.00713075
v 0.34417629 0.00336347 0.00761563
v 0.33927596 0.00288586 0.00166350
v 0.34070855 0.00341015 -0.00426991
v 0.33658397 0.00765550 -0.00430902
v 0.33513984 0.00836184 -0.00010546
v 0.34469879 0.02745517 0.04871805
v 0.34795478 0.02940812 0.05084362
v 0.36380765 0.02743296 0.05289952
v 0.34649533 0.03126834 0.04938269
v -0.33579576 0.01004922 0.00041476
v -0.34033376 0.00356858 0.00198441
v -0.34057415 0.00357343 -0.00234552
v -0.33638132 0.01082132 -0.00388779
v -0.34014842 0.00698525 -0.00637252
v -0.34554827 0.00370359 -0.00791851
v -0.34670073 0.00013644 -0.00266774
v -0.34666628 0.00005952 0.00373035
v -0.34330073 0.00304058 0.00676462
v -0.33890873 0.00855731 0.00702044
v -0.33465001 0.01737496 0.00034926
v -0.33487314 0.01747106 -0.00298252
v -0.35258558 -0.00000000 -0.00065393
v -0.35193112 0.00095575 -0.00474841
v -0.32742402 0.03008227 -0.03394865
v -0.32667848 0.03033074 -0.02412412
v -0.32950592 0.02660873 -0.01716099
v 0.32793814 0.03129162 0.02151758
v 0.32865673 0.02912313 0.02620886
v 0.38841525 0.03198595 -0.04126279
v 0.38692313 0.02853751 -0.04251030
v 0.37740809 0.02936565 -0.04904534
v 0.39039063 0.02748303 -0.03870929
v 0.39642578 0.03237358 -0.02998826
v -0.32770267 0.03039108 0.01311846
v -0.32788533 0.03265843 0.02261370
v -0.32750297 0.02788304 0.01677391
v -0.34805319 0.03011642 -0.05148171
v -0.33240607 0.03245240 -0.04294159
v -0.33201236 0.02983418 -0.04207692
v -0.36128145 0.03183085 -0.05289952
v 0.33307719 0.01693770 -0.00281715
v 0.33319241 0.01681398 0.00089935
v 0.32507348 0.01607464 -0.00317097
v 0.01073895 0.01554045 -0.00366525
v -0.05984024 0.01551680 -0.00028227
v -0.04325781 0.01569108 -0.00374437
v -0.09361829 0.01569277 -0.00379314
v 0.04073511 0.01665235 -0.00712528
v -0.07106724 0.01720196 -0.00876775
v 0.08871382 0.01575034 -0.00370295
v -0.10780909 0.01744287 -0.00849374
v -0.18618090 0.01579759 -0.00382573
v 0.19098444 0.01569083 -0.00380833
v 0.27030078 0.01585643 -0.00382117
v 0.31166244 0.01766198 -0.00840987
v -0.25496158 0.01763144 -0.00858528
v -0.29966319 0.01610438 -0.00366103
v -0.32216147 0.01628559 -0.00195509
v -0.32488123 0.01777120 -0.00671676
v 0.33429480 0.01847728 -0.00661634
v 0.19256045 0.01559829 0.00012871
v 0.09564931 0.01563180 -0.00025256
v 0.01850128 0.01550404 -0.00021897
v 0.25860348 0.01563858 0.00033458
v 0.31267098 0.01569788 -0.00037567
v -0.05592170 0.01623440 0.00269407
v -0.10710869 0.01573026 -0.00025070
v 0.00733129 0.01665673 0.00419275
v 0.07664401 0.01625775 0.00237318
v 0.13567941 0.01663485 0.00394994
v 0.19052544 0.01676743 0.00387009
v 0.25944611 0.01656337 0.00357695
v 0.31848899 0.01657343 0.00303570
v -0.13863972 0.01654920 0.00339064
v -0.26859480 0.01572109 -0.00088473
v -0.25606912 0.01661384 0.00312328
v -0.31674144 0.01681536 0.00299527
v -0.21086083 0.01615071 0.00118105
v -0.18286264 0.01569166 -0.00081382
v -0.31332061 0.01578999 -0.00097688
v -0.18077655 0.01677157 0.00335159
v -0.33273992 0.01901398 0.00564710
v 0.07986166 0.01717228 0.00467076
v 0.33340028 0.01858682 0.00581135
v -0.03513128 0.01700697 0.00458337
v -0.10593757 0.01725519 0.00461538
v -0.30654570 0.01855444 0.00663136
v -0.21731313 0.01860434 0.00677119
v -0.16139539 0.01887798 0.00705347
v 0.25848126 0.01858541 0.00709787
v 0.31526849 0.01851563 0.00658541
v 0.18469976 0.01880988 0.00726488
v 0.07187227 0.01905031 0.00737318
v -0.09967815 0.01910060 0.00729881
v -0.01789592 0.01896152 0.00736777
v 0.28756195 0.02087213 0.00922784
v -0.24234563 0.02107570 0.00897034
v -0.29955539 0.02137553 0.00927657
v 0.18490605 0.02124554 0.00924264
v 0.33006379 0.02316667 0.00998055
v -0.18511555 0.02106606 0.00880157
v -0.02871922 0.02145203 0.00925317
v 0.03303751 0.02167028 0.00931892
v -0.12237427 0.02164897 0.00925288
v -0.32889551 0.02412288 0.01025215
v -0.33902779 0.02296773 0.00820586
v 0.07827529 0.02156449 0.00933139
v 0.33372191 0.02528312 0.01068481
v 0.33153906 0.02771023 0.01379615
v -0.32883605 0.02664267 0.01200874
v -0.34638804 0.02605774 0.01431522
v -0.35099757 0.02426485 0.01314686
v -0.35645053 0.02621848 0.01404768
v -0.20045395 0.02459989 0.01056861
v -0.15404843 0.02493202 0.01063323
v -0.31012678 0.02714175 0.01186572
v 0.00622213 0.02467906 0.01071101
v -0.26457557 0.02692484 0.01166050
v 0.05288099 0.02656061 0.01146934
v 0.01014187 0.02679380 0.01138405
v 0.26693562 0.02692591 0.01179346
v 0.32907766 0.02855447 0.01181532
v 0.39794225 0.03331952 -0.02410690
v 0.40000001 0.03193617 -0.01243884
v 0.39869180 0.03159232 -0.02425407
v 0.39917898 0.02867158 -0.01171440
v 0.39783293 0.02607629 -0.01101126
v 0.39910555 0.02864376 0.02179037
v 0.39977232 0.03181410 0.02037369
v 0.39754689 0.02686987 0.02878926
vt 0.49072945 0.49565655
vt 0.40357667 0.49760604
vt 0.46346006 0.47930634
vt 0.39579171 0.47086138
vt 0.53824878 0.47182065
vt 0.55061799 0.49830580
vt 0.46063295 0.47137403
vt 0.34093422 0.47683829
vt 0.35487798 0.49515885
vt 0.60663688 0.49675298
vt 0.63759440 0.47312319
vt 0.66958284 0.49798965
vt 0.72455174 0.47459626
vt 0.74399453 0.48502195
vt 0.28596100 0.49487555
vt 0.28520387 0.47012240
vt 0.21276465 0.49306428
vt 0.19622196 0.46852815
vt 0.16460599 0.49242938
vt 0.14279895 0.46887267
vt 0.11275416 0.49309838
vt 0.74392527 0.49780279
vt 0.84961981 0.49908751
vt 0.82385951 0.47574580
vt 0.88602388 0.47701299
vt 0.90986246 0.50391656
vt 0.91221005 0.48456848
vt 0.08987337 0.49485725
vt 0.10852063 0.46674585
vt 0.08190112 0.47364241
vt 0.09292318 0.94206929
vt 0.56292355 0.01140064
vt 0.88382882 0.47562623
vt 0.69460893 0.52568251
vt 0.70183700 0.51660287
vt 0.51428789 0.51372689
vt 0.51224357 0.52280128
vt 0.44338062 0.51373410
vt 0.44321901 0.52329129
vt 0.61847293 0.51552522
vt 0.61353874 0.52568781
vt 0.80521041 0.52679133
vt 0.81530589 0.51785129
vt 0.73783541 0.52674270
vt 0.74625331 0.51742202
vt 0.27568316 0.51253778
vt 0.27914962 0.52339077
vt 0.23269661 0.52423418
vt 0.22838464 0.51219642
vt 0.07775921 0.50160807
vt 0.08187646 0.52695155
vt 0.90686947 0.53183889
vt 0.91887504 0.51676053
vt 0.92689145 0.49239659
vt 0.78656697 0.95943242
vt 0.07431060 0.48349440
vt 0.11702682 0.52669853
vt 0.11179665 0.51132143
vt 0.07373865 0.51122117
vt 0.07747523 0.54034346
vt 0.21229589 0.09704864
vt 0.07035995 0.50072509
vt 0.08695272 0.87306875
vt 0.06355546 0.48363161
vt 0.91662693 0.47147316
vt 0.67311180 0.83917695
vt 0.09455016 0.89617097
vt 0.06992513 0.46508384
vt 0.08676275 0.46033710
vt 0.08302373 0.45358461
vt 0.55685556 0.02001500
vt 0.92746061 0.51778567
vt 0.93020439 0.50230789
vt 0.92313862 0.53602701
vt 0.91291374 0.54805452
vt 0.92869771 0.81596088
vt 0.93198925 0.55238509
vt 0.93653238 0.53725404
vt 0.94139719 0.54552251
vt 0.91749501 0.90400094
vt 0.94014120 0.56563079
vt 0.94650364 0.54599023
vt 0.94124252 0.51373595
vt 0.93537402 0.49629033
vt 0.94546890 0.49055171
vt 0.92220324 0.93346614
vt 0.94858485 0.56699163
vt 0.94871759 0.50252950
vt 0.79183954 0.86898786
vt 0.95224833 0.48246896
vt 0.06057408 0.49757236
vt 0.06207552 0.53040230
vt 0.05622346 0.51832837
vt 0.05764084 0.54020917
vt 0.06622405 0.53873324
vt 0.19946055 0.07328987
vt 0.05093093 0.53285062
vt 0.05484200 0.54997987
vt 0.05021270 0.50683355
vt 0.05264476 0.49105668
vt 0.88580102 0.18243301
vt 0.10895006 0.44234610
vt 0.83148408 0.44759703
vt 0.17498231 0.16619331
vt 0.49642533 0.44398224
vt 0.50406319 0.17406315
vt 0.34857762 0.44267225
vt 0.64911687 0.17782104
vt 0.32351977 0.46379602
vt 0.55306256 0.44419348
vt 0.44855404 0.17273456
vt 0.19499201 0.46028757
vt 0.95125169 0.53492510
vt 0.04979688 0.48033035
vt 0.08730511 0.81558633
vt 0.05067624 0.47393346
vt 0.04931862 0.55245745
vt 0.48653919 0.91402781
vt 0.92400777 0.95002413
vt 0.95301926 0.56306720
vt 0.56766260 0.91819340
vt 0.04552132 0.50196922
vt 0.48451114 0.83855456
vt 0.04519922 0.52929193
vt 0.48574233 0.87557280
vt 0.95773542 0.54354262
vt 0.56794250 0.88747454
vt 0.79680806 0.85454297
vt 0.95788962 0.47623122
vt 0.56342936 0.81270361
vt 0.12566577 0.84030581
vt 0.10837477 0.88267714
vt 0.09666415 0.76777822
vt 0.13429320 0.72344041
vt 0.11995962 0.67410183
vt 0.08307071 0.68704569
vt 0.08213172 0.64983714
vt 0.34654096 0.92345279
vt 0.14191377 0.82861525
vt 0.13698840 0.88781005
vt 0.12515971 0.93243808
vt 0.10930359 0.93349028
vt 0.08489244 0.74602205
vt 0.06758817 0.78171504
vt 0.04754387 0.69562006
vt 0.04796768 0.66840851
vt 0.02765604 0.68878210
vt 0.83978701 0.09325278
vt 0.02296744 0.76317865
vt 0.83993649 0.11792475
vt 0.02251096 0.70646864
vt 0.01476379 0.84945959
vt 0.19815560 0.76384366
vt 0.47386253 0.98859936
vt 0.04298226 0.78776205
vt 0.04774011 0.86867523
vt 0.02004023 0.89020211
vt 0.47155088 0.94393039
vt 0.04553247 0.93495947
vt 0.47386253 0.84322834
vt 0.05571080 0.81070340
vt 0.05717337 0.90545046
vt 0.04488739 0.65159935
vt 0.38416743 0.92821580
vt 0.84005910 0.02442998
vt 0.03399910 0.67288977
vt 0.83999735 0.06672013
vt 0.09092513 0.84718049
vt 0.10875293 0.65218985
vt 0.31961483 0.92787552
vt 0.07127663 0.79206038
vt 0.49768534 0.80291700
vt 0.07728412 0.62700820
vt 0.06323415 0.91130769
vt 0.10279265 0.94702864
vt 0.55877155 0.04480529
vt 0.13746992 0.90100306
vt 0.70219219 0.40774548
vt 0.08776051 0.88155782
vt 0.06545555 0.48291910
vt 0.13472468 0.71177429
vt 0.98190993 0.05605650
vt 0.08681039 0.84238547
vt 0.05637277 0.48211396
vt 0.12403455 0.67179954
vt 0.99349481 0.09257036
vt 0.30445305 0.93028682
vt 0.54806930 0.67575175
vt 0.62996757 0.67591351
vt 0.76023698 0.67638606
vt 0.67691362 0.63587666
vt 0.74115074 0.65497494
vt 0.82508969 0.65921354
vt 0.31143311 0.63325715
vt 0.37545693 0.65427577
vt 0.45929483 0.65340394
vt 0.39524120 0.63245732
vt 0.44918469 0.67542338
vt 0.34388176 0.67704117
vt 0.33905792 0.65614116
vt 0.27504033 0.63418597
vt 0.27861014 0.65453517
vt 0.21459597 0.63408989
vt 0.30375353 0.67708290
vt 0.21767807 0.67619187
vt 0.15513584 0.67536235
vt 0.15402751 0.65440387
vt 0.08969186 0.63266903
vt 0.84363931 0.32550013
vt 0.93747413 0.67771715
vt 0.94994754 0.65525550
vt 0.88567358 0.63758266
vt 0.85123760 0.68846536
vt 0.95443469 0.68972528
vt 0.31202739 0.25806415
vt 0.74916321 0.69638807
vt 0.60544902 0.69690228
vt 0.53891182 0.69547296
vt 0.47761378 0.69692659
vt 0.19016334 0.69686812
vt 0.33551091 0.69929618
vt 0.83471346 0.69820613
vt 0.22568235 0.25526690
vt 0.56776649 0.25153947
vt 0.49544096 0.70762849
vt 0.43042406 0.24773699
vt 0.63177031 0.70870471
vt 0.17079961 0.71172637
vt 0.89296770 0.25568444
vt 0.37710091 0.70907325
vt 0.68658090 0.25294638
vt 0.77637815 0.25447512
vt 0.28752148 0.70980734
vt 0.96778059 0.67250729
vt 0.91096866 0.85559767
vt 0.65362638 0.38283896
vt 0.66226208 0.38639444
vt 0.65073299 0.36089963
vt 0.65693605 0.33786035
vt 0.20572509 0.14164633
vt 0.07811727 0.58561105
vt 0.65005964 0.33713353
vt 0.21248791 0.14820850
vt 0.06901494 0.61756223
vt 0.64244950 0.37557334
vt 0.65756083 0.41132277
vt 0.66742021 0.40837342
vt 0.64036787 0.43485343
vt 0.05237045 0.62561285
vt 0.51265007 0.82060236
vt 0.66762644 0.43391824
vt 0.50658613 0.90483588
vt 0.17570184 0.12303990
vt 0.67618579 0.41514277
vt 0.50100690 0.93510830
vt 0.99493593 0.36263013
vt 0.84658259 0.03166240
vt 0.38673764 0.94897997
vt 0.98412836 0.40992975
vt 0.84644663 0.09351319
vt 0.16795741 0.76765770
vt 0.84051377 0.16897362
vt 0.01436925 0.74978787
vt 0.98874706 0.38541269
vt 0.84753144 0.06355989
vt 0.34038195 0.93439364
vt 0.99799335 0.12852812
vt 0.31360781 0.94406861
vt 0.11508641 0.65095937
vt 0.31361681 0.93496394
vt 0.99862802 0.31285518
vt 0.37104669 0.94951141
vt 0.37375277 0.93693191
vt 0.49225163 0.87052536
vt 0.49966350 0.86628032
vt 0.49315017 0.84454763
vt 0.49656615 0.88736916
vt 0.50124419 0.84513134
vt 0.50232255 0.81448829
vt 0.49415395 0.81079453
vt 0.50746661 0.85669798
vt 0.50008810 0.90274274
vt 0.65816277 0.42648280
vt 0.51355278 0.88192618
vt 0.48911425 0.89090699
vt 0.49361414 0.91076541
vt 0.04430732 0.47934192
vt 0.48787290 0.80972242
vt 0.08093727 0.79510617
vt 0.04404647 0.47208178
vt 0.48753127 0.79967427
vt 0.66916138 0.83151740
vt 0.64632791 0.82474005
vt 0.77175164 0.98621303
vt 0.66186053 0.84574306
vt 0.75461096 0.98811954
vt 0.64455068 0.84404492
vt 0.91653240 0.44761693
vt 0.09121247 0.16500330
vt 0.67328173 0.81596088
vt 0.47129035 0.83069873
vt 0.46813804 0.87346500
vt 0.03128838 0.92370057
vt 0.47164896 0.89249623
vt 0.91311938 0.36759067
vt 0.46442860 0.86205918
vt 0.91956788 0.41015911
vt 0.46522200 0.91237730
vt 0.57775724 0.84444129
vt 0.58470982 0.86056370
vt 0.57987016 0.88933462
vt 0.57387167 0.88013321
vt 0.58463407 0.81920803
vt 0.80951965 0.85605931
vt 0.57734710 0.81288284
vt 0.58983940 0.83498418
vt 0.58584970 0.88992637
vt 0.59217626 0.86893427
vt 0.96078283 0.76165009
vt 0.59755588 0.84351331
vt 0.92312139 0.97557002
vt 0.57373160 0.90033567
vt 0.57021958 0.84089607
vt 0.95589811 0.50836045
vt 0.56195545 0.85083109
vt 0.83532816 0.98936319
vt 0.08846118 0.38020945
vt 0.44772509 0.28571117
vt 0.84666377 0.99281096
vt 0.91064864 0.74755698
vt 0.84806234 0.97331423
vt 0.43677995 0.29604596
vt 0.85453320 0.96494275
vt 0.84399122 0.97326499
vt 0.73638916 0.92387044
vt 0.74016255 0.95180249
vt 0.07464151 0.01433533
vt 0.73567295 0.95688432
vt 0.75281078 0.99837136
vt 0.64309353 0.83347380
vt 0.73701721 0.82610440
vt 0.76606339 0.87869561
vt 0.78701359 0.82579958
vt 0.77768159 0.93622315
vt 0.75117415 0.83565420
vt 0.76079184 0.77262902
vt 0.74847734 0.76115412
vt 0.75742942 0.72620296
vt 0.63377333 0.78693843
vt 0.76359469 0.72063613
vt 0.79011273 0.75611681
vt 0.82757610 0.82739425
vt 0.83632863 0.74956602
vt 0.85662061 0.85692507
vt 0.83026946 0.93740654
vt 0.80420744 0.84997338
vt 0.57139671 0.81280750
vt 0.85390866 0.75119656
vt 0.17378789 0.05724567
vt 0.84496248 0.72443986
vt 0.16107096 0.06177688
vt 0.80797774 0.73110276
vt 0.78371841 0.72814935
vt 0.76919740 0.70977581
vt 0.59383351 0.74599773
vt 0.74274123 0.77112579
vt 0.61350381 0.78719807
vt 0.97144240 0.76142710
vt 0.81849086 0.88783282
vt 0.59086585 0.81515920
vt 0.82217091 0.91457564
vt 0.78354686 0.90232545
vt 0.94324392 0.47802913
vt 0.91927075 0.48067784
vt 0.67328173 0.85179156
vt 0.78328258 0.98543876
vt 0.78901148 0.86752450
vt 0.80468017 0.70567602
vt 0.55838209 0.74104232
vt 0.94383276 0.48218882
vt 0.78725493 0.89611727
vt 0.76514649 0.70521170
vt 0.64369392 0.79506296
vt 0.59740114 0.75462890
vt 0.02436001 0.43424124
vt 0.18190645 0.03825450
vt 0.03473260 0.45221281
vt 0.19386730 0.04919493
vt 0.86124766 0.78773648
vt 0.18799731 0.05892491
vt 0.01398602 0.40555823
vt 0.16775444 0.03745925
vt 0.04495201 0.45531464
vt 0.39641821 0.29132164
vt 0.20353179 0.05461174
vt 0.18426545 0.76624221
vt 0.01210068 0.80433810
vt 0.93978715 0.45415515
vt 0.19637498 0.78239346
vt 0.96570039 0.45104498
vt 0.16899842 0.78664494
vt 0.84580833 0.17100978
vt 0.20571424 0.76955688
vt 0.46939778 0.96692806
vt 0.93400580 0.77079666
vt 0.94438654 0.77496594
vt 0.94148648 0.80009288
vt 0.91529524 0.62237251
vt 0.95243591 0.80842376
vt 0.93615562 0.75512105
vt 0.89496613 0.93120575
vt 0.95090777 0.77163059
vt 0.94148695 0.74913341
vt 0.95733386 0.79624891
vt 0.95088661 0.74737513
vt 0.59874153 0.88003212
vt 0.96178681 0.78224647
vt 0.81781906 0.92400962
vt 0.81563652 0.96054375
vt 0.91509289 0.63599557
vt 0.95587140 0.81596082
vt 0.94554043 0.72475570
vt 0.59377706 0.90397054
vt 0.90110540 0.97557002
vt 0.73359418 0.84985250
vt 0.15827687 0.34287006
vt 0.16214909 0.41205215
vt 0.06356522 0.00162864
vt 0.73233300 0.91773742
vt 0.97054660 0.04754490
vt 0.14034462 0.75782979
vt 0.96918505 0.03086191
vt 0.98276907 0.07128233
vt 0.98993546 0.09620374
vt 0.96028632 0.03879797
vt 0.99951595 0.19403827
vt 0.33380699 0.94897997
vt 0.99667078 0.13375729
vt 0.99644613 0.22160399
vt 0.99605358 0.29433978
vt 0.57798016 0.21874690
vt 0.59513456 0.23424780
vt 0.49686784 0.21701932
vt 0.65168548 0.22037905
vt 0.69513655 0.23602891
vt 0.50054228 0.23221672
vt 0.38578543 0.21436661
vt 0.39426792 0.22947490
vt 0.30155620 0.21200764
vt 0.30544758 0.22739983
vt 0.18121555 0.20956087
vt 0.10415064 0.22203600
vt 0.10032426 0.20785624
vt 0.23078215 0.22536719
vt 0.79602528 0.22393274
vt 0.80739266 0.23842472
vt 0.89817566 0.24056673
vt 0.89889473 0.22695029
vt 0.91752642 0.22019374
vt 0.91714156 0.24874431
vt 0.94656169 0.25643426
vt 0.94275850 0.21122754
vt 0.91735667 0.18375611
vt 0.91401809 0.11415386
vt 0.95104057 0.07055885
vt 0.97151035 0.09602094
vt 0.92025530 0.07463348
vt 0.93459427 0.04318887
vt 0.97060061 0.21414351
vt 0.99255806 0.12586987
vt 0.95966333 0.24528193
vt 0.98539233 0.31819230
vt 0.95025623 0.28626752
vt 0.97355413 0.40115261
vt 0.94677687 0.39888746
vt 0.93306190 0.29445493
vt 0.91571128 0.36586976
vt 0.91581929 0.28717148
vt 0.92467165 0.42583644
vt 0.21345596 0.78664494
vt 0.46418199 0.93676120
vt 0.08248412 0.23473954
vt 0.93167728 0.44381237
vt 0.20536780 0.78455883
vt 0.08387866 0.20975387
vt 0.04727772 0.23667413
vt 0.06554192 0.16869348
vt 0.01455217 0.18695343
vt 0.06135857 0.05391014
vt 0.03648963 0.04432297
vt 0.08519921 0.05488670
vt 0.08697643 0.16271204
vt 0.00095619 0.20586640
vt 0.00545662 0.26365072
vt 0.02823285 0.28604603
vt 0.04171219 0.23892808
vt 0.05407419 0.27663231
vt 0.08698855 0.26637948
vt 0.08856355 0.33125639
vt 0.00716767 0.33124661
vt 0.02911233 0.38261676
vt 0.06171337 0.39355612
vt 0.09192385 0.25216377
vt 0.96726429 0.69903249
vt 0.00226537 0.31950629
vt 0.53838402 0.78013027
vt 0.04959587 0.41373348
vt 0.04479611 0.00409102
vt 0.16174401 0.34792882
vt 0.08979202 0.18613434
vt 0.02739860 0.01853675
vt 0.16214909 0.28623128
vt 0.60454983 0.80944628
vt 0.97262049 0.43926376
vt 0.84658259 0.14398533
vt 0.07607220 0.42534769
vt 0.42966545 0.28501630
vt 0.08404861 0.38507760
vt 0.91095334 0.13302386
vt 0.55241007 0.07606655
vt 0.00445400 0.36547291
vt 0.15230188 0.04295695
vt 0.52516943 0.76977581
vt 0.08983506 0.08052230
vt 0.64814430 0.81611854
vt 0.16392525 0.24128747
vt 0.89592171 0.71172637
vt 0.14859632 0.69607407
vt 0.91492301 0.26791430
vt 0.10310192 0.23972666
vt 0.24948534 0.24389011
vt 0.32450268 0.24552327
vt 0.91242230 0.20122588
vt 0.94950879 0.45765471
vt 0.18593146 0.78323871
vt 0.09156257 0.34763658
vt 0.90928376 0.77978742
vt 0.58391339 0.20496327
vt 0.49928039 0.20315415
vt 0.42277569 0.20114625
vt 0.33361170 0.19884443
vt 0.68190366 0.20725203
vt 0.00048403 0.18064845
vt 0.57947338 0.78013027
vt 0.11405983 0.19359577
vt 0.22932282 0.19634444
vt 0.93228346 0.03865814
vt 0.70859408 0.41831017
vt 0.09123382 0.27029377
vt 0.96852618 0.68384695
vt 0.90755081 0.85830617
vt 0.89540553 0.21397698
vt 0.80515313 0.21002704
vt 0.91265136 0.09318072
vt 0.68199420 0.41831017
vt 0.55617541 0.11804181
vt 0.91179293 0.18442559
vt 0.08269301 0.43811071
vt 0.55227494 0.01934731
vt 0.66754836 0.69575632
vt 0.39432594 0.25996137
vt 0.15018901 0.67853111
vt 0.91240948 0.28320485
vt 0.84075511 0.35342020
vt 0.87648779 0.19629049
vt 0.82006943 0.19466579
vt 0.70541751 0.19363713
vt 0.08577607 0.44071329
vt 0.90892065 0.18665618
vt 0.32382572 0.18536180
vt 0.36797839 0.18684697
vt 0.96411204 0.67958176
vt 0.09572699 0.26938242
vt 0.58386052 0.19321752
vt 0.48737115 0.18868262
vt 0.44166020 0.18795246
vt 0.08590592 0.03888845
vt 0.74484193 0.99004751
vt 0.63552761 0.82176828
vt 0.11895277 0.17773604
vt 0.79921228 0.19602573
vt 0.64660841 0.19224560
vt 0.26858118 0.18342400
vt 0.19000933 0.18076003
vt 0.91287214 0.45077580
vt 0.09454282 0.16643888
vt 0.06080152 0.45765471
vt 0.41201055 0.29299217
vt 0.41438481 0.44028175
vt 0.58449364 0.17826742
vt 0.71146625 0.17943442
vt 0.28524977 0.44178104
vt 0.81327754 0.18183935
vt 0.18195549 0.44122541
vt 0.65053064 0.44648099
vt 0.35296512 0.17039794
vt 0.74642611 0.44725931
vt 0.25876057 0.16797590
vt 0.12279547 0.16253626
vt 0.88434720 0.45038152
vt 0.91637999 0.92941564
vt 0.90928727 0.94659764
vt 0.90754193 0.92339718
vt 0.91653156 0.96393877
vt 0.57888222 0.92019546
vt 0.91015148 0.96741080
vt 0.58544946 0.91819340
vt 0.90167576 0.94688421
vt 0.93728793 0.72750992
vt 0.90171158 0.91321260
vt 0.92771572 0.75294071
vt 0.90793574 0.89667654
vt 0.93205935 0.57491857
vt 0.92678946 0.56094879
vt 0.90266490 0.87785017
vt 0.92400777 0.78921783
vt 0.89734101 0.88586593
vt 0.92934555 0.78327000
vt 0.86079562 0.92839324
vt 0.42436990 0.30456030
vt 0.41978115 0.29367089
vt 0.86592448 0.84824222
vt 0.39979008 0.30456018
vt 0.20667957 0.07003260
vt 0.07009452 0.43970591
vt 0.42239496 0.28515327
vt 0.20252050 0.12134600
vt 0.19283019 0.12172830
vt 0.19367154 0.10429585
vt 0.20379877 0.10366726
vt 0.19811702 0.08838010
vt 0.06210964 0.55463612
vt 0.19098242 0.07347476
vt 0.18529071 0.09481490
vt 0.05990123 0.57491857
vt 0.18345858 0.12316573
vt 0.67618585 0.38891912
vt 0.66991776 0.37764210
vt 0.18853812 0.14102787
vt 0.66276801 0.35819238
vt 0.19749120 0.14820850
vt 0.07958336 0.56408167
vt 0.21180704 0.12483460
vt 0.07919240 0.54982638
vt 0.21231720 0.10938072
vt 0.17706366 0.09768593
vt 0.49355090 0.94140279
vt 0.17915688 0.07959175
vt 0.05518651 0.56462801
vt 0.48780075 0.94625407
vt 0.12038428 0.94951141
vt 0.55896306 0.10675961
vt 0.55660647 0.06421483
vt 0.09892952 0.93943584
vt 0.56131613 0.03155094
vt 0.91138130 0.81112939
vt 0.83310312 0.99837124
vt 0.91432720 0.79089272
vt 0.01243312 0.05454189
vt 0.62229729 0.80736196
vt 0.74605209 0.75267261
vt 0.61979556 0.79175287
vt 0.73727292 0.79288632
vt 0.15902852 0.28175896
vt 0.60549045 0.79767269
vt 0.75105584 0.73892707
vt 0.62633806 0.78664494
vt 0.00268618 0.10424286
vt 0.63980275 0.80944628
vt 0.60164571 0.77087390
vt 0.08813035 0.64657980
vt 0.84517109 0.34020877
vt 0.91070122 0.33381921
vt 0.85721201 0.35342014
vt 0.46566147 0.82573521
vt 0.05653822 0.94951141
vt 0.47287601 0.80293161
vt 0.85007554 0.33001220
vt 0.14220712 0.86130762
vt 0.71477580 0.40715045
vt 0.91887188 0.06633306
vt 0.69237602 0.41856676
vt 0.13041222 0.92916185
vt 0.69135040 0.40553749
vt 0.56292355 0.14169383
vt 0.14569215 0.80582249
vt 0.95424914 0.03087384
vt 0.73136497 0.41435051
vt 0.90925610 0.55415398
vt 0.91989237 0.53152561
vt 0.93593824 0.81323016
vt 0.90933871 0.57026058
vt 0.89923507 0.55264926
vt 0.50886589 0.54621780
vt 0.42115545 0.56015915
vt 0.44176492 0.54557842
vt 0.37918282 0.54529238
vt 0.54614884 0.53135777
vt 0.40720907 0.52337909
vt 0.40638110 0.51399028
vt 0.60574853 0.54700279
vt 0.36155120 0.52408952
vt 0.35974717 0.51334268
vt 0.26416034 0.54479551
vt 0.73279154 0.54747391
vt 0.83128327 0.54818571
vt 0.89454478 0.51824945
vt 0.88267648 0.52879351
vt 0.17868841 0.52314806
vt 0.17365743 0.51115853
vt 0.12313274 0.54486823
vt 0.09515947 0.55293024
vt 0.08657010 0.51119745
vt 0.09156508 0.53216916
vt 0.92292535 0.51934922
vt 0.91097832 0.53676748
vt 0.73473769 0.56412512
vt 0.61435413 0.56165874
vt 0.51850176 0.56083065
vt 0.81674606 0.56554830
vt 0.88381332 0.56380957
vt 0.42601943 0.57310063
vt 0.36241576 0.56022179
vt 0.50461155 0.57996935
vt 0.59073508 0.57290143
vt 0.66406804 0.58022839
vt 0.73219866 0.58068246
vt 0.81777889 0.57977408
vt 0.89102155 0.57855302
vt 0.32322881 0.57584226
vt 0.16174051 0.55678678
vt 0.17730041 0.57416362
vt 0.10194834 0.57372415
vt 0.23348239 0.56605774
vt 0.26827952 0.55753851
vt 0.10618180 0.55654895
vt 0.27086121 0.57581222
vt 0.08200589 0.58770257
vt 0.59472603 0.58340359
vt 0.90958345 0.59265250
vt 0.94219738 0.81012201
vt 0.45184937 0.58182156
vt 0.36386499 0.58201784
vt 0.11460110 0.59068280
vt 0.22544670 0.59199113
vt 0.29493889 0.59396970
vt 0.81656855 0.59687114
vt 0.88703346 0.59544522
vt 0.72495246 0.59739137
vt 0.58479244 0.59724432
vt 0.37163624 0.59581906
vt 0.47325769 0.59630990
vt 0.85265607 0.61023384
vt 0.19433893 0.60579997
vt 0.12325343 0.60708296
vt 0.72519886 0.61065471
vt 0.90548438 0.61920452
vt 0.26545441 0.60565948
vt 0.45980132 0.60938662
vt 0.53653365 0.61076659
vt 0.34342563 0.60918671
vt 0.08666165 0.61723959
vt 0.07398871 0.60699570
vt 0.64424771 0.35519910
vt 0.59274006 0.61076218
vt 0.91019642 0.62837553
vt 0.81740463 0.98522633
vt 0.90823102 0.64657980
vt 0.08658873 0.63029301
vt 0.06256924 0.94270432
vt 0.84389818 0.32410419
vt 0.05980949 0.86885434
vt 0.06438237 0.63451797
vt 0.05863449 0.62530321
vt 0.64125031 0.41280550
vt 0.06013324 0.82660705
vt 0.05179090 0.63424772
vt 0.51355278 0.81162751
vt 0.24638925 0.62227833
vt 0.30405346 0.62394524
vt 0.17409863 0.65334594
vt 0.11001166 0.63327539
vt 0.50320852 0.62458324
vt 0.23072086 0.65309447
vt 0.16670403 0.63292402
vt 0.62531376 0.65347487
vt 0.56117648 0.63344908
vt 0.57217830 0.65436763
vt 0.50807446 0.63398385
vt 0.89136750 0.65516222
vt 0.82704049 0.63793314
vt 0.96853822 0.66088837
vt 0.81498796 0.99636590
vt 0.90432942 0.64331579
vt 0.91432720 0.85341990
vt 0.00113824 0.13017696
vt 0.59403551 0.77429330
vt 0.57920629 0.76979589
vt 0.59400892 0.76612216
vt 0.64714426 0.80685472
vt 0.57825506 0.75528210
vt 0.78564161 0.70693862
vt 0.57737827 0.74265254
vt 0.53652662 0.75618953
vt 0.53827202 0.77020818
vt 0.83549035 0.70730847
vt 0.52774495 0.74668187
vt 0.15053242 0.07003260
f 533/797 535/799 443/670
f 533/797 534/798 535/799
f 533/797 371/544 534/798
f 347/506 356/523 539/805
f 443/669 535/800 254/383
f 535/799 534/798 254/384
f 254/384 534/798 536/801
f 534/798 538/804 536/801
f 534/798 539/805 538/804
f 539/805 356/523 540/807
f 539/805 540/807 538/804
f 254/384 536/801 245/365
f 245/365 536/801 537/803
f 536/801 252/379 537/803
f 536/801 538/804 252/379
f 252/379 538/804 540/807
f 439/660 443/669 442/667
f 442/667 443/669 233/349
f 443/669 254/383 233/349
f 356/522 258/392 242/361
f 254/382 234/350 233/348
f 234/350 254/382 245/364
f 540/808 356/522 242/361
f 252/378 540/806 242/360
f 439/660 442/667 440/662
f 242/361 258/392 241/359
f 537/802 252/378 243/362
f 537/802 243/362 244/363
f 243/362 252/378 242/360
f 245/364 244/363 234/350
f 234/350 244/363 235/351
f 442/666 233/348 232/347
f 244/363 243/362 235/351
f 243/362 242/360 237/353
f 440/661 442/666 232/347
f 440/661 232/347 246/366
f 233/348 231/346 232/347
f 233/348 234/350 231/346
f 231/346 234/350 235/351
f 235/351 243/362 237/353
f 439/660 440/662 441/665
f 351/513 439/660 441/665
f 440/662 246/367 441/665
f 255/386 257/390 241/359
f 235/351 237/353 236/352
f 242/360 241/358 237/353
f 232/347 231/346 230/345
f 231/346 235/351 228/343
f 235/351 236/352 228/343
f 349/509 351/512 276/426
f 441/663 246/366 226/341
f 246/366 232/347 226/341
f 236/352 240/356 228/343
f 257/390 256/388 418/624
f 241/358 257/389 238/354
f 241/358 238/354 237/353
f 441/663 226/341 276/425
f 226/341 232/347 230/345
f 230/345 231/346 227/342
f 228/343 240/356 90/128
f 240/356 236/352 209/314
f 231/346 228/343 227/342
f 238/354 257/389 418/622
f 90/130 240/357 215/323
f 240/357 209/315 215/323
f 90/130 215/323 216/325
f 215/323 209/315 204/309
f 216/325 215/323 89/127
f 215/323 207/312 89/127
f 215/323 204/309 207/312
f 89/127 207/312 214/322
f 228/343 90/128 251/377
f 251/377 90/128 65/89
f 65/90 90/129 216/324
f 209/315 208/313 204/309
f 247/369 209/314 236/352
f 236/352 237/353 238/354
f 82/113 216/324 89/126
f 204/309 205/310 206/311
f 82/113 89/126 86/120
f 89/127 214/322 86/121
f 207/312 206/311 214/322
f 226/341 230/345 222/335
f 65/90 216/324 64/88
f 236/352 238/354 239/355
f 238/354 418/622 416/619
f 208/313 210/316 205/310
f 216/324 82/113 64/88
f 64/88 82/113 59/82
f 82/113 86/120 59/82
f 59/82 86/120 63/87
f 86/119 214/321 409/604
f 214/322 206/311 409/605
f 349/509 276/426 277/427
f 276/425 226/341 222/335
f 230/345 227/342 197/296
f 418/623 399/588 416/620
f 227/342 228/343 229/344
f 228/343 251/377 249/372
f 228/343 249/372 229/344
f 249/372 251/377 253/381
f 251/377 65/89 253/381
f 253/380 65/90 62/85
f 65/90 64/88 62/85
f 247/369 236/352 248/371
f 62/85 64/88 60/83
f 64/88 59/82 60/83
f 211/317 275/423 410/607
f 409/605 206/311 410/607
f 63/86 86/119 406/601
f 86/119 409/604 406/601
f 277/429 276/425 222/335
f 222/335 230/345 197/296
f 253/380 62/85 61/84
f 248/371 236/352 239/355
f 62/85 60/83 61/84
f 60/83 59/82 57/79
f 57/79 59/82 58/81
f 59/82 63/87 58/81
f 63/86 406/601 58/80
f 406/601 409/604 407/602
f 409/604 410/606 407/602
f 223/336 222/335 197/296
f 416/620 399/588 417/621
f 247/369 248/371 273/418
f 239/355 238/354 221/334
f 57/79 56/78 60/83
f 410/606 275/424 411/608
f 406/601 407/602 408/603
f 407/602 410/606 411/608
f 273/418 248/371 274/419
f 61/84 60/83 56/78
f 56/78 57/79 55/77
f 57/79 58/81 55/77
f 58/80 406/601 413/612
f 406/601 408/603 413/612
f 408/603 407/602 411/608
f 197/296 227/342 196/294
f 248/371 239/355 274/419
f 227/342 229/344 196/294
f 249/372 253/381 42/55
f 253/380 61/84 53/73
f 253/380 53/73 42/54
f 273/417 274/421 271/414
f 61/84 56/78 53/73
f 53/73 56/78 55/77
f 58/81 413/613 55/77
f 413/612 408/603 412/610
f 408/603 411/608 412/610
f 274/419 239/355 519/767
f 221/334 416/619 219/331
f 219/331 416/619 220/333
f 196/294 229/344 250/376
f 229/344 249/372 250/376
f 267/409 271/414 274/421
f 53/73 52/72 42/54
f 53/73 55/77 52/72
f 224/338 223/336 392/578
f 519/767 239/355 221/334
f 249/373 42/54 250/374
f 42/54 52/72 470/715
f 52/72 54/74 470/715
f 52/72 55/77 54/74
f 54/74 55/77 414/614
f 414/615 412/610 415/617
f 412/611 264/405 415/618
f 412/611 268/410 264/405
f 392/578 223/336 225/339
f 223/336 197/296 225/339
f 274/420 519/768 518/766
f 519/767 221/334 217/326
f 217/326 221/334 219/331
f 42/54 470/715 250/374
f 518/766 510/757 494/740
f 470/716 451/689 41/52
f 197/297 196/295 225/340
f 196/295 194/292 225/340
f 196/295 48/66 194/292
f 518/766 519/768 532/794
f 519/767 217/326 532/793
f 532/793 217/326 438/657
f 217/326 219/331 218/329
f 217/326 218/329 438/657
f 470/715 41/53 250/374
f 198/298 48/65 398/585
f 48/65 250/374 27/27
f 250/374 26/26 27/27
f 250/374 41/53 26/26
f 41/52 451/689 453/693
f 451/689 452/692 453/693
f 452/692 494/740 483/729
f 483/729 494/740 501/748
f 452/692 483/729 475/721
f 26/26 41/53 465/707
f 41/52 453/693 465/708
f 350/510 398/586 393/580
f 398/585 48/65 25/25
f 48/65 27/27 25/25
f 398/585 25/25 405/600
f 27/27 26/26 25/25
f 465/708 453/693 464/706
f 453/693 475/721 464/706
f 405/600 25/25 31/33
f 26/26 465/707 23/23
f 26/26 23/23 25/25
f 31/33 25/25 24/24
f 76/103 405/600 31/33
f 483/729 501/748 500/747
f 475/721 483/729 482/728
f 483/729 500/747 482/728
f 475/721 482/728 474/720
f 464/706 475/721 474/720
f 23/23 465/707 36/43
f 25/25 23/23 24/24
f 465/708 464/706 36/42
f 76/103 31/33 24/24
f 23/23 36/43 22/22
f 464/706 474/720 471/717
f 24/24 23/23 14/14
f 14/14 23/23 22/22
f 76/103 24/24 404/597
f 404/597 24/24 13/13
f 36/42 464/706 463/705
f 464/706 471/717 463/705
f 482/728 500/747 481/727
f 481/727 500/747 502/749
f 36/42 463/705 37/44
f 13/13 24/24 14/14
f 22/22 36/43 37/45
f 37/44 463/705 32/34
f 22/22 37/45 32/35
f 404/597 13/13 403/595
f 22/22 32/35 12/12
f 14/14 22/22 12/12
f 13/13 14/14 12/12
f 481/727 502/749 480/726
f 403/595 13/13 11/11
f 32/34 463/705 460/701
f 463/705 471/717 460/701
f 460/701 471/717 472/718
f 471/717 480/726 472/718
f 13/13 12/12 11/11
f 12/12 32/35 35/40
f 480/726 502/749 493/739
f 32/34 460/701 35/41
f 493/739 502/749 503/750
f 12/12 35/40 10/10
f 472/718 480/726 479/725
f 11/11 12/12 10/10
f 35/41 460/701 458/698
f 403/595 11/11 5/5
f 10/10 35/40 33/36
f 35/41 458/698 33/37
f 10/10 33/36 6/6
f 460/701 472/718 473/719
f 472/718 479/725 473/719
f 11/11 10/10 5/5
f 403/595 5/5 80/110
f 5/5 10/10 6/6
f 473/719 479/725 478/724
f 458/698 460/701 454/694
f 460/701 473/719 454/694
f 493/739 503/750 478/724
f 5/5 6/6 1/1
f 5/5 1/1 3/3
f 80/110 5/5 77/105
f 513/760 529/787 530/789
f 478/724 503/750 505/752
f 1/1 6/6 33/36
f 5/5 3/3 7/7
f 513/760 527/783 512/759
f 458/698 454/694 33/37
f 77/105 5/5 7/7
f 478/724 505/752 495/742
f 1/1 33/36 34/38
f 454/694 473/719 455/695
f 473/719 478/724 476/722
f 473/719 476/722 455/695
f 33/37 454/694 456/696
f 454/694 455/695 456/696
f 33/37 456/696 34/39
f 389/574 390/575 400/590
f 77/105 7/7 4/4
f 400/589 77/105 4/4
f 7/7 3/3 4/4
f 2/2 34/38 459/700
f 4/4 3/3 2/2
f 34/39 456/696 457/697
f 34/39 457/697 459/699
f 456/696 455/695 457/697
f 495/742 505/752 496/743
f 496/743 505/752 504/751
f 4/4 2/2 8/8
f 400/589 4/4 78/107
f 2/2 459/700 461/703
f 459/699 457/697 461/702
f 78/107 4/4 79/109
f 389/574 400/590 395/582
f 8/8 2/2 9/9
f 2/2 461/703 9/9
f 457/697 455/695 477/723
f 455/695 476/722 477/723
f 477/723 476/722 484/730
f 514/761 134/197 133/194
f 496/743 504/751 499/746
f 496/743 499/746 484/730
f 461/702 457/697 462/704
f 457/697 477/723 462/704
f 78/107 79/109 401/592
f 4/4 8/8 16/16
f 8/8 9/9 15/15
f 9/9 461/703 15/15
f 461/702 462/704 38/47
f 462/704 477/723 489/735
f 477/723 484/730 489/735
f 15/15 461/703 38/46
f 511/758 514/761 525/780
f 484/730 499/746 491/737
f 8/8 15/15 16/16
f 489/735 484/730 488/734
f 511/758 525/780 524/779
f 491/737 499/746 498/745
f 401/592 79/109 81/112
f 16/16 15/15 17/17
f 15/15 38/46 17/17
f 38/47 462/704 39/48
f 17/17 38/46 39/49
f 401/592 81/112 402/594
f 16/16 17/17 18/18
f 511/758 524/779 507/754
f 39/48 462/704 466/709
f 488/734 491/737 486/732
f 491/737 498/745 486/732
f 17/17 39/49 466/710
f 466/709 462/704 467/711
f 462/704 489/735 467/711
f 18/18 17/17 19/19
f 19/19 17/17 466/710
f 467/711 489/735 485/731
f 18/18 19/19 20/20
f 488/734 486/732 485/731
f 486/732 498/745 497/744
f 19/19 466/710 21/21
f 21/21 466/710 44/58
f 466/709 467/711 44/57
f 467/711 485/731 490/736
f 402/594 81/112 75/102
f 20/20 19/19 21/21
f 485/731 486/732 487/733
f 486/732 497/744 487/733
f 75/102 81/112 20/20
f 508/755 528/785 526/782
f 485/731 487/733 490/736
f 75/102 20/20 29/29
f 20/20 21/21 28/28
f 20/20 28/28 29/29
f 75/102 29/29 50/69
f 29/29 28/28 30/30
f 21/21 44/58 469/713
f 44/57 467/711 468/712
f 44/57 468/712 469/714
f 467/711 490/736 468/712
f 21/21 469/713 28/28
f 75/102 50/69 385/568
f 50/69 29/29 30/30
f 490/736 487/733 468/712
f 378/556 355/520 434/652
f 355/520 435/653 434/652
f 355/520 379/559 435/653
f 445/675 199/301 446/677
f 469/714 468/712 431/644
f 468/712 430/642 431/644
f 468/712 487/733 430/642
f 487/733 497/744 492/738
f 448/682 378/555 449/684
f 379/558 385/568 51/70
f 381/564 445/674 444/672
f 445/675 202/306 200/302
f 449/685 378/556 434/652
f 435/653 379/559 51/71
f 435/653 51/71 122/176
f 385/568 50/69 51/70
f 520/771 444/672 446/678
f 445/675 200/302 199/301
f 434/652 435/653 122/176
f 122/176 51/71 436/655
f 50/69 30/30 51/70
f 436/655 51/71 30/32
f 28/28 40/50 30/30
f 28/28 469/713 40/50
f 430/642 487/733 492/738
f 309/463 305/459 363/533
f 202/306 203/308 200/302
f 200/302 203/308 201/304
f 449/683 434/651 100/141
f 434/651 122/175 100/141
f 100/141 122/175 101/142
f 122/175 436/654 101/142
f 446/676 113/159 520/770
f 446/677 199/301 113/160
f 199/301 200/302 201/304
f 199/301 201/304 113/160
f 30/30 40/50 43/56
f 492/738 515/762 516/763
f 469/714 431/644 40/51
f 448/682 449/684 123/178
f 121/174 520/770 115/162
f 520/770 113/159 115/162
f 436/654 30/31 49/67
f 30/30 43/56 49/68
f 40/50 45/59 43/56
f 492/738 516/763 164/241
f 40/51 431/644 45/60
f 430/642 492/738 164/241
f 431/645 430/643 423/630
f 423/630 430/643 420/627
f 430/643 164/243 420/627
f 420/627 164/243 163/240
f 448/682 123/178 374/548
f 203/308 325/481 263/404
f 203/308 263/404 112/158
f 123/177 449/683 99/140
f 449/683 100/141 99/140
f 100/141 101/142 92/132
f 101/142 436/654 49/67
f 201/304 203/308 112/158
f 49/68 43/56 124/180
f 113/159 201/303 112/157
f 43/56 46/62 124/180
f 43/56 45/59 46/62
f 164/242 162/238 163/239
f 431/645 423/630 45/61
f 45/61 423/630 70/96
f 163/239 162/238 429/640
f 70/96 423/630 424/631
f 163/240 429/641 420/627
f 424/631 423/630 422/629
f 423/630 420/627 422/629
f 420/627 421/628 422/629
f 420/627 429/641 421/628
f 325/480 327/484 263/403
f 101/142 49/67 92/132
f 121/173 521/773 165/244
f 121/174 115/162 521/772
f 115/162 113/159 111/156
f 111/156 113/159 112/157
f 516/764 165/245 162/238
f 45/59 70/95 46/62
f 425/633 70/96 424/631
f 429/640 161/237 428/638
f 424/631 422/629 425/633
f 421/628 429/641 428/639
f 374/548 123/178 447/680
f 123/177 99/140 447/679
f 100/141 92/132 91/131
f 115/162 111/156 521/772
f 112/157 109/152 111/156
f 124/180 46/62 47/64
f 66/91 46/62 67/92
f 46/62 70/95 67/92
f 425/633 422/629 426/634
f 422/629 421/628 426/634
f 426/634 421/628 427/636
f 421/628 428/639 427/636
f 447/679 99/140 98/139
f 99/140 100/141 91/131
f 49/67 124/179 118/168
f 165/244 521/773 522/774
f 67/92 70/95 69/94
f 70/95 425/632 69/94
f 427/637 428/638 167/247
f 521/772 111/156 523/776
f 111/156 109/152 110/155
f 112/158 263/404 109/154
f 124/179 47/63 126/183
f 124/179 126/183 118/168
f 66/91 67/92 68/93
f 67/92 69/94 68/93
f 69/94 425/632 72/98
f 425/632 433/649 72/98
f 425/632 426/635 433/649
f 427/637 167/247 170/254
f 426/634 432/646 433/648
f 426/634 427/636 432/646
f 427/636 170/253 432/646
f 374/548 447/680 450/688
f 98/139 99/140 91/131
f 92/132 118/168 84/115
f 109/153 263/403 260/396
f 118/168 126/183 84/115
f 66/91 68/93 74/100
f 170/254 167/247 169/251
f 447/679 98/139 450/686
f 91/131 92/132 93/133
f 92/132 84/115 93/133
f 523/776 111/156 114/161
f 114/161 111/156 110/155
f 84/116 126/184 83/114
f 126/184 74/100 83/114
f 74/100 68/93 73/99
f 73/99 68/93 71/97
f 68/93 69/94 71/97
f 69/94 72/98 71/97
f 72/98 433/649 85/117
f 433/650 432/647 85/118
f 85/118 432/647 191/286
f 432/647 170/255 191/286
f 170/255 188/282 191/286
f 170/255 169/252 188/282
f 109/152 107/149 110/155
f 74/100 73/99 83/114
f 71/97 85/117 88/124
f 169/252 187/281 181/275
f 71/97 72/98 85/117
f 98/139 91/131 279/431
f 93/133 84/115 193/289
f 523/776 114/161 120/171
f 109/152 260/397 107/149
f 73/99 71/97 87/122
f 87/122 71/97 88/124
f 317/471 308/462 315/469
f 450/686 98/139 279/431
f 193/289 120/171 103/144
f 120/171 114/161 103/144
f 114/161 110/155 103/144
f 91/131 93/133 94/134
f 93/133 193/289 102/143
f 282/435 450/687 278/430
f 450/687 279/432 278/430
f 102/143 193/289 103/144
f 103/144 110/155 102/143
f 107/149 260/397 173/263
f 279/431 91/131 94/134
f 110/155 107/149 104/145
f 278/430 279/432 125/182
f 279/431 94/134 125/181
f 102/143 110/155 104/145
f 104/145 107/149 106/147
f 107/149 108/151 106/147
f 107/149 173/263 108/151
f 93/133 102/143 96/136
f 96/136 102/143 104/145
f 94/134 95/135 125/181
f 94/134 93/133 95/135
f 93/133 96/136 95/135
f 104/145 106/147 105/146
f 105/146 106/147 117/166
f 280/433 125/182 127/186
f 125/181 95/135 127/185
f 95/135 96/136 97/137
f 96/136 104/145 105/146
f 95/135 177/269 127/185
f 119/169 95/135 97/137
f 96/136 105/146 97/137
f 105/146 117/166 116/163
f 116/165 117/167 171/257
f 97/137 105/146 116/163
f 533/796 336/493 371/543
f 336/493 337/494 347/505
f 337/494 343/500 347/505
f 347/505 343/500 356/521
f 245/364 537/802 244/363
f 533/796 331/488 336/493
f 331/488 337/494 336/493
f 343/500 258/391 356/521
f 439/659 533/796 443/668
f 331/488 338/495 337/494
f 338/495 343/500 337/494
f 344/501 258/391 343/500
f 439/659 333/490 533/796
f 344/501 255/385 258/391
f 255/386 241/359 258/392
f 351/511 333/490 439/659
f 333/490 331/488 533/796
f 343/500 338/495 344/501
f 344/501 348/507 255/385
f 255/386 256/388 257/390
f 339/496 338/495 331/488
f 276/426 351/512 441/664
f 255/385 259/393 256/387
f 349/508 333/490 351/511
f 339/496 340/497 338/495
f 348/507 259/393 255/385
f 259/395 418/624 256/388
f 332/489 331/488 333/490
f 329/486 340/497 339/496
f 331/488 329/486 339/496
f 345/502 348/507 344/501
f 204/309 206/311 207/312
f 326/482 340/497 329/486
f 332/489 330/487 331/488
f 330/487 329/486 331/488
f 338/495 345/502 344/501
f 399/588 418/623 259/394
f 247/370 208/313 209/315
f 208/313 205/310 204/309
f 205/310 211/317 206/311
f 348/507 419/625 259/393
f 419/625 399/587 259/393
f 247/370 210/316 208/313
f 210/316 212/318 205/310
f 212/318 211/317 205/310
f 211/317 410/607 206/311
f 277/428 224/337 349/508
f 224/337 332/489 349/508
f 349/508 332/489 333/490
f 338/495 342/499 345/502
f 345/502 353/516 348/507
f 353/516 419/625 348/507
f 419/626 417/621 399/588
f 247/370 213/320 210/316
f 213/320 212/318 210/316
f 212/318 275/423 211/317
f 416/619 221/334 238/354
f 273/417 213/319 247/368
f 213/320 272/416 212/318
f 272/416 275/423 212/318
f 330/487 328/485 329/486
f 334/491 330/487 332/489
f 340/497 342/499 338/495
f 342/499 353/516 345/502
f 273/417 269/412 213/319
f 269/412 272/415 213/319
f 328/485 326/482 329/486
f 224/337 334/491 332/489
f 222/335 223/336 224/338
f 222/335 224/338 277/429
f 353/517 417/621 419/626
f 416/620 417/621 353/517
f 271/414 269/412 273/417
f 269/412 270/413 272/415
f 270/413 269/412 265/406
f 272/415 270/413 275/422
f 270/413 411/609 275/422
f 412/610 411/608 268/411
f 268/410 411/609 270/413
f 335/492 328/485 330/487
f 326/482 341/498 340/497
f 335/492 330/487 334/491
f 342/499 354/518 353/516
f 353/517 220/332 416/620
f 267/409 265/406 269/412
f 267/409 269/412 271/414
f 266/407 265/406 267/409
f 264/405 265/406 266/407
f 265/406 268/410 270/413
f 264/405 268/410 265/406
f 413/613 414/614 55/77
f 413/612 412/610 414/615
f 392/577 334/491 224/337
f 341/498 342/499 340/497
f 218/327 353/516 354/518
f 218/328 220/332 353/517
f 274/420 518/766 267/408
f 518/766 494/740 267/408
f 494/741 266/407 267/409
f 54/74 451/690 470/715
f 54/75 452/692 451/689
f 452/691 266/407 494/741
f 54/76 415/618 452/691
f 415/618 264/405 266/407
f 415/618 266/407 452/691
f 414/616 415/618 54/76
f 350/510 328/485 335/492
f 365/536 354/518 342/499
f 365/536 218/327 354/518
f 218/329 219/331 220/333
f 196/295 250/375 48/66
f 350/510 299/453 328/485
f 299/453 326/482 328/485
f 326/482 346/503 341/498
f 392/577 357/524 334/491
f 392/579 195/293 357/525
f 334/491 357/524 335/492
f 195/293 194/292 357/525
f 357/524 198/299 335/492
f 357/525 194/292 198/300
f 198/299 350/510 335/492
f 346/503 375/549 341/498
f 375/549 342/499 341/498
f 159/235 437/656 375/551
f 375/549 365/536 342/499
f 375/551 437/656 365/537
f 225/340 195/293 392/579
f 225/340 194/292 195/293
f 194/292 48/66 198/300
f 532/795 438/658 437/656
f 532/795 437/656 159/235
f 437/656 438/658 365/537
f 365/537 438/658 218/330
f 532/794 510/757 518/766
f 299/453 298/452 326/482
f 298/452 360/530 326/482
f 360/530 346/503 326/482
f 398/586 350/510 198/299
f 346/503 388/573 375/549
f 388/572 159/234 375/550
f 510/757 501/748 494/740
f 146/214 388/572 346/504
f 388/572 532/792 159/234
f 475/721 453/693 452/692
f 372/545 299/453 350/510
f 532/794 144/212 510/757
f 146/214 143/210 388/572
f 388/572 144/211 532/792
f 393/580 372/545 350/510
f 143/210 144/211 388/572
f 506/753 501/748 510/757
f 405/599 393/580 398/586
f 144/212 506/753 510/757
f 372/545 297/451 299/453
f 297/451 298/452 299/453
f 298/452 358/526 360/530
f 358/526 346/503 360/530
f 346/504 145/213 146/214
f 145/213 143/210 146/214
f 143/210 531/790 144/211
f 76/104 393/580 405/599
f 531/791 506/753 144/212
f 506/753 500/747 501/748
f 76/104 397/584 393/580
f 393/580 373/546 372/545
f 373/546 297/451 372/545
f 358/527 153/222 346/504
f 153/222 145/213 346/504
f 297/451 300/454 298/452
f 300/454 358/526 298/452
f 397/584 373/546 393/580
f 143/210 132/193 531/790
f 404/598 397/584 76/104
f 300/454 361/531 358/526
f 361/531 153/223 358/526
f 145/213 130/190 143/210
f 130/190 132/193 143/210
f 531/791 509/756 506/753
f 509/756 500/747 506/753
f 482/728 471/717 474/720
f 396/583 373/546 397/584
f 404/598 396/583 397/584
f 509/756 502/749 500/747
f 481/727 471/717 482/728
f 131/191 509/756 531/791
f 132/193 131/192 531/790
f 373/546 295/449 297/451
f 295/449 300/454 297/451
f 153/222 147/216 145/213
f 147/216 130/190 145/213
f 295/449 296/450 300/454
f 296/450 361/531 300/454
f 361/531 147/215 153/223
f 296/450 362/532 361/531
f 362/532 147/215 361/531
f 130/190 131/192 132/193
f 386/570 373/546 396/583
f 386/570 369/541 373/546
f 369/541 295/449 373/546
f 403/596 386/570 404/598
f 404/598 386/570 396/583
f 481/727 480/726 471/717
f 131/191 517/765 509/756
f 403/596 387/571 386/570
f 369/541 293/447 295/449
f 293/447 294/448 295/449
f 295/449 294/448 296/450
f 294/448 362/532 296/450
f 387/571 369/541 386/570
f 517/765 502/749 509/756
f 387/571 368/540 369/541
f 368/540 293/447 369/541
f 362/532 380/561 147/215
f 380/560 130/190 147/216
f 517/765 503/750 502/749
f 294/448 155/226 362/532
f 155/226 380/561 362/532
f 129/189 131/192 130/190
f 493/739 479/725 480/726
f 380/560 129/189 130/190
f 80/111 387/571 403/596
f 529/787 517/765 131/191
f 80/111 391/576 387/571
f 148/217 129/189 380/560
f 155/227 148/217 380/560
f 129/189 529/786 131/192
f 391/576 368/540 387/571
f 513/760 503/750 517/765
f 529/787 513/760 517/765
f 493/739 478/724 479/725
f 368/540 289/443 293/447
f 289/443 294/448 293/447
f 80/111 390/575 391/576
f 289/443 292/446 294/448
f 292/446 155/226 294/448
f 77/106 390/575 80/111
f 128/188 529/786 129/189
f 390/575 368/540 391/576
f 148/217 128/188 129/189
f 513/760 505/752 503/750
f 390/575 367/539 368/540
f 367/539 289/443 368/540
f 128/188 530/788 529/786
f 530/789 527/783 513/760
f 155/227 149/218 148/217
f 149/218 128/188 148/217
f 512/759 505/752 513/760
f 292/446 154/224 155/226
f 154/225 149/218 155/227
f 530/789 512/759 527/783
f 495/742 476/722 478/724
f 389/574 367/539 390/575
f 289/443 288/442 292/446
f 288/442 154/224 292/446
f 77/106 400/590 390/575
f 389/574 366/538 367/539
f 366/538 287/441 367/539
f 367/539 287/441 289/443
f 287/441 288/442 289/443
f 134/197 512/759 530/789
f 154/225 150/219 149/218
f 150/219 128/188 149/218
f 128/188 134/196 530/788
f 1/1 34/38 2/2
f 1/1 2/2 3/3
f 150/219 135/198 128/188
f 135/198 134/196 128/188
f 496/743 476/722 495/742
f 514/761 505/752 512/759
f 134/197 514/761 512/759
f 514/761 504/751 505/752
f 366/538 290/444 287/441
f 290/444 288/442 287/441
f 154/225 152/221 150/219
f 152/221 135/198 150/219
f 389/574 370/542 366/538
f 370/542 290/444 366/538
f 78/108 395/582 400/590
f 395/582 370/542 389/574
f 288/442 157/231 154/224
f 157/230 152/221 154/225
f 290/444 291/445 288/442
f 291/445 157/231 288/442
f 496/743 484/730 476/722
f 152/221 136/199 135/198
f 514/761 499/746 504/751
f 384/567 370/542 395/582
f 136/199 133/195 135/198
f 133/195 134/196 135/198
f 401/591 395/582 78/108
f 401/591 384/567 395/582
f 16/16 79/109 4/4
f 133/194 525/780 514/761
f 511/758 499/746 514/761
f 136/199 137/200 133/195
f 137/201 525/780 133/194
f 139/204 137/200 136/199
f 491/737 488/734 484/730
f 291/445 158/232 157/231
f 158/233 152/221 157/230
f 137/201 524/779 525/780
f 18/18 79/109 16/16
f 370/542 301/455 290/444
f 301/455 291/445 290/444
f 511/758 498/745 499/746
f 18/18 81/112 79/109
f 301/455 302/456 291/445
f 302/456 158/232 291/445
f 152/221 139/204 136/199
f 384/567 377/553 370/542
f 377/553 301/455 370/542
f 394/581 377/553 384/567
f 138/202 137/200 139/204
f 402/593 394/581 401/591
f 401/591 394/581 384/567
f 138/203 524/779 137/201
f 507/754 498/745 511/758
f 140/205 138/202 139/204
f 138/203 507/754 524/779
f 528/785 507/754 138/203
f 302/456 156/229 158/232
f 156/228 152/221 158/233
f 402/593 383/566 394/581
f 140/205 528/784 138/202
f 488/734 485/731 489/735
f 383/566 377/553 394/581
f 156/228 151/220 152/221
f 151/220 139/204 152/221
f 151/220 140/205 139/204
f 507/754 497/744 498/745
f 528/785 508/755 507/754
f 402/593 382/565 383/566
f 382/565 377/553 383/566
f 20/20 81/112 18/18
f 301/455 303/457 302/456
f 303/457 156/229 302/456
f 377/553 304/458 301/455
f 304/458 303/457 301/455
f 508/755 497/744 507/754
f 75/101 382/565 402/593
f 382/565 376/552 377/553
f 376/552 304/458 377/553
f 140/205 526/781 528/784
f 141/206 526/781 140/205
f 75/101 363/533 382/565
f 363/533 376/552 382/565
f 151/220 141/206 140/205
f 156/228 359/528 151/220
f 359/528 141/206 151/220
f 141/206 142/207 526/781
f 142/208 515/762 526/782
f 526/782 515/762 508/755
f 385/569 363/533 75/101
f 515/762 497/744 508/755
f 363/533 305/459 376/552
f 305/459 304/458 376/552
f 303/457 306/460 156/229
f 306/460 359/529 156/229
f 515/762 492/738 497/744
f 305/459 306/460 303/457
f 305/459 303/457 304/458
f 378/554 310/464 355/519
f 379/557 363/533 385/569
f 141/206 381/562 142/207
f 381/564 444/672 142/209
f 444/671 520/769 142/208
f 446/678 444/672 445/674
f 520/769 515/762 142/208
f 448/681 313/467 378/554
f 313/467 310/464 378/554
f 310/464 309/463 355/519
f 355/519 309/463 379/557
f 309/463 363/533 379/557
f 359/529 324/478 381/563
f 359/528 381/562 141/206
f 324/478 445/673 381/563
f 324/478 323/477 445/673
f 445/673 323/477 202/305
f 520/769 516/763 515/762
f 306/460 324/478 359/529
f 323/477 325/479 202/305
f 202/305 325/479 203/307
f 121/173 516/763 520/769
f 374/547 313/467 448/681
f 322/476 323/477 324/478
f 307/461 322/476 306/460
f 306/460 322/476 324/478
f 314/468 313/467 374/547
f 121/173 165/244 516/763
f 516/764 162/238 164/242
f 162/238 160/236 429/640
f 160/236 161/237 429/640
f 309/463 308/462 305/459
f 314/468 311/465 313/467
f 310/464 308/462 309/463
f 322/476 321/475 323/477
f 165/245 160/236 162/238
f 66/91 47/64 46/62
f 313/467 311/465 310/464
f 49/67 118/168 92/132
f 66/91 126/184 47/64
f 165/245 522/775 160/236
f 522/775 166/246 160/236
f 160/236 166/246 161/237
f 166/246 167/247 161/237
f 167/247 428/638 161/237
f 308/462 307/461 305/459
f 305/459 307/461 306/460
f 311/465 308/462 310/464
f 319/473 321/475 322/476
f 321/475 325/479 323/477
f 261/399 263/403 327/484
f 523/777 522/774 521/773
f 189/283 167/247 166/246
f 450/687 314/468 374/547
f 321/475 327/483 325/479
f 261/399 260/396 263/403
f 523/777 168/249 522/774
f 74/100 126/184 66/91
f 168/248 189/283 166/246
f 168/248 166/246 522/775
f 189/283 169/251 167/247
f 307/461 319/473 322/476
f 450/687 282/435 314/468
f 282/435 311/465 314/468
f 364/535 260/396 261/399
f 168/250 187/281 189/284
f 187/281 169/252 189/284
f 327/483 364/534 261/398
f 83/114 192/287 193/290
f 83/114 193/290 84/116
f 523/778 185/279 168/250
f 120/172 185/279 523/778
f 73/99 87/122 83/114
f 83/114 87/122 192/287
f 185/279 187/281 168/250
f 184/278 187/281 185/279
f 85/118 190/285 88/125
f 181/275 188/282 169/252
f 183/277 188/282 181/275
f 85/118 191/286 190/285
f 191/286 183/277 190/285
f 191/286 188/282 183/277
f 192/288 186/280 120/172
f 192/288 120/172 193/291
f 186/280 185/279 120/172
f 87/123 182/276 192/288
f 192/288 182/276 186/280
f 182/276 184/278 185/279
f 182/276 185/279 186/280
f 88/125 182/276 87/123
f 182/276 181/275 184/278
f 88/125 180/274 182/276
f 180/274 181/275 182/276
f 184/278 181/275 187/281
f 190/285 180/274 88/125
f 180/274 183/277 181/275
f 190/285 183/277 180/274
f 317/471 307/461 308/462
f 307/461 317/471 319/473
f 278/430 311/465 282/435
f 312/466 308/462 311/465
f 312/466 315/469 308/462
f 320/474 327/483 321/475
f 262/401 173/261 364/535
f 364/535 173/261 260/396
f 320/474 352/514 327/483
f 352/514 262/400 327/483
f 327/483 262/400 364/534
f 278/430 312/466 311/465
f 317/471 318/472 319/473
f 125/182 280/433 278/430
f 315/469 318/472 317/471
f 318/472 320/474 319/473
f 320/474 321/475 319/473
f 352/515 173/262 262/402
f 278/430 316/470 312/466
f 352/515 108/150 173/262
f 280/433 281/434 278/430
f 281/434 316/470 278/430
f 316/470 285/439 312/466
f 312/466 285/439 315/469
f 320/474 174/264 352/514
f 174/264 172/259 352/514
f 108/150 352/515 172/260
f 315/469 286/440 318/472
f 318/472 174/264 320/474
f 106/148 108/150 172/260
f 285/439 286/440 315/469
f 286/440 174/264 318/472
f 127/186 281/434 280/433
f 281/434 284/438 316/470
f 281/434 176/267 284/438
f 171/257 172/260 174/265
f 127/186 176/267 281/434
f 127/187 177/270 176/268
f 171/257 117/167 172/260
f 172/260 117/167 106/148
f 95/135 119/169 177/269
f 284/438 285/439 316/470
f 176/267 283/436 284/438
f 284/438 283/436 285/439
f 283/436 178/271 285/439
f 285/439 178/271 286/440
f 286/440 171/256 174/264
f 178/271 171/256 286/440
f 177/270 119/170 176/268
f 119/170 175/266 283/437
f 119/170 283/437 176/268
f 175/266 178/272 283/437
f 175/266 179/273 178/272
f 178/272 179/273 171/258
f 179/273 116/164 171/258
f 119/170 97/138 175/266
f 97/138 116/164 179/273
f 97/138 179/273 175/266

